<svg xmlns="http://www.w3.org/2000/svg" width="50" height="50" viewBox="0 0 50 50">
  <g id="Grupo_1117582" data-name="Grupo 1117582" transform="translate(-829.914 -972)">
    <rect id="Rectángulo_410298" data-name="Rectángulo 410298" width="50" height="50" transform="translate(829.914 972)" fill="none"/>
    <g id="Grupo_1117577" data-name="Grupo 1117577" transform="translate(829.2 973.857)">
      <path id="Trazado_888438" data-name="Trazado 888438" d="M40,32.342v-.786a7.182,7.182,0,0,0-2.117-5.111.837.837,0,0,1-.077-1.089,7.453,7.453,0,0,0,1.48-4.442,7.357,7.357,0,0,0-2.169-5.235l-.689-.689V12.428a.714.714,0,0,0-.714-.714H35a9.276,9.276,0,0,0-6.5-8.853l.071-1.1A.714.714,0,0,0,27.857,1H23.571a.714.714,0,0,0-.714.761l.071,1.1a9.276,9.276,0,0,0-6.5,8.853h-.714a.714.714,0,0,0-.714.714V14.99l-.689.689a7.357,7.357,0,0,0-2.169,5.235,7.449,7.449,0,0,0,1.481,4.444.839.839,0,0,1-.078,1.089,7.182,7.182,0,0,0-2.117,5.109v.786A5.68,5.68,0,0,0,10,36.1v8.468a.714.714,0,0,0,.714.714h30a.714.714,0,0,0,.714-.714V36.1A5.68,5.68,0,0,0,40,32.342ZM35.418,16l.689.689a5.936,5.936,0,0,1,1.75,4.225A6.016,6.016,0,0,1,36.662,24.5a2.271,2.271,0,0,0,.21,2.956,5.753,5.753,0,0,1,1.679,3.706,5.746,5.746,0,0,0-1.134-.511L30,28.332V27.086a9.286,9.286,0,0,0,5-8.229V16ZM18.571,30.721V36H17.143V31.167ZM17.857,16H33.571v2.857a7.857,7.857,0,0,1-15.714,0Zm7.857,12.143a9.243,9.243,0,0,0,2.857-.454v1.08a2.945,2.945,0,0,1-5.714,0v-1.08a9.243,9.243,0,0,0,2.857.454Zm-4.027,1.6a4.365,4.365,0,0,0,8.054,0l1.687.527V36H20V30.275Zm14.027,7.681v6.428h-20V37.428ZM32.857,36V30.721l1.429.446V36ZM30.871,11.714l.981-4.9a7.849,7.849,0,0,1,1.719,4.9Zm-.229-6.123-1.229,6.123H27.906L28.4,4.33a7.81,7.81,0,0,1,2.244,1.261ZM27.093,2.429l-.619,9.286H24.953l-.619-9.286Zm-3.571,9.286H22.014L20.789,5.591A7.81,7.81,0,0,1,23.03,4.33Zm-3.946-4.9.981,4.9h-2.7a7.85,7.85,0,0,1,1.72-4.9Zm-3.148,6.332H35v1.429H16.428ZM14.556,27.454a2.273,2.273,0,0,0,.211-2.956,6.012,6.012,0,0,1-1.195-3.584,5.936,5.936,0,0,1,1.75-4.225L16.01,16h.419v2.857a9.286,9.286,0,0,0,5,8.229v1.246L14.01,30.65a5.746,5.746,0,0,0-1.134.511A5.753,5.753,0,0,1,14.556,27.454ZM11.429,36.1a4.267,4.267,0,0,1,3.007-4.091l1.279-.4V36H15a.714.714,0,0,0-.714.714v7.143H11.429ZM40,43.856H37.142V36.714A.714.714,0,0,0,36.428,36h-.714V31.614l1.279.4A4.267,4.267,0,0,1,40,36.1Z" transform="translate(0)" fill="#144735"/>
      <rect id="Rectángulo_410299" data-name="Rectángulo 410299" width="1.4" height="2.815" transform="translate(21.725 16.95)" fill="#144735"/>
      <rect id="Rectángulo_410300" data-name="Rectángulo 410300" width="1.4" height="2.815" transform="translate(28.293 16.95)" fill="#144735"/>
      <path id="Trazado_888439" data-name="Trazado 888439" d="M30.571,33.571A3.576,3.576,0,0,0,34.143,30H32.714a2.143,2.143,0,1,1-4.286,0H27A3.576,3.576,0,0,0,30.571,33.571Z" transform="translate(-4.857 -8.286)" fill="#144735"/>
      <rect id="Rectángulo_410301" data-name="Rectángulo 410301" width="1.876" height="1.876" transform="translate(17.034 38.53)" fill="#144735"/>
      <rect id="Rectángulo_410302" data-name="Rectángulo 410302" width="1.876" height="1.876" transform="translate(32.046 38.53)" fill="#144735"/>
    </g>
  </g>
</svg>
