<svg xmlns="http://www.w3.org/2000/svg" width="50" height="50" viewBox="0 0 50 50">
  <g id="Grupo_1117579" data-name="Grupo 1117579" transform="translate(-1144.914 -974)">
    <rect id="Rectángulo_410303" data-name="Rectángulo 410303" width="50" height="50" transform="translate(1144.914 974)" fill="none"/>
    <g id="Grupo_1117578" data-name="Grupo 1117578" transform="translate(1145.46 976.747)">
      <path id="Trazado_888440" data-name="Trazado 888440" d="M40.223,2.371H32V1.686A.686.686,0,0,0,31.31,1H17.6a.686.686,0,0,0-.686.686v.686H8.686A.686.686,0,0,0,8,3.057V42.821a.686.686,0,0,0,.686.686H40.223a.686.686,0,0,0,.686-.686V3.057A.686.686,0,0,0,40.223,2.371Zm-21.939,0H30.625V6.485H18.284ZM31.31,7.856A.686.686,0,0,0,32,7.17V6.485h4.8V39.393H12.114V6.485h4.8V7.17a.686.686,0,0,0,.686.686Zm8.227,34.28H9.371V3.742h7.542V5.114H11.428a.686.686,0,0,0-.686.686v34.28a.686.686,0,0,0,.686.686H37.48a.686.686,0,0,0,.686-.686V5.8a.686.686,0,0,0-.686-.686H32V3.742h7.542Z" fill="#144735"/>
      <path id="Trazado_888441" data-name="Trazado 888441" d="M25,5h1.371V6.371H25Z" transform="translate(-5.345 -1.258)" fill="#144735"/>
      <path id="Trazado_888442" data-name="Trazado 888442" d="M37,5h1.371V6.371H37Z" transform="translate(-9.118 -1.258)" fill="#144735"/>
      <path id="Trazado_888443" data-name="Trazado 888443" d="M20.515,35.149h-3.83a.686.686,0,0,0-.686.686v4.114a.686.686,0,0,0,.686.686H20.8a.686.686,0,0,0,.686-.686v-3.83l1.856-1.856-.969-.969ZM19.144,36.52l-1.773,1.773V36.52Zm.969,2.742H18.341l1.773-1.773Z" transform="translate(-2.515 -10.153)" fill="#144735"/>
      <path id="Trazado_888444" data-name="Trazado 888444" d="M22.371,43.293l-1.856,1.856h-3.83a.686.686,0,0,0-.686.686v4.114a.686.686,0,0,0,.686.686H20.8a.686.686,0,0,0,.686-.686v-3.83l1.856-1.856ZM19.144,46.52l-1.773,1.773V46.52Zm.969,2.742H18.341l1.773-1.773Z" transform="translate(-2.515 -13.297)" fill="#144735"/>
      <path id="Trazado_888445" data-name="Trazado 888445" d="M27,37H41.4v1.371H27Z" transform="translate(-5.974 -11.319)" fill="#144735"/>
      <path id="Trazado_888446" data-name="Trazado 888446" d="M27,41H38.655v1.371H27Z" transform="translate(-5.974 -12.576)" fill="#144735"/>
      <path id="Trazado_888447" data-name="Trazado 888447" d="M46,41h1.371v1.371H46Z" transform="translate(-11.947 -12.576)" fill="#144735"/>
      <path id="Trazado_888448" data-name="Trazado 888448" d="M27,47H41.4v1.371H27Z" transform="translate(-5.974 -14.463)" fill="#144735"/>
      <path id="Trazado_888449" data-name="Trazado 888449" d="M27,51H38.655v1.371H27Z" transform="translate(-5.974 -15.72)" fill="#144735"/>
      <path id="Trazado_888450" data-name="Trazado 888450" d="M46,51h1.371v1.371H46Z" transform="translate(-11.947 -15.72)" fill="#144735"/>
      <path id="Trazado_888451" data-name="Trazado 888451" d="M28.856,26.712A6.856,6.856,0,1,0,22,19.856a6.856,6.856,0,0,0,6.856,6.856Zm0-12.341a5.485,5.485,0,1,1-5.485,5.485,5.485,5.485,0,0,1,5.485-5.485Z" transform="translate(-4.402 -3.773)" fill="#144735"/>
      <path id="Trazado_888452" data-name="Trazado 888452" d="M26.686,23.17h1.371v1.371a.686.686,0,0,0,.686.686h2.742a.686.686,0,0,0,.686-.686V23.17h1.371a.686.686,0,0,0,.686-.686V19.742a.686.686,0,0,0-.686-.686H32.17V17.686A.686.686,0,0,0,31.485,17H28.742a.686.686,0,0,0-.686.686v1.371H26.686a.686.686,0,0,0-.686.686v2.742A.686.686,0,0,0,26.686,23.17Zm.686-2.742h1.371a.686.686,0,0,0,.686-.686V18.371H30.8v1.371a.686.686,0,0,0,.686.686h1.371V21.8H31.485a.686.686,0,0,0-.686.686v1.371H29.428V22.485a.686.686,0,0,0-.686-.686H27.371Z" transform="translate(-5.659 -5.031)" fill="#144735"/>
    </g>
  </g>
</svg>
