<svg xmlns="http://www.w3.org/2000/svg" width="50" height="50" viewBox="0 0 50 50">
  <g id="Grupo_1117580" data-name="Grupo 1117580" transform="translate(-1144.914 -792)">
    <rect id="Rectángulo_410296" data-name="Rectángulo 410296" width="50" height="50" transform="translate(1144.914 792)" fill="none"/>
    <g id="Grupo_1117575" data-name="Grupo 1117575" transform="translate(1146.819 793.966)">
      <path id="Trazado_888426" data-name="Trazado 888426" d="M44.478,21.642a.713.713,0,0,0,.713-.713V12.377a.713.713,0,0,0-.713-.713H42.34V9.526a.713.713,0,0,0-.713-.713H38.776a.713.713,0,0,0-.713.713v2.138H32.24a9.266,9.266,0,1,0-18.289,0H8.128V9.526a.713.713,0,0,0-.713-.713H4.564a.713.713,0,0,0-.713.713v2.138H1.713A.713.713,0,0,0,1,12.377V20.93a.713.713,0,0,0,.713.713H3.851v1.426H1.713A.713.713,0,0,0,1,23.781v8.553a.713.713,0,0,0,.713.713H3.851v7.84H3.138a.713.713,0,0,0-.713.713v2.138H1v1.426H45.191V43.738H43.765V41.6a.713.713,0,0,0-.713-.713H42.34v-7.84h2.138a.713.713,0,0,0,.713-.713V23.781a.713.713,0,0,0-.713-.713H42.34V21.642Zm-6.832-1.426,6.12-6.12v6.12Zm-.3,20.67a.713.713,0,0,0-.713.713v2.138H9.553V41.6a.713.713,0,0,0-.713-.713H8.128v-7.84H38.063v7.84ZM15.673,24.493,8.545,31.621H3.433l7.128-7.128Zm8.43,7.128,7.128-7.128h4.4L28.5,31.621Zm-2.016,0H16.976L24.1,24.493h5.112Zm-7.128,0h-4.4l7.128-7.128h4.4Zm15.558,0,7.128-7.128h5.112L35.63,31.621ZM8.128,23.068V21.642H38.063v1.426Zm9.413-5.431-2.58,2.58h-4.4L15.4,15.383A9.316,9.316,0,0,0,17.54,17.637Zm4.547,2.58H16.976l1.792-1.792a9.2,9.2,0,0,0,4.047,1.065Zm8.43,0,7.128-7.128h5.112L35.63,20.217Zm8.971-9.979h1.426v1.426H39.489ZM35.63,13.089,28.5,20.217H24.1l.917-.917a9.3,9.3,0,0,0,6.888-6.211ZM23.1,2.4a7.84,7.84,0,1,1-7.84,7.84A7.84,7.84,0,0,1,23.1,2.4ZM14.676,14.087l-6.13,6.13H3.433l7.128-7.128h3.722a9.275,9.275,0,0,0,.393,1Zm-9.4-3.849H6.7v1.426H5.277Zm3.269,2.851-6.12,6.12v-6.12ZM5.277,21.642H6.7v1.426H5.277Zm3.269,2.851-6.12,6.12v-6.12ZM5.277,33.046H6.7v7.84H5.277ZM3.851,42.312H8.128v1.426H3.851Zm34.212,1.426V42.312H42.34v1.426Zm2.851-2.851H39.489v-7.84h1.426Zm-3.269-9.266,6.12-6.12v6.12Zm3.269-8.553H39.489V21.642h1.426Z" transform="translate(0 0)" fill="#144735"/>
      <path id="Trazado_888427" data-name="Trazado 888427" d="M29.128,18.255A7.128,7.128,0,1,0,22,11.128a7.128,7.128,0,0,0,7.128,7.128Zm0-12.83a5.7,5.7,0,1,1-5.7,5.7,5.7,5.7,0,0,1,5.7-5.7Z" transform="translate(-6.032 -0.889)" fill="#144735"/>
      <path id="Trazado_888428" data-name="Trazado 888428" d="M27.713,15.277h5.7a.713.713,0,0,0,.713-.713V11.713A.713.713,0,0,0,33.415,11h-5.7a.713.713,0,0,0-.713.713v2.851A.713.713,0,0,0,27.713,15.277Zm.713-2.851H32.7v1.426H28.426Z" transform="translate(-7.468 -2.9)" fill="#144735"/>
    </g>
  </g>
</svg>
