<svg xmlns="http://www.w3.org/2000/svg" width="50" height="50" viewBox="0 0 50 50">
  <g id="Grupo_1117581" data-name="Grupo 1117581" transform="translate(-829.914 -792)">
    <rect id="Rectángulo_410295" data-name="Rectángulo 410295" width="50" height="50" transform="translate(829.914 792)" fill="none"/>
    <g id="Layer_12" data-name="Layer 12" transform="translate(827.186 792.789)">
      <path id="Trazado_888422" data-name="Trazado 888422" d="M31.246,29.492A2.246,2.246,0,1,0,29,27.246,2.246,2.246,0,0,0,31.246,29.492Zm0-2.995a.749.749,0,1,1-.749.749A.749.749,0,0,1,31.246,26.5Z" transform="translate(-3.518 -6.03)" fill="#144735"/>
      <path id="Trazado_888423" data-name="Trazado 888423" d="M30.5,21.236h1.5a.749.749,0,0,0,.744-.666l.749-6.739A.749.749,0,0,0,32.744,13H29.749a.749.749,0,0,0-.744.831l.749,6.739A.749.749,0,0,0,30.5,21.236Zm1.41-6.739-.586,5.241h-.15L30.588,14.5Z" transform="translate(-3.518 -3.015)" fill="#144735"/>
      <path id="Trazado_888424" data-name="Trazado 888424" d="M28.734,28.467A9.734,9.734,0,1,0,19,18.734a9.734,9.734,0,0,0,9.734,9.734Zm0-17.97A8.236,8.236,0,1,1,20.5,18.734,8.236,8.236,0,0,1,28.734,10.5Z" transform="translate(-1.005 -2.01)" fill="#144735"/>
      <path id="Trazado_888425" data-name="Trazado 888425" d="M24.733,29.081V42.929h-1.5a.749.749,0,0,0-.749.749v2.995a.749.749,0,0,0,.749.749h8.985a.749.749,0,0,0,.749-.749V43.678a.749.749,0,0,0-.749-.749h-1.5V29.081A12.71,12.71,0,0,0,32.97,5.138V3.246A2.246,2.246,0,0,0,30.723,1h-5.99a2.246,2.246,0,0,0-2.246,2.246V5.138a12.71,12.71,0,0,0,2.246,23.944Zm6.739,16.843H23.985v-1.5h7.487Zm-2.246-2.995H26.231V29.356a11.747,11.747,0,0,0,2.995,0ZM23.985,3.246a.749.749,0,0,1,.749-.749h5.99a.749.749,0,0,1,.749.749V4.559a12.711,12.711,0,0,0-7.487,0Zm3.744,2.246A11.231,11.231,0,1,1,16.5,16.724,11.231,11.231,0,0,1,27.728,5.492Z" transform="translate(0)" fill="#144735"/>
    </g>
  </g>
</svg>
