<svg xmlns="http://www.w3.org/2000/svg" width="100" height="100" viewBox="0 0 100 100">
  <g id="Grupo_1100965" data-name="Grupo 1100965" transform="translate(0.242)">
    <g id="Grupo_1098742" data-name="Grupo 1098742" transform="translate(0)">
      <rect id="Rectángulo_400898" data-name="Rectángulo 400898" width="100" height="100" rx="50" transform="translate(-0.242)" fill="#fff" opacity="0.859"/>
      <g id="Rectángulo_400907" data-name="Rectángulo 400907" transform="translate(-0.242)" fill="none" stroke="#3acc97" stroke-linecap="round" stroke-width="2" stroke-dasharray="7">
        <rect width="100" height="100" rx="50" stroke="none"/>
        <rect x="1" y="1" width="98" height="98" rx="49" fill="none"/>
      </g>
    </g>
    <g id="Grupo_1107006" data-name="Grupo 1107006" transform="translate(8.156 8.156)">
      <rect id="Rectángulo_400898-2" data-name="Rectángulo 400898" width="84" height="84" rx="42" transform="translate(-0.399 -0.157)" fill="#d7f5ea" opacity="0.859"/>
      <rect id="Rectángulo_400907-2" data-name="Rectángulo 400907" width="84" height="84" rx="42" transform="translate(-0.398 -0.157)" fill="none"/>
    </g>
    <g id="Grupo_1117753" data-name="Grupo 1117753" transform="translate(16.859 4.907)">
      <g id="Grupo_1117752" data-name="Grupo 1117752" transform="translate(0.965 14.885)">
        <path id="Trazado_888829" data-name="Trazado 888829" d="M26.716,311.687l3.57,2.947.951,3.96L25.62,333.7a1.442,1.442,0,0,1-1.526,1.06H19.26c-.681-.025-.932-.375-.736-1.06Z" transform="translate(-17.052 -274.322)" fill="#a077c2" fill-rule="evenodd"/>
        <path id="Trazado_888830" data-name="Trazado 888830" d="M256.429,311.687l3.57,2.947.962,3.982L255.333,333.7a1.442,1.442,0,0,1-1.526,1.06h-4.834c-.681-.025-.932-.375-.736-1.06Z" transform="translate(-217.244 -274.322)" fill="#4982c9" fill-rule="evenodd"/>
        <path id="Trazado_888831" data-name="Trazado 888831" d="M82.713,304.844l3.082-1.009,4.014,1.009c6.138,5.5,7.912,13.107,7.253,21.952a1.121,1.121,0,0,1-1.228,1.126H91a.977.977,0,0,1-1.1-1.129C90.268,317.113,89.15,313.66,82.713,304.844Z" transform="translate(-73.049 -267.479)" fill="#c0a1d9" fill-rule="evenodd"/>
        <path id="Trazado_888832" data-name="Trazado 888832" d="M312.428,304.844l3.082-1.009,4.014,1.009c6.138,5.5,7.912,13.107,7.253,21.952a1.121,1.121,0,0,1-1.228,1.126h-4.834a.977.977,0,0,1-1.1-1.129C319.987,317.113,318.865,313.66,312.428,304.844Z" transform="translate(-273.243 -267.479)" fill="#6aa2e6" fill-rule="evenodd"/>
        <path id="Trazado_888833" data-name="Trazado 888833" d="M58.851,129.277h7.1a3.531,3.531,0,0,1,3.519,3.519v16.4a3.531,3.531,0,0,1-3.519,3.519h-7.1a3.528,3.528,0,0,1-3.519-3.519V132.8A3.528,3.528,0,0,1,58.851,129.277Z" transform="translate(-49.187 -115.354)" fill="#ebd2ff" fill-rule="evenodd"/>
        <path id="Trazado_888834" data-name="Trazado 888834" d="M288.564,129.277h7.1a3.531,3.531,0,0,1,3.519,3.519v16.4a3.531,3.531,0,0,1-3.519,3.519h-7.1a3.531,3.531,0,0,1-3.519-3.519V132.8A3.531,3.531,0,0,1,288.564,129.277Z" transform="translate(-249.379 -115.354)" fill="#a5cdff" fill-rule="evenodd"/>
        <path id="Trazado_888835" data-name="Trazado 888835" d="M8.645,153H60.773A1.4,1.4,0,0,0,61.9,151.87v-2.12a.509.509,0,0,1,.79-.321l8.094,8.32a1.4,1.4,0,0,1-.007,1.6l-8.087,8.317a.5.5,0,0,1-.79-.321v-2.12a1.4,1.4,0,0,0-1.129-1.133H8.645a1.4,1.4,0,0,1-1.133-1.133v-8.83A1.4,1.4,0,0,1,8.645,153Z" transform="translate(-7.512 -132.829)" fill="#ffe5a0" fill-rule="evenodd"/>
        <path id="Trazado_888836" data-name="Trazado 888836" d="M7.512,204.02v2.535a1.4,1.4,0,0,0,1.133,1.133H60.773a1.4,1.4,0,0,1,1.129,1.133v2.12a.5.5,0,0,0,.79.321l8.087-8.317a1.4,1.4,0,0,0,.007-1.6l-1.938-1.993-3.6,3.7a3.018,3.018,0,0,1-2.419.973Z" transform="translate(-7.512 -176.422)" fill="#f2ce7e" fill-rule="evenodd"/>
        <path id="Trazado_888837" data-name="Trazado 888837" d="M92.526,155.271V169.2a3.078,3.078,0,1,1-6.156,0V155.271Z" transform="translate(-76.236 -138.007)" fill="#ebd2ff" fill-rule="evenodd"/>
        <path id="Trazado_888838" data-name="Trazado 888838" d="M113.4,155.271V169.2a3.088,3.088,0,0,1-3.078,3.078V157.409a2.647,2.647,0,0,1,2.138-2.138Z" transform="translate(-97.11 -138.007)" fill="#d7bef0" fill-rule="evenodd"/>
        <path id="Trazado_888839" data-name="Trazado 888839" d="M322.241,155.271V169.2a3.078,3.078,0,1,1-6.156,0V155.271Z" transform="translate(-276.43 -138.007)" fill="#a5cdff" fill-rule="evenodd"/>
        <path id="Trazado_888840" data-name="Trazado 888840" d="M343.114,155.271V169.2a3.088,3.088,0,0,1-3.078,3.078V157.409a2.647,2.647,0,0,1,2.138-2.138Z" transform="translate(-297.303 -138.007)" fill="#8abfff" fill-rule="evenodd"/>
        <path id="Trazado_888841" data-name="Trazado 888841" d="M66.329,30.161a5.654,5.654,0,1,0,11.307,0V24.1a3.175,3.175,0,0,0-3.166-3.166h-4.98A3.174,3.174,0,0,0,66.329,24.1v6.058Z" transform="translate(-58.77 -20.937)" fill="#ffcbbe" fill-rule="evenodd"/>
        <path id="Trazado_888842" data-name="Trazado 888842" d="M296.043,30.161a5.654,5.654,0,1,0,11.307,0V24.1a3.175,3.175,0,0,0-3.165-3.166H299.2a3.174,3.174,0,0,0-3.162,3.166v6.058Z" transform="translate(-258.963 -20.937)" fill="#ffcbbe" fill-rule="evenodd"/>
        <path id="Trazado_888843" data-name="Trazado 888843" d="M77.636,24.1v2.2a4.224,4.224,0,0,1-3.665-.328c-.6-.339-.7-.339-.769.2-.208,1.592-.922,5.974-6.87,4.178l0-6.255a3.172,3.172,0,0,1,3.162-3.166h4.98A3.174,3.174,0,0,1,77.636,24.1Z" transform="translate(-58.77 -20.937)" fill="#477b9e" fill-rule="evenodd"/>
        <path id="Trazado_888844" data-name="Trazado 888844" d="M307.35,24.1v2.2a4.224,4.224,0,0,1-3.665-.328c-.594-.339-.7-.339-.769.2-.208,1.592-.922,5.974-6.87,4.178l0-6.255a3.172,3.172,0,0,1,3.162-3.166h4.98A3.175,3.175,0,0,1,307.35,24.1Z" transform="translate(-258.963 -20.937)" fill="#c68b87" fill-rule="evenodd"/>
        <path id="Trazado_888845" data-name="Trazado 888845" d="M103.656,62.749v3.8a5.681,5.681,0,0,1-4.247,5.479,5.731,5.731,0,0,0,1.4.175,5.668,5.668,0,0,0,5.654-5.654V62.691A4.143,4.143,0,0,1,103.656,62.749Z" transform="translate(-87.599 -57.325)" fill="#f7beaf" fill-rule="evenodd"/>
        <path id="Trazado_888846" data-name="Trazado 888846" d="M333.374,62.749v3.8a5.68,5.68,0,0,1-4.251,5.479,5.732,5.732,0,0,0,1.4.175,5.668,5.668,0,0,0,5.654-5.654V62.691A4.132,4.132,0,0,1,333.374,62.749Z" transform="translate(-287.792 -57.325)" fill="#f7beaf" fill-rule="evenodd"/>
        <path id="Trazado_888847" data-name="Trazado 888847" d="M107.855,20.937a3.174,3.174,0,0,1,3.162,3.166v2.259a4.143,4.143,0,0,0,2.809-.058V24.1a3.175,3.175,0,0,0-3.166-3.166Z" transform="translate(-94.96 -20.937)" fill="#365e7d" fill-rule="evenodd"/>
        <path id="Trazado_888848" data-name="Trazado 888848" d="M337.57,20.937a3.174,3.174,0,0,1,3.165,3.166v2.259a4.132,4.132,0,0,0,2.805-.058V24.1a3.175,3.175,0,0,0-3.165-3.166Z" transform="translate(-295.154 -20.937)" fill="#bd7d79" fill-rule="evenodd"/>
        <path id="Trazado_888849" data-name="Trazado 888849" d="M343.523,311.687c6.138,5.5,7.912,13.107,7.249,21.952a1.118,1.118,0,0,1-1.224,1.126h3.1a1.121,1.121,0,0,0,1.228-1.126c.659-8.845-1.115-16.451-7.253-21.952Z" transform="translate(-300.342 -274.322)" fill="#5a94db" fill-rule="evenodd"/>
        <path id="Trazado_888850" data-name="Trazado 888850" d="M113.809,311.687c6.138,5.5,7.912,13.107,7.249,21.952a1.118,1.118,0,0,1-1.224,1.126h3.1a1.121,1.121,0,0,0,1.228-1.126c.659-8.845-1.115-16.451-7.253-21.952Z" transform="translate(-100.149 -274.322)" fill="#b592d1" fill-rule="evenodd"/>
      </g>
      <path id="Trazado_888851" data-name="Trazado 888851" d="M9.7,25.631a4.7,4.7,0,0,0,4.433,3.2,4.7,4.7,0,0,0,4.677-4.674V21.515a5.216,5.216,0,0,1-2.623-.43,8.718,8.718,0,0,1-.229.933,5.4,5.4,0,0,1-1.719,2.7A5.027,5.027,0,0,1,10.7,25.74,8.451,8.451,0,0,1,9.7,25.631Zm27.27-1.475V18.112a4.129,4.129,0,0,1,4.12-4.12h4.965a4.129,4.129,0,0,1,4.12,4.12v6.044a6.553,6.553,0,0,1-1.4,4.047,4.491,4.491,0,0,1,2.8,4.149v1.756h2.648V30.7a.967.967,0,0,1,.965-.965.955.955,0,0,1,.736.346l9.588,9.85a.962.962,0,0,1,0,1.341q-4.808,4.961-9.635,9.9a.961.961,0,0,1-1.359.022.971.971,0,0,1-.3-.692V47.1H51.589V48.7a4.489,4.489,0,0,1-2.55,4.036,22.059,22.059,0,0,1,5.293,9.384,36,36,0,0,1,.874,13.194.959.959,0,0,1-.954.874H47.174a.964.964,0,0,1-.958-1.078c.175-4.677,0-8.127-.987-11.442-.19-.627-.4-1.25-.652-1.88L39.451,75.568a.961.961,0,0,1-.9.627H31.474a.961.961,0,0,1-.962-.962.977.977,0,0,1,.091-.415L34.1,65.433a.96.96,0,1,1,1.8.67l-3.038,8.164h5.027l5.541-14.892L40.26,54.366l-2.841,7.646a.96.96,0,0,1-1.8-.67l3.107-8.36a4.508,4.508,0,0,1-1.847-1.115,4.461,4.461,0,0,1-1.315-3.162V47.1H22.148v1.607a4.473,4.473,0,0,1-2.55,4.036,21.982,21.982,0,0,1,5.293,9.384,35.913,35.913,0,0,1,.878,13.194.961.961,0,0,1-.954.874H17.737a.965.965,0,0,1-.958-1.078c.175-4.677,0-8.127-.987-11.442-.189-.627-.4-1.25-.656-1.88L10.014,75.567a.965.965,0,0,1-.9.627H2.036a.964.964,0,0,1-.965-.962.978.978,0,0,1,.095-.415l3.49-9.384a.96.96,0,0,1,1.8.67L3.421,74.267H8.448l5.541-14.892-3.166-5.009L7.981,62.012a.962.962,0,0,1-1.8-.67l3.111-8.36A4.492,4.492,0,0,1,6.127,48.7V47.1H.965A.964.964,0,0,1,0,46.136V35.073a.967.967,0,0,1,.965-.965H6.127V32.352A4.461,4.461,0,0,1,7.442,29.19a4.4,4.4,0,0,1,1.49-.987,6.561,6.561,0,0,1-1.395-4.047V18.112a4.129,4.129,0,0,1,4.12-4.12h4.965a4.129,4.129,0,0,1,4.12,4.12v6.044a6.553,6.553,0,0,1-1.4,4.047,4.483,4.483,0,0,1,2.8,4.149v1.756h4.528a.965.965,0,0,1,0,1.931H18.17v9.133H39.546V36.039H31.04a.965.965,0,0,1,0-1.931h4.525V32.352a4.49,4.49,0,0,1,2.8-4.149,6.561,6.561,0,0,1-1.4-4.047ZM38.9,23.62a7.162,7.162,0,0,0,1.326.2,3.194,3.194,0,0,0,2.247-.6,3.573,3.573,0,0,0,1.089-1.767,8.549,8.549,0,0,0,.324-2.014.962.962,0,0,1,1.607-.667,3.48,3.48,0,0,0,2.757.805V18.112a2.2,2.2,0,0,0-2.193-2.193H41.094A2.2,2.2,0,0,0,38.9,18.112V23.62Zm9.351-2.106a5.215,5.215,0,0,1-2.623-.43,8.719,8.719,0,0,1-.23.933,5.4,5.4,0,0,1-1.719,2.7,5.028,5.028,0,0,1-3.544,1.024,8.452,8.452,0,0,1-.994-.109,4.676,4.676,0,0,0,9.111-1.475V21.515ZM18.815,19.576V18.112a2.2,2.2,0,0,0-2.193-2.193H11.657a2.2,2.2,0,0,0-2.193,2.193V23.62a7.074,7.074,0,0,0,1.326.2,3.2,3.2,0,0,0,2.248-.6,3.574,3.574,0,0,0,1.089-1.767,8.555,8.555,0,0,0,.324-2.014.961.961,0,0,1,1.636-.638,3.5,3.5,0,0,0,2.728.776ZM46.981,29.806a6.57,6.57,0,0,1-6.808,0,2.561,2.561,0,0,0-2.681,2.546v1.756h2.055V32.815a.963.963,0,0,1,1.927,0V45.426a2.1,2.1,0,0,0,4.207,0V32.815a.963.963,0,0,1,1.927,0v1.293h2.051V32.352a2.554,2.554,0,0,0-2.677-2.546Zm-36.249,0a2.56,2.56,0,0,0-2.677,2.546v1.756h2.051V32.815a.965.965,0,0,1,1.931,0V45.426a2.1,2.1,0,0,0,3.588,1.483,2.087,2.087,0,0,0,.619-1.483V32.815a.964.964,0,0,1,1.927,0v1.293h2.051V32.352a2.555,2.555,0,0,0-2.677-2.546,6.577,6.577,0,0,1-6.812,0ZM49.658,47.1H47.243a4.033,4.033,0,0,1-7.333,0H37.491V48.7a2.562,2.562,0,0,0,2.546,2.546h7.078A2.556,2.556,0,0,0,49.658,48.7V47.1Zm-2.051-1.927h7.6a.962.962,0,0,1,.962.965v2L63.494,40.6l-7.329-7.534v2a.964.964,0,0,1-.962.965h-7.6ZM20.221,47.1H17.806a4.087,4.087,0,0,1-.82,1.177,4.019,4.019,0,0,1-5.7,0,4.08,4.08,0,0,1-.816-1.177H8.054V48.7A2.562,2.562,0,0,0,10.6,51.251h7.078A2.556,2.556,0,0,0,20.221,48.7V47.1ZM10.105,36.039H1.927v9.133h8.178V36.039Zm31.8,17.14a34.56,34.56,0,0,1,5.165,9.945,34.386,34.386,0,0,1,1.1,11.144h5.2a33.2,33.2,0,0,0-.892-11.624,20.1,20.1,0,0,0-5.73-9.464Zm-29.437,0a34.566,34.566,0,0,1,5.165,9.945,34.587,34.587,0,0,1,1.1,11.144h5.2a33.282,33.282,0,0,0-.892-11.624,20.129,20.129,0,0,0-5.73-9.464Z" transform="translate(0 0)"/>
    </g>
  </g>
</svg>
