<svg id="Grupo_1116662" data-name="Grupo 1116662" xmlns="http://www.w3.org/2000/svg" width="122.486" height="122.486" viewBox="0 0 122.486 122.486">
  <rect id="Rectángulo_402033" data-name="Rectángulo 402033" width="122.486" height="122.486" rx="5" transform="translate(0)" fill="#d7f5ea"/>
  <g id="Grupo_1117876" data-name="Grupo 1117876" transform="translate(7.528 -6.625)">
    <g id="Grupo_1117875" data-name="Grupo 1117875" transform="translate(15.163 31.563)">
      <path id="Trazado_889058" data-name="Trazado 889058" d="M55.5,68H93.417v40.441H55.5Z" transform="translate(-49.77 -62.918)" fill="#e6e6e6" fill-rule="evenodd"/>
      <path id="Trazado_889059" data-name="Trazado 889059" d="M113.754,125.5h3.056v1.993a8.09,8.09,0,0,1,3.039,1.262l1.4-1.4,2.159,2.159-1.378,1.378a8.2,8.2,0,0,1,1.262,3.039h1.993v3.056h-1.993a8.281,8.281,0,0,1-1.262,3.056l1.412,1.4-2.159,2.159-1.412-1.412a8.2,8.2,0,0,1-3.039,1.262v1.993H113.77v-1.993a7.83,7.83,0,0,1-3.039-1.262l-1.412,1.412-2.159-2.159,1.4-1.4a8.167,8.167,0,0,1-1.262-3.056H105.3v-3.056h1.993a8.09,8.09,0,0,1,1.262-3.039l-1.4-1.412,2.159-2.159,1.412,1.4a8.2,8.2,0,0,1,3.039-1.262V125.5Z" transform="translate(-91.299 -110.868)" fill="#ffcd05" fill-rule="evenodd"/>
      <path id="Trazado_889060" data-name="Trazado 889060" d="M142.134,157.6a4.634,4.634,0,1,1-4.634,4.634A4.65,4.65,0,0,1,142.134,157.6Z" transform="translate(-118.151 -137.637)" fill="#cc3737" fill-rule="evenodd"/>
      <path id="Trazado_889061" data-name="Trazado 889061" d="M289.491,134.4a4.268,4.268,0,1,0,4.268,4.268A4.267,4.267,0,0,0,289.491,134.4Zm5.032,23.451v14.632H284.293v-23.85l-11.443.5-.05-4.235,14.267-1.777H292.4c3.4,0,6.112,2.309,6.112,5.713v9.035h-3.986Z" transform="translate(-230.98 -118.29)" fill="#04b3e1" fill-rule="evenodd"/>
      <path id="Trazado_889062" data-name="Trazado 889062" d="M29.321,359.4H90.739l8.321,10.912H21Z" transform="translate(-21 -305.921)" fill="#dd6e42" fill-rule="evenodd"/>
      <path id="Trazado_889063" data-name="Trazado 889063" d="M21,425.1H99.059v5.464H21Z" transform="translate(-21 -360.709)" fill="#dd6e42" fill-rule="evenodd"/>
      <path id="Trazado_889064" data-name="Trazado 889064" d="M111.052,352.026h-5.746a7.4,7.4,0,0,0-7.374,7.374v3.288h20.495V359.4A7.389,7.389,0,0,0,111.052,352.026Zm-47.948,0h-5.73A7.4,7.4,0,0,0,50,359.4v3.288H70.495V359.4A7.425,7.425,0,0,0,63.1,352.026ZM60.231,340.4a5.63,5.63,0,1,0,5.63,5.63A5.635,5.635,0,0,0,60.231,340.4Zm26.856,11.626H81.34a7.4,7.4,0,0,0-7.374,7.374v3.288H94.461V359.4A7.4,7.4,0,0,0,87.086,352.026ZM84.213,340.4a5.63,5.63,0,1,0,5.63,5.63,5.635,5.635,0,0,0-5.63-5.63Zm23.982,0a5.63,5.63,0,1,0,5.63,5.63A5.635,5.635,0,0,0,108.2,340.4Z" transform="translate(-45.184 -290.077)" fill="#ffcd05" fill-rule="evenodd"/>
      <path id="Trazado_889065" data-name="Trazado 889065" d="M38.6,37.4H82.1v5.082H38.6Z" transform="translate(-35.677 -37.4)" fill="#e6e6e6" fill-rule="evenodd"/>
    </g>
    <path id="Trazado_889066" data-name="Trazado 889066" d="M19.248,35.482H60.42V32.725H19.248Zm42.335,2.325H59.955v18.8l9.566-1.179a5.426,5.426,0,1,1,8.387-.1,6.791,6.791,0,0,1,5.946,6.776V71.14A1.155,1.155,0,0,1,82.692,72.3h-2.84v8.653a6.788,6.788,0,0,1,4.036,2.94H84.9a1.167,1.167,0,0,1,.98.515l8.221,10.8a1.157,1.157,0,0,1,.3.764v5.448a1.155,1.155,0,0,1-1.163,1.163H89.585v1.594a1.155,1.155,0,0,1-1.163,1.163H67.927a1.155,1.155,0,0,1-1.163-1.163V102.58H65.6v1.594a1.155,1.155,0,0,1-1.163,1.163H43.945a1.155,1.155,0,0,1-1.163-1.163V102.58H41.62v1.594a1.155,1.155,0,0,1-1.163,1.163H19.962a1.155,1.155,0,0,1-1.163-1.163V102.58H15.163A1.155,1.155,0,0,1,14,101.417V95.953a1.142,1.142,0,0,1,.282-.764l8.271-10.862a1.171,1.171,0,0,1,.93-.448H24.5a6.8,6.8,0,0,1,11.46,0H48.462a6.8,6.8,0,0,1,11.46,0h7.391V63.118l-7.341.316V77.086a1.155,1.155,0,0,1-1.163,1.163H20.876a1.155,1.155,0,0,1-1.163-1.163V37.807H18.086a1.155,1.155,0,0,1-1.163-1.163V31.563A1.155,1.155,0,0,1,18.086,30.4h43.5a1.155,1.155,0,0,1,1.163,1.163v5.082A1.155,1.155,0,0,1,61.583,37.807ZM81.031,94.674H75.285a6.234,6.234,0,0,0-6.212,6.212v2.126h18.17v-2.126A6.234,6.234,0,0,0,81.031,94.674Zm-11.709.116a8.508,8.508,0,0,1,4.252-2.275A6.818,6.818,0,0,1,71.5,86.187H60.852a6.777,6.777,0,0,1-2.076,6.328,8.508,8.508,0,0,1,4.252,2.275Zm3.122-10.912a.3.3,0,0,1,.083-.116v-10a1.163,1.163,0,0,1,2.325,0V81.6a6.794,6.794,0,0,1,2.691-.83V63.9a1.163,1.163,0,0,1,2.325,0v6.079h1.677V62.105c0-2.807-2.226-4.551-4.949-4.551H71.332l-13.17,1.628.017,2.01,10.148-.432a1.143,1.143,0,0,1,1.3,1.146V83.879ZM84.934,87a6.753,6.753,0,0,1-2.192,5.531,8.508,8.508,0,0,1,4.252,2.275h3.87Zm3.753,10.114a8.326,8.326,0,0,1,.864,3.139h2.508V97.116Zm-21.906,3.139a8.412,8.412,0,0,1,.864-3.139H64.722a8.327,8.327,0,0,1,.864,3.139Zm-33.7-5.58h-5.73a6.234,6.234,0,0,0-6.212,6.212v2.126h18.17v-2.126A6.259,6.259,0,0,0,33.083,94.674Zm-11.709.116a8.508,8.508,0,0,1,4.252-2.275,6.792,6.792,0,0,1-2.176-5.531L17.5,94.791ZM36.886,86.2a6.818,6.818,0,0,1-2.076,6.328,8.508,8.508,0,0,1,4.252,2.275h6.295a8.508,8.508,0,0,1,4.252-2.275A6.818,6.818,0,0,1,47.532,86.2Zm3.853,10.912a8.643,8.643,0,0,1,.864,3.139h1.212a8.412,8.412,0,0,1,.864-3.139Zm-21.906,3.139a8.412,8.412,0,0,1,.864-3.139H16.325v3.139ZM30.21,83.048a4.466,4.466,0,1,0,4.468,4.468,4.469,4.469,0,0,0-4.468-4.468ZM57.065,94.674H51.319a6.234,6.234,0,0,0-6.212,6.212v2.126h18.17v-2.126A6.245,6.245,0,0,0,57.065,94.674ZM54.192,83.048a4.466,4.466,0,1,0,4.468,4.468,4.469,4.469,0,0,0-4.468-4.468Zm23.982,0a4.466,4.466,0,1,0,4.468,4.468A4.469,4.469,0,0,0,78.175,83.048Zm-4.5-34.213a3.1,3.1,0,1,0,3.106,3.106,3.108,3.108,0,0,0-3.106-3.106ZM57.63,63.534l-.548.017a1.164,1.164,0,0,1-1.212-1.2l-.05-4.185a1.181,1.181,0,0,1,1.013-1.163l.781-.1v-19.1H22.038V75.924H57.63ZM39.145,50.363a5.813,5.813,0,1,1-5.813,5.813A5.809,5.809,0,0,1,39.145,50.363ZM41.6,53.718a3.481,3.481,0,1,0,0,4.916A3.485,3.485,0,0,0,41.6,53.718Zm-3.986-8.686h3.056a1.155,1.155,0,0,1,1.163,1.163v1.08a8.1,8.1,0,0,1,1.711.714l.764-.764a1.173,1.173,0,0,1,1.644,0l2.159,2.159a1.173,1.173,0,0,1,0,1.644l-.764.764a9.08,9.08,0,0,1,.714,1.711h1.08a1.155,1.155,0,0,1,1.163,1.163v3.056a1.155,1.155,0,0,1-1.163,1.163h-1.1a9.561,9.561,0,0,1-.714,1.711l.764.764A1.173,1.173,0,0,1,48.1,63l-2.159,2.159a1.173,1.173,0,0,1-1.644,0L43.53,64.4a9.08,9.08,0,0,1-1.711.714v1.08a1.155,1.155,0,0,1-1.163,1.163H37.6a1.155,1.155,0,0,1-1.163-1.163v-1.08a9.561,9.561,0,0,1-1.711-.714l-.764.764a1.173,1.173,0,0,1-1.644,0L30.16,63a1.173,1.173,0,0,1,0-1.644l.764-.764a10.326,10.326,0,0,1-.714-1.711H29.13a1.155,1.155,0,0,1-1.163-1.163V54.665A1.155,1.155,0,0,1,29.13,53.5h1.08a9.562,9.562,0,0,1,.714-1.711l-.764-.764a1.173,1.173,0,0,1,0-1.644l2.159-2.159a1.173,1.173,0,0,1,1.644,0l.764.764a9.08,9.08,0,0,1,1.711-.714v-1.08A1.2,1.2,0,0,1,37.617,45.032Zm1.893,2.325H38.78v.764a1.151,1.151,0,0,1-.947,1.2,6.983,6.983,0,0,0-2.541,1.046,1.166,1.166,0,0,1-1.528-.1l-.581-.581-.515.515.581.581a1.175,1.175,0,0,1,.133,1.478A6.849,6.849,0,0,0,32.319,54.8a1.165,1.165,0,0,1-1.146,1.03h-.83v.731h.83a1.187,1.187,0,0,1,1.146.947,7.061,7.061,0,0,0,1.046,2.558,1.166,1.166,0,0,1-.1,1.528l-.581.581.515.515.581-.581a1.179,1.179,0,0,1,1.478-.133A7.137,7.137,0,0,0,37.8,63.035a1.152,1.152,0,0,1,1.03,1.146v.83h.731v-.83a1.187,1.187,0,0,1,.947-1.146,7.06,7.06,0,0,0,2.558-1.046,1.166,1.166,0,0,1,1.528.1l.581.581.515-.515-.581-.581a1.175,1.175,0,0,1-.133-1.478,7.137,7.137,0,0,0,1.063-2.541,1.169,1.169,0,0,1,1.163-1.03h.83v-.731H47.2a1.187,1.187,0,0,1-1.146-.947,6.78,6.78,0,0,0-1.046-2.558,1.166,1.166,0,0,1,.1-1.528l.581-.581-.515-.515-.581.581a1.177,1.177,0,0,1-1.478.133,7.137,7.137,0,0,0-2.541-1.063,1.152,1.152,0,0,1-1.03-1.146v-.814Zm13.071,7.291a1.158,1.158,0,0,1,1.03-1.279A1.17,1.17,0,0,1,54.89,54.4,15.851,15.851,0,0,1,27.121,66.49a1.156,1.156,0,0,1-2.292-.233l.066-3.438a1.158,1.158,0,0,1,1.794-.947l2.906,1.76a1.153,1.153,0,0,1-.1,2.026,13.525,13.525,0,0,0,21.01-2.209A13.32,13.32,0,0,0,52.581,54.648Zm-1.412-8.786a1.156,1.156,0,0,1,2.292.233l-.083,3.438a1.158,1.158,0,0,1-1.794.947l-2.906-1.76a1.152,1.152,0,0,1,.083-2.026A13.5,13.5,0,0,0,25.725,57.688a1.161,1.161,0,1,1-2.309.249A15.832,15.832,0,0,1,51.169,45.862Z"/>
  </g>
</svg>
