<svg xmlns="http://www.w3.org/2000/svg" width="189" height="100" viewBox="0 0 189 100">
  <g id="Grupo_1115789" data-name="Grupo 1115789" transform="translate(-390.332 -1159.206)">
    <rect id="Rectángulo_406738" data-name="Rectángulo 406738" width="189" height="100" rx="10" transform="translate(390.332 1159.206)" fill="#f2efdf"/>
    <g id="FILLED_OUTLINE" data-name="FILLED OUTLINE" transform="translate(448.332 1172.205)">
      <path id="Trazado_887435" data-name="Trazado 887435" d="M44.643,111.286A7.286,7.286,0,0,0,37.357,104H34.928a7.286,7.286,0,0,0-7.286,7.286H24v51H48.286v-51Z" transform="translate(-22.786 -90.5)" fill="#59a07a"/>
      <g id="Grupo_1117000" data-name="Grupo 1117000" transform="translate(1.214 19.572)">
        <path id="Trazado_887436" data-name="Trazado 887436" d="M24,384H48.286v2.429H24Z" transform="translate(-24 -347.572)" fill="#407d5b"/>
        <path id="Trazado_887437" data-name="Trazado 887437" d="M80,144h2.429v4.857H80Z" transform="translate(-71.5 -144)" fill="#407d5b"/>
        <path id="Trazado_887438" data-name="Trazado 887438" d="M112,144h2.429v4.857H112Z" transform="translate(-98.643 -144)" fill="#407d5b"/>
        <path id="Trazado_887439" data-name="Trazado 887439" d="M56,224h2.429v4.857H56Z" transform="translate(-51.143 -211.857)" fill="#407d5b"/>
        <path id="Trazado_887440" data-name="Trazado 887440" d="M96,224h2.429v4.857H96Z" transform="translate(-85.072 -211.857)" fill="#407d5b"/>
        <path id="Trazado_887441" data-name="Trazado 887441" d="M136,224h2.429v4.857H136Z" transform="translate(-119 -211.857)" fill="#407d5b"/>
        <path id="Trazado_887442" data-name="Trazado 887442" d="M56,280h2.429v4.857H56Z" transform="translate(-51.143 -259.357)" fill="#407d5b"/>
        <path id="Trazado_887443" data-name="Trazado 887443" d="M96,280h2.429v4.857H96Z" transform="translate(-85.072 -259.357)" fill="#407d5b"/>
        <path id="Trazado_887444" data-name="Trazado 887444" d="M136,280h2.429v4.857H136Z" transform="translate(-119 -259.357)" fill="#407d5b"/>
        <path id="Trazado_887445" data-name="Trazado 887445" d="M56,336h2.429v4.857H56Z" transform="translate(-51.143 -306.857)" fill="#407d5b"/>
        <path id="Trazado_887446" data-name="Trazado 887446" d="M96,336h2.429v4.857H96Z" transform="translate(-85.072 -306.857)" fill="#407d5b"/>
        <path id="Trazado_887447" data-name="Trazado 887447" d="M136,336h2.429v4.857H136Z" transform="translate(-119 -306.857)" fill="#407d5b"/>
        <path id="Trazado_887448" data-name="Trazado 887448" d="M58.429,424A2.429,2.429,0,0,0,56,426.428v7.286h4.857v-7.286A2.429,2.429,0,0,0,58.429,424Z" transform="translate(-51.143 -381.5)" fill="#407d5b"/>
        <path id="Trazado_887449" data-name="Trazado 887449" d="M122.429,424A2.429,2.429,0,0,0,120,426.428v7.286h4.857v-7.286A2.429,2.429,0,0,0,122.429,424Z" transform="translate(-105.429 -381.5)" fill="#407d5b"/>
      </g>
      <path id="Trazado_887450" data-name="Trazado 887450" d="M391.933,100.29l-.295-.295a3.643,3.643,0,0,1-1.067-2.576V92.857h-2.429V91.643a3.643,3.643,0,0,0-7.286,0v1.214h-2.429V97.42A3.643,3.643,0,0,1,377.362,100l-.295.295A3.643,3.643,0,0,0,376,102.866v45.848h17V102.866a3.643,3.643,0,0,0-1.067-2.576Z" transform="translate(-321.358 -76.928)" fill="#f3c387"/>
      <path id="Trazado_887451" data-name="Trazado 887451" d="M237.857,48.893a6.071,6.071,0,0,1-2.429-4.857v-4.25l-1.362-1.362A3.643,3.643,0,0,1,233,35.848V31.286l-.415-.207a3.643,3.643,0,0,1-2.014-3.258V25.214L228.143,24l-2.429,1.214V27.82a3.643,3.643,0,0,1-2.014,3.258l-.415.207v4.562a3.643,3.643,0,0,1-1.067,2.576l-1.362,1.362v4.25a6.071,6.071,0,0,1-2.429,4.857L216,50.714V94.428h24.286V50.714Z" transform="translate(-185.643 -22.642)" fill="#e57659"/>
      <path id="Trazado_887452" data-name="Trazado 887452" d="M248,408h4.857v12.143H248Z" transform="translate(-212.786 -348.357)" fill="#6d382e"/>
      <path id="Trazado_887453" data-name="Trazado 887453" d="M312,408h4.857v12.143H312Z" transform="translate(-267.072 -348.357)" fill="#6d382e"/>
      <path id="Trazado_887454" data-name="Trazado 887454" d="M248,224h2.429v4.857H248Z" transform="translate(-212.786 -192.285)" fill="#6d382e"/>
      <path id="Trazado_887455" data-name="Trazado 887455" d="M288,224h2.429v4.857H288Z" transform="translate(-246.715 -192.285)" fill="#6d382e"/>
      <path id="Trazado_887456" data-name="Trazado 887456" d="M328,224h2.429v4.857H328Z" transform="translate(-280.643 -192.285)" fill="#6d382e"/>
      <path id="Trazado_887457" data-name="Trazado 887457" d="M248,280h2.429v4.857H248Z" transform="translate(-212.786 -239.785)" fill="#6d382e"/>
      <path id="Trazado_887458" data-name="Trazado 887458" d="M288,280h2.429v4.857H288Z" transform="translate(-246.715 -239.785)" fill="#6d382e"/>
      <path id="Trazado_887459" data-name="Trazado 887459" d="M328,280h2.429v4.857H328Z" transform="translate(-280.643 -239.785)" fill="#6d382e"/>
      <path id="Trazado_887460" data-name="Trazado 887460" d="M248,336h2.429v4.857H248Z" transform="translate(-212.786 -287.285)" fill="#6d382e"/>
      <path id="Trazado_887461" data-name="Trazado 887461" d="M288,336h2.429v4.857H288Z" transform="translate(-246.715 -287.285)" fill="#6d382e"/>
      <path id="Trazado_887462" data-name="Trazado 887462" d="M328,336h2.429v4.857H328Z" transform="translate(-280.643 -287.285)" fill="#6d382e"/>
      <path id="Trazado_887463" data-name="Trazado 887463" d="M272,152h2.429v3.643H272Z" transform="translate(-233.143 -131.214)" fill="#6d382e"/>
      <path id="Trazado_887464" data-name="Trazado 887464" d="M304,152h2.429v3.643H304Z" transform="translate(-260.286 -131.214)" fill="#6d382e"/>
      <path id="Trazado_887465" data-name="Trazado 887465" d="M288,80h2.429v3.643H288Z" transform="translate(-246.715 -70.142)" fill="#6d382e"/>
      <path id="Trazado_887466" data-name="Trazado 887466" d="M376,384h17v2.429H376Z" transform="translate(-321.358 -328)" fill="#e4b380"/>
      <path id="Trazado_887467" data-name="Trazado 887467" d="M416,424h4.857v9.714H416Z" transform="translate(-355.286 -361.928)" fill="#b6845b"/>
      <path id="Trazado_887468" data-name="Trazado 887468" d="M400,328h2.429v4.857H400Z" transform="translate(-341.715 -280.5)" fill="#b6845b"/>
      <path id="Trazado_887469" data-name="Trazado 887469" d="M448,328h2.429v4.857H448Z" transform="translate(-382.429 -280.5)" fill="#b6845b"/>
      <path id="Trazado_887470" data-name="Trazado 887470" d="M400,272h2.429v4.857H400Z" transform="translate(-341.715 -233)" fill="#b6845b"/>
      <path id="Trazado_887471" data-name="Trazado 887471" d="M448,272h2.429v4.857H448Z" transform="translate(-382.429 -233)" fill="#b6845b"/>
      <path id="Trazado_887472" data-name="Trazado 887472" d="M400,216h2.429v4.857H400Z" transform="translate(-341.715 -185.5)" fill="#b6845b"/>
      <path id="Trazado_887473" data-name="Trazado 887473" d="M448,216h2.429v4.857H448Z" transform="translate(-382.429 -185.5)" fill="#b6845b"/>
      <path id="Trazado_887474" data-name="Trazado 887474" d="M376,192h7.286v2.429H376Z" transform="translate(-321.358 -165.143)" fill="#e4b380"/>
      <path id="Trazado_887475" data-name="Trazado 887475" d="M440,192h7.286v2.429H440Z" transform="translate(-375.643 -165.143)" fill="#e4b380"/>
      <path id="Trazado_887476" data-name="Trazado 887476" d="M424,144h2.429v4.857H424Z" transform="translate(-362.072 -124.428)" fill="#b6845b"/>
      <path id="Trazado_887477" data-name="Trazado 887477" d="M262.571,121.214,261.357,120H249.214L248,121.214v1.214h14.571Z" transform="translate(-212.786 -104.071)" fill="#aa6861"/>
      <path id="Trazado_887478" data-name="Trazado 887478" d="M217.619,192,216,193.214v1.214h24.286v-1.214L238.666,192Z" transform="translate(-185.643 -165.143)" fill="#aa6861"/>
      <path id="Trazado_887479" data-name="Trazado 887479" d="M24,192H48.286v2.429H24Z" transform="translate(-22.786 -165.143)" fill="#407d5b"/>
      <path id="Trazado_887480" data-name="Trazado 887480" d="M30.571,96H28.143a8.513,8.513,0,0,0-8.414,7.286H16v53.428H42.714V103.286H38.985A8.513,8.513,0,0,0,30.571,96Zm-4.857,58.285H23.286v-6.071a1.214,1.214,0,1,1,2.429,0Zm9.714,0H33v-6.071a1.214,1.214,0,1,1,2.429,0Zm4.857,0H37.857v-6.071a3.643,3.643,0,1,0-7.286,0v6.071H28.143v-6.071a3.643,3.643,0,1,0-7.286,0v6.071H18.429V142.142H40.286Zm0-14.571H18.429V113H40.286Zm0-29.143H18.429v-4.857h3.643V104.5a6.078,6.078,0,0,1,6.071-6.071h2.429a6.078,6.078,0,0,1,6.071,6.071v1.214h3.643Z" transform="translate(-16 -83.714)"/>
      <path id="Trazado_887481" data-name="Trazado 887481" d="M80,144h2.429v4.857H80Z" transform="translate(-70.286 -124.428)"/>
      <path id="Trazado_887482" data-name="Trazado 887482" d="M112,144h2.429v4.857H112Z" transform="translate(-97.429 -124.428)"/>
      <path id="Trazado_887483" data-name="Trazado 887483" d="M56,224h2.429v4.857H56Z" transform="translate(-49.929 -192.285)"/>
      <path id="Trazado_887484" data-name="Trazado 887484" d="M96,224h2.429v4.857H96Z" transform="translate(-83.857 -192.285)"/>
      <path id="Trazado_887485" data-name="Trazado 887485" d="M136,224h2.429v4.857H136Z" transform="translate(-117.786 -192.285)"/>
      <path id="Trazado_887486" data-name="Trazado 887486" d="M56,280h2.429v4.857H56Z" transform="translate(-49.929 -239.785)"/>
      <path id="Trazado_887487" data-name="Trazado 887487" d="M96,280h2.429v4.857H96Z" transform="translate(-83.857 -239.785)"/>
      <path id="Trazado_887488" data-name="Trazado 887488" d="M136,280h2.429v4.857H136Z" transform="translate(-117.786 -239.785)"/>
      <path id="Trazado_887489" data-name="Trazado 887489" d="M56,336h2.429v4.857H56Z" transform="translate(-49.929 -287.285)"/>
      <path id="Trazado_887490" data-name="Trazado 887490" d="M96,336h2.429v4.857H96Z" transform="translate(-83.857 -287.285)"/>
      <path id="Trazado_887491" data-name="Trazado 887491" d="M136,336h2.429v4.857H136Z" transform="translate(-117.786 -287.285)"/>
      <path id="Trazado_887492" data-name="Trazado 887492" d="M250.291,37.558,250,37.264a2.412,2.412,0,0,1-.711-1.717V29.77h-2.429a4.857,4.857,0,0,0-9.714,0h-2.429v5.777A2.412,2.412,0,0,1,234,37.264l-.295.295a4.821,4.821,0,0,0-1.413,3.147l-.495-.371a4.88,4.88,0,0,1-1.943-3.886V31.7l-1.717-1.717a2.412,2.412,0,0,1-.711-1.717V22.948l-1.086-.543A2.415,2.415,0,0,1,225,20.233V16.877l-3.643-1.821-3.643,1.821v3.356a2.415,2.415,0,0,1-1.342,2.172l-1.086.543v5.313a2.412,2.412,0,0,1-.711,1.717L212.857,31.7v4.753a4.88,4.88,0,0,1-1.943,3.886L208,42.52V88.055h43.714V40.993a4.825,4.825,0,0,0-1.423-3.435Zm-32.577-9.3V24.439a4.828,4.828,0,0,0,2.429-4.207V18.378l1.214-.607,1.214.607v1.855A4.828,4.828,0,0,0,225,24.439v3.821a4.823,4.823,0,0,0,.834,2.723H216.88A4.822,4.822,0,0,0,217.714,28.261Zm-2.429,8.187V33.413h12.143v3.036a7.323,7.323,0,0,0,2.471,5.464H212.814a7.323,7.323,0,0,0,2.471-5.464Zm2.429,49.178h-2.429V75.912h2.429Zm9.714,0H225V75.912h2.429Zm4.857-38.857V85.627h-2.429V73.484h-7.286V85.627h-2.429V73.484h-7.286V85.627h-2.429V44.341h21.857Zm10.928,38.857h-2.429V78.341h2.429Zm6.071,0h-3.643V75.912h-7.286v9.714h-3.643V73.484h14.571Zm0-43.714h-6.071v2.429h6.071V71.055H234.714V44.341h6.071V41.913h-6.071v-.92a2.412,2.412,0,0,1,.711-1.717l.295-.295a4.825,4.825,0,0,0,1.423-3.435V32.2h2.429V29.77a2.429,2.429,0,0,1,4.857,0V32.2h2.429v3.348a4.825,4.825,0,0,0,1.423,3.435l.295.295a2.412,2.412,0,0,1,.711,1.717Z" transform="translate(-178.857 -15.055)"/>
      <path id="Trazado_887493" data-name="Trazado 887493" d="M248,224h2.429v4.857H248Z" transform="translate(-212.786 -192.285)"/>
      <path id="Trazado_887494" data-name="Trazado 887494" d="M288,224h2.429v4.857H288Z" transform="translate(-246.715 -192.285)"/>
      <path id="Trazado_887495" data-name="Trazado 887495" d="M328,224h2.429v4.857H328Z" transform="translate(-280.643 -192.285)"/>
      <path id="Trazado_887496" data-name="Trazado 887496" d="M248,280h2.429v4.857H248Z" transform="translate(-212.786 -239.785)"/>
      <path id="Trazado_887497" data-name="Trazado 887497" d="M288,280h2.429v4.857H288Z" transform="translate(-246.715 -239.785)"/>
      <path id="Trazado_887498" data-name="Trazado 887498" d="M328,280h2.429v4.857H328Z" transform="translate(-280.643 -239.785)"/>
      <path id="Trazado_887499" data-name="Trazado 887499" d="M248,336h2.429v4.857H248Z" transform="translate(-212.786 -287.285)"/>
      <path id="Trazado_887500" data-name="Trazado 887500" d="M288,336h2.429v4.857H288Z" transform="translate(-246.715 -287.285)"/>
      <path id="Trazado_887501" data-name="Trazado 887501" d="M328,336h2.429v4.857H328Z" transform="translate(-280.643 -287.285)"/>
      <path id="Trazado_887502" data-name="Trazado 887502" d="M272,152h2.429v3.643H272Z" transform="translate(-233.143 -131.214)"/>
      <path id="Trazado_887503" data-name="Trazado 887503" d="M304,152h2.429v3.643H304Z" transform="translate(-260.286 -131.214)"/>
      <path id="Trazado_887504" data-name="Trazado 887504" d="M288,80h2.429v3.643H288Z" transform="translate(-246.715 -70.142)"/>
      <path id="Trazado_887505" data-name="Trazado 887505" d="M400,328h2.429v4.857H400Z" transform="translate(-341.715 -280.5)"/>
      <path id="Trazado_887506" data-name="Trazado 887506" d="M448,328h2.429v4.857H448Z" transform="translate(-382.429 -280.5)"/>
      <path id="Trazado_887507" data-name="Trazado 887507" d="M400,272h2.429v4.857H400Z" transform="translate(-341.715 -233)"/>
      <path id="Trazado_887508" data-name="Trazado 887508" d="M448,272h2.429v4.857H448Z" transform="translate(-382.429 -233)"/>
      <path id="Trazado_887509" data-name="Trazado 887509" d="M400,216h2.429v4.857H400Z" transform="translate(-341.715 -185.5)"/>
      <path id="Trazado_887510" data-name="Trazado 887510" d="M448,216h2.429v4.857H448Z" transform="translate(-382.429 -185.5)"/>
      <path id="Trazado_887511" data-name="Trazado 887511" d="M424,144h2.429v4.857H424Z" transform="translate(-362.072 -124.428)"/>
    </g>
  </g>
</svg>
