<svg xmlns="http://www.w3.org/2000/svg" width="85" height="85" viewBox="0 0 85 85">
  <g id="Grupo_1116740" data-name="Grupo 1116740" transform="translate(-179.711 -2281)">
    <rect id="Rectángulo_407620" data-name="Rectángulo 407620" width="85" height="85" rx="10" transform="translate(179.711 2281)" fill="#75b8fb"/>
    <g id="Grupo_1116964" data-name="Grupo 1116964" transform="translate(167.728 2291.873)">
      <g id="Grupo_1116963" data-name="Grupo 1116963" transform="translate(27.217 1.228)">
        <path id="Trazado_887387" data-name="Trazado 887387" d="M275.97,102.109h24.711V95.818a2.478,2.478,0,0,0-2.471-2.471H278.441a2.478,2.478,0,0,0-2.471,2.471Z" transform="translate(-246.317 -83.042)" fill="#ffc144" fill-rule="evenodd"/>
        <path id="Trazado_887388" data-name="Trazado 887388" d="M275.97,164.264h24.711v5.5H275.97Z" transform="translate(-246.317 -145.197)" fill="#60a4ff" fill-rule="evenodd"/>
        <path id="Trazado_887389" data-name="Trazado 887389" d="M300.682,208.806H275.971v11.086l6.08-5.583h16.16a2.478,2.478,0,0,0,2.471-2.471v-3.032Z" transform="translate(-246.318 -184.236)" fill="#ff5a58" fill-rule="evenodd"/>
        <path id="Trazado_887390" data-name="Trazado 887390" d="M65.622,45.6V29.01c-7.16-1.379-2.742-4.744-5.657-6.245-3.87-1.993,1.965-8.828,6.172-9.007,2.756-.117-.533-7.569-7.322-1.326-1.15,1.058-4.826,2.079-6.837,2.669-2.317.68-1.1,1.577-3.025,4.457-1.853,2.777-1.609.286-2.48,2-1.094,2.157-2.1,2.416-2.911,2.479-2.268.176-4.366,4.175-2.817,6.375,1.7,2.413.549,8.54.78,9.1,1,2.43-.463,6.714-2.762,6.85-3.92.233-1.179,1.959-2.471,2.743-1.217.738,1.364,3.038,1.806,3.021,2.766-.11,5.474,5.368,7.048,2.663.444-.763,7.8,2.3,7.941,3.43.3,2.414,1.829.991,1.8,2.059-.076,2.537,1.821,1.614,1.921,2.343.474,3.437,4.864,1.711,5.94,1.585,5.077-.593,2.727,7.01,5.773,6.493s1.418-4.214,1.874-7.3c.315-2.136,1.275-2.339.618-4.738-.42-1.534-1.219-1.964-.757-3.089.6-1.462,2.087-.821,2.64-1.887.951-1.835-1.189-3.414.156-4.22,2.665-1.6,4.221,2.741,6.728,1.254,2.156-1.279-1.7-5.185-.5-6.528.933-1.04-.69-2.68-.793-4.18H71.7Z" transform="translate(-35.969 -9.943)" fill="#cbe558" fill-rule="evenodd"/>
      </g>
      <path id="Trazado_887391" data-name="Trazado 887391" d="M72.595,227.413a1.236,1.236,0,0,0,1.236-1.236h0a1.236,1.236,0,1,0-1.236,1.236Z" transform="translate(-39.769 -197.15)"/>
      <path id="Trazado_887392" data-name="Trazado 887392" d="M79.11,10.3H59.341A3.711,3.711,0,0,0,55.634,14v4.712a3.535,3.535,0,0,1-1.674-.921,2.159,2.159,0,0,1-.327-1.416,3.447,3.447,0,0,0-1.855-3.427c-.454-.234-.721-.553-.546-1.347.465-2.111,3.752-5.223,6.2-5.326a2.156,2.156,0,0,0,2.081-1.653A3.878,3.878,0,0,0,57.528.647c-1.086-.647-4.068-1.731-8.3,2.162C48.366,3.6,44.947,4.6,43.3,5.077l-.425.124a3.254,3.254,0,0,0-2.613,2.6,7.9,7.9,0,0,1-1.092,2.352,6.148,6.148,0,0,1-.616.809c-1.179-.175-1.723.9-1.938,1.322-.875,1.726-1.494,1.774-1.9,1.806a5.049,5.049,0,0,0-3.868,3.146,5.136,5.136,0,0,0,.137,5.172,3.636,3.636,0,0,1,.5,1.313A1.236,1.236,0,1,0,33.9,23.21a5.948,5.948,0,0,0-.9-2.22,2.844,2.844,0,0,1,.079-2.7c.451-.959,1.218-1.688,1.823-1.735,1.112-.086,2.554-.515,3.875-3.069.948-.029,1.681-.81,2.448-1.959a10.332,10.332,0,0,0,1.4-3c.225-.741.225-.741.945-.952L44,7.449c2.96-.864,5.716-1.729,6.9-2.822C53,2.7,54.944,2.013,56.233,2.752a1.825,1.825,0,0,1,.87,1.072A9.426,9.426,0,0,0,52,6.289a9.581,9.581,0,0,0-3.182,4.784,3.455,3.455,0,0,0,1.828,4.075c.435.224.488.358.516,1.3.057,1.889.471,3.8,4.471,4.83v15.6a1.236,1.236,0,0,0,2.071.91l5.725-5.258h5.325c.126.367.281.716.425,1.038a4.825,4.825,0,0,1,.4,1.111c-1.026,1.184-.352,2.764.243,4.16a5.7,5.7,0,0,1,.625,2.06.236.236,0,0,1-.054.04c-.471.279-.778.185-1.932-.595-1.1-.745-2.771-1.872-4.8-.656-1.535.919-1.008,2.458-.755,3.2.225.658.353,1.084.141,1.505a2.7,2.7,0,0,1-.422.146,3.1,3.1,0,0,0-2.268,1.849,3.036,3.036,0,0,0,.26,2.778,5.842,5.842,0,0,1,.448,1.107,2.773,2.773,0,0,1-.1,2.224,8.85,8.85,0,0,0-.553,2.007,15.7,15.7,0,0,0-.033,3.222c.156,2.59-.029,2.906-.825,3.042l-.046.006A6.61,6.61,0,0,1,59,59.1a8.933,8.933,0,0,0-1.188-3.23,3.948,3.948,0,0,0-3.96-1.6,8.265,8.265,0,0,0-.89.182c-.833.2-2.568.612-3.278.125a1.072,1.072,0,0,1-.405-.834,1.76,1.76,0,0,0-1.546-1.411,2.171,2.171,0,0,1-.292-.078,1.573,1.573,0,0,1-.072-.648,1.629,1.629,0,0,0-1.633-1.755l-.068-.008a2.106,2.106,0,0,1-.1-.482c-.083-.682-.554-1.5-3.408-2.874a22.271,22.271,0,0,0-4.513-1.658c-.476-.1-1.739-.358-2.314.631a1.2,1.2,0,0,1-.075.115A8.458,8.458,0,0,1,33.665,44.4c-1.177-1.006-2.5-2.138-4.067-2.212a4.9,4.9,0,0,1-1.016-1.036,2.216,2.216,0,0,0,.49-2.128,5.617,5.617,0,0,1,1.014-.133c1.714-.1,3.208-1.616,3.9-3.952a1.235,1.235,0,1,0-2.37-.7c-.363,1.23-1.067,2.149-1.674,2.185-1.571.093-2.462.42-2.981,1.091a2.3,2.3,0,0,0-.314,1.97l.007.035a1.906,1.906,0,0,0-.568,2.089c.343,1.139,2.073,3.047,3.27,3.046H29.4c.726-.027,1.8.887,2.664,1.623,1.2,1.021,2.325,1.986,3.65,1.76a2.33,2.33,0,0,0,1.374-.8,17.1,17.1,0,0,1,3.058,1.05,13.317,13.317,0,0,1,3.006,1.64,2.477,2.477,0,0,0,1.772,2.281,2.6,2.6,0,0,0,2.035,2.481,3.361,3.361,0,0,0,1.333,1.93c1.614,1.1,3.887.563,5.246.239.236-.056.5-.12.6-.132,1.518-.178,1.907.5,2.45,2.914a8.326,8.326,0,0,0,.749,2.31,2.4,2.4,0,0,0,2.142,1.3,2.961,2.961,0,0,0,.5-.043,3.209,3.209,0,0,0,2.741-2.387,10.008,10.008,0,0,0,.137-3.24,13.645,13.645,0,0,1,.011-2.712,6.438,6.438,0,0,1,.418-1.49,5.138,5.138,0,0,0,.169-3.755,8.244,8.244,0,0,0-.616-1.549c-.27-.547-.266-.558-.189-.745.088-.215.137-.257.679-.416a2.8,2.8,0,0,0,1.915-1.372,4.116,4.116,0,0,0,.007-3.45c-.04-.117-.088-.258-.123-.377.5-.215.929-.012,1.958.683,1.063.718,2.67,1.8,4.576.672A2.606,2.606,0,0,0,72.9,40.291a9.8,9.8,0,0,0-.8-2.414,7.338,7.338,0,0,1-.574-1.659c1-1.216.345-2.676-.09-3.65l-.014-.031h7.687a3.711,3.711,0,0,0,3.707-3.707V14A3.712,3.712,0,0,0,79.11,10.3Zm-21,11.233h22.24v3.032H58.105Zm1.236-8.762H79.11A1.237,1.237,0,0,1,80.345,14V19.06H58.105V14a1.237,1.237,0,0,1,1.236-1.236Zm19.769,17.3H62.95a1.236,1.236,0,0,0-.836.325l-4.009,3.681V27.034h22.24v1.8A1.237,1.237,0,0,1,79.11,30.066Z" transform="translate(0 0)"/>
    </g>
  </g>
</svg>
