<svg xmlns="http://www.w3.org/2000/svg" width="85" height="85" viewBox="0 0 85 85">
  <g id="Grupo_1115767" data-name="Grupo 1115767" transform="translate(-179.711 -2281)">
    <rect id="Rectángulo_407620" data-name="Rectángulo 407620" width="85" height="85" rx="10" transform="translate(179.711 2281)" fill="#75b8fb"/>
    <g id="Grupo_1116999" data-name="Grupo 1116999" transform="translate(189.712 2286.143)">
      <g id="Grupo_1116997" data-name="Grupo 1116997" transform="translate(0.951 6.515)">
        <g id="Grupo_1116995" data-name="Grupo 1116995" transform="translate(4.548 0)">
          <path id="Trazado_887407" data-name="Trazado 887407" d="M236.347,13.059a2.858,2.858,0,0,0-2.858,2.858v7.627H239.2V15.917A2.858,2.858,0,0,0,236.347,13.059Z" transform="translate(-209.347 -13.059)" fill="#ffe07d"/>
          <path id="Trazado_887408" data-name="Trazado 887408" d="M239.205,140.514v20.2l-2.858,1.55-2.857-1.55v-20.2a2.858,2.858,0,1,1,5.715,0Z" transform="translate(-209.348 -121.838)" fill="#ffe07d"/>
          <g id="Grupo_1116993" data-name="Grupo 1116993" transform="translate(24.142 0)">
            <path id="Trazado_887409" data-name="Trazado 887409" d="M237.669,13.386a2.854,2.854,0,0,0-1.537,2.533v7.627h-2.643V15.919a2.858,2.858,0,0,1,4.18-2.534Z" transform="translate(-233.489 -13.062)" fill="#ffd064"/>
            <path id="Trazado_887410" data-name="Trazado 887410" d="M237.669,137.98a2.854,2.854,0,0,0-1.537,2.533v20.2h-2.643v-20.2a2.858,2.858,0,0,1,4.18-2.533Z" transform="translate(-233.489 -121.838)" fill="#ffd064"/>
            <path id="Trazado_887411" data-name="Trazado 887411" d="M239.205,133.375v5.218a7.028,7.028,0,0,1-5.715,0v-5.218a2.858,2.858,0,1,1,5.715,0Z" transform="translate(-233.49 -115.606)" fill="#ffd064"/>
          </g>
          <path id="Trazado_887412" data-name="Trazado 887412" d="M116.128,71.3h-39.4a3.5,3.5,0,1,0,0,7.007H89.421a7.007,7.007,0,1,0,14.015,0h12.693a3.5,3.5,0,1,0,0-7.007Z" transform="translate(-69.428 -63.906)" fill="#ffe07d"/>
          <path id="Trazado_887413" data-name="Trazado 887413" d="M77.3,74.8a3.5,3.5,0,0,0,3.5,3.5H76.729a3.5,3.5,0,0,1,0-7.007H80.8A3.5,3.5,0,0,0,77.3,74.8Z" transform="translate(-69.43 -63.906)" fill="#ffd064"/>
          <circle id="Elipse_11718" data-name="Elipse 11718" cx="3.091" cy="3.091" r="3.091" transform="translate(23.909 11.31)" fill="#ffd064"/>
          <g id="Grupo_1116994" data-name="Grupo 1116994" transform="translate(0 25.494)">
            <path id="Trazado_887414" data-name="Trazado 887414" d="M74.824,229.491a7.94,7.94,0,1,1-15.88,0Z" transform="translate(-56.961 -227.508)" fill="#ffe07d"/>
            <path id="Trazado_887415" data-name="Trazado 887415" d="M74.826,229.491a7.9,7.9,0,0,1-1.06,3.965H60.005a7.9,7.9,0,0,1-1.059-3.965Z" transform="translate(-56.963 -227.508)" fill="#ffd064"/>
            <path id="Trazado_887416" data-name="Trazado 887416" d="M69.828,236.868a7.944,7.944,0,0,1-10.882-7.376H64.83A7.942,7.942,0,0,0,69.828,236.868Z" transform="translate(-56.963 -227.509)" fill="#ffd064"/>
            <path id="Trazado_887417" data-name="Trazado 887417" d="M61.188,217.838H45.308a1.983,1.983,0,1,1,0-3.965h15.88a1.983,1.983,0,0,1,0,3.965Z" transform="translate(-43.326 -213.873)" fill="#ffe07d"/>
            <path id="Trazado_887418" data-name="Trazado 887418" d="M50.53,217.838H45.309a1.983,1.983,0,1,1,0-3.965H50.53a1.983,1.983,0,1,0,0,3.965Z" transform="translate(-43.326 -213.873)" fill="#ffd064"/>
            <path id="Trazado_887419" data-name="Trazado 887419" d="M343.856,229.494a7.94,7.94,0,1,1-15.88,0Z" transform="translate(-291.839 -227.511)" fill="#ffe07d"/>
            <path id="Trazado_887420" data-name="Trazado 887420" d="M343.857,229.494a7.9,7.9,0,0,1-1.06,3.965h-13.76a7.9,7.9,0,0,1-1.059-3.965Z" transform="translate(-291.84 -227.511)" fill="#ffd064"/>
            <path id="Trazado_887421" data-name="Trazado 887421" d="M338.859,236.871a7.944,7.944,0,0,1-10.882-7.376h5.884A7.942,7.942,0,0,0,338.859,236.871Z" transform="translate(-291.84 -227.512)" fill="#ffd064"/>
            <path id="Trazado_887422" data-name="Trazado 887422" d="M330.22,217.84H314.34a1.983,1.983,0,0,1,0-3.965h15.88a1.983,1.983,0,0,1,0,3.965Z" transform="translate(-278.203 -213.875)" fill="#ffe07d"/>
            <path id="Trazado_887423" data-name="Trazado 887423" d="M319.562,217.84H314.34a1.983,1.983,0,0,1,0-3.965h5.221a1.983,1.983,0,1,0,0,3.965Z" transform="translate(-278.203 -213.875)" fill="#ffd064"/>
          </g>
          <path id="Trazado_887424" data-name="Trazado 887424" d="M181.249,331.719H155.81V321.88a2.63,2.63,0,0,1,2.63-2.63h20.179a2.63,2.63,0,0,1,2.63,2.63v9.839Z" transform="translate(-141.53 -280.378)" fill="#ffe07d"/>
          <path id="Trazado_887425" data-name="Trazado 887425" d="M163.011,330.528l-5.8,1.19a.072.072,0,0,1-.047-.018c-1.792-1.582-1.6-10.656-.581-11.681a2.622,2.622,0,0,1,1.86-.77h7.2a2.629,2.629,0,0,0-2.63,2.63v8.649Z" transform="translate(-141.53 -280.377)" fill="#ffd064"/>
        </g>
        <g id="Grupo_1116996" data-name="Grupo 1116996" transform="translate(0 39.9)">
          <path id="Trazado_887426" data-name="Trazado 887426" d="M285.007,327.349v11.673l-22.823,3.306L256,347.022v-8.1a8.514,8.514,0,0,1,7.264-8.421l.029-.005,4.853-.7Z" transform="translate(-224.452 -327.349)" fill="#e7ecf6"/>
          <path id="Trazado_887427" data-name="Trazado 887427" d="M265.943,349.1a9.315,9.315,0,0,0-5.3,8.4v4.035L256,366.011v-8.1a8.514,8.514,0,0,1,7.264-8.421l.029-.005Z" transform="translate(-224.452 -346.339)" fill="#d8e2f1"/>
          <path id="Trazado_887428" data-name="Trazado 887428" d="M56.519,338.92v8.1l-6.19-3.8-22.818-4.2V327.348l16.861,2.443,4.853.7.029.005A8.514,8.514,0,0,1,56.519,338.92Z" transform="translate(-24.97 -327.348)" fill="#e7ecf6"/>
          <path id="Trazado_887429" data-name="Trazado 887429" d="M9.675,404.333l7.373,1.068,9.111,1.32,5.22.756a8.826,8.826,0,0,0,15.334,0l21.705-3.144a2.541,2.541,0,0,0-.729-5.029l-23.056,3.341a2.541,2.541,0,0,0-1.987,1.55l-.136.331a3.744,3.744,0,0,1-6.928,0l-.136-.333a2.541,2.541,0,0,0-1.987-1.55l-7.3-1.058-9.111-1.32L10.4,399.3a2.541,2.541,0,0,0-.729,5.029Z" transform="translate(-7.499 -390.146)" fill="gray"/>
          <path id="Trazado_887430" data-name="Trazado 887430" d="M68.421,412.027l-21.705,3.144a8.826,8.826,0,0,1-15.334,0l-5.22-.756-9.111-1.32-7.373-1.068a2.541,2.541,0,0,1-1.741-3.935,2.534,2.534,0,0,0,1.741,1.094l7.373,1.068,9.111,1.32,5.22.756a8.826,8.826,0,0,0,15.334,0l21.705-3.144a2.528,2.528,0,0,0,1.741-1.095,2.543,2.543,0,0,1-1.741,3.936Z" transform="translate(-7.501 -397.84)" fill="#595959"/>
          <path id="Trazado_887431" data-name="Trazado 887431" d="M366.622,384.571V397.78a1.308,1.308,0,0,1-2.115,1.029l-1.634-1.282a1.311,1.311,0,0,0-1.614,0l-1.634,1.282a1.308,1.308,0,0,1-2.115-1.029V385.891Z" transform="translate(-313.076 -377.306)" fill="#dd636e"/>
          <path id="Trazado_887432" data-name="Trazado 887432" d="M366.621,384.571v4.645l-9.111,1.32V385.89Z" transform="translate(-313.075 -377.306)" fill="#da4a54"/>
        </g>
      </g>
      <g id="Grupo_1116998" data-name="Grupo 1116998" transform="translate(-0.001 5.563)">
        <path id="Trazado_887433" data-name="Trazado 887433" d="M228.2,94.652a4.043,4.043,0,1,0,4.043,4.043A4.048,4.048,0,0,0,228.2,94.652Zm0,6.182a2.139,2.139,0,1,1,2.139-2.139A2.141,2.141,0,0,1,228.2,100.834Z" transform="translate(-195.696 -83.342)"/>
        <path id="Trazado_887434" data-name="Trazado 887434" d="M64.962,57.587a3.5,3.5,0,0,0-2.5-2.861V46.415a.952.952,0,0,0-1.089-.942l-15.216,2.2a3.587,3.587,0,0,0-3.566-3.242H36.309V27.9A7.976,7.976,0,0,0,40.4,21.869h7.7l-4.134,9.188H41.637a2.935,2.935,0,0,0-.468,5.832,8.893,8.893,0,0,0,16.816,0,2.935,2.935,0,0,0-.469-5.831H55.183l-4.134-9.188H52.2a4.456,4.456,0,1,0,0-8.912H48.5a.952.952,0,1,0,0,1.9h3.7a2.552,2.552,0,1,1,0,5.1H39.507a.952.952,0,0,0-.952.952,6.056,6.056,0,0,1-12.111,0,.952.952,0,0,0-.952-.952H12.8a2.552,2.552,0,1,1,0-5.1H44.688a.952.952,0,1,0,0-1.9H36.309V9.373a3.81,3.81,0,1,0-7.62,0v3.584H12.8a4.456,4.456,0,1,0,0,8.912h1.15L9.815,31.056H7.483a2.935,2.935,0,0,0-.467,5.832,8.893,8.893,0,0,0,16.816,0,2.935,2.935,0,0,0-.469-5.831H21.029L16.9,21.868h7.7A7.975,7.975,0,0,0,28.69,27.9V44.434H22.411a3.587,3.587,0,0,0-3.566,3.242l-15.216-2.2a.952.952,0,0,0-1.089.942v8.312a3.493,3.493,0,0,0,.451,6.817l19.944,2.888.018,0,1.3.188a9.78,9.78,0,0,0,16.5,0l3.685-.533v2.8a2.257,2.257,0,0,0,3.655,1.778l1.632-1.281a.357.357,0,0,1,.44,0l1.634,1.282a2.26,2.26,0,0,0,3.654-1.778V62.493l6.557-.949a3.492,3.492,0,0,0,2.956-3.956ZM49.576,40.979a6.984,6.984,0,0,1-6.343-4.053H55.92A6.985,6.985,0,0,1,49.576,40.979Zm8.97-6.987a1.032,1.032,0,0,1-1.03,1.03H41.637a1.03,1.03,0,1,1,0-2.061H57.516A1.031,1.031,0,0,1,58.546,33.992ZM46.057,31.057l3.519-7.82,3.519,7.82ZM30.594,9.373a1.906,1.906,0,0,1,3.811,0v3.584H30.594ZM15.422,40.978A6.983,6.983,0,0,1,9.08,36.926H21.766A6.985,6.985,0,0,1,15.422,40.978Zm8.97-6.987a1.032,1.032,0,0,1-1.03,1.03H7.483a1.03,1.03,0,0,1,0-2.061H23.362A1.031,1.031,0,0,1,24.392,33.991ZM11.9,31.056l3.519-7.82,3.519,7.82Zm20.6-2.181a7.946,7.946,0,0,0,1.906-.232V44.434H30.594V28.643A7.952,7.952,0,0,0,32.5,28.875ZM60.554,54.7l-5.1.739V53.679a.952.952,0,0,0-1.089-.942l-9.111,1.32a.952.952,0,0,0-.816.942v2.032l-6.485.939A3.511,3.511,0,0,0,35.217,60.1l-.135.331A2.78,2.78,0,0,1,33.452,62V57.986A7.562,7.562,0,0,1,39.9,50.506l.036-.006,20.615-2.986V54.7ZM22.41,46.339H42.588a1.679,1.679,0,0,1,1.675,1.612l-4.6.666-.066.011a9.455,9.455,0,0,0-7.1,5.225,9.455,9.455,0,0,0-7.1-5.225l-.066-.011-4.6-.666a1.679,1.679,0,0,1,1.675-1.612ZM40.03,62.8a.952.952,0,0,0-.692.472,7.873,7.873,0,0,1-13.677,0,.952.952,0,0,0-.692-.472L3.264,59.659a1.588,1.588,0,0,1,.456-3.144l8.769,1.271a.952.952,0,0,0,.273-1.885L4.445,54.7V47.515L25.06,50.5l.036.006a7.562,7.562,0,0,1,6.452,7.479V62a2.78,2.78,0,0,1-1.63-1.564l-.137-.333a3.509,3.509,0,0,0-2.731-2.13L16.523,56.446a.952.952,0,1,0-.273,1.885l10.528,1.525a1.6,1.6,0,0,1,1.241.969l.136.332a4.7,4.7,0,0,0,8.689,0l.134-.33a1.6,1.6,0,0,1,1.243-.971l6.213-.9v3.21Zm13.516,4.085a.355.355,0,0,1-.575.28l-1.634-1.282a2.258,2.258,0,0,0-2.789,0l-1.634,1.282a.356.356,0,0,1-.575-.28V55.823l7.207-1.044V66.888Zm9.234-7.85a1.576,1.576,0,0,1-1.045.621l-6.285.91v-3.21l5.829-.844a1.589,1.589,0,0,1,1.5,2.523Z" transform="translate(0.001 -5.563)"/>
      </g>
    </g>
  </g>
</svg>
