<svg xmlns="http://www.w3.org/2000/svg" width="85" height="91" viewBox="0 0 85 91">
  <g id="Grupo_1115446" data-name="Grupo 1115446" transform="translate(-180.089 -7347)">
    <rect id="Rectángulo_408606" data-name="Rectángulo 408606" width="85" height="91" transform="translate(180.089 7347)" fill="#c8e3fd"/>
    <g id="Grupo_1117062" data-name="Grupo 1117062" transform="translate(179.428 7338.442)">
      <path id="Trazado_887636" data-name="Trazado 887636" d="M47.784,29.991h5.692a6.082,6.082,0,0,1,6.066,6.066v8.238a11.144,11.144,0,0,1,5.782,16.921,1.659,1.659,0,0,1,.355,1.31l2.282,2.693a1.694,1.694,0,0,1,1.718.554l4.53,5.383h0a2.141,2.141,0,0,1-.263,3.017v0l-1.885,1.581a2.146,2.146,0,0,1-3.022-.265l-4.529-5.381h0a1.7,1.7,0,0,1-.237-1.816L61.995,65.6a1.661,1.661,0,0,1-1.21-.576,11.082,11.082,0,0,1-1.244.482V76.136A6.082,6.082,0,0,1,53.476,82.2H22.066A6.082,6.082,0,0,1,16,76.136V36.057a6.082,6.082,0,0,1,6.066-6.066h5.692v-.7a.781.781,0,0,1,.781-.781H32.97c.738-1.724,2.861-2.594,4.8-2.594s4.063.87,4.8,2.594H47a.781.781,0,0,1,.781.781v.7Z" transform="translate(0 0)" fill-rule="evenodd"/>
      <path id="Trazado_887637" data-name="Trazado 887637" d="M62.81,99.19H57.118a1.186,1.186,0,0,0-1.181,1.181V140.45a1.186,1.186,0,0,0,1.181,1.181h31.41a1.186,1.186,0,0,0,1.181-1.181v-10.2q-.327-.044-.651-.107a11.085,11.085,0,0,1-6.329-3.706l-.008-.008h0l-.043-.051a11.124,11.124,0,0,1,1.3-15.634l.008-.009h0a11.093,11.093,0,0,1,5.722-2.557v-7.808a1.186,1.186,0,0,0-1.181-1.181H82.835v.687a.781.781,0,0,1-.781.781H63.591a.781.781,0,0,1-.781-.781V99.19Zm9.383,4.083a.78.78,0,0,1,1.26,0q12.412,13.9.152,21.862v2.3a.781.781,0,1,1-1.563,0v-2.3q-12.261-7.963.152-21.863ZM60.137,132.312a.781.781,0,1,1,0-1.563h.237a.781.781,0,1,1,0,1.563Zm3.048,0a.781.781,0,1,1,0-1.563H85.508a.781.781,0,0,1,0,1.563Zm-3.048,5.211a.781.781,0,1,1,0-1.563h.237a.781.781,0,1,1,0,1.563Zm3.048,0a.781.781,0,1,1,0-1.563H85.508a.781.781,0,1,1,0,1.563Z" transform="translate(-35.052 -64.314)" fill="#e6e6e6" fill-rule="evenodd"/>
      <path id="Trazado_887638" data-name="Trazado 887638" d="M65.165,99.191H59.473a1.178,1.178,0,0,0-.853.367,27.942,27.942,0,0,0,9.737,17.195q-.626-5.844,6.191-13.478a.78.78,0,0,1,1.26,0q10.378,11.622,3.506,19.093a27.891,27.891,0,0,0,3.789.692,11.131,11.131,0,0,1,3.231-12.315l.008-.009h0a11.093,11.093,0,0,1,5.722-2.557v-7.808a1.186,1.186,0,0,0-1.181-1.181H85.19v.687a.781.781,0,0,1-.781.781H65.946a.781.781,0,0,1-.781-.781v-.687Z" transform="translate(-37.407 -64.315)" fill="#fff" fill-rule="evenodd"/>
      <path id="Trazado_887639" data-name="Trazado 887639" d="M274.831,203.78l.066,0A9.555,9.555,0,0,0,280,202.7a.78.78,0,0,1,.994.232l.342.407a.122.122,0,0,0,.154.014l1.938-1.628h0c.105-.105.128-.108.017-.255l-.328-.391a.778.778,0,0,1-.019-.978l0,0a9.573,9.573,0,1,0-14.945.245.758.758,0,0,1,.09.107,9.572,9.572,0,0,0,6.6,3.333Zm-4.9-15.206a8.01,8.01,0,1,1,0,11.328A8.01,8.01,0,0,1,269.934,188.575Z" transform="translate(-219.372 -139.329)" fill="#f2aa24" fill-rule="evenodd"/>
      <path id="Trazado_887640" data-name="Trazado 887640" d="M284.973,192.7a9.577,9.577,0,1,0-18.163,5.522q.707.035,1.423.036c.143,0,.285,0,.427-.005a8.011,8.011,0,1,1,14.927-4.583Q284.3,193.2,284.973,192.7Z" transform="translate(-219.372 -139.33)" fill="#ffc447" fill-rule="evenodd"/>
      <path id="Trazado_887641" data-name="Trazado 887641" d="M67.433,106.515v10.1a2.75,2.75,0,0,1-2.744,2.744H33.279a2.75,2.75,0,0,1-2.744-2.744V76.535a2.75,2.75,0,0,1,2.744-2.744h5.692v-1.76H33.279a4.519,4.519,0,0,0-4.5,4.5v40.079a4.518,4.518,0,0,0,4.5,4.5h31.41a4.518,4.518,0,0,0,4.5-4.5v-10.25a11.145,11.145,0,0,1-1.76.15Z" transform="translate(-11.213 -40.478)" fill="#6db2e3" fill-rule="evenodd"/>
      <path id="Trazado_887642" data-name="Trazado 887642" d="M56.132,74.006a2.722,2.722,0,0,1,1.061-.214h5.692v-1.76H57.193a4.467,4.467,0,0,0-1.17.156q.026.917.109,1.818Z" transform="translate(-35.127 -40.478)" fill="#8cccfe" fill-rule="evenodd"/>
      <path id="Trazado_887643" data-name="Trazado 887643" d="M275.834,73.792h5.692a2.749,2.749,0,0,1,2.744,2.744v7.709a11.115,11.115,0,0,1,1.76.151v-7.86a4.518,4.518,0,0,0-4.5-4.5h-5.692v1.76Z" transform="translate(-228.05 -40.479)" fill="#8cccfe" fill-rule="evenodd"/>
      <path id="Trazado_887644" data-name="Trazado 887644" d="M129.122,41.283H124.9V46h16.9V41.283H137.58v0a.779.779,0,0,1-.766-.641c-.311-1.722-3.728-2.641-5.872-1.326a2.135,2.135,0,0,0-1.043,1.273.781.781,0,0,1-.777.7Z" transform="translate(-95.58 -11.214)" fill="#5aa1d8" fill-rule="evenodd"/>
      <circle id="Elipse_11727" data-name="Elipse 11727" cx="6.448" cy="6.448" r="6.448" transform="translate(49.778 48.462)" fill="#96c9f2"/>
      <g id="Grupo_1117061" data-name="Grupo 1117061" transform="translate(32.594 41.542)">
        <path id="Trazado_887645" data-name="Trazado 887645" d="M298.586,210.258a6.448,6.448,0,0,0-5.116,10.372,27.8,27.8,0,0,0,11.552-3.546c.007-.125.011-.251.011-.378A6.448,6.448,0,0,0,298.586,210.258Z" transform="translate(-274.954 -203.338)" fill="#b9e0ff" fill-rule="evenodd"/>
        <path id="Trazado_887646" data-name="Trazado 887646" d="M203.531,193.631l-3.162,3.162V200.4l4.117-4.117a13.736,13.736,0,0,0-.955-2.656Z" transform="translate(-194.411 -188.745)" fill="#5cab45" fill-rule="evenodd"/>
        <path id="Trazado_887647" data-name="Trazado 887647" d="M158.053,196.792l-3.162-3.162a13.736,13.736,0,0,0-.955,2.656l4.117,4.117Z" transform="translate(-153.657 -188.744)" fill="#5cab45" fill-rule="evenodd"/>
        <path id="Trazado_887648" data-name="Trazado 887648" d="M167.983,157.129l2.4,2.4V153.69a27.847,27.847,0,0,0-2.4,3.439Z" transform="translate(-165.986 -153.69)" fill="#5cab45" fill-rule="evenodd"/>
        <path id="Trazado_887649" data-name="Trazado 887649" d="M200.368,159.526l2.4-2.4a27.843,27.843,0,0,0-2.4-3.439v5.838Z" transform="translate(-194.41 -153.688)" fill="#5cab45" fill-rule="evenodd"/>
        <path id="Trazado_887650" data-name="Trazado 887650" d="M204.758,231.182l-4.39,4.39v3.513Q204.927,235.731,204.758,231.182Z" transform="translate(-194.41 -221.703)" fill="#4c9137" fill-rule="evenodd"/>
        <path id="Trazado_887651" data-name="Trazado 887651" d="M204.758,231.182l-4.39,4.39v1.552q.8.317,1.622.584A8.49,8.49,0,0,0,204.758,231.182Z" transform="translate(-194.41 -221.703)" fill="#5cab45" fill-rule="evenodd"/>
        <path id="Trazado_887652" data-name="Trazado 887652" d="M156.053,235.572l-4.39-4.39q-.169,4.549,4.39,7.9Z" transform="translate(-151.658 -221.703)" fill="#4c9137" fill-rule="evenodd"/>
        <path id="Trazado_887653" data-name="Trazado 887653" d="M156.053,235.572l-4.39-4.39a8.022,8.022,0,0,0,.45,3.007,27.967,27.967,0,0,0,3.94,2.257Z" transform="translate(-151.658 -221.703)" fill="#5cab45" fill-rule="evenodd"/>
        <path id="Trazado_887654" data-name="Trazado 887654" d="M424.72,359.619l-2.573,2.159,0,0a.144.144,0,0,0-.013.191h0l4.53,5.382a.6.6,0,0,0,.83.07l1.885-1.581v0a.594.594,0,0,0,.066-.825h0l-4.529-5.381A.148.148,0,0,0,424.72,359.619Z" transform="translate(-389.021 -334.402)" fill="#f2aa24" fill-rule="evenodd"/>
        <path id="Trazado_887655" data-name="Trazado 887655" d="M405.9,339.3l1.289-1.082-1.911-2.255-1.288,1.083Z" transform="translate(-373.128 -313.668)" fill="#f2aa24" fill-rule="evenodd"/>
      </g>
    </g>
  </g>
</svg>
