<svg id="Grupo_1116356" data-name="Grupo 1116356" xmlns="http://www.w3.org/2000/svg" width="100" height="100" viewBox="0 0 100 100">
  <rect id="Rectángulo_402033" data-name="Rectángulo 402033" width="100" height="100" rx="5" transform="translate(0)" fill="#d7f5ea"/>
  <g id="Grupo_1117138" data-name="Grupo 1117138" transform="translate(8.875 8.875)">
    <circle id="Elipse_11736" data-name="Elipse 11736" cx="39.5" cy="39.5" r="39.5" transform="translate(2 1.249)" fill="#3acc97"/>
    <circle id="Elipse_11737" data-name="Elipse 11737" cx="31" cy="31" r="31" transform="translate(10 10.249)" fill="#d7e6d8"/>
    <path id="Trazado_887903" data-name="Trazado 887903" d="M172.6,194.195a13.06,13.06,0,0,1-18.469-18.469c10.592-10.592,33.552-.071,33.552-.071S177.7,189.095,172.6,194.195Z" transform="translate(-125.675 -142.983)" fill="#3acc97"/>
    <g id="Grupo_1117137" data-name="Grupo 1117137">
      <path id="Trazado_887904" data-name="Trazado 887904" d="M70.2,12.045A41.124,41.124,0,1,0,12.045,70.2,41.124,41.124,0,1,0,70.2,12.045ZM41.125,78.972A37.848,37.848,0,1,1,78.972,41.125,37.89,37.89,0,0,1,41.125,78.972Z" fill="#333"/>
      <path id="Trazado_887905" data-name="Trazado 887905" d="M83.769,51a32.769,32.769,0,1,0,32.769,32.769A32.806,32.806,0,0,0,83.769,51Zm0,62.26A29.492,29.492,0,1,1,113.26,83.769,29.525,29.525,0,0,1,83.769,113.26Z" transform="translate(-42.644 -42.644)" fill="#333"/>
      <path id="Trazado_887906" data-name="Trazado 887906" d="M177.441,166.888a1.638,1.638,0,0,0-.9-1.082,62.112,62.112,0,0,0-13.189-4.058,36.615,36.615,0,0,0-11.559-.484,18.132,18.132,0,0,0-10.645,4.944,14.7,14.7,0,0,0-2.113,18.119,34.846,34.846,0,0,0-2.694,4.42,1.638,1.638,0,1,0,2.926,1.476,30.256,30.256,0,0,1,1.9-3.213,14.7,14.7,0,0,0,20.77-.016c5.126-5.126,14.829-18.169,15.24-18.722A1.64,1.64,0,0,0,177.441,166.888Zm-17.829,17.789h0a11.421,11.421,0,1,1-16.152-16.152c3.18-3.18,7.677-4.249,12.29-4.249a48.284,48.284,0,0,1,14.3,2.582,68.685,68.685,0,0,0-12.781,3.935,1.639,1.639,0,1,0,1.323,3,68.361,68.361,0,0,1,13.29-3.96C168.58,174.15,162.97,181.319,159.613,184.676Z" transform="translate(-113.851 -134.623)" fill="#333"/>
      <path id="Trazado_887907" data-name="Trazado 887907" d="M223.3,234.394a16.539,16.539,0,0,0-2.216,1.782,1.638,1.638,0,1,0,2.281,2.352,13.258,13.258,0,0,1,1.776-1.423,1.638,1.638,0,0,0-1.841-2.711Z" transform="translate(-184.445 -195.754)" fill="#333"/>
      <path id="Trazado_887908" data-name="Trazado 887908" d="M242.638,88.277a24.1,24.1,0,0,1,4.908.5,1.638,1.638,0,1,0,.669-3.208A27.372,27.372,0,0,0,242.638,85a1.638,1.638,0,0,0,0,3.277Z" transform="translate(-201.514 -71.073)" fill="#333"/>
      <path id="Trazado_887909" data-name="Trazado 887909" d="M105.6,94.213a1.638,1.638,0,0,0-.9-3.15A27.392,27.392,0,0,0,90.586,100.7,26.95,26.95,0,0,0,85,117.214a1.638,1.638,0,0,0,3.277,0A24.019,24.019,0,0,1,105.6,94.213Z" transform="translate(-71.073 -76.09)" fill="#333"/>
    </g>
  </g>
</svg>
