<svg xmlns="http://www.w3.org/2000/svg" width="85" height="67" viewBox="0 0 85 67">
  <g id="Grupo_1117130" data-name="Grupo 1117130" transform="translate(-179.949 -5045)">
    <rect id="Rectángulo_409847" data-name="Rectángulo 409847" width="85" height="67" transform="translate(179.949 5045)" fill="#81c784"/>
    <g id="Grupo_1117129" data-name="Grupo 1117129" transform="translate(182.581 5038.632)">
      <path id="Trazado_887860" data-name="Trazado 887860" d="M41.934,207.956a7.892,7.892,0,0,0-.6-1.419l1.763-1.763-3.182-3.182-1.763,1.763a7.892,7.892,0,0,0-1.419-.6V200H31.956v2.752a7.892,7.892,0,0,0-1.419.6l-1.763-1.763-3.182,3.182,1.763,1.763a7.892,7.892,0,0,0-.6,1.419H24v4.774h2.752a7.891,7.891,0,0,0,.6,1.419l-1.763,1.763,3.182,3.182,1.763-1.763a7.891,7.891,0,0,0,1.419.6v2.752H36.73v-2.752a7.891,7.891,0,0,0,1.419-.6l1.763,1.763,3.182-3.182-1.763-1.763a7.891,7.891,0,0,0,.6-1.419h2.752v-4.774Z" transform="translate(-7.204 -165.701)" fill="#3397e8"/>
      <ellipse id="Elipse_11733" data-name="Elipse 11733" cx="5.5" cy="6" rx="5.5" ry="6" transform="translate(21.368 38.368)" fill="#e9eef2"/>
      <ellipse id="Elipse_11734" data-name="Elipse 11734" cx="2" cy="2.5" rx="2" ry="2.5" transform="translate(25.368 42.368)" fill="#2978b8"/>
      <path id="Trazado_887861" data-name="Trazado 887861" d="M167.824,70.145a3.182,3.182,0,0,0,3.182-3.182V24H136V70.145Z" transform="translate(-108.066 -7.204)" fill="#e9eef2"/>
      <path id="Trazado_887862" data-name="Trazado 887862" d="M44.335,39.156A6.366,6.366,0,0,0,42.7,36.33L31.209,24.844A2.881,2.881,0,0,0,29.172,24h0a2.881,2.881,0,0,0-2.037.844l-2.29,2.29a2.881,2.881,0,0,0,0,4.074L36.331,42.7a6.365,6.365,0,0,0,2.826,1.64l7.121,1.942Z" transform="translate(-7.205 -7.204)" fill="#fbe9d8"/>
      <path id="Trazado_887863" data-name="Trazado 887863" d="M27.134,24.844l-2.29,2.29A2.881,2.881,0,0,0,24,29.171h0a2.881,2.881,0,0,0,.844,2.037l2.339,2.339,6.365-6.365-2.339-2.339A2.881,2.881,0,0,0,29.171,24h0a2.881,2.881,0,0,0-2.037.844Z" transform="translate(-7.204 -7.204)" fill="#eb423f"/>
      <path id="Trazado_887864" data-name="Trazado 887864" d="M104,408h31.824v4.774a3.182,3.182,0,0,0,3.182,3.182H107.182A3.182,3.182,0,0,1,104,412.774Z" transform="translate(-79.248 -353.015)" fill="#dadcde"/>
      <rect id="Rectángulo_410263" data-name="Rectángulo 410263" width="7" height="15" transform="translate(51.368 21.368)" fill="#dadcde"/>
      <path id="Trazado_887865" data-name="Trazado 887865" d="M197.72,201.356l5,1.364-1.364-5Z" transform="translate(-163.648 -163.648)" fill="#414649"/>
      <path id="Trazado_887866" data-name="Trazado 887866" d="M56,62.365l9.147,9.147,0,0,6.365-6.365,0,0L62.365,56Z" transform="translate(-36.022 -36.022)" fill="#3397e8"/>
      <rect id="Rectángulo_410264" data-name="Rectángulo 410264" width="3.375" height="13.502" transform="translate(21.569 23.956) rotate(-45)" fill="#2978b8"/>
      <circle id="Elipse_11735" data-name="Elipse 11735" cx="2" cy="2" r="2" transform="translate(43.368 43.368)" fill="#3397e8"/>
      <rect id="Rectángulo_410265" data-name="Rectángulo 410265" width="9" height="6" transform="translate(32.368 42.368)" fill="#eb423f"/>
      <rect id="Rectángulo_410266" data-name="Rectángulo 410266" width="8" height="6" transform="translate(50.368 42.368)" fill="#3dc285"/>
      <rect id="Rectángulo_410267" data-name="Rectángulo 410267" width="8" height="2" transform="translate(41.368 52.368)" fill="#ffd33a"/>
      <rect id="Rectángulo_410268" data-name="Rectángulo 410268" width="9.001" height="2.25" transform="translate(18.387 24.752) rotate(-45)" fill="#ffd33a"/>
      <path id="Trazado_887867" data-name="Trazado 887867" d="M62.941,16H27.934a.8.8,0,0,0-.8.8v2.853l-2.571-2.571a3.677,3.677,0,0,0-5.2,0l-2.29,2.29a3.677,3.677,0,0,0,0,5.2L26.013,33.5H24.752a.8.8,0,0,0-.8.8v2.189q-.236.092-.466.2l-1.358-1.358a.8.8,0,0,0-1.125,0L17.824,38.51a.8.8,0,0,0,0,1.125l1.358,1.358q-.106.23-.2.467H16.8a.8.8,0,0,0-.8.8v4.774a.8.8,0,0,0,.8.8h2.189q.092.236.2.467l-1.358,1.358a.8.8,0,0,0,0,1.125l3.182,3.182a.8.8,0,0,0,1.125,0L23.49,52.6q.23.106.466.2v6.962a3.983,3.983,0,0,0,3.978,3.978H59.758a3.982,3.982,0,0,0,3.978-3.978V16.8A.8.8,0,0,0,62.941,16ZM34.367,29.127l-.864.864-8.024-8.024.864-.864Zm3.572,8.811L35.6,37.3l1.7-1.7Zm-4.1-1.119-1.675-.457a5.579,5.579,0,0,1-1.867-.912l5.157-5.157a5.579,5.579,0,0,1,.912,1.867l.457,1.675ZM19.512,24.752l5.24-5.24.466.466-5.24,5.24Zm4.842-1.659,8.024,8.024-1.262,1.262-8.024-8.024Zm-6.152-2.6,2.29-2.29a2.085,2.085,0,0,1,2.949,0l.185.185-5.24,5.24-.185-.185A2.085,2.085,0,0,1,18.2,20.492Zm3.765,4.987L29.991,33.5l-.864.864L21.1,26.343Zm5.171,20.754a1.591,1.591,0,1,1,0-3.182Zm0-4.774a3.182,3.182,0,1,0,0,6.365v1.591a4.774,4.774,0,1,1,0-9.547Zm-3.425,9.472a.8.8,0,0,0-.944.136l-1.2,1.2-2.057-2.057,1.2-1.2a.8.8,0,0,0,.136-.944,7.1,7.1,0,0,1-.542-1.276.8.8,0,0,0-.759-.558H17.591V43.05h1.956a.8.8,0,0,0,.759-.558,7.1,7.1,0,0,1,.542-1.276.8.8,0,0,0-.136-.944l-1.2-1.2,2.057-2.057,1.2,1.2a.8.8,0,0,0,.944.136,7.106,7.106,0,0,1,1.276-.542.8.8,0,0,0,.558-.759V35.094h1.591v3.182a6.365,6.365,0,1,0,0,12.73v3.182H25.547V52.233a.8.8,0,0,0-.558-.759,7.106,7.106,0,0,1-1.276-.542Zm4.221,11.213a2.39,2.39,0,0,1-2.387-2.387V55.78H55.78v3.978a3.958,3.958,0,0,0,.8,2.387ZM44.642,45.437a.8.8,0,1,1,.8.8A.8.8,0,0,1,44.642,45.437ZM48.62,52.6v1.591H42.255V52.6Zm13.525,7.16a2.387,2.387,0,1,1-4.774,0V54.985a.8.8,0,0,0-.8-.8H50.211V51.8a.8.8,0,0,0-.8-.8H46.233V47.687a2.4,2.4,0,0,0,1.454-1.454h1.728V48.62a.8.8,0,0,0,.8.8h7.956a.8.8,0,0,0,.8-.8V42.255a.8.8,0,0,0-.8-.8H50.211a.8.8,0,0,0-.8.8v2.387H47.687a2.387,2.387,0,0,0-4.5,0H41.459V42.255a.8.8,0,0,0-.8-.8H32.708a.8.8,0,0,0-.8.8V48.62a.8.8,0,0,0,.8.8h7.956a.8.8,0,0,0,.8-.8V46.233h1.728a2.4,2.4,0,0,0,1.454,1.454v3.319H41.459a.8.8,0,0,0-.8.8v2.387H28.73V36.214A7.174,7.174,0,0,0,31.742,37.9l7.121,1.942a.793.793,0,0,0,.21.028H51.8a.8.8,0,0,0,.8-.8V36.686h5.569a.8.8,0,0,0,.8-.8V21.569a.8.8,0,0,0-.8-.8H51.8a.8.8,0,0,0-.8.8V38.277H39.68l-.868-3.182h8.216a.8.8,0,1,0,0-1.591h-8.65l-.434-1.591h9.084a.8.8,0,1,0,0-1.591H37.34a7.172,7.172,0,0,0-1.126-1.591h2.858a.8.8,0,1,0,0-1.591H35.89a.8.8,0,0,0-.744.517L28.73,21.24V17.591H62.145ZM51.007,47.824V43.05h6.365v4.774ZM39.868,43.05v4.774H33.5V43.05ZM52.6,35.094V22.365h4.774v12.73Z"/>
      <path id="Trazado_887868" data-name="Trazado 887868" d="M224.8,65.591h3.182a.8.8,0,0,0,0-1.591H224.8a.8.8,0,0,0,0,1.591Z" transform="translate(-187.314 -43.226)"/>
      <path id="Trazado_887869" data-name="Trazado 887869" d="M208.8,97.591h11.138a.8.8,0,1,0,0-1.591H208.8a.8.8,0,0,0,0,1.591Z" transform="translate(-172.905 -72.044)"/>
      <path id="Trazado_887870" data-name="Trazado 887870" d="M288.8,65.591h3.182a.8.8,0,0,0,0-1.591H288.8a.8.8,0,0,0,0,1.591Z" transform="translate(-244.949 -43.226)"/>
      <path id="Trazado_887871" data-name="Trazado 887871" d="M277.569,128H272.8a.8.8,0,0,0,0,1.591h4.774a.8.8,0,0,0,0-1.591Z" transform="translate(-230.541 -100.862)"/>
    </g>
  </g>
</svg>
