<svg id="Grupo_1116344" data-name="Grupo 1116344" xmlns="http://www.w3.org/2000/svg" width="100" height="100" viewBox="0 0 100 100">
  <rect id="Rectángulo_402033" data-name="Rectángulo 402033" width="100" height="100" rx="5" transform="translate(0)" fill="#d7f5ea"/>
  <g id="Grupo_1117148" data-name="Grupo 1117148" transform="translate(15.739 16.404)">
    <g id="Grupo_1117146" data-name="Grupo 1117146" transform="translate(2.106 1.338)">
      <path id="Trazado_887930" data-name="Trazado 887930" d="M352.524,129.894,337.7,91l-6.614,17.331,8.208,21.564Z" transform="translate(-288.214 -80.158)" fill="#4fc497"/>
      <path id="Trazado_887931" data-name="Trazado 887931" d="M25.589,91,10.768,129.894H23.933l8.239-21.645Z" transform="translate(-10.768 -80.158)" fill="#4fc497"/>
      <path id="Trazado_887932" data-name="Trazado 887932" d="M128.006,10,109.047,59.736h37.918Z" transform="translate(-95.882 -10)" fill="#4fc497"/>
    </g>
    <g id="Grupo_1117147" data-name="Grupo 1117147" transform="translate(0.768)">
      <path id="Trazado_887933" data-name="Trazado 887933" d="M15.589,52.413V62.585a1.338,1.338,0,1,0,2.677,0V52.413H32.892V59.7a1.338,1.338,0,1,0,2.677,0V52.413H50.256V62.585a1.338,1.338,0,1,0,2.677,0V52.413H66.416A1.338,1.338,0,0,0,67.667,50.6L52.845,11.7a1.338,1.338,0,0,0-1.251-.862h0a1.339,1.339,0,0,0-1.251.861L44.976,25.771,35.481.862a1.338,1.338,0,0,0-2.5,0L23.515,25.689,18.178,11.7a1.338,1.338,0,0,0-1.25-.861h0a1.339,1.339,0,0,0-1.25.862L.855,50.6a1.338,1.338,0,0,0,1.251,1.815H15.589Zm1.339-36.476L22.078,29.43,16.45,44.215l-2.55-2.55a1.339,1.339,0,0,0-1.893,1.893l3.4,3.4-1.058,2.779H4.049Zm18.64,29.993,4.694-4.694a1.339,1.339,0,0,0-1.893-1.893l-2.8,2.8V32.525a1.338,1.338,0,0,0-2.677,0V45.374h0v4.36H17.214L34.23,5.1l17.016,44.64H35.568Zm18.543,3.807L53.071,47l3.444-3.444a1.339,1.339,0,1,0-1.893-1.893l-2.595,2.595L46.413,29.511l5.18-13.575,12.88,33.8H54.111Z" transform="translate(-0.768)" fill="#333"/>
      <path id="Trazado_887934" data-name="Trazado 887934" d="M242.107,184a1.339,1.339,0,0,0-1.339,1.338v2.409a1.339,1.339,0,0,0,2.677,0v-2.409A1.339,1.339,0,0,0,242.107,184Z" transform="translate(-208.645 -159.372)" fill="#333"/>
      <path id="Trazado_887935" data-name="Trazado 887935" d="M242.107,469a1.339,1.339,0,0,0-1.339,1.339v1.74a1.339,1.339,0,0,0,2.677,0v-1.74A1.339,1.339,0,0,0,242.107,469Z" transform="translate(-208.645 -406.225)" fill="#333"/>
      <path id="Trazado_887936" data-name="Trazado 887936" d="M199.053,245.393a1.339,1.339,0,0,0-1.893,1.893l1.874,1.874a1.339,1.339,0,0,0,1.893-1.893Z" transform="translate(-170.534 -212.208)" fill="#333"/>
      <path id="Trazado_887937" data-name="Trazado 887937" d="M370.5,226.093v4.048a1.339,1.339,0,0,0,2.677,0v-4.048a1.339,1.339,0,0,0-2.677,0Z" transform="translate(-321.012 -194.672)" fill="#333"/>
      <path id="Trazado_887938" data-name="Trazado 887938" d="M112.838,231.48a1.339,1.339,0,0,0,1.338-1.338v-4.048a1.338,1.338,0,0,0-2.677,0v4.048A1.339,1.339,0,0,0,112.838,231.48Z" transform="translate(-96.679 -194.672)" fill="#333"/>
    </g>
  </g>
</svg>
