<svg id="Grupo_1117143" data-name="Grupo 1117143" xmlns="http://www.w3.org/2000/svg" width="100" height="100" viewBox="0 0 100 100">
  <rect id="Rectángulo_402033" data-name="Rectángulo 402033" width="100" height="100" rx="5" transform="translate(0)" fill="#d7f5ea"/>
  <g id="Grupo_1117140" data-name="Grupo 1117140" transform="translate(-46.052 13.046)">
    <path id="Trazado_887910" data-name="Trazado 887910" d="M114.478,10H79.3V80.964h50.558V25.228H114.478Z" transform="translate(-8.528 -8.528)" fill="#d7e6d8"/>
    <path id="Trazado_887911" data-name="Trazado 887911" d="M318.232,10V25.228h15.381Z" transform="translate(-212.281 -8.528)" fill="#3acc97"/>
    <g id="Grupo_1117139" data-name="Grupo 1117139" transform="translate(69.301)">
      <path id="Trazado_887912" data-name="Trazado 887912" d="M122.8,16.647a1.492,1.492,0,0,0-.434-.993L106.986.426A1.491,1.491,0,0,0,105.951,0H70.773A1.472,1.472,0,0,0,69.3,1.472V72.436a1.472,1.472,0,0,0,1.472,1.472h50.558a1.472,1.472,0,0,0,1.472-1.472V16.7C122.8,16.683,122.8,16.665,122.8,16.647ZM107.423,5l10.329,10.226H107.423Zm12.436,65.962H72.246V2.945h32.233V16.7a1.472,1.472,0,0,0,1.472,1.472h13.908V70.964Z" transform="translate(-69.301)" fill="#333"/>
      <path id="Trazado_887913" data-name="Trazado 887913" d="M259.713,205.165a1.472,1.472,0,0,0-.505,2.02l.442.736a1.472,1.472,0,0,0,2.525-1.515l-.442-.736A1.472,1.472,0,0,0,259.713,205.165Z" transform="translate(-231.07 -174.78)" fill="#333"/>
      <path id="Trazado_887914" data-name="Trazado 887914" d="M160.154,298.362a1.472,1.472,0,0,0-2.082,2.082l1.294,1.294H148.6l1.553-2.463a1.472,1.472,0,0,0-2.491-1.571l-2.977,4.721a1.472,1.472,0,0,0,1.245,2.258H159.3l-1.224,1.224a1.472,1.472,0,1,0,2.082,2.082l3.772-3.772a1.473,1.473,0,0,0,0-2.082Z" transform="translate(-133.392 -253.288)" fill="#333"/>
      <path id="Trazado_887915" data-name="Trazado 887915" d="M271.4,236.109l-1.15,5.209a1.472,1.472,0,1,0,2.875.635l.384-1.739,5.422,8.6h-3.778a1.472,1.472,0,0,0,0,2.945H281.6a1.472,1.472,0,0,0,1.245-2.258l-6.854-10.868,1.738.384a1.472,1.472,0,0,0,.635-2.875l-5.209-1.15A1.474,1.474,0,0,0,271.4,236.109Z" transform="translate(-240.631 -200.362)" fill="#333"/>
      <path id="Trazado_887916" data-name="Trazado 887916" d="M177.711,185.53a1.472,1.472,0,0,0-2.875.635l1.15,5.209a1.472,1.472,0,0,0,1.755,1.12l5.209-1.15a1.472,1.472,0,1,0-.635-2.875l-1.731.382,6.681-10.594a1.472,1.472,0,1,0-2.491-1.571L178.1,187.275Z" transform="translate(-159.268 -150.088)" fill="#333"/>
      <path id="Trazado_887917" data-name="Trazado 887917" d="M245.472,37.945h4.122a1.472,1.472,0,0,0,0-2.945h-4.122a1.472,1.472,0,1,0,0,2.945Z" transform="translate(-218.279 -29.847)" fill="#333"/>
      <path id="Trazado_887918" data-name="Trazado 887918" d="M124.078,36.472A1.472,1.472,0,0,0,122.606,35H108.472a1.472,1.472,0,0,0,0,2.945h14.134A1.472,1.472,0,0,0,124.078,36.472Z" transform="translate(-101.45 -29.847)" fill="#333"/>
    </g>
  </g>
</svg>
