<svg xmlns="http://www.w3.org/2000/svg" width="80" height="80" viewBox="0 0 80 80">
  <g id="Grupo_1115465" data-name="Grupo 1115465" transform="translate(-1045.14 -8646)">
    <rect id="Rectángulo_409531" data-name="Rectángulo 409531" width="80" height="80" transform="translate(1045.14 8646)" fill="none"/>
    <g id="Grupo_1117566" data-name="Grupo 1117566" transform="translate(1052.03 8649.935)">
      <path id="Trazado_888295" data-name="Trazado 888295" d="M66.784,85.7c-3.315-3.3-7.147-.211-7.147-.211V68.121a1.056,1.056,0,1,0-2.113,0V86.978s-5.038,3.972-7.2,4.942V60.643a2.639,2.639,0,0,1,2.637-2.637h1.931a2.639,2.639,0,0,1,2.637,2.637V63.8a1.056,1.056,0,1,0,2.113,0V60.643a4.754,4.754,0,0,0-4.749-4.749H52.957a4.755,4.755,0,0,0-4.75,4.749V92.758a11.1,11.1,0,0,1-1.934.36V70.843A4.779,4.779,0,0,0,41.5,66.069H39.617a4.779,4.779,0,0,0-4.773,4.774V81.608l-1.934,1.027V79.053a4.3,4.3,0,0,0-4.3-4.3H25.777a4.3,4.3,0,0,0-4.3,4.3V88.7l-3.45,1.831L8.342,93.3a6.677,6.677,0,0,0-4.628,8.1L4.8,105.571a1.057,1.057,0,1,0,2.045-.532L5.76,100.87a4.537,4.537,0,0,1,3.164-5.537L17.781,92.8l6.657,17.768a4.732,4.732,0,0,1-3.146,5.835L14.6,117.926a4.381,4.381,0,0,1-5.234-3.185l-1.359-5.229a1.057,1.057,0,1,0-2.046.532l1.359,5.229a6.481,6.481,0,0,0,6.279,4.879c2.135,0,8.162-1.686,8.162-1.686a6.511,6.511,0,0,0,4.929-7.7L49.848,105.1A13.325,13.325,0,0,0,55.1,102.47l11.27-9.26a5.012,5.012,0,0,0,.41-7.507ZM39.617,68.182H41.5a2.663,2.663,0,0,1,2.66,2.66V93.171l-6.667,0c-.613-.006-.189-.41-.155-.438l1.92-1.555a10.043,10.043,0,0,0,3.477-6A4.19,4.19,0,0,0,36.957,80.5V70.843a2.663,2.663,0,0,1,2.66-2.66ZM23.594,79.053a2.187,2.187,0,0,1,2.184-2.184h2.835A2.187,2.187,0,0,1,30.8,79.053v4.7l-7.2,3.824V79.053ZM65.033,91.577l-11.27,9.26a11.187,11.187,0,0,1-4.417,2.211L26.017,108.76,19.743,92.017l17.913-9.509a2.077,2.077,0,0,1,3.009,2.248,7.989,7.989,0,0,1-2.737,4.777l-1.92,1.556a2.359,2.359,0,0,0,1.484,4.192l7.7,0H45.2a13.174,13.174,0,0,0,7.617-2.41l8.6-6.05a2.976,2.976,0,0,1,3.856.356,2.932,2.932,0,0,1-.239,4.4Zm0,0" transform="translate(-2.576 -48.02)" fill="#fff"/>
      <path id="Trazado_888296" data-name="Trazado 888296" d="M72.646,423.4a4.163,4.163,0,1,0-4.163,4.163A4.168,4.168,0,0,0,72.646,423.4Zm-6.212,0a2.049,2.049,0,1,1,2.049,2.049A2.052,2.052,0,0,1,66.433,423.4Zm0,0" transform="translate(-54.83 -360.174)" fill="#fff"/>
      <path id="Trazado_888297" data-name="Trazado 888297" d="M6.054,33.175,21.414,17.7l3.455,1.787a3.25,3.25,0,0,0,3.748-.545l8.361-8.048s-.23,4.134,3.251,4.134a3.254,3.254,0,0,0,3.25-3.251V3.25c0-.01,0-.02,0-.031A3.076,3.076,0,0,0,40.228,0H31.779a3.254,3.254,0,0,0-3.25,3.25c0,3.573,3.636,3.25,3.636,3.25L25.786,12.64l-3.505-1.813a3.238,3.238,0,0,0-3.8.6L1.44,28.6a3.254,3.254,0,0,0,.018,4.6,3.2,3.2,0,0,0,4.6-.018ZM2.94,30.085,19.98,12.913a.961.961,0,0,1,1.33-.209l4.178,2.161a1.056,1.056,0,0,0,1.218-.177l8.812-8.482a1.057,1.057,0,0,0-.733-1.818H31.779a1.137,1.137,0,0,1,0-2.275h8.449a.993.993,0,0,1,1.136,1.13c0,.009,0,.019,0,.029v8.5a1.137,1.137,0,0,1-2.275,0V8.407A1.056,1.056,0,0,0,37.3,7.646l-10.15,9.771a1.137,1.137,0,0,1-1.311.191L21.7,15.464a1.057,1.057,0,0,0-1.235.194L4.555,31.687a1.09,1.09,0,0,1-1.609.006,1.139,1.139,0,0,1-.006-1.608Zm0,0" transform="translate(0)" fill="#fff"/>
    </g>
  </g>
</svg>
