<svg xmlns="http://www.w3.org/2000/svg" xmlns:xlink="http://www.w3.org/1999/xlink" width="124.35" height="124.351" viewBox="0 0 124.35 124.351">
  <defs>
    <clipPath id="clip-path">
      <rect id="Rectángulo_410294" data-name="Rectángulo 410294" width="124.35" height="124.351" transform="translate(0 0)" fill="none"/>
    </clipPath>
  </defs>
  <g id="Grupo_1117574" data-name="Grupo 1117574" transform="translate(0 0.003)">
    <g id="Grupo_1117573" data-name="Grupo 1117573" transform="translate(0 -0.003)" clip-path="url(#clip-path)">
      <path id="Trazado_888310" data-name="Trazado 888310" d="M106.909,55.718c-4.255-12.248,19.541-23.509,17.38-36.023C121.95,6.155,89.113-3.451,61.341,1.173,53.008,2.56,21.632,7.784,7.386,36.181c-14.147,28.2-5.682,66.239,17.095,80.98,12.767,8.263,27.4,7.514,42.556,6.739,14.917-.763,29.367-1.5,41.2-12.258,12.415-11.286,19.839-31.681,12.987-43.214-4.489-7.556-12.027-6.125-14.315-12.71" transform="translate(-0.437 0.003)" fill="#caddff"/>
      <path id="Trazado_888311" data-name="Trazado 888311" d="M128.527,792.749l99,.216a1.721,1.721,0,0,0,1.706-1.5l7.886-61.633a2.529,2.529,0,0,0-2.41-2.916L136.99,727Z" transform="translate(-119.799 -677.55)" fill="#99b9ff"/>
      <path id="Trazado_888312" data-name="Trazado 888312" d="M75.037,792.284h97.027a1.723,1.723,0,0,0,1.706-1.508l7.837-61.078a2.831,2.831,0,0,0-2.8-3.2H83.034a1.724,1.724,0,0,0-1.706,1.509l-8,62.326a1.726,1.726,0,0,0,1.706,1.951" transform="translate(-68.338 -677.164)" fill="#fff"/>
      <path id="Trazado_888313" data-name="Trazado 888313" d="M168.994,789.434H71.967a1.95,1.95,0,0,1-1.928-2.2l8-62.326a1.952,1.952,0,0,1,1.928-1.7h95.776a3.039,3.039,0,0,1,2.28,1.033,3.071,3.071,0,0,1,.739,2.419l-7.837,61.078a1.952,1.952,0,0,1-1.928,1.7m-89.03-65.786a1.5,1.5,0,0,0-1.484,1.313l-8,62.326a1.512,1.512,0,0,0,.364,1.191,1.493,1.493,0,0,0,1.12.507h97.027a1.5,1.5,0,0,0,1.484-1.313l7.837-61.078a2.624,2.624,0,0,0-.631-2.067,2.591,2.591,0,0,0-1.944-.881Z" transform="translate(-65.268 -674.09)"/>
      <path id="Trazado_888314" data-name="Trazado 888314" d="M183.081,1375.111l2.161-17.068h-6.118l-2.161,17.068Z" transform="translate(-164.947 -1265.823)" fill="#caddff"/>
      <path id="Trazado_888315" data-name="Trazado 888315" d="M291.093,1285.83l3.13-23.572H288.1l-3.129,23.572Z" transform="translate(-265.624 -1176.543)" fill="#caddff"/>
      <path id="Trazado_888316" data-name="Trazado 888316" d="M399.1,1310.525l2.853-21.773H395.84l-2.853,21.773Z" transform="translate(-366.301 -1201.238)" fill="#caddff"/>
      <path id="Trazado_888317" data-name="Trazado 888317" d="M507.116,1200.35l3.96-29.8h-6.118l-3.96,29.8Z" transform="translate(-466.978 -1091.062)" fill="#caddff"/>
      <path id="Trazado_888318" data-name="Trazado 888318" d="M615.128,1093.974l4.929-37.55h-6.118l-4.928,37.55Z" transform="translate(-567.655 -984.686)" fill="#caddff"/>
      <path id="Trazado_888319" data-name="Trazado 888319" d="M723.14,1126.267l4.791-35.2h-6.118l-4.79,35.2Z" transform="translate(-668.332 -1016.98)" fill="#caddff"/>
      <path id="Trazado_888320" data-name="Trazado 888320" d="M833.19,1046.484l5.621-41.009h-6.118l-5.62,41.009Z" transform="translate(-770.909 -937.197)" fill="#caddff"/>
      <path id="Trazado_888321" data-name="Trazado 888321" d="M943.239,1018.37l6.036-43.039h-6.118l-6.036,43.039Z" transform="translate(-873.486 -909.099)" fill="#caddff"/>
      <path id="Trazado_888322" data-name="Trazado 888322" d="M1053.289,1176.583l4.361-31.513h-6.118l-4.36,31.513Z" transform="translate(-976.063 -1067.313)" fill="#caddff"/>
      <path id="Trazado_888323" data-name="Trazado 888323" d="M1163.339,1271.487l3.637-24.617h-6.118l-3.636,24.617Z" transform="translate(-1078.639 -1162.2)" fill="#caddff"/>
      <path id="Trazado_888324" data-name="Trazado 888324" d="M1273.389,1316.224l2.992-21.358h-6.118l-2.991,21.358Z" transform="translate(-1181.216 -1206.936)" fill="#caddff"/>
      <path id="Trazado_888325" data-name="Trazado 888325" d="M1383.438,1304.826l3.13-22.188h-6.118l-3.129,22.188Z" transform="translate(-1283.793 -1195.539)" fill="#caddff"/>
      <path id="Trazado_888326" data-name="Trazado 888326" d="M779.005,827.141a.223.223,0,0,1-.158-.066l-4.052-4.052a.224.224,0,0,1,.317-.317l3.894,3.894,12.212-12.212a.224.224,0,0,1,.317,0l5.1,5.1,7.8-7.8a.224.224,0,1,1,.317.317l-7.955,7.955a.224.224,0,0,1-.317,0l-5.1-5.1-12.212,12.212a.223.223,0,0,1-.158.066" transform="translate(-722.12 -756.51)"/>
      <path id="Trazado_888327" data-name="Trazado 888327" d="M221.062,998.461a.224.224,0,0,1-.158-.382l10.571-10.57a.224.224,0,0,1,.317,0l5.552,5.552,17.091-17.091a.224.224,0,0,1,.317.317L237.5,993.535a.224.224,0,0,1-.317,0l-5.552-5.552L221.22,998.395a.223.223,0,0,1-.158.066" transform="translate(-205.842 -909.633)"/>
      <path id="Trazado_888328" data-name="Trazado 888328" d="M362.584,1133.168a1.254,1.254,0,1,1,1.254-1.254,1.256,1.256,0,0,1-1.254,1.254" transform="translate(-336.793 -1053.881)" fill="#5479f7"/>
      <path id="Trazado_888329" data-name="Trazado 888329" d="M359.51,1127.81a1.03,1.03,0,1,1-1.03,1.03,1.03,1.03,0,0,1,1.03-1.03m0-.448a1.478,1.478,0,1,0,1.478,1.478,1.48,1.48,0,0,0-1.478-1.478" transform="translate(-333.719 -1050.807)"/>
      <path id="Trazado_888330" data-name="Trazado 888330" d="M820.955,1020.235a1.254,1.254,0,1,1,1.254-1.254,1.256,1.256,0,0,1-1.254,1.254" transform="translate(-764.038 -948.617)" fill="#99b9ff"/>
      <path id="Trazado_888331" data-name="Trazado 888331" d="M817.881,1014.877a1.03,1.03,0,1,1-1.03,1.03,1.03,1.03,0,0,1,1.03-1.03m0-.448a1.478,1.478,0,1,0,1.478,1.478,1.48,1.48,0,0,0-1.478-1.478" transform="translate(-760.964 -945.543)"/>
      <path id="Trazado_888332" data-name="Trazado 888332" d="M1004.223,836.968a1.254,1.254,0,1,1,1.254-1.254,1.256,1.256,0,0,1-1.254,1.254" transform="translate(-934.861 -777.795)" fill="#5479f7"/>
      <path id="Trazado_888333" data-name="Trazado 888333" d="M1001.149,831.611a1.03,1.03,0,1,1-1.03,1.03,1.03,1.03,0,0,1,1.03-1.03m0-.448a1.478,1.478,0,1,0,1.478,1.478,1.48,1.48,0,0,0-1.478-1.478" transform="translate(-931.787 -774.722)"/>
      <path id="Trazado_888334" data-name="Trazado 888334" d="M1082.225,914.971a1.254,1.254,0,1,1,1.254-1.254,1.256,1.256,0,0,1-1.254,1.254" transform="translate(-1007.566 -850.501)" fill="#99b9ff"/>
      <path id="Trazado_888335" data-name="Trazado 888335" d="M1079.152,909.613a1.03,1.03,0,1,1-1.03,1.03,1.03,1.03,0,0,1,1.03-1.03m0-.448a1.478,1.478,0,1,0,1.478,1.478,1.48,1.48,0,0,0-1.478-1.478" transform="translate(-1004.493 -847.427)"/>
      <path id="Trazado_888336" data-name="Trazado 888336" d="M1193.733,803.464a1.254,1.254,0,1,1,1.254-1.254,1.256,1.256,0,0,1-1.254,1.254" transform="translate(-1111.502 -746.565)" fill="#99b9ff"/>
      <path id="Trazado_888337" data-name="Trazado 888337" d="M1190.659,798.1a1.03,1.03,0,1,1-1.03,1.03,1.03,1.03,0,0,1,1.03-1.03m0-.448a1.478,1.478,0,1,0,1.478,1.478,1.48,1.48,0,0,0-1.478-1.478" transform="translate(-1108.428 -743.491)"/>
      <path id="Trazado_888338" data-name="Trazado 888338" d="M448.076,1215.5a1.254,1.254,0,1,1,1.254-1.254,1.256,1.256,0,0,1-1.254,1.254" transform="translate(-416.48 -1130.62)" fill="#99b9ff"/>
      <path id="Trazado_888339" data-name="Trazado 888339" d="M445,1210.141a1.03,1.03,0,1,1-1.03,1.03,1.03,1.03,0,0,1,1.03-1.03m0-.448a1.478,1.478,0,1,0,1.478,1.478,1.48,1.48,0,0,0-1.478-1.478" transform="translate(-413.406 -1127.547)"/>
      <path id="Trazado_888340" data-name="Trazado 888340" d="M731.754,933.33a1.254,1.254,0,1,1,1.254-1.254,1.256,1.256,0,0,1-1.254,1.254" transform="translate(-680.895 -867.613)" fill="#5479f7"/>
      <path id="Trazado_888341" data-name="Trazado 888341" d="M728.68,927.972a1.03,1.03,0,1,1-1.03,1.03,1.03,1.03,0,0,1,1.03-1.03m0-.448A1.478,1.478,0,1,0,730.158,929a1.48,1.48,0,0,0-1.478-1.478" transform="translate(-677.821 -864.539)"/>
      <path id="Trazado_888342" data-name="Trazado 888342" d="M203.5,1290.01a1.254,1.254,0,1,1,1.254-1.254,1.256,1.256,0,0,1-1.254,1.254" transform="translate(-188.511 -1200.073)" fill="#99b9ff"/>
      <path id="Trazado_888343" data-name="Trazado 888343" d="M200.425,1284.652a1.03,1.03,0,1,1-1.03,1.03,1.03,1.03,0,0,1,1.03-1.03m0-.448a1.478,1.478,0,1,0,1.478,1.478,1.48,1.48,0,0,0-1.478-1.478" transform="translate(-185.437 -1196.999)"/>
      <path id="Trazado_888344" data-name="Trazado 888344" d="M614.627,1144.4H556.04a2.169,2.169,0,0,0-2.169,2.169v6.948a2.169,2.169,0,0,0,2.169,2.169h58.587a2.169,2.169,0,0,0,2.169-2.169v-6.948a2.169,2.169,0,0,0-2.169-2.169" transform="translate(-516.26 -1066.691)" fill="#99b9ff"/>
      <path id="Trazado_888345" data-name="Trazado 888345" d="M611.554,1152.839H552.967a2.4,2.4,0,0,1-2.393-2.393V1143.5a2.4,2.4,0,0,1,2.393-2.392h58.587a2.4,2.4,0,0,1,2.392,2.392v6.948a2.4,2.4,0,0,1-2.392,2.393m-58.587-11.285a1.947,1.947,0,0,0-1.945,1.945v6.948a1.947,1.947,0,0,0,1.945,1.945h58.587a1.947,1.947,0,0,0,1.945-1.945V1143.5a1.947,1.947,0,0,0-1.945-1.945Z" transform="translate(-513.187 -1063.618)"/>
      <path id="Trazado_888346" data-name="Trazado 888346" d="M611.554,1152.839H552.967a2.4,2.4,0,0,1-2.393-2.393V1143.5a2.4,2.4,0,0,1,2.393-2.392h58.587a2.4,2.4,0,0,1,2.392,2.392v6.948a2.4,2.4,0,0,1-2.392,2.393m-58.587-11.285a1.947,1.947,0,0,0-1.945,1.945v6.948a1.947,1.947,0,0,0,1.945,1.945h58.587a1.947,1.947,0,0,0,1.945-1.945V1143.5a1.947,1.947,0,0,0-1.945-1.945Z" transform="translate(-513.187 -1063.618)"/>
      <path id="Trazado_888347" data-name="Trazado 888347" d="M288.153,937.183a20.925,20.925,0,1,0,0,29.593,20.925,20.925,0,0,0,0-29.593m-1.322,28.271a19.056,19.056,0,1,1,0-26.949,19.056,19.056,0,0,1,0,26.949" transform="translate(-235.29 -867.83)" fill="#fff"/>
      <path id="Trazado_888348" data-name="Trazado 888348" d="M288.153,937.183a20.925,20.925,0,1,0,0,29.593,20.925,20.925,0,0,0,0-29.593m-1.322,28.271a19.056,19.056,0,1,1,0-26.949,19.056,19.056,0,0,1,0,26.949" transform="translate(-235.29 -867.83)" fill="#5479f7"/>
      <path id="Trazado_888349" data-name="Trazado 888349" d="M270.283,970.045a21.139,21.139,0,1,1,14.955-6.185,21.083,21.083,0,0,1-14.955,6.185m0-41.841a20.7,20.7,0,1,0,14.638,6.063,20.565,20.565,0,0,0-14.638-6.063m0,39.981a19.28,19.28,0,1,1,13.633-5.647l-.158-.158.158.158a19.153,19.153,0,0,1-13.633,5.647m0-38.111a18.832,18.832,0,1,0,13.316,5.516,18.708,18.708,0,0,0-13.316-5.516" transform="translate(-232.216 -864.755)"/>
      <path id="Trazado_888350" data-name="Trazado 888350" d="M3.877,1468.373l.32.32a1.976,1.976,0,0,0,2.795,0L27.1,1448.586l-3.115-3.115L3.877,1465.577a1.976,1.976,0,0,0,0,2.8" transform="translate(-3.074 -1347.314)" fill="#5479f7"/>
      <path id="Trazado_888351" data-name="Trazado 888351" d="M2.52,1466.458a2.185,2.185,0,0,1-1.556-.645l-.32-.32a2.2,2.2,0,0,1,0-3.112l20.106-20.106a.23.23,0,0,1,.317,0l3.115,3.115a.224.224,0,0,1,0,.317L4.076,1465.813a2.185,2.185,0,0,1-1.556.645m-1.559-1.281.32.32a1.753,1.753,0,0,0,2.478,0l19.948-19.948-2.8-2.8L.961,1462.7a1.752,1.752,0,0,0,0,2.479" transform="translate(0 -1344.277)"/>
      <path id="Trazado_888352" data-name="Trazado 888352" d="M2.52,1466.458a2.185,2.185,0,0,1-1.556-.645l-.32-.32a2.2,2.2,0,0,1,0-3.112l20.106-20.106a.23.23,0,0,1,.317,0l3.115,3.115a.224.224,0,0,1,0,.317L4.076,1465.813a2.185,2.185,0,0,1-1.556.645m-1.559-1.281.32.32a1.753,1.753,0,0,0,2.478,0l19.948-19.948-2.8-2.8L.961,1462.7a1.752,1.752,0,0,0,0,2.479" transform="translate(0 -1344.277)"/>
      <path id="Trazado_888353" data-name="Trazado 888353" d="M179.409,1620.422l1.682-1.682Z" transform="translate(-167.226 -1508.818)" fill="#fff"/>
      <path id="Trazado_888354" data-name="Trazado 888354" d="M176.335,1617.572a.224.224,0,0,1-.158-.382l1.682-1.682a.224.224,0,0,1,.317.317l-1.682,1.682a.223.223,0,0,1-.158.066" transform="translate(-164.152 -1505.744)"/>
      <path id="Trazado_888355" data-name="Trazado 888355" d="M18.464,1680.343a1.359,1.359,0,0,1-.961-2.321l1.889-1.889a.224.224,0,0,1,.317.317l-1.889,1.889a.912.912,0,1,0,1.289,1.29l6.638-6.638a.224.224,0,1,1,.317.317l-6.638,6.638a1.356,1.356,0,0,1-.961.4" transform="translate(-15.944 -1559.323)"/>
      <path id="Trazado_888356" data-name="Trazado 888356" d="M18.464,1680.343a1.359,1.359,0,0,1-.961-2.321l1.889-1.889a.224.224,0,0,1,.317.317l-1.889,1.889a.912.912,0,1,0,1.289,1.29l6.638-6.638a.224.224,0,1,1,.317.317l-6.638,6.638a1.356,1.356,0,0,1-.961.4" transform="translate(-15.944 -1559.323)"/>
      <path id="Trazado_888357" data-name="Trazado 888357" d="M241.405,1465.855l3.207,3.207a1.035,1.035,0,0,0,1.464,0l1.192-1.192a1.035,1.035,0,0,0,0-1.464l-3.207-3.207a1.035,1.035,0,0,0-1.464,0l-1.191,1.191a1.035,1.035,0,0,0,0,1.464" transform="translate(-224.729 -1363.557)" fill="#5479f7"/>
      <path id="Trazado_888358" data-name="Trazado 888358" d="M242.27,1466.516a1.252,1.252,0,0,1-.89-.369l-3.207-3.207a1.259,1.259,0,0,1,0-1.78l1.191-1.192a1.259,1.259,0,0,1,1.781,0l3.207,3.207a1.26,1.26,0,0,1,0,1.78l-1.192,1.192a1.251,1.251,0,0,1-.89.369m-2.016-6.469a.806.806,0,0,0-.574.238l-1.191,1.192a.811.811,0,0,0,0,1.147l3.207,3.207a.811.811,0,0,0,1.147,0l1.192-1.192a.812.812,0,0,0,0-1.147l-3.207-3.207a.806.806,0,0,0-.574-.238" transform="translate(-221.656 -1360.483)"/>
      <path id="Trazado_888359" data-name="Trazado 888359" d="M242.27,1466.516a1.252,1.252,0,0,1-.89-.369l-3.207-3.207a1.259,1.259,0,0,1,0-1.78l1.191-1.192a1.259,1.259,0,0,1,1.781,0l3.207,3.207a1.26,1.26,0,0,1,0,1.78l-1.192,1.192a1.251,1.251,0,0,1-.89.369m-2.016-6.469a.806.806,0,0,0-.574.238l-1.191,1.192a.811.811,0,0,0,0,1.147l3.207,3.207a.811.811,0,0,0,1.147,0l1.192-1.192a.812.812,0,0,0,0-1.147l-3.207-3.207a.806.806,0,0,0-.574-.238" transform="translate(-221.656 -1360.483)"/>
      <path id="Trazado_888360" data-name="Trazado 888360" d="M192.725,1514.536l3.207,3.207a1.035,1.035,0,0,0,1.464,0l1.191-1.191a1.035,1.035,0,0,0,0-1.464l-3.207-3.207a1.035,1.035,0,0,0-1.464,0l-1.192,1.192a1.035,1.035,0,0,0,0,1.464" transform="translate(-179.355 -1408.932)" fill="#5479f7"/>
      <path id="Trazado_888361" data-name="Trazado 888361" d="M193.6,1515.205a1.255,1.255,0,0,1-.89-.368l-3.207-3.207a1.26,1.26,0,0,1,0-1.78l1.192-1.192a1.261,1.261,0,0,1,1.78,0l3.207,3.207a1.261,1.261,0,0,1,0,1.781l-1.192,1.192a1.255,1.255,0,0,1-.89.368m-3.781-3.892,3.207,3.207a.812.812,0,0,0,1.147,0l1.191-1.192a.812.812,0,0,0,0-1.147l-3.207-3.207a.812.812,0,0,0-1.147,0l-1.192,1.192a.812.812,0,0,0,0,1.147" transform="translate(-176.291 -1405.867)"/>
      <path id="Trazado_888362" data-name="Trazado 888362" d="M193.6,1515.205a1.255,1.255,0,0,1-.89-.368l-3.207-3.207a1.26,1.26,0,0,1,0-1.78l1.192-1.192a1.261,1.261,0,0,1,1.78,0l3.207,3.207a1.261,1.261,0,0,1,0,1.781l-1.192,1.192a1.255,1.255,0,0,1-.89.368m-3.781-3.892,3.207,3.207a.812.812,0,0,0,1.147,0l1.191-1.192a.812.812,0,0,0,0-1.147l-3.207-3.207a.812.812,0,0,0-1.147,0l-1.192,1.192a.812.812,0,0,0,0,1.147" transform="translate(-176.291 -1405.867)"/>
      <path id="Trazado_888363" data-name="Trazado 888363" d="M600.495,992.518a.225.225,0,0,1-.1-.022,16.589,16.589,0,0,0-4.687-1.453.224.224,0,1,1,.068-.443,17.03,17.03,0,0,1,4.814,1.492.224.224,0,0,1-.1.426" transform="translate(-555.081 -923.329)"/>
      <path id="Trazado_888364" data-name="Trazado 888364" d="M330.514,1089.7a17.1,17.1,0,0,1-16.779-13.827.224.224,0,0,1,.44-.085,16.644,16.644,0,1,0,28.108-14.948.224.224,0,0,1,.317-.317,17.091,17.091,0,0,1-12.086,29.177" transform="translate(-292.427 -988.442)"/>
      <path id="Trazado_888365" data-name="Trazado 888365" d="M569.683,1152.839H552.966a2.4,2.4,0,0,1-2.393-2.393V1143.5a2.4,2.4,0,0,1,2.393-2.392h16.226a.224.224,0,0,1,.211.148,19.254,19.254,0,0,1,.5,11.417.224.224,0,0,1-.217.167m-16.718-11.285a1.947,1.947,0,0,0-1.945,1.945v6.948a1.947,1.947,0,0,0,1.945,1.945H569.51a18.8,18.8,0,0,0-.477-10.837Z" transform="translate(-513.186 -1063.618)"/>
      <path id="Trazado_888366" data-name="Trazado 888366" d="M906.415,193.866a31.029,31.029,0,1,1-31.029-31.029,31.029,31.029,0,0,1,31.029,31.029" transform="translate(-787.02 -151.779)"/>
      <path id="Trazado_888367" data-name="Trazado 888367" d="M872.312,222.045a31.253,31.253,0,1,1,31.253-31.253,31.289,31.289,0,0,1-31.253,31.253m0-62.058a30.805,30.805,0,1,0,30.805,30.805,30.84,30.84,0,0,0-30.805-30.805" transform="translate(-783.946 -148.705)"/>
      <path id="Trazado_888368" data-name="Trazado 888368" d="M850.122,193.866a31.029,31.029,0,1,1-31.029-31.029,31.029,31.029,0,0,1,31.029,31.029" transform="translate(-734.55 -151.779)" fill="#5479f7"/>
      <path id="Trazado_888369" data-name="Trazado 888369" d="M816.02,222.045a31.253,31.253,0,1,1,31.253-31.253,31.289,31.289,0,0,1-31.253,31.253m0-62.058a30.805,30.805,0,1,0,30.805,30.805,30.84,30.84,0,0,0-30.805-30.805" transform="translate(-731.477 -148.705)"/>
      <path id="Trazado_888370" data-name="Trazado 888370" d="M981.75,335.837a20.686,20.686,0,1,1-20.686-20.686,20.686,20.686,0,0,1,20.686,20.686" transform="translate(-876.521 -293.75)" fill="#fff"/>
      <path id="Trazado_888371" data-name="Trazado 888371" d="M1113.379,477.808a10.343,10.343,0,1,1-10.343-10.343,10.343,10.343,0,0,1,10.343,10.343" transform="translate(-1018.492 -435.721)" fill="#5479f7"/>
      <path id="Trazado_888372" data-name="Trazado 888372" d="M1239.73,543.492l5.318-5.959.8.8-5.959,5.318a.109.109,0,0,1-.154-.154" transform="translate(-1155.518 -501.031)" fill="#fff"/>
      <path id="Trazado_888373" data-name="Trazado 888373" d="M1236.74,540.82a.335.335,0,0,1-.248-.557l5.318-5.959a.224.224,0,0,1,.161-.075.212.212,0,0,1,.165.065l.8.8a.224.224,0,0,1-.009.325l-5.959,5.318a.333.333,0,0,1-.222.086m5.246-6.04-3.818,4.278,4.278-3.818Z" transform="translate(-1152.446 -497.951)"/>
      <path id="Trazado_888374" data-name="Trazado 888374" d="M1312.482,504.346l-.768-.768a.246.246,0,0,1,0-.347l2.575-2.575,1.115,1.115-2.575,2.575a.246.246,0,0,1-.347,0" transform="translate(-1222.573 -466.658)" fill="#fff"/>
      <path id="Trazado_888375" data-name="Trazado 888375" d="M1312.369,501.366a.953.953,0,0,1-.679-.281l-.074-.074a.959.959,0,0,1,0-1.357l2.228-2.228a.224.224,0,0,1,.317,0l1.115,1.115a.224.224,0,0,1,0,.317l-2.228,2.228a.953.953,0,0,1-.679.281M1314,497.9l-2.069,2.07a.512.512,0,0,0,0,.724l.075.074h0a.524.524,0,0,0,.724,0l2.069-2.069Z" transform="translate(-1222.287 -463.586)"/>
      <path id="Trazado_888376" data-name="Trazado 888376" d="M1333.821,141.008l-.727-.727a.837.837,0,0,1,0-1.184l26.272-26.272a.838.838,0,0,1,1.184,0l.727.727a.837.837,0,0,1,0,1.184l-26.272,26.272a.838.838,0,0,1-1.184,0" transform="translate(-1242.34 -104.934)" fill="#fff"/>
      <path id="Trazado_888377" data-name="Trazado 888377" d="M1333.759,140.647a1.481,1.481,0,0,1-1.05-.434h0l-.128-.128a1.487,1.487,0,0,1,0-2.1l25.673-25.673a1.487,1.487,0,0,1,2.1,0l.128.128a1.485,1.485,0,0,1,0,2.1l-25.672,25.673a1.481,1.481,0,0,1-1.05.434m-.734-.751a1.039,1.039,0,0,0,1.467,0l25.672-25.673a1.038,1.038,0,0,0,0-1.467l-.128-.128a1.039,1.039,0,0,0-1.467,0L1332.9,138.3a1.039,1.039,0,0,0,0,1.467Z" transform="translate(-1241.685 -104.28)"/>
      <path id="Trazado_888378" data-name="Trazado 888378" d="M1595.906,52.794l-.792-3.844a4.6,4.6,0,0,1,1.253-4.179l4.9-4.9a.317.317,0,0,1,.534.16l1.172,5.7Z" transform="translate(-1486.708 -37.076)" fill="#5479f7"/>
      <path id="Trazado_888379" data-name="Trazado 888379" d="M1592.822,49.947a.219.219,0,0,1-.064-.009.224.224,0,0,1-.155-.169l-.792-3.844a4.81,4.81,0,0,1,1.314-4.383l4.9-4.9a.541.541,0,0,1,.912.273l1.172,5.7a.224.224,0,0,1-.061.2l-7.068,7.068a.225.225,0,0,1-.158.066m5.584-13.018a.088.088,0,0,0-.064.028l-4.9,4.9a4.363,4.363,0,0,0-1.192,3.976l.708,3.437,6.689-6.689L1598.5,37a.089.089,0,0,0-.064-.07.1.1,0,0,0-.028,0" transform="translate(-1483.625 -34.005)"/>
      <path id="Trazado_888380" data-name="Trazado 888380" d="M1636.218,162.6l3.844.791a4.6,4.6,0,0,0,4.18-1.253l4.9-4.9a.317.317,0,0,0-.16-.534l-5.7-1.172Z" transform="translate(-1525.109 -144.972)" fill="#5479f7"/>
      <path id="Trazado_888381" data-name="Trazado 888381" d="M1637.921,160.637a4.845,4.845,0,0,1-.978-.1l-3.844-.791a.224.224,0,0,1-.113-.378l7.069-7.069a.223.223,0,0,1,.2-.061l5.7,1.173a.541.541,0,0,1,.273.912l-4.9,4.9a4.809,4.809,0,0,1-3.405,1.414m-4.325-1.246,3.437.708a4.362,4.362,0,0,0,3.976-1.192l4.9-4.9a.093.093,0,0,0-.047-.157l-5.578-1.148Z" transform="translate(-1522.035 -141.896)"/>
      <path id="Trazado_888382" data-name="Trazado 888382" d="M1728.551,184.89l4.63.866Z" transform="translate(-1611.172 -172.335)" fill="#fff"/>
      <path id="Trazado_888383" data-name="Trazado 888383" d="M1730.105,182.908a.221.221,0,0,1-.041,0l-4.63-.866a.224.224,0,0,1,.082-.44l4.63.866a.224.224,0,0,1-.041.444" transform="translate(-1608.096 -169.262)"/>
      <path id="Trazado_888384" data-name="Trazado 888384" d="M1700.838,212.6l4.63.866Z" transform="translate(-1585.341 -198.166)" fill="#fff"/>
      <path id="Trazado_888385" data-name="Trazado 888385" d="M1702.394,210.617a.222.222,0,0,1-.041,0l-4.63-.866a.224.224,0,1,1,.082-.44l4.63.866a.224.224,0,0,1-.041.444" transform="translate(-1582.266 -195.089)"/>
      <path id="Trazado_888386" data-name="Trazado 888386" d="M1597.03,256.6l.955.955Z" transform="translate(-1488.582 -239.171)" fill="#fff"/>
      <path id="Trazado_888387" data-name="Trazado 888387" d="M1594.912,254.7a.223.223,0,0,1-.158-.066l-.955-.955a.224.224,0,0,1,.317-.317l.955.955a.224.224,0,0,1-.158.382" transform="translate(-1485.509 -236.098)"/>
      <path id="Trazado_888388" data-name="Trazado 888388" d="M1613.306,240.321l.955.955Z" transform="translate(-1503.753 -224.002)" fill="#fff"/>
      <path id="Trazado_888389" data-name="Trazado 888389" d="M1611.187,238.427a.223.223,0,0,1-.158-.066l-.955-.955a.224.224,0,0,1,.317-.317l.955.955a.224.224,0,0,1-.158.382" transform="translate(-1500.679 -220.928)"/>
      <path id="Trazado_888390" data-name="Trazado 888390" d="M1629.582,224.045l.955.955Z" transform="translate(-1518.923 -208.831)" fill="#fff"/>
      <path id="Trazado_888391" data-name="Trazado 888391" d="M1627.464,222.15a.223.223,0,0,1-.158-.066l-.955-.955a.224.224,0,1,1,.317-.317l.955.955a.224.224,0,0,1-.158.382" transform="translate(-1515.85 -205.757)"/>
      <path id="Trazado_888392" data-name="Trazado 888392" d="M384.494,103.169c-1.536,2.621-5.142,3.137-5.95,3.228a9.46,9.46,0,0,1-6.369-1.672,12.618,12.618,0,0,1-7.5,1.9c-2.846-.218-7.641-1.638-8.57-4.966-1.112-3.984,3.9-8.61,8.2-10.243,3.606-1.37,9.1-1.545,11.736,1.228.967,1.019,1.116,1.981,2.258,2.314,2.049.6,3.555-1.924,6.211-1.8a5.649,5.649,0,0,1,3.6,1.842c1.96.648,3.161,1.949,3.015,3-.153,1.09-1.747,1.751-2.058,1.88-1.614.669-2.471-.006-3.427.695-.848.622-.5,1.487-1.156,2.6" transform="translate(-331.781 -84.304)"/>
      <path id="Trazado_888393" data-name="Trazado 888393" d="M733.977,145.362s8.065,2.576,11.986,0c1.843-1.211,8.705-9.766,10.194-10.557.9-.481,2.311-1.2,3.274-1.7a2.616,2.616,0,0,1,2.159-.1L765.6,134.6a3.9,3.9,0,0,1-3.067.562,5.816,5.816,0,0,0-3.623.417l-.077.036,3.6,1.12s-.545.909-2.475.56a7.668,7.668,0,0,0-3.179.3l-.066.034s-3.442,9.555-8.49,12.546a19.284,19.284,0,0,1-15.062,1.616Z" transform="translate(-683.372 -123.803)" fill="#fff"/>
      <path id="Trazado_888394" data-name="Trazado 888394" d="M735.583,149.784a19.549,19.549,0,0,1-5.862-.848l-.17-.06.876-6.879.256.082c.08.025,8.009,2.514,11.795.026a49.756,49.756,0,0,0,5.145-5.352c2.2-2.468,4.283-4.8,5.067-5.216.887-.472,2.271-1.183,3.277-1.7a2.843,2.843,0,0,1,2.344-.11l4.365,1.736-.3.241a4.092,4.092,0,0,1-3.251.607,5.637,5.637,0,0,0-3.007.2l3.288,1.023-.146.244c-.025.043-.648,1.038-2.707.665a7.443,7.443,0,0,0-3.027.283c-.387,1.048-3.7,9.7-8.553,12.571a18.294,18.294,0,0,1-9.389,2.483m-5.542-1.215c1.17.36,8.133,2.24,14.7-1.653,4.92-2.915,8.359-12.334,8.393-12.429l.03-.082.187-.092a7.948,7.948,0,0,1,3.278-.306,2.63,2.63,0,0,0,2.012-.237l-3.792-1.18.6-.282a6.008,6.008,0,0,1,3.762-.434,3.9,3.9,0,0,0,2.524-.3l-3.591-1.428a2.394,2.394,0,0,0-1.974.093c-1,.513-2.386,1.224-3.271,1.694-.714.379-2.864,2.789-4.943,5.119a48.086,48.086,0,0,1-5.233,5.428c-3.614,2.375-10.483.529-11.92.1Z" transform="translate(-680.01 -120.732)"/>
      <path id="Trazado_888395" data-name="Trazado 888395" d="M494.482,546.62a25.62,25.62,0,0,0,16.8,3.361,8.24,8.24,0,0,0-3.585-3.473c-2.262-.917-13.218.112-13.218.112" transform="translate(-460.904 -509.042)"/>
      <path id="Trazado_888396" data-name="Trazado 888396" d="M352.327,529.626c.436-10.683,6.594-14.621,6.594-14.621l12.692,3.166,5.236,11.455Z" transform="translate(-328.402 -480.033)"/>
      <path id="Trazado_888397" data-name="Trazado 888397" d="M437.432,250.856l-6.673-3.333a4.216,4.216,0,0,0-5.009.939c-2.911,3.214-7.927,9.427-10.448,16.5,0,0,4.534,5.784,10.53,5.381s9.53-.788,11.65.9a131.288,131.288,0,0,0,2.12-16.7,3.922,3.922,0,0,0-2.17-3.683" transform="translate(-387.1 -230.299)" fill="#5479f7"/>
      <path id="Trazado_888398" data-name="Trazado 888398" d="M581.619,404.068H581.6a.224.224,0,0,1-.2-.244c.237-2.541,1.049-4.361,2.412-5.409a6.428,6.428,0,0,1,3.267-1.13,6.836,6.836,0,0,0,3.322-1.124,6.966,6.966,0,0,0,2.5-3.961.224.224,0,0,1,.432.118,7.4,7.4,0,0,1-2.672,4.206,7.2,7.2,0,0,1-3.521,1.205,5.989,5.989,0,0,0-3.057,1.041c-1.26.97-2.014,2.684-2.239,5.1a.224.224,0,0,1-.223.2" transform="translate(-541.914 -365.411)"/>
      <path id="Trazado_888399" data-name="Trazado 888399" d="M304.7,282.957l14.092-28.809a2.355,2.355,0,0,0-4.107-2.291c-1.88,2.979-5.479,8.975-6.288,12.433a23.791,23.791,0,0,1-3.7,8.581c-.636.973-1.431,4.429-1.915,6.755a2.035,2.035,0,0,1-2.6,1.528h0a3.361,3.361,0,0,0-3.015.508l-1.516,1.127a.21.21,0,0,0,.13.378Z" transform="translate(-275.486 -233.73)" fill="#fff"/>
      <path id="Trazado_888400" data-name="Trazado 888400" d="M292.7,280.3a.434.434,0,0,1-.258-.782l1.516-1.127a3.6,3.6,0,0,1,3.216-.542,1.812,1.812,0,0,0,2.322-1.359c.536-2.578,1.31-5.856,1.947-6.832l.106-.162a23.4,23.4,0,0,0,3.56-8.347c.805-3.445,4.3-9.311,6.316-12.5a2.579,2.579,0,0,1,4.5,2.509l-14.151,28.932-9.061.212Zm3.4-2.167a3.142,3.142,0,0,0-1.874.618l-1.48,1.1,8.744-.2,14.032-28.687a2.131,2.131,0,0,0-3.717-2.073c-2,3.166-5.469,8.983-6.259,12.365a23.805,23.805,0,0,1-3.621,8.491l-.106.162c-.467.716-1.136,3.088-1.884,6.678a2.259,2.259,0,0,1-2.891,1.7,3.143,3.143,0,0,0-.944-.145" transform="translate(-272.415 -230.636)"/>
      <path id="Trazado_888401" data-name="Trazado 888401" d="M671.245,189.944c-.01-.012-.693-.793-.318-1.365s1.123.187,1.123.187a2.364,2.364,0,0,1,2.076-1.057,2.464,2.464,0,0,0,2.19,1.393,18.883,18.883,0,0,1-.89,1.729l-.172.979a.215.215,0,0,1-.32.148.222.222,0,0,0-.289.059,3.614,3.614,0,0,1-1.226,1.126,1.2,1.2,0,0,1-1.49-.507c-.92,1.115-2.279,3.013-1.645,3.834,0,0-2.071.6-4.117-2.216Z" transform="translate(-620.929 -174.962)" fill="#fff"/>
      <path id="Trazado_888402" data-name="Trazado 888402" d="M665.611,193.679c-.8,0-2.3-.319-3.789-2.364l-.122-.168,5.075-4.31a1.344,1.344,0,0,1-.2-1.454.651.651,0,0,1,.491-.313,1.189,1.189,0,0,1,.781.293,2.591,2.591,0,0,1,2.121-.95l.142,0,.057.13a2.221,2.221,0,0,0,1.973,1.26h.011l.344,0-.138.315a18.92,18.92,0,0,1-.882,1.718l-.165.94a.438.438,0,0,1-.655.3,3.731,3.731,0,0,1-1.31,1.2,1.349,1.349,0,0,1-1.575-.364c-1.3,1.62-1.85,2.864-1.474,3.35l.2.261-.316.091a2.191,2.191,0,0,1-.572.065m-3.3-2.461c1.469,1.921,2.891,2.052,3.475,2.008-.24-.778.367-2.055,1.809-3.8l.177-.215.172.22a1,1,0,0,0,1.222.44,3.356,3.356,0,0,0,1.14-1.058.446.446,0,0,1,.57-.122l.176-1.006.02-.035c.329-.563.593-1.1.743-1.412a2.667,2.667,0,0,1-1.987-1.374,2.116,2.116,0,0,0-1.746.946l-.148.252-.205-.209c-.115-.117-.42-.355-.616-.333a.207.207,0,0,0-.16.113c-.274.419.294,1.088.3,1.094l.15.171Z" transform="translate(-616.767 -171.889)"/>
      <path id="Trazado_888403" data-name="Trazado 888403" d="M740.483,241.5a.224.224,0,0,1-.171-.08,4.23,4.23,0,0,1-.588-1.243.224.224,0,0,1,.43-.126,3.734,3.734,0,0,0,.5,1.08.224.224,0,0,1-.171.368" transform="translate(-689.483 -223.605)"/>
      <path id="Trazado_888404" data-name="Trazado 888404" d="M1174.332,1384.42a.224.224,0,0,1-.158-.382l3.14-3.14a.224.224,0,0,1,.317.317l-3.14,3.14a.222.222,0,0,1-.158.066" transform="translate(-1094.379 -1287.065)"/>
      <path id="Trazado_888405" data-name="Trazado 888405" d="M629.885,1505.638a.224.224,0,0,1-.158-.382l15.528-15.528a4.6,4.6,0,0,1,6.5,0,4.154,4.154,0,0,0,5.869,0l5.174-5.174a.224.224,0,0,1,.317.317l-5.174,5.174a4.6,4.6,0,0,1-6.5,0,4.15,4.15,0,0,0-5.869,0l-15.528,15.528a.224.224,0,0,1-.158.066" transform="translate(-586.903 -1383.683)"/>
      <path id="Trazado_888406" data-name="Trazado 888406" d="M1512.071,1109.143a.224.224,0,0,1-.158-.382l15.542-15.542a.224.224,0,0,1,.317.317l-15.542,15.542a.224.224,0,0,1-.158.066" transform="translate(-1409.183 -1018.921)"/>
      <path id="Trazado_888407" data-name="Trazado 888407" d="M70.244,501.724a.224.224,0,0,1-.158-.382l19.49-19.49a.224.224,0,0,1,.317.317L70.4,501.658a.223.223,0,0,1-.158.066" transform="translate(-65.265 -449.07)"/>
      <path id="Trazado_888408" data-name="Trazado 888408" d="M175.469,375.793a.224.224,0,0,1-.158-.382l13.647-13.647a.224.224,0,0,1,.317.317l-13.647,13.647a.223.223,0,0,1-.158.066" transform="translate(-163.345 -337.136)"/>
      <path id="Trazado_888409" data-name="Trazado 888409" d="M1477.434,43.185a.224.224,0,0,1-.158-.382l6.991-6.991a.224.224,0,1,1,.317.317l-6.991,6.991a.223.223,0,0,1-.158.066" transform="translate(-1376.899 -33.319)"/>
      <path id="Trazado_888410" data-name="Trazado 888410" d="M1204.837,1192.605c1.258.433,2.162,3.383,2.752,4.523l.039.075a.373.373,0,0,0,.695-.094c.313-1.4.446-2.8-.852-3.914a6.017,6.017,0,0,1-2.438-5.506,4.814,4.814,0,0,0-.754-2.823,13.611,13.611,0,0,1-1-1.931c-5.2-12.252,3.133-8.773,3.877-5.826.531,2.1-.275,3.383,1.56,4.851a5.665,5.665,0,0,1,2.464,4.772c-.052.918-.865,2.281.944,4.064a5.3,5.3,0,0,1,1.179,5.9c-.682,2.072.6,3.7,1.311,4.536l0,0a.267.267,0,0,0,.459-.076,2.49,2.49,0,0,1,1.45-1.449c.6-.262,1.258-1.442,1.756-3.094s3.775-3.147,5.059-2.439,2.045,3.776,1,5.323-6.317,2.989-6.055,5.244-3.617,3.592-3.617,3.592a1.376,1.376,0,0,1-.648-.327c-1.02.61-2.541,1.208-3.4.051-.128-.172-.256-.365-.383-.575a4.061,4.061,0,0,1-1.7-.722c-3.028-1.888-2.241-3.461-2.713-4.8a13.384,13.384,0,0,0-2.516-3.383c-2.674-4.208.275-6.411,1.534-5.979" transform="translate(-1119.986 -1094.545)" fill="#5479f7"/>
      <path id="Trazado_888411" data-name="Trazado 888411" d="M1248.483,1251.136h0a.224.224,0,0,1-.22-.228c.242-15.063-7.629-28.628-7.708-28.763a.224.224,0,0,1,.386-.227c.08.136,8.014,13.809,7.77,29a.224.224,0,0,1-.224.22" transform="translate(-1156.281 -1138.84)" fill="#fff"/>
      <path id="Trazado_888412" data-name="Trazado 888412" d="M1399.944,1500.193a.219.219,0,0,1-.039,0,.224.224,0,0,1-.182-.259c1.171-6.718,8.017-11.106,8.086-11.15a.224.224,0,0,1,.239.379c-.067.042-6.748,4.328-7.884,10.848a.224.224,0,0,1-.22.185" transform="translate(-1304.67 -1387.65)" fill="#fff"/>
      <path id="Trazado_888413" data-name="Trazado 888413" d="M1262.844,1512.418a.224.224,0,0,1-.216-.164,36.157,36.157,0,0,0-4.879-9.575.224.224,0,1,1,.362-.264,36.653,36.653,0,0,1,4.949,9.719.224.224,0,0,1-.156.276.235.235,0,0,1-.06.008" transform="translate(-1172.3 -1400.306)" fill="#fff"/>
      <path id="Trazado_888414" data-name="Trazado 888414" d="M1317.093,1467.608a.223.223,0,0,1-.163-.07,10.911,10.911,0,0,1-1.916-3.14.224.224,0,0,1,.418-.161,10.656,10.656,0,0,0,1.823,2.994.224.224,0,0,1-.162.378" transform="translate(-1225.703 -1364.672)" fill="#fff"/>
      <path id="Trazado_888415" data-name="Trazado 888415" d="M1318.793,1503.526a.223.223,0,0,1-.121-.036,5.745,5.745,0,0,1-2.1-2.675.224.224,0,0,1,.423-.147,5.382,5.382,0,0,0,1.919,2.446.224.224,0,0,1-.122.412" transform="translate(-1227.158 -1398.624)" fill="#fff"/>
      <path id="Trazado_888416" data-name="Trazado 888416" d="M1276.993,1567.3a.222.222,0,0,1-.077-.014c-1.171-.429-2.891-2.843-2.964-2.946a.224.224,0,0,1,.365-.259c.473.667,1.888,2.468,2.752,2.784a.224.224,0,0,1-.077.434" transform="translate(-1187.405 -1457.786)" fill="#fff"/>
      <path id="Trazado_888417" data-name="Trazado 888417" d="M1471.927,1484.677a.224.224,0,0,1-.222-.2,4.264,4.264,0,0,1,.937-3.142.224.224,0,0,1,.336.3,3.878,3.878,0,0,0-.828,2.791.224.224,0,0,1-.195.25l-.028,0" transform="translate(-1371.74 -1380.676)" fill="#fff"/>
      <path id="Trazado_888418" data-name="Trazado 888418" d="M1423.763,1554.913a.224.224,0,0,1-.086-.431,17.868,17.868,0,0,0,3.8-2.406.224.224,0,1,1,.288.343,17.975,17.975,0,0,1-3.919,2.478.226.226,0,0,1-.086.017" transform="translate(-1326.872 -1446.631)" fill="#fff"/>
      <path id="Trazado_888419" data-name="Trazado 888419" d="M1307.443,1321.5a.224.224,0,0,1-.206-.31,6.934,6.934,0,0,0,.2-3.55.224.224,0,1,1,.437-.1,7.276,7.276,0,0,1-.222,3.819.224.224,0,0,1-.207.138" transform="translate(-1218.451 -1227.909)" fill="#fff"/>
      <path id="Trazado_888420" data-name="Trazado 888420" d="M1271.479,1661.514h8.733a1.973,1.973,0,0,0,1.974-1.974v-7.84h-12.68v7.84a1.974,1.974,0,0,0,1.974,1.974" transform="translate(-1183.298 -1539.54)" fill="#fff"/>
      <path id="Trazado_888421" data-name="Trazado 888421" d="M1274.038,1658.665h-2.532a5.3,5.3,0,0,1-5.3-5.3v-4.739a.224.224,0,0,1,.224-.224h12.68a.224.224,0,0,1,.224.224v4.739a5.3,5.3,0,0,1-5.3,5.3m-7.382-9.813v4.516a4.855,4.855,0,0,0,4.85,4.85h2.532a4.855,4.855,0,0,0,4.85-4.85v-4.516Z" transform="translate(-1180.225 -1536.467)"/>
    </g>
  </g>
</svg>
