<svg xmlns="http://www.w3.org/2000/svg" width="189" height="100" viewBox="0 0 189 100">
  <g id="Grupo_1115790" data-name="Grupo 1115790" transform="translate(-390.332 -1159.205)">
    <rect id="Rectángulo_406738" data-name="Rectángulo 406738" width="189" height="100" rx="10" transform="translate(390.332 1159.205)" fill="#f2efdf"/>
    <g id="Grupo_1117004" data-name="Grupo 1117004" transform="translate(448.332 1172.205)">
      <g id="Grupo_1117003" data-name="Grupo 1117003" transform="translate(1.069 1.069)">
        <g id="Grupo_1117001" data-name="Grupo 1117001">
          <path id="Trazado_887512" data-name="Trazado 887512" d="M144.141,306.526v-7.3H131.814l-3.65,3.65-3.649-3.65h-6.163v7.3h6.163l3.65-3.65,3.65,3.65Z" transform="translate(-102.547 -257.633)" fill="#adb9c9" fill-rule="evenodd"/>
          <path id="Trazado_887513" data-name="Trazado 887513" d="M161.579,299.227l3.649,3.65-3.65,3.65h7.3l-3.65-3.65,3.65-3.65Z" transform="translate(-139.611 -257.633)" fill="#92a1b4" fill-rule="evenodd"/>
          <path id="Trazado_887514" data-name="Trazado 887514" d="M172.176,350.421h4.277v15.552h-4.277Z" transform="translate(-148.697 -301.528)" fill="#adb9c9" fill-rule="evenodd"/>
          <path id="Trazado_887515" data-name="Trazado 887515" d="M11.777,459.5A4.29,4.29,0,0,0,7.5,463.777v2.139H78.361v-2.139a4.29,4.29,0,0,0-4.277-4.277Z" transform="translate(-7.5 -395.055)" fill="#a9e899" fill-rule="evenodd"/>
          <path id="Trazado_887516" data-name="Trazado 887516" d="M299.227,256h13.462v29.015H299.227Z" transform="translate(-257.633 -220.569)" fill="#adb9c9" fill-rule="evenodd"/>
          <path id="Trazado_887517" data-name="Trazado 887517" d="M172.176,350.421h4.277v3.208h-4.277Z" transform="translate(-148.697 -301.528)" fill="#92a1b4" fill-rule="evenodd"/>
          <path id="Trazado_887518" data-name="Trazado 887518" d="M299.227,256h3.208v29.015h-3.208Z" transform="translate(-257.633 -220.569)" fill="#92a1b4" fill-rule="evenodd"/>
          <path id="Trazado_887519" data-name="Trazado 887519" d="M11.777,459.5A4.29,4.29,0,0,0,7.5,463.777v2.139h3.208v-2.139a4.29,4.29,0,0,1,4.277-4.277Z" transform="translate(-7.5 -395.055)" fill="#6bd24d" fill-rule="evenodd"/>
          <path id="Trazado_887520" data-name="Trazado 887520" d="M202.176,350.421h13.837v15.552H202.176Z" transform="translate(-174.419 -301.528)" fill="#5ceaee" fill-rule="evenodd"/>
          <path id="Trazado_887521" data-name="Trazado 887521" d="M62.556,42.931V71.945h.711a35.411,35.411,0,1,0-40.672,0h8.385V56.393H23.305v-7.3H49.094V42.931Z" transform="translate(-7.5 -7.5)" fill="#acf3f9" fill-rule="evenodd"/>
          <path id="Trazado_887522" data-name="Trazado 887522" d="M44.535,7.538a35.436,35.436,0,0,0-21.94,64.409H25.8A35.431,35.431,0,0,1,44.535,7.538Z" transform="translate(-7.5 -7.502)" fill="#5ceaee" fill-rule="evenodd"/>
        </g>
        <g id="Grupo_1117002" data-name="Grupo 1117002" transform="translate(44.101 10.899)">
          <path id="Trazado_887523" data-name="Trazado 887523" d="M321.346,89.99l-1.512-1.512,1.512-1.512,1.512,1.512Zm-3.024-3.025-1.512-1.512,1.512-1.512,1.512,1.512Z" transform="translate(-316.809 -83.941)" fill="#fff"/>
        </g>
      </g>
      <path id="Trazado_887524" data-name="Trazado 887524" d="M67.653,64.445H59.976A36.5,36.5,0,1,0,6.744,15.358L8.486,16.6a34.379,34.379,0,0,1,2.977-3.623l3.9,3.9-8.3,8.3L4.894,23.007A34.189,34.189,0,0,1,7.3,18.383L5.484,17.254a36.5,36.5,0,0,0,7.54,47.191H5.347A5.353,5.353,0,0,0,0,69.792V73H64.445V70.861H2.139V69.792a3.212,3.212,0,0,1,3.208-3.208H67.653a3.212,3.212,0,0,1,3.208,3.208v1.069H66.584V73H73V69.792A5.353,5.353,0,0,0,67.653,64.445Zm-56.19-4.421A34.47,34.47,0,0,1,4.905,49.982l2.156-2.156,8.3,8.3ZM4.059,47.8A34.364,34.364,0,0,1,2.9,43.659l2.653,2.653Zm4.515-1.491,8.3-8.3,3.582,3.582H15.805v9.438h4.651l-3.582,3.582ZM34.988,16.875l-8.3,8.3-8.3-8.3,8.3-8.3ZM25.188,4.05a34.488,34.488,0,0,1,4.156-1.157L26.687,5.55ZM43.733,42.22V37.569h9.811L46.313,44.8ZM44.8,46.313l-1.068,1.068V45.245Zm12.394-7.231,7.231,7.231-7.231,7.231Zm-15.6-3.651v4.651L38.012,36.5l8.3-8.3,7.231,7.231Zm-1.512,6.163H32.918L36.5,38.012Zm1.512,2.139v5.16H30.78l-2.58-2.58,2.58-2.58H41.594Zm-16.419,2.58-2.58,2.58H17.944v-5.16h4.651Zm1.512,1.512,1.068,1.068H25.619Zm-1.068-4.092h2.136L26.687,44.8Zm7.3,7.3h7.163L36.5,54.613Zm2.069,5.094L29.9,61.218V51.033Zm6.606-3.582v7.163l-3.582-3.582Zm2.139-2.139,2.58-2.58,8.3,8.3-8.3,8.3-2.58-2.58Zm4.092-4.092,7.231-7.231V53.544Zm9.813,9.813,8.3-8.3,2.156,2.156a34.473,34.473,0,0,1-6.558,10.043Zm2.387,5.412a34.371,34.371,0,0,1-2.83,2.391V58.707Zm7.426-15.224L70.1,43.659A34.333,34.333,0,0,1,68.941,47.8ZM70.679,32.94a34.975,34.975,0,0,1,.183,3.56,34.2,34.2,0,0,1-.19,3.568L65.938,44.8l-8.3-8.3,8.3-8.3Zm-3.228-6.253,1.509-1.509a34.044,34.044,0,0,1,1.16,4.178Zm-11.325,8.3-8.3-8.3,8.3-8.3,8.3,8.3Zm-8.3-27.926L50,4.885A34.259,34.259,0,0,1,60.028,11.46l-3.9,3.9Zm6.788,9.813-8.3,8.3-8.3-8.3,8.3-8.3ZM43.644,2.88a34.043,34.043,0,0,1,4.178,1.16L46.313,5.55ZM44.8,26.687l-8.3,8.3-8.3-8.3,8.3-8.3ZM34.988,36.5l-5.094,5.094H23.481L18.387,36.5l8.3-8.3ZM23.479,51.033V61.218l-5.092-5.092Zm2.139,0h2.139V63.357l-1.069,1.069-1.069-1.069ZM29.9,64.243l6.6-6.6,5.094,5.094v1.714H29.9Zm25.161-5.535v5.738H49.318ZM68.115,23l-2.177,2.177-8.3-8.3,3.9-3.9A34.257,34.257,0,0,1,68.115,23ZM40.06,2.321,44.8,7.062l-8.3,8.3-8.3-8.3,4.733-4.733a34.341,34.341,0,0,1,3.567-.19,34.978,34.978,0,0,1,3.56.182ZM12.975,11.463a34.538,34.538,0,0,1,7.52-5.377q1.23-.649,2.513-1.191l2.167,2.167-8.3,8.3Zm3.9,6.924,8.3,8.3-8.3,8.3-8.3-8.3ZM15.362,36.5l-8.3,8.3L2.329,40.068a34.044,34.044,0,0,1-.006-7.129L7.062,28.2ZM5.549,26.687,2.888,29.349A34.239,34.239,0,0,1,4.05,25.187Zm7.426,34.85,3.9-3.9,6.6,6.6v.2H16.511A34.391,34.391,0,0,1,12.975,61.537Z" transform="translate(0 0)"/>
    </g>
  </g>
</svg>
