<svg xmlns="http://www.w3.org/2000/svg" width="76.012" height="73.791" viewBox="0 0 76.012 73.791">
  <path id="Trazado_887658" data-name="Trazado 887658" d="M67.9,62.3,64.933,61.16a19.491,19.491,0,0,0-1.877-4.528l1.29-2.9a1.226,1.226,0,0,0-.254-1.365l-1.509-1.509A16.713,16.713,0,0,0,51.115,36.776a9.082,9.082,0,1,0-10.381,0A16.714,16.714,0,0,0,29.257,50.922c0,.032,0,.064-.005.1l-1.345,1.345a1.226,1.226,0,0,0-.253,1.365l1.291,2.906a19.5,19.5,0,0,0-1.877,4.526L24.1,62.3a1.226,1.226,0,0,0-.786,1.144v5.808A1.226,1.226,0,0,0,24.1,70.4l2.965,1.141a19.511,19.511,0,0,0,1.877,4.528l-1.29,2.9a1.226,1.226,0,0,0,.253,1.365l4.107,4.107a1.227,1.227,0,0,0,1.365.253L36.285,83.4a19.508,19.508,0,0,0,4.526,1.877l1.142,2.965a1.226,1.226,0,0,0,1.144.786H48.9a1.226,1.226,0,0,0,1.144-.786l1.141-2.965A19.5,19.5,0,0,0,55.717,83.4l2.9,1.29a1.225,1.225,0,0,0,1.365-.254l4.107-4.107a1.226,1.226,0,0,0,.253-1.364l-1.291-2.906a19.5,19.5,0,0,0,1.877-4.526L67.9,70.4a1.226,1.226,0,0,0,.786-1.144V63.445A1.225,1.225,0,0,0,67.9,62.3Zm-28.6-32.97a6.63,6.63,0,1,1,6.63,6.63A6.638,6.638,0,0,1,39.295,29.331Zm6.63,9.082a14.281,14.281,0,0,1,13.5,9.526,1.222,1.222,0,0,0-.8.064l-2.906,1.291a19.5,19.5,0,0,0-4.526-1.877l-1.141-2.965a1.226,1.226,0,0,0-1.144-.786H43.1a1.226,1.226,0,0,0-1.144.786l-1.141,2.965a19.5,19.5,0,0,0-4.526,1.877L33.379,48a1.222,1.222,0,0,0-.969-.008,14.28,14.28,0,0,1,13.515-9.582Zm20.307,30-2.77,1.066a1.226,1.226,0,0,0-.752.86,17.061,17.061,0,0,1-2.074,5,1.226,1.226,0,0,0-.076,1.14L61.764,79.2l-2.916,2.916-2.714-1.206a1.227,1.227,0,0,0-1.14.077,17.058,17.058,0,0,1-5,2.075,1.225,1.225,0,0,0-.86.752L48.063,86.58H43.938l-1.066-2.77a1.225,1.225,0,0,0-.86-.752,17.062,17.062,0,0,1-5-2.074,1.225,1.225,0,0,0-1.14-.076l-2.715,1.206L30.237,79.2l1.205-2.714a1.226,1.226,0,0,0-.077-1.141,17.065,17.065,0,0,1-2.075-5,1.225,1.225,0,0,0-.752-.86l-2.769-1.066V64.287l2.77-1.066a1.225,1.225,0,0,0,.752-.86,17.064,17.064,0,0,1,2.074-5,1.226,1.226,0,0,0,.077-1.14L30.236,53.5l2.916-2.916,2.715,1.206a1.225,1.225,0,0,0,1.14-.076,17.059,17.059,0,0,1,5-2.074,1.225,1.225,0,0,0,.86-.752l1.066-2.77h4.124l1.066,2.77a1.225,1.225,0,0,0,.86.752,17.058,17.058,0,0,1,5,2.074,1.226,1.226,0,0,0,1.14.077l2.715-1.206L61.764,53.5l-1.2,2.714a1.226,1.226,0,0,0,.077,1.14,17.056,17.056,0,0,1,2.075,5,1.225,1.225,0,0,0,.752.86l2.769,1.066ZM45.966,53.53A12.623,12.623,0,1,0,58.588,66.153,12.637,12.637,0,0,0,45.966,53.53Zm0,22.793A10.171,10.171,0,1,1,56.136,66.153,10.182,10.182,0,0,1,45.966,76.324Zm2.908-15.9-4.645,4.645-1.17-1.17a3.237,3.237,0,0,0-4.577,4.577L41.608,71.6a3.9,3.9,0,0,0,2.728,1.227,3.1,3.1,0,0,0,2.22-.934L53.45,65a3.237,3.237,0,0,0-4.577-4.577Zm2.843,1.734a.79.79,0,0,1,0,1.109l-6.894,6.894c-.551.552-1.273-.084-1.48-.292l-3.127-3.127a.785.785,0,0,1,1.11-1.109l2.037,2.037a1.226,1.226,0,0,0,1.734,0l5.512-5.512a.8.8,0,0,1,1.11,0ZM15.864,32.7l3.228,2.595-1.087,4a1.573,1.573,0,0,0,2.382,1.73l3.466-2.269,3.466,2.269A1.575,1.575,0,0,0,29.7,39.29l-1.087-4L31.842,32.7a1.575,1.575,0,0,0-.91-2.8L26.8,29.7l-1.47-3.872h0a1.562,1.562,0,0,0-1.472-1.014h0a1.562,1.562,0,0,0-1.472,1.014L20.911,29.7l-4.137.2a1.575,1.575,0,0,0-.91,2.8Zm5.738-.581A1.574,1.574,0,0,0,23,31.1l.854-2.249.854,2.249a1.573,1.573,0,0,0,1.4,1.014l2.4.117L26.63,33.741a1.574,1.574,0,0,0-.533,1.641l.631,2.322-2.013-1.318a1.574,1.574,0,0,0-1.725,0L20.978,37.7l.631-2.322a1.575,1.575,0,0,0-.533-1.64L19.2,32.234Zm-.268,25.805,3.228-2.595a1.575,1.575,0,0,0-.91-2.8l-4.137-.2-1.47-3.873h0a1.576,1.576,0,0,0-2.944,0l-1.47,3.873-4.137.2a1.575,1.575,0,0,0-.91,2.8l3.228,2.595-1.087,4a1.573,1.573,0,0,0,2.382,1.73l3.466-2.269,3.466,2.269a1.575,1.575,0,0,0,2.382-1.731ZM19.351,56.37a1.574,1.574,0,0,0-.533,1.641l.631,2.321-2.013-1.318a1.574,1.574,0,0,0-1.725,0L13.7,60.333l.631-2.322a1.575,1.575,0,0,0-.533-1.64l-1.875-1.507,2.4-.117a1.574,1.574,0,0,0,1.4-1.014l.854-2.249.854,2.249a1.574,1.574,0,0,0,1.4,1.014l2.4.117ZM83.928,44.476a1.563,1.563,0,0,0-1.421-1.086l-4.137-.2L76.9,39.315a1.575,1.575,0,0,0-2.944,0l-1.47,3.873-4.137.2a1.575,1.575,0,0,0-.91,2.8l3.228,2.6-1.087,4a1.575,1.575,0,0,0,2.382,1.73l3.466-2.269,3.466,2.269a1.575,1.575,0,0,0,2.382-1.731l-1.087-4,3.228-2.595A1.563,1.563,0,0,0,83.928,44.476Zm-9.321-4.29v0Zm3.6,7.047a1.574,1.574,0,0,0-.533,1.641L78.3,51.2,76.29,49.877a1.575,1.575,0,0,0-1.725,0L72.552,51.2l.631-2.322a1.575,1.575,0,0,0-.533-1.64l-1.875-1.507,2.4-.117a1.574,1.574,0,0,0,1.4-1.014l.854-2.249.854,2.249a1.574,1.574,0,0,0,1.4,1.014l2.4.117ZM58.636,23.13l3.228,2.6-1.087,4a1.573,1.573,0,0,0,2.382,1.73l3.466-2.269,3.466,2.268a1.575,1.575,0,0,0,2.382-1.73l-1.087-4,3.228-2.6a1.575,1.575,0,0,0-.91-2.8l-4.137-.2L68.1,16.255h0a1.576,1.576,0,0,0-2.944,0l-1.47,3.873-4.137.2a1.575,1.575,0,0,0-.91,2.8Zm5.74-.581a1.574,1.574,0,0,0,1.4-1.014l.854-2.25.854,2.25a1.574,1.574,0,0,0,1.4,1.014l2.4.117L69.4,24.173a1.574,1.574,0,0,0-.533,1.641l.631,2.322-2.013-1.318a1.574,1.574,0,0,0-1.725,0L63.75,28.135l.631-2.322a1.575,1.575,0,0,0-.533-1.64l-1.875-1.507Z" transform="translate(-7.994 -15.241)" fill="#fff"/>
</svg>
