<svg xmlns="http://www.w3.org/2000/svg" width="189" height="100" viewBox="0 0 189 100">
  <g id="Grupo_1115792" data-name="Grupo 1115792" transform="translate(-390.332 -1159.205)">
    <rect id="Rectángulo_406738" data-name="Rectángulo 406738" width="189" height="100" rx="10" transform="translate(390.332 1159.205)" fill="#f2efdf"/>
    <g id="Grupo_1117047" data-name="Grupo 1117047" transform="translate(448.332 1173.204)">
      <g id="Grupo_1117045" data-name="Grupo 1117045" transform="translate(2.079 1.177)">
        <g id="Grupo_1117005" data-name="Grupo 1117005" transform="translate(0 40.032)">
          <path id="Trazado_887525" data-name="Trazado 887525" d="M16.6,40.71l4.239,7.065H2l5.852-9.761a4.167,4.167,0,0,1,7.135,0Z" transform="translate(-2 -36)" fill="#b4dd7f"/>
        </g>
        <g id="Grupo_1117006" data-name="Grupo 1117006" transform="translate(14.6 37.677)">
          <path id="Trazado_887526" data-name="Trazado 887526" d="M23.348,41.065v7.065h-4.71L14.4,41.065l3.026-5.051a4.166,4.166,0,0,1,5.922-1.283Z" transform="translate(-14.4 -34)" fill="#a0d468"/>
        </g>
        <g id="Grupo_1117007" data-name="Grupo 1117007" transform="translate(49.452 37.677)">
          <path id="Trazado_887527" data-name="Trazado 887527" d="M47.568,36.013l3.026,5.051-4.239,7.065H44V34A4.169,4.169,0,0,1,47.568,36.013Z" transform="translate(-44 -34)" fill="#a0d468"/>
        </g>
        <g id="Grupo_1117008" data-name="Grupo 1117008" transform="translate(51.806 40.032)">
          <path id="Trazado_887528" data-name="Trazado 887528" d="M58.987,38.013l5.852,9.761H46l4.239-7.065,1.613-2.7a4.167,4.167,0,0,1,7.135,0Z" transform="translate(-46 -36)" fill="#b4dd7f"/>
        </g>
        <g id="Grupo_1117009" data-name="Grupo 1117009" transform="translate(28.258 47.65)">
          <path id="Trazado_887529" data-name="Trazado 887529" d="M30.71,43.424V56.046H26V42.47c1.4.353,3.026.648,4.71.954Z" transform="translate(-26 -42.47)" fill="#ccd1d9"/>
        </g>
        <g id="Grupo_1117010" data-name="Grupo 1117010" transform="translate(37.677 49.44)">
          <path id="Trazado_887530" data-name="Trazado 887530" d="M38.71,45.085V55.776H34V43.99A45.834,45.834,0,0,1,38.71,45.085Z" transform="translate(-34 -43.99)" fill="#ccd1d9"/>
        </g>
        <g id="Grupo_1117011" data-name="Grupo 1117011" transform="translate(23.548 44.742)">
          <path id="Trazado_887531" data-name="Trazado 887531" d="M26.71,42.908V56.484H22V40C22,41.354,23.943,42.225,26.71,42.908Z" transform="translate(-22 -40)" fill="#aab2bd"/>
        </g>
        <g id="Grupo_1117012" data-name="Grupo 1117012" transform="translate(32.968 48.604)">
          <path id="Trazado_887532" data-name="Trazado 887532" d="M34.71,44.116V55.9H30V43.28c1.554.271,3.155.542,4.71.836Z" transform="translate(-30 -43.28)" fill="#aab2bd"/>
        </g>
        <g id="Grupo_1117013" data-name="Grupo 1117013" transform="translate(42.387 50.535)">
          <path id="Trazado_887533" data-name="Trazado 887533" d="M42.71,48.546v7.065H38V44.92c.365.106.695.212,1.024.33l.082-.012a3.624,3.624,0,0,1,.071.718v2.59Z" transform="translate(-38 -44.92)" fill="#aab2bd"/>
        </g>
        <g id="Grupo_1117014" data-name="Grupo 1117014" transform="translate(62.403 65.935)">
          <path id="Trazado_887534" data-name="Trazado 887534" d="M63.242,58v4.71H55V58h8.242Z" transform="translate(-55 -58)" fill="#b27946"/>
        </g>
        <g id="Grupo_1117015" data-name="Grupo 1117015" transform="translate(65.935 61.226)">
          <path id="Trazado_887535" data-name="Trazado 887535" d="M58,54h4.71v4.71H58Z" transform="translate(-58 -54)" fill="#d3a06c"/>
        </g>
        <g id="Grupo_1117016" data-name="Grupo 1117016" transform="translate(62.403 56.516)">
          <path id="Trazado_887536" data-name="Trazado 887536" d="M63.242,50v4.71H55V50Z" transform="translate(-55 -50)" fill="#d3a06c"/>
        </g>
        <g id="Grupo_1117017" data-name="Grupo 1117017" transform="translate(60.59 23.548)">
          <path id="Trazado_887537" data-name="Trazado 887537" d="M61.16,23.177v2.355a1.181,1.181,0,0,1-1.177,1.177H53.46a4.7,4.7,0,0,0,.636-2.355V22h5.887A1.181,1.181,0,0,1,61.16,23.177Z" transform="translate(-53.46 -22)" fill="#aab2bd"/>
        </g>
        <g id="Grupo_1117018" data-name="Grupo 1117018" transform="translate(58.871 61.226)">
          <path id="Trazado_887538" data-name="Trazado 887538" d="M59.065,54v4.71H52V54h7.065Z" transform="translate(-52 -54)" fill="#b27946"/>
        </g>
        <g id="Grupo_1117019" data-name="Grupo 1117019" transform="translate(54.161 65.935)">
          <path id="Trazado_887539" data-name="Trazado 887539" d="M56.242,58v4.71H48V58h8.242Z" transform="translate(-48 -58)" fill="#d3a06c"/>
        </g>
        <g id="Grupo_1117020" data-name="Grupo 1117020" transform="translate(54.161 56.516)">
          <path id="Trazado_887540" data-name="Trazado 887540" d="M56.242,50v4.71H48V50Z" transform="translate(-48 -50)" fill="#b27946"/>
        </g>
        <g id="Grupo_1117021" data-name="Grupo 1117021" transform="translate(49.134 23.548)">
          <path id="Trazado_887541" data-name="Trazado 887541" d="M55.822,22v2.355a4.721,4.721,0,0,1-4.71,4.71H44.048V23.177A2.349,2.349,0,0,0,43.73,22Z" transform="translate(-43.73 -22)" fill="#e6e9ed"/>
        </g>
        <g id="Grupo_1117022" data-name="Grupo 1117022" transform="translate(54.161 61.226)">
          <path id="Trazado_887542" data-name="Trazado 887542" d="M48,54h4.71v4.71H48Z" transform="translate(-48 -54)" fill="#d3a06c"/>
        </g>
        <g id="Grupo_1117023" data-name="Grupo 1117023" transform="translate(40.032 65.935)">
          <path id="Trazado_887543" data-name="Trazado 887543" d="M45.419,58v4.71H36V58h9.419Z" transform="translate(-36 -58)" fill="#d3a06c"/>
        </g>
        <g id="Grupo_1117024" data-name="Grupo 1117024" transform="translate(44.742 61.226)">
          <path id="Trazado_887544" data-name="Trazado 887544" d="M44.71,54v4.71H40V54h4.71Z" transform="translate(-40 -54)" fill="#d3a06c"/>
        </g>
        <g id="Grupo_1117025" data-name="Grupo 1117025" transform="translate(40.032 22.371)">
          <path id="Trazado_887545" data-name="Trazado 887545" d="M36,33.716V23.355A2.361,2.361,0,0,1,38.355,21h4.71a2.361,2.361,0,0,1,2.355,2.355V52.79H39.532V50.2a3.624,3.624,0,0,0-.071-.718,3.911,3.911,0,0,0-1.7-2.579A3.954,3.954,0,0,1,36,43.606Z" transform="translate(-36 -21)" fill="#ccd1d9"/>
        </g>
        <g id="Grupo_1117026" data-name="Grupo 1117026" transform="translate(35.323 61.226)">
          <path id="Trazado_887546" data-name="Trazado 887546" d="M41.419,54v4.71H32V54h9.419Z" transform="translate(-32 -54)" fill="#b27946"/>
        </g>
        <g id="Grupo_1117027" data-name="Grupo 1117027" transform="translate(25.903)">
          <path id="Trazado_887547" data-name="Trazado 887547" d="M42.839,11.419V24.371H40.484a2.35,2.35,0,0,0-2.037,1.177h-.318a2.362,2.362,0,0,1-2.355-2.355V21.522A5.8,5.8,0,0,0,37.587,20.3a5.913,5.913,0,0,0,1.719-4.168V13.774a2.362,2.362,0,0,0-2.355-2.355H29.887a2.362,2.362,0,0,0-2.355,2.355v2.355a5.891,5.891,0,0,0,3.532,5.393v1.672a2.362,2.362,0,0,1-2.355,2.355H24V11.419a9.419,9.419,0,1,1,18.839,0Z" transform="translate(-24 -2)" fill="#aab2bd"/>
        </g>
        <g id="Grupo_1117028" data-name="Grupo 1117028" transform="translate(23.548 32.968)">
          <path id="Trazado_887548" data-name="Trazado 887548" d="M41.945,47.885l-.082.012c-.33-.118-.659-.224-1.024-.33a45.833,45.833,0,0,0-4.71-1.1c-1.554-.294-3.155-.565-4.71-.836-1.684-.306-3.309-.6-4.71-.954C23.943,44,22,43.128,22,41.774V30a11.764,11.764,0,0,0,7.065,2.355h7.065a12.01,12.01,0,0,0,2.355-.235v9.89a3.954,3.954,0,0,0,1.766,3.3,3.911,3.911,0,0,1,1.7,2.579Z" transform="translate(-22 -30)" fill="#e6e9ed"/>
        </g>
        <g id="Grupo_1117029" data-name="Grupo 1117029" transform="translate(29.435 9.419)">
          <path id="Trazado_887549" data-name="Trazado 887549" d="M38.774,12.355V14.71a5.913,5.913,0,0,1-1.719,4.168A5.8,5.8,0,0,1,35.242,20.1v.012a5.985,5.985,0,0,1-4.71,0V20.1A5.891,5.891,0,0,1,27,14.71V12.355A2.362,2.362,0,0,1,29.355,10h7.065a2.362,2.362,0,0,1,2.355,2.355Z" transform="translate(-27 -10)" fill="#e6e9ed"/>
        </g>
        <g id="Grupo_1117030" data-name="Grupo 1117030" transform="translate(23.548 19.533)">
          <path id="Trazado_887550" data-name="Trazado 887550" d="M38.484,22.605H38.8a2.349,2.349,0,0,0-.318,1.177v5.487a7.063,7.063,0,0,1-2.355.4H29.065A7.07,7.07,0,0,1,22,22.605h7.065a2.362,2.362,0,0,0,2.355-2.355V18.59a5.985,5.985,0,0,0,4.71,0v1.66A2.362,2.362,0,0,0,38.484,22.605Z" transform="translate(-22 -18.59)" fill="#e6e9ed"/>
        </g>
        <g id="Grupo_1117031" data-name="Grupo 1117031" transform="translate(30.613 65.935)">
          <path id="Trazado_887551" data-name="Trazado 887551" d="M37.419,58v4.71H28V58h9.419Z" transform="translate(-28 -58)" fill="#b27946"/>
        </g>
        <g id="Grupo_1117032" data-name="Grupo 1117032" transform="translate(18.839 23.548)">
          <path id="Trazado_887552" data-name="Trazado 887552" d="M39.194,28.664v4.875a12.01,12.01,0,0,1-2.355.235H29.774A11.774,11.774,0,0,1,18,22h4.71a7.07,7.07,0,0,0,7.065,7.065h7.065A7.063,7.063,0,0,0,39.194,28.664Z" transform="translate(-18 -22)" fill="#ccd1d9"/>
        </g>
        <g id="Grupo_1117033" data-name="Grupo 1117033" transform="translate(25.903 61.226)">
          <path id="Trazado_887553" data-name="Trazado 887553" d="M33.419,54v4.71H24V54h9.419Z" transform="translate(-24 -54)" fill="#d3a06c"/>
        </g>
        <g id="Grupo_1117034" data-name="Grupo 1117034" transform="translate(21.194 65.935)">
          <path id="Trazado_887554" data-name="Trazado 887554" d="M29.419,58v4.71H20V58h9.419Z" transform="translate(-20 -58)" fill="#d3a06c"/>
        </g>
        <g id="Grupo_1117035" data-name="Grupo 1117035" transform="translate(21.194 61.226)">
          <path id="Trazado_887555" data-name="Trazado 887555" d="M24.71,54v4.71H20V54h4.71Z" transform="translate(-20 -54)" fill="#b27946"/>
        </g>
        <g id="Grupo_1117036" data-name="Grupo 1117036" transform="translate(9.419 23.548)">
          <path id="Trazado_887556" data-name="Trazado 887556" d="M21.774,29.065H14.71A4.721,4.721,0,0,1,10,24.355V22h9.419A11.764,11.764,0,0,0,21.774,29.065Z" transform="translate(-10 -22)" fill="#e6e9ed"/>
        </g>
        <g id="Grupo_1117037" data-name="Grupo 1117037" transform="translate(8.242 65.935)">
          <path id="Trazado_887557" data-name="Trazado 887557" d="M17.242,58v4.71H9V58h8.242Z" transform="translate(-9 -58)" fill="#b27946"/>
        </g>
        <g id="Grupo_1117038" data-name="Grupo 1117038" transform="translate(11.774 61.226)">
          <path id="Trazado_887558" data-name="Trazado 887558" d="M12,54h4.71v4.71H12Z" transform="translate(-12 -54)" fill="#d3a06c"/>
        </g>
        <g id="Grupo_1117039" data-name="Grupo 1117039" transform="translate(8.242 56.516)">
          <path id="Trazado_887559" data-name="Trazado 887559" d="M17.242,50v4.71H9V50Z" transform="translate(-9 -50)" fill="#d3a06c"/>
        </g>
        <g id="Grupo_1117040" data-name="Grupo 1117040" transform="translate(4.71 61.226)">
          <path id="Trazado_887560" data-name="Trazado 887560" d="M13.065,54v4.71H6V54h7.065Z" transform="translate(-6 -54)" fill="#b27946"/>
        </g>
        <g id="Grupo_1117041" data-name="Grupo 1117041" transform="translate(2.355 23.548)">
          <path id="Trazado_887561" data-name="Trazado 887561" d="M11.7,26.71H5.177A1.181,1.181,0,0,1,4,25.532V23.177A1.181,1.181,0,0,1,5.177,22h5.887v2.355A4.7,4.7,0,0,0,11.7,26.71Z" transform="translate(-4 -22)" fill="#aab2bd"/>
        </g>
        <g id="Grupo_1117042" data-name="Grupo 1117042" transform="translate(0 65.935)">
          <path id="Trazado_887562" data-name="Trazado 887562" d="M10.242,58v4.71H2V58h8.242Z" transform="translate(-2 -58)" fill="#d3a06c"/>
        </g>
        <g id="Grupo_1117043" data-name="Grupo 1117043" transform="translate(0 56.516)">
          <path id="Trazado_887563" data-name="Trazado 887563" d="M10.242,50v4.71H2V50Z" transform="translate(-2 -50)" fill="#b27946"/>
        </g>
        <g id="Grupo_1117044" data-name="Grupo 1117044" transform="translate(0 61.226)">
          <path id="Trazado_887564" data-name="Trazado 887564" d="M2,54H6.71v4.71H2Z" transform="translate(-2 -54)" fill="#d3a06c"/>
        </g>
      </g>
      <g id="Grupo_1117046" data-name="Grupo 1117046">
        <path id="Trazado_887565" data-name="Trazado 887565" d="M52.942,57.516V55.161h22.1L68.118,43.623a5.337,5.337,0,0,0-9.152,0l-.605,1.008-2.017-3.363a5.365,5.365,0,0,0-3.4-2.449V33.968h5.887a5.86,5.86,0,0,0,4.679-2.355h5.918a2.357,2.357,0,0,0,2.355-2.355V26.9a2.357,2.357,0,0,0-2.355-2.355h-17.4a3.512,3.512,0,0,0-2.614-1.177H48.233V11.6a10.6,10.6,0,0,0-21.194,0V24.548H5.846A2.357,2.357,0,0,0,3.491,26.9v2.355a2.357,2.357,0,0,0,2.355,2.355h5.918a5.863,5.863,0,0,0,4.679,2.355h6.5a13.084,13.084,0,0,0,1.741,1.741v3.115a5.251,5.251,0,0,0-1.177-.147,5.362,5.362,0,0,0-4.575,2.59L16.913,44.63l-.605-1.008a5.336,5.336,0,0,0-9.151,0L.234,55.161h24.45v7.065H22.329V74H52.942V62.226H50.588v-4.71Zm8.043-12.682a2.982,2.982,0,0,1,5.114,0l4.783,7.972H56.2Zm-6.661-2.355,2.663,4.44-3.532,5.887h-.513V41.3A2.973,2.973,0,0,1,54.325,42.479ZM69.426,26.9v2.355H64.6a5.882,5.882,0,0,0,.119-1.177V26.9Zm-7.065,0v1.177a3.537,3.537,0,0,1-3.532,3.532H52.942V26.9Zm-11.774,0V55.161H47.055V53.752a5.135,5.135,0,0,0-2.29-4.28,2.784,2.784,0,0,1-1.242-2.321V26.9A1.179,1.179,0,0,1,44.7,25.726h4.71A1.179,1.179,0,0,1,50.588,26.9ZM38.813,66.935V64.581h7.065v2.355ZM34.1,51.762V62.226H31.749V51.305C32.5,51.463,33.283,51.614,34.1,51.762Zm2.355,10.464V52.178c.784.135,1.574.273,2.355.416v9.632Zm0,2.355v2.355H29.394V64.581Zm4.71,4.71v2.355H34.1V69.29Zm0-7.065V53.048c.823.172,1.613.356,2.355.552v8.626ZM29.394,11.6a8.242,8.242,0,0,1,16.484,0V23.371H44.7A3.513,3.513,0,0,0,42.124,24.5a1.162,1.162,0,0,1-.956-1.133v-.956A7.063,7.063,0,0,0,44.7,16.306V13.952a3.537,3.537,0,0,0-3.532-3.532H34.1a3.537,3.537,0,0,0-3.532,3.532v2.355A7.063,7.063,0,0,0,34.1,22.415v.956a1.179,1.179,0,0,1-1.177,1.177H29.394Zm8.242,9.419a4.714,4.714,0,0,1-4.71-4.71V13.952A1.179,1.179,0,0,1,34.1,12.774h7.065a1.179,1.179,0,0,1,1.177,1.177v2.355A4.714,4.714,0,0,1,37.636,21.016Zm-1.177,2.355v-.106a6.594,6.594,0,0,0,2.355,0v.106a3.524,3.524,0,0,0,2.376,3.321c0,.072-.021.139-.021.211v4.579a5.865,5.865,0,0,1-1.177.131H32.926a5.9,5.9,0,0,1-5.768-4.71h5.768A3.537,3.537,0,0,0,36.458,23.371ZM5.846,29.258V26.9h4.71v1.177a5.882,5.882,0,0,0,.119,1.177Zm10.6,2.355a3.537,3.537,0,0,1-3.532-3.532V26.9h7.125a12.834,12.834,0,0,0,1.371,4.71ZM22.4,26.9h2.38a8.249,8.249,0,0,0,8.148,7.065h7.065a8.161,8.161,0,0,0,1.177-.1v2.385a10.636,10.636,0,0,1-1.177.069H32.926A10.609,10.609,0,0,1,22.4,26.9ZM32.926,38.677h7.065c.393,0,.787-.024,1.177-.059v8.534a5.131,5.131,0,0,0,1.761,3.874c-1.911-.446-4.015-.811-6.075-1.169-3.43-.6-9.815-1.7-9.815-2.938V37.248a12.867,12.867,0,0,0,5.887,1.429ZM4.393,52.806l4.784-7.972a2.981,2.981,0,0,1,5.112,0l4.784,7.972Zm17.426,0-3.532-5.887L20.95,42.48a3,3,0,0,1,2.557-1.448,2.962,2.962,0,0,1,1.177.25V52.806Zm5.221-2.934a14.581,14.581,0,0,0,2.355.86V62.226H27.039Zm0,14.708v2.355H24.684V64.581Zm-2.355,4.71h7.065v2.355H24.684Zm18.839,2.355V69.29h7.065v2.355Zm7.065-4.71H48.233V64.581h2.355Zm-2.355-4.71H45.878v-4.71h2.355Z" transform="translate(-0.234 -1)"/>
        <path id="Trazado_887566" data-name="Trazado 887566" d="M39,24h2.355v2.355H39Z" transform="translate(6.644 3.081)"/>
        <path id="Trazado_887567" data-name="Trazado 887567" d="M39,28h2.355v2.355H39Z" transform="translate(6.644 3.79)"/>
        <path id="Trazado_887568" data-name="Trazado 887568" d="M39,32h2.355v2.355H39Z" transform="translate(6.644 4.5)"/>
        <path id="Trazado_887569" data-name="Trazado 887569" d="M47,65.484H65.839V49H47Zm2.355-4.71h5.887v2.355H49.355Zm9.419-4.71v2.355h-4.71V56.065Zm4.71,0v2.355H61.129V56.065ZM51.71,58.419H49.355V56.065H51.71Zm5.887,4.71V60.774h5.887v2.355Zm5.887-9.419H57.6V51.355h5.887Zm-8.242-2.355V53.71H49.355V51.355Z" transform="translate(8.063 7.516)"/>
        <path id="Trazado_887570" data-name="Trazado 887570" d="M1,65.484H19.839V49H1Zm2.355-4.71H9.242v2.355H3.355Zm9.419-4.71v2.355H8.065V56.065Zm4.71,0v2.355H15.129V56.065ZM5.71,58.419H3.355V56.065H5.71Zm5.887,4.71V60.774h5.887v2.355Zm5.887-9.419H11.6V51.355h5.887ZM9.242,51.355V53.71H3.355V51.355Z" transform="translate(-0.098 7.516)"/>
      </g>
    </g>
  </g>
</svg>
