<svg xmlns="http://www.w3.org/2000/svg" width="68.083" height="76.894" viewBox="0 0 68.083 76.894">
  <path id="Trazado_887657" data-name="Trazado 887657" d="M73.46,25.449A16.451,16.451,0,0,0,49.116,46.674a1.162,1.162,0,0,0,.069.119,16.555,16.555,0,0,0,8.276,6.995l.015.006.011,0a.929.929,0,0,0,.09.035l.015,0a16.273,16.273,0,0,0,5.744,1.044,16.766,16.766,0,0,0,2.041-.126,16.449,16.449,0,0,0,8.084-29.3ZM52.271,29.8a13.947,13.947,0,0,1,9.348-5.308c.4-.05.808-.083,1.209-.1a15.5,15.5,0,0,1-5.679,5.487,10.124,10.124,0,0,0-4.513,5.175c-.464,1.039-.629,1.315-1.06,1.44a6.917,6.917,0,0,1-2.174.252,13.947,13.947,0,0,1,2.87-6.948ZM51.51,45.98A23.057,23.057,0,0,1,53.324,41.9c.149.108.321.246.466.36a6.507,6.507,0,0,0,4.576,1.8c2.274-.078,3.266.38,3.425.8.225.59-.518,2.3-2.87,4.266A5.246,5.246,0,0,0,57.306,51.1,14.148,14.148,0,0,1,51.51,45.98Zm13.571,6.387a13.955,13.955,0,0,1-5.507-.411,2.568,2.568,0,0,1,.766-.891c.029-.02.056-.041.083-.063,2.99-2.484,4.341-5.1,3.616-7-.637-1.668-2.577-2.455-5.772-2.343l-.03,0a4.233,4.233,0,0,1-2.948-1.282,3.118,3.118,0,0,0-2.46-1.011,2.209,2.209,0,0,0-1.488,1.161,22.326,22.326,0,0,0-1.261,2.493,13.984,13.984,0,0,1-.664-2.859q-.063-.507-.089-1.011c.123,0,.246.008.368.008A9.227,9.227,0,0,0,52.24,38.8a4.153,4.153,0,0,0,2.595-2.772,7.7,7.7,0,0,1,3.536-4.082,18.612,18.612,0,0,0,7.193-7.4,13.973,13.973,0,0,1,6.421,2.8A14.194,14.194,0,0,1,73.673,28.9l-3.041,1.024c-.015,0-.03.011-.045.017l-.554.209a16.976,16.976,0,0,0-3.347,1.533,3.455,3.455,0,0,0-1.868,3.433c.065.475,0,.52-.571.791a3.4,3.4,0,0,0-.562.311,2.61,2.61,0,0,0-.739,3.721A8.416,8.416,0,0,0,66.2,42.6c1.137.565,2.708,1.126,3.733.59a3.071,3.071,0,0,0,1.176-1.379,36.054,36.054,0,0,0,2.322,6.393A13.956,13.956,0,0,1,65.081,52.366ZM75.118,46.1a31.918,31.918,0,0,1-1.686-4.911c-.327-1.306-.779-2.711-2-2.849-1.188-.134-1.772,1.015-2.241,1.939-.107.21-.267.526-.389.719a7.466,7.466,0,0,1-3.436-1.864c-.434-.44-.5-.71-.5-.757a.621.621,0,0,1,.207-.207c.036-.021.126-.063.194-.1A2.945,2.945,0,0,0,67.2,34.788c-.132-.973,2.156-1.826,3.672-2.391l.55-.206,3.807-1.282a14.076,14.076,0,0,1-.11,15.191ZM56.045,18.632l.647-.419v2.5a1.2,1.2,0,0,0,1.7,1.095,12.059,12.059,0,0,1,9.922,0,1.2,1.2,0,0,0,1.7-1.1v-2.5l.647.419a3.273,3.273,0,0,0,5.073-3.286,3.176,3.176,0,0,0-1.34-2.084L68.945,9.537a4.674,4.674,0,0,0-1.168-.584,5.579,5.579,0,1,0-8.851,0,4.639,4.639,0,0,0-1.17.586l-5.45,3.726a3.191,3.191,0,0,0-1.338,2.089,3.274,3.274,0,0,0,5.077,3.281ZM63.352,2.386a3.175,3.175,0,1,1-3.173,3.173,3.177,3.177,0,0,1,3.173-3.173ZM53.336,15.773a.8.8,0,0,1,.329-.524l5.45-3.726a1.937,1.937,0,0,1,1.171-.38h6.13a1.956,1.956,0,0,1,1.173.381l5.445,3.726a.806.806,0,0,1,.33.521.9.9,0,0,1-.149.673.915.915,0,0,1-1.249.171l-2.479-1.607-1.509-1.081a1.2,1.2,0,1,0-1.4,1.954l1.03.739v2.358a14.466,14.466,0,0,0-8.509,0V16.62l1.03-.739a1.2,1.2,0,1,0-1.4-1.954l-1.509,1.081-2.479,1.607a.872.872,0,0,1-1.4-.842ZM76.842,22.2l.685.351L75.364,23.8a1.2,1.2,0,0,0-.1,2.018,12.133,12.133,0,0,1,3.406,3.762,11.987,11.987,0,0,1,1.556,4.834,1.2,1.2,0,0,0,1.8.922l2.164-1.248-.041.769a3.32,3.32,0,0,0,2.945,3.511,3.137,3.137,0,0,0,.314.015,3.317,3.317,0,0,0,2.122-.772,3.177,3.177,0,0,0,1.137-2.2l.508-6.585a4.688,4.688,0,0,0-.078-1.3,5.437,5.437,0,0,0,.731.048A5.585,5.585,0,0,0,96.649,19.2a0,0,0,0,0,0,0,5.591,5.591,0,0,0-7.623-2.045,5.534,5.534,0,0,0-2.362,2.693,4.77,4.77,0,0,0-1.089-.718l-5.95-2.852a3.18,3.18,0,0,0-2.482-.117,3.276,3.276,0,0,0-.3,6.038Zm11.905-1.03a3.181,3.181,0,1,1,.33,2.427l-.018-.032a3.151,3.151,0,0,1-.312-2.4ZM77.461,18.889a.882.882,0,0,1,.5-.463.8.8,0,0,1,.619.026L84.528,21.3a1.974,1.974,0,0,1,.924.826l1.512,2.62c.008.012.014.024.02.036s.015.024.021.036l1.509,2.614a2.006,2.006,0,0,1,.257,1.212l-.506,6.583a.8.8,0,0,1-.287.545.888.888,0,0,1-.653.2.907.907,0,0,1-.776-1l.156-2.952.176-1.85a1.2,1.2,0,1,0-2.394-.228l-.12,1.26-2.038,1.176a14.369,14.369,0,0,0-1.575-4.007v0a14.6,14.6,0,0,0-2.682-3.362L80.11,23.84l1.153.523a1.192,1.192,0,0,0,.5.108,1.2,1.2,0,0,0,.5-2.3l-1.689-.767L77.94,20.059a.909.909,0,0,1-.479-1.17ZM94.6,50.028a5.524,5.524,0,0,0-3.512-.7,4.646,4.646,0,0,0,.078-1.3l-.506-6.579a3.179,3.179,0,0,0-1.134-2.2A3.273,3.273,0,0,0,84.145,42l.041.761-2.162-1.249a1.2,1.2,0,0,0-1.8.922,12.056,12.056,0,0,1-4.96,8.6,1.2,1.2,0,0,0,.1,2.018L77.527,54.3l-.685.35a3.275,3.275,0,0,0,.293,6.034,3.241,3.241,0,0,0,1.116.2,3.182,3.182,0,0,0,1.371-.312l5.951-2.856A4.684,4.684,0,0,0,86.661,57a5.583,5.583,0,0,0,9.986.652.005.005,0,0,0,0,0A5.591,5.591,0,0,0,94.6,50.028Zm-9.153,4.7a1.966,1.966,0,0,1-.916.821L78.585,58.4a.807.807,0,0,1-.625.023.878.878,0,0,1-.5-.461.909.909,0,0,1,.478-1.173l2.626-1.341,1.691-.767a1.2,1.2,0,0,0-.994-2.189l-1.152.523L78.07,51.838a14.435,14.435,0,0,0,4.254-7.372l2.041,1.179.12,1.255a1.2,1.2,0,0,0,1.2,1.089,1.011,1.011,0,0,0,.116-.006,1.2,1.2,0,0,0,1.083-1.311L86.7,44.825l-.156-2.945a.911.911,0,0,1,.772-1,.9.9,0,0,1,.658.207.8.8,0,0,1,.287.547l.506,6.577a1.979,1.979,0,0,1-.255,1.209Zm9.114,1.722a3.177,3.177,0,0,1-5.818-.767,3.178,3.178,0,0,1,2.247-3.888,3.18,3.18,0,0,1,.827-.11,3.141,3.141,0,0,1,1.578.426,3.182,3.182,0,0,1,1.165,4.338ZM70.658,58.225l-.646.419v-2.5a1.2,1.2,0,0,0-1.7-1.095,12.059,12.059,0,0,1-9.922,0,1.2,1.2,0,0,0-1.7,1.095v2.5l-.644-.417A3.274,3.274,0,0,0,50.968,61.5a3.191,3.191,0,0,0,1.34,2.093l5.453,3.732a4.685,4.685,0,0,0,1.167.583,5.578,5.578,0,1,0,8.851,0,4.769,4.769,0,0,0,1.171-.584l5.444-3.729A3.176,3.176,0,0,0,75.734,61.5a3.273,3.273,0,0,0-5.076-3.277ZM63.352,74.467a3.173,3.173,0,1,1,3.173-3.173A3.177,3.177,0,0,1,63.352,74.467ZM73.364,61.081a.8.8,0,0,1-.33.524L67.6,65.329a1.987,1.987,0,0,1-1.179.386h-6.13a1.962,1.962,0,0,1-1.173-.381L53.668,61.6a.8.8,0,0,1-.33-.527.884.884,0,0,1,.147-.664.835.835,0,0,1,.689-.347,1.04,1.04,0,0,1,.565.174l2.481,1.608,1.509,1.078a1.2,1.2,0,0,0,1.4-1.958L59.1,60.235V57.879a14.434,14.434,0,0,0,8.509,0v2.356l-1.029.734a1.2,1.2,0,1,0,1.4,1.958l1.509-1.078,2.484-1.61a.9.9,0,0,1,1.246.173.873.873,0,0,1,.152.668Zm-23.5-6.43-.683-.348,2.165-1.251a1.2,1.2,0,0,0,.1-2.02,12.056,12.056,0,0,1-4.959-8.591,1.2,1.2,0,0,0-1.8-.925l-2.165,1.251L42.554,42a3.271,3.271,0,0,0-5.376-2.759,3.188,3.188,0,0,0-1.141,2.2l-.5,6.583a4.667,4.667,0,0,0,.077,1.3A5.577,5.577,0,1,0,40.037,57a4.6,4.6,0,0,0,1.09.716l5.953,2.858a3.167,3.167,0,0,0,1.368.311,3.241,3.241,0,0,0,1.11-.2,3.275,3.275,0,0,0,.3-6.035Zm-11.905,1.03a3.177,3.177,0,1,1-.317-2.406,3.15,3.15,0,0,1,.317,2.406Zm11.291,2.283a.9.9,0,0,1-.5.464.806.806,0,0,1-.619-.023l-5.954-2.858a1.926,1.926,0,0,1-.915-.823l-3.066-5.311a1.948,1.948,0,0,1-.254-1.2l.5-6.577a.805.805,0,0,1,.291-.55.9.9,0,0,1,.575-.212l.078,0a.906.906,0,0,1,.772,1L40,44.823l-.18,1.846a1.2,1.2,0,0,0,1.08,1.314,1.064,1.064,0,0,0,.119.006,1.2,1.2,0,0,0,1.2-1.086l.123-1.258,2.041-1.179a14.466,14.466,0,0,0,4.254,7.37l-2.042,1.179-1.152-.523a1.2,1.2,0,0,0-.994,2.189l1.691.767,2.629,1.34A.913.913,0,0,1,49.245,57.963ZM32.1,26.826a5.549,5.549,0,0,0,2.783.751,5.7,5.7,0,0,0,.731-.048,4.7,4.7,0,0,0-.077,1.3l.5,6.583a3.185,3.185,0,0,0,1.144,2.2,3.314,3.314,0,0,0,2.119.769,3.106,3.106,0,0,0,.312-.015,3.311,3.311,0,0,0,2.94-3.515l-.039-.767,2.167,1.249a1.2,1.2,0,0,0,1.8-.927,12.021,12.021,0,0,1,1.556-4.826h0a11.922,11.922,0,0,1,3.4-3.765,1.2,1.2,0,0,0-.1-2.02l-2.165-1.248.683-.35a3.272,3.272,0,0,0-.3-6.037,3.171,3.171,0,0,0-2.473.119l-5.954,2.853a4.7,4.7,0,0,0-1.087.718A5.578,5.578,0,1,0,32.1,26.826Zm9.157-4.7a1.952,1.952,0,0,1,.916-.821l5.953-2.853a.758.758,0,0,1,.329-.075.827.827,0,0,1,.284.051.888.888,0,0,1,.508.467.911.911,0,0,1-.479,1.167l-2.632,1.346-1.689.767a1.2,1.2,0,1,0,1,2.189l1.153-.524,2.039,1.176a14.523,14.523,0,0,0-4.253,7.372l-2.041-1.177-.123-1.261a1.2,1.2,0,1,0-2.394.234l.18,1.85.152,2.949a.9.9,0,0,1-.772,1,.89.89,0,0,1-.653-.2.8.8,0,0,1-.291-.547l-.5-6.577a1.958,1.958,0,0,1,.255-1.213L39.7,24.822c.008-.014.017-.026.024-.039s.014-.027.021-.039ZM32.14,20.409a3.174,3.174,0,0,1,5.507,3.157l-.02.035A3.172,3.172,0,0,1,33.3,24.743a3.178,3.178,0,0,1-1.161-4.334Z" transform="translate(-29.309 0.02)" fill="#fff"/>
</svg>
