<svg xmlns="http://www.w3.org/2000/svg" width="100" height="100" viewBox="0 0 100 100">
  <g id="Grupo_1113274" data-name="Grupo 1113274" transform="translate(-619.571 -578)">
    <rect id="Rectángulo_407495" data-name="Rectángulo 407495" width="100" height="100" rx="10" transform="translate(619.571 578)" fill="#81c784"/>
    <g id="Grupo_1116962" data-name="Grupo 1116962" transform="translate(633.413 581.37)">
      <g id="Grupo_1116953" data-name="Grupo 1116953" transform="translate(15.71 56.138)">
        <g id="Grupo_1116948" data-name="Grupo 1116948" transform="translate(0 3.852)">
          <path id="Trazado_887361" data-name="Trazado 887361" d="M155.916,358.66a12.261,12.261,0,0,0,2.943,8.075H114.49a1.4,1.4,0,0,1-1.146-.586,14.293,14.293,0,0,1,0-14.977,1.4,1.4,0,0,1,1.146-.586h44.369A12.262,12.262,0,0,0,155.916,358.66Z" transform="translate(-111.226 -350.585)" fill="#fb3a82"/>
          <path id="Trazado_887362" data-name="Trazado 887362" d="M124.766,350.587,112.254,364.14a14.178,14.178,0,0,1-1.024-5.478,12.814,12.814,0,0,1,2.119-7.489,1.4,1.4,0,0,1,1.146-.586Z" transform="translate(-111.229 -350.587)" fill="#fb1466"/>
          <path id="Trazado_887363" data-name="Trazado 887363" d="M190.481,358.66a12.261,12.261,0,0,0,2.943,8.075H148.38s-2.589-2.622-2.589-8.075,2.589-8.075,2.589-8.075h45.044A12.262,12.262,0,0,0,190.481,358.66Z" transform="translate(-140.909 -350.585)" fill="#e0d3ce"/>
          <g id="Grupo_1116947" data-name="Grupo 1116947" transform="translate(4.882 0)">
            <path id="Trazado_887364" data-name="Trazado 887364" d="M154.444,350.587l-8.608,9.324c-.03-.4-.047-.815-.047-1.249,0-5.454,2.589-8.075,2.589-8.075Z" transform="translate(-145.79 -350.587)" fill="#cdbfbb"/>
            <path id="Trazado_887365" data-name="Trazado 887365" d="M429.736,358.666a12.259,12.259,0,0,0,2.944,8.074h-5.337a12.546,12.546,0,0,1,0-16.149h5.337A12.256,12.256,0,0,0,429.736,358.666Z" transform="translate(-385.046 -350.591)" fill="#cdbfbb"/>
          </g>
        </g>
        <g id="Grupo_1116952" data-name="Grupo 1116952" transform="translate(6.078)">
          <g id="Grupo_1116950" data-name="Grupo 1116950" transform="translate(0)">
            <path id="Trazado_887366" data-name="Trazado 887366" d="M203.729,325.662a2.344,2.344,0,0,1-2.343,2.343H156.6a2.344,2.344,0,0,1,0-4.688h44.782A2.344,2.344,0,0,1,203.729,325.662Z" transform="translate(-154.26 -323.317)" fill="#fb3a82"/>
            <g id="Grupo_1116949" data-name="Grupo 1116949">
              <path id="Trazado_887367" data-name="Trazado 887367" d="M165.273,323.317l-4.326,4.688H156.6a2.344,2.344,0,0,1,0-4.688Z" transform="translate(-154.26 -323.317)" fill="#fb1466"/>
              <path id="Trazado_887368" data-name="Trazado 887368" d="M462.6,325.664a2.346,2.346,0,0,1-2.345,2.345h-4.546a2.344,2.344,0,0,0,0-4.688h4.546A2.344,2.344,0,0,1,462.6,325.664Z" transform="translate(-413.134 -323.32)" fill="#fb1466"/>
            </g>
          </g>
          <g id="Grupo_1116951" data-name="Grupo 1116951" transform="translate(0 19.164)">
            <path id="Trazado_887369" data-name="Trazado 887369" d="M201.383,463.684H156.6a2.344,2.344,0,1,1,0-4.688h44.782a2.344,2.344,0,1,1,0,4.688Z" transform="translate(-154.257 -458.996)" fill="#fb3a82"/>
            <path id="Trazado_887370" data-name="Trazado 887370" d="M462.6,461.343a2.343,2.343,0,0,1-2.345,2.343h-4.546a2.343,2.343,0,1,0,0-4.686h4.546A2.344,2.344,0,0,1,462.6,461.343Z" transform="translate(-413.133 -458.999)" fill="#fb1466"/>
          </g>
        </g>
      </g>
      <g id="Grupo_1116961" data-name="Grupo 1116961" transform="translate(-0.001 12.193)">
        <g id="Grupo_1116956" data-name="Grupo 1116956" transform="translate(1.059 27.994)">
          <g id="Grupo_1116954" data-name="Grupo 1116954" transform="translate(0 8.966)">
            <path id="Trazado_887371" data-name="Trazado 887371" d="M38.355,277.641l-3.784-3.784L8.812,297.635a4.079,4.079,0,1,0,5.764,5.764Z" transform="translate(-7.5 -273.857)" fill="#873f30"/>
            <path id="Trazado_887372" data-name="Trazado 887372" d="M15.68,310.593a4.08,4.08,0,0,1-5.767,0,4.039,4.039,0,0,1-.995-1.625,4.073,4.073,0,0,0,4.139-.991c.039-.039.078-.081.116-.121L36.952,282.1l2.62,2.62L15.793,310.475C15.756,310.515,15.718,310.555,15.68,310.593Z" transform="translate(-8.718 -280.932)" fill="#6c3328"/>
          </g>
          <path id="Trazado_887373" data-name="Trazado 887373" d="M199.349,210.382l-8.713,10.394,3.559,3.559,10.393-8.713Z" transform="translate(-164.769 -210.382)" fill="#873f30"/>
          <path id="Trazado_887374" data-name="Trazado 887374" d="M207.873,210.382l-2.815,3.358.845.845a1.592,1.592,0,0,1,0,2.252l-5.34,5.34,2.157,2.157,10.393-8.713Z" transform="translate(-173.293 -210.382)" fill="#6c3328"/>
          <g id="Grupo_1116955" data-name="Grupo 1116955" transform="translate(22.984 8.265)">
            <path id="Trazado_887375" data-name="Trazado 887375" d="M174.426,276.721l-3.455-3.455a2.558,2.558,0,0,1,3.617-3.617l3.455,3.455a2.558,2.558,0,0,1-3.617,3.617Z" transform="translate(-170.222 -268.899)" fill="#ba5d4f"/>
            <path id="Trazado_887376" data-name="Trazado 887376" d="M187.677,286.359a2.558,2.558,0,0,1-3.617,0l-2.619-2.619a2.558,2.558,0,0,0,3.617-3.617l2.619,2.619A2.557,2.557,0,0,1,187.677,286.359Z" transform="translate(-179.856 -278.538)" fill="#a34f41"/>
          </g>
        </g>
        <g id="Grupo_1116957" data-name="Grupo 1116957" transform="translate(28.11 4.239)">
          <path id="Trazado_887377" data-name="Trazado 887377" d="M0,0H10.851V17.036H0Z" transform="translate(12.045 0) rotate(45)" fill="#ba5d4f"/>
          <path id="Trazado_887378" data-name="Trazado 887378" d="M0,0H10.851V17.036H0Z" transform="translate(24.477 36.532) rotate(-135)" fill="#a34f41"/>
        </g>
        <g id="Grupo_1116960" data-name="Grupo 1116960" transform="translate(0)">
          <path id="Trazado_887379" data-name="Trazado 887379" d="M177.5,37.561l-.267-.267a2.588,2.588,0,0,1,0-3.66l13.183-13.183a2.588,2.588,0,0,1,3.66,0l.267.267a2.588,2.588,0,0,1,0,3.66L181.164,37.561A2.588,2.588,0,0,1,177.5,37.561Z" transform="translate(-151.552 -18.634)" fill="#873f30"/>
          <path id="Trazado_887380" data-name="Trazado 887380" d="M349,209.058l.267.267a2.588,2.588,0,0,0,3.66,0l13.183-13.183a2.588,2.588,0,0,0,0-3.66l-.267-.267a2.588,2.588,0,0,0-3.66,0L349,205.4A2.588,2.588,0,0,0,349,209.058Z" transform="translate(-299.055 -166.136)" fill="#6c3328"/>
          <g id="Grupo_1116959" data-name="Grupo 1116959">
            <path id="Trazado_887381" data-name="Trazado 887381" d="M0,0H12.186V25.73H0Z" transform="translate(51.156 9.092) rotate(45)" fill="#fcc16d"/>
            <path id="Trazado_887382" data-name="Trazado 887382" d="M0,0H25.73V6.168H0Z" transform="translate(37.215 31.548) rotate(-45)" fill="#fca62f"/>
            <path id="Trazado_887383" data-name="Trazado 887383" d="M243.26,67.873l-2.111-.863a1.941,1.941,0,0,0-2.107.424L224.221,82.256a1.941,1.941,0,0,0-.424,2.107l.863,2.111a1.294,1.294,0,0,0,2.112.425l16.913-16.913A1.294,1.294,0,0,0,243.26,67.873Z" transform="translate(-192.062 -59.144)" fill="#873f30"/>
            <path id="Trazado_887384" data-name="Trazado 887384" d="M307.825,132.44l.863,2.111a1.941,1.941,0,0,1-.424,2.107l-14.821,14.821a1.941,1.941,0,0,1-2.107.424l-2.111-.863a1.294,1.294,0,0,1-.425-2.112l16.913-16.913A1.294,1.294,0,0,1,307.825,132.44Z" transform="translate(-247.682 -114.764)" fill="#6c3328"/>
            <g id="Grupo_1116958" data-name="Grupo 1116958">
              <path id="Trazado_887385" data-name="Trazado 887385" d="M68.914,74.243h-.788a10.956,10.956,0,0,1-.913-1.739,1.059,1.059,0,1,0-1.958.81c.131.316.277.625.432.929H24.132a3.389,3.389,0,0,0-.923.128,12.315,12.315,0,0,1-1.557-6.307c0-.462.02-.917.06-1.363h20.3a1.059,1.059,0,1,0,0-2.119H22.6l2.489-2.7H65.682a13.224,13.224,0,0,0-1.02,2.7H50.737a1.059,1.059,0,1,0,0,2.119H64.291c-.042.431-.066.865-.067,1.3a1.059,1.059,0,0,0,1.055,1.064h0a1.059,1.059,0,0,0,1.059-1.055,11.335,11.335,0,0,1,1.781-6.128h.79a3.4,3.4,0,1,0,0-6.806H55.672L67.8,42.947a3.647,3.647,0,0,0,0-5.158l-.267-.267a3.645,3.645,0,0,0-4.97-.174l-1.875-1.875.638-.638a2.993,2.993,0,0,0,.656-3.257l-.863-2.111a2.348,2.348,0,0,0-1.7-1.414L57.946,26.58a1.059,1.059,0,0,0-1.5,1.5l.725.725-16.7,16.7-4.91-4.91,16.7-16.7.65.65a1.059,1.059,0,1,0,1.5-1.5l-1.4-1.4a2.348,2.348,0,0,0-1.414-1.7h0l-2.111-.863a2.994,2.994,0,0,0-3.257.656l-.638.638L43.717,18.5a3.645,3.645,0,0,0-.174-4.97l-.267-.267a3.647,3.647,0,0,0-5.158,0L24.936,26.445a3.647,3.647,0,0,0,0,5.158l.266.267a3.645,3.645,0,0,0,4.97.174l1.875,1.875-.639.639a2.993,2.993,0,0,0-.656,3.257l.863,2.111a2.347,2.347,0,0,0,1.68,1.409l-5.312,6.336A3.619,3.619,0,0,0,23.2,52.257l-2.409,2.224a1.059,1.059,0,0,0,1.437,1.557l2.226-2.055,2.624,2.624L7.356,77.976A3.019,3.019,0,1,1,3.09,73.709L18.563,59.425a1.059,1.059,0,1,0-1.437-1.557L1.652,72.152a5.138,5.138,0,0,0,3.482,8.914H5.24a5.094,5.094,0,0,0,3.673-1.652l6.349-6.878a12.209,12.209,0,0,0,1.7,3.632A2.467,2.467,0,0,0,18.974,77.2h1.785a3.4,3.4,0,0,0,3.373,3.851H68.914a3.4,3.4,0,0,0,0-6.806ZM70.2,58.483a1.286,1.286,0,0,1-1.285,1.285H27.049L28.81,57.86a3.621,3.621,0,0,0,3.614-.661H68.914A1.286,1.286,0,0,1,70.2,58.483ZM38.239,46.257,32.106,51.4l-2.439-2.439,5.142-6.134ZM33.618,55.08a3.638,3.638,0,0,0-.221-2l6.336-5.312a2.348,2.348,0,0,0,1.409,1.68l2.111.863a2.994,2.994,0,0,0,3.257-.656l.639-.639,1.875,1.875a3.654,3.654,0,0,0-.422,4.186H33.618ZM64.959,38.573a1.518,1.518,0,0,1,1.081.447l.267.267a1.528,1.528,0,0,1,0,2.161L53.123,54.632a1.528,1.528,0,0,1-2.161,0l-.267-.267a1.53,1.53,0,0,1,0-2.161L63.879,39.021A1.517,1.517,0,0,1,64.959,38.573Zm-3.9.267L50.514,49.388,48.646,47.52,59.194,36.972Zm-19.2,8.265L58.78,30.192a.223.223,0,0,1,.162-.069.258.258,0,0,1,.05.005.225.225,0,0,1,.171.141l.863,2.111a.879.879,0,0,1-.193.957L45.011,48.159a.879.879,0,0,1-.957.193l-2.111-.863a.235.235,0,0,1-.077-.383ZM27.781,30.819a1.518,1.518,0,0,1-1.081-.448l-.267-.267a1.528,1.528,0,0,1,0-2.161L39.618,14.76a1.528,1.528,0,0,1,2.161,0l.267.267a1.528,1.528,0,0,1,0,2.161L28.862,30.371a1.52,1.52,0,0,1-1.081.447Zm3.9-.267L42.226,20l1.868,1.868L33.546,32.42Zm1.23,5.5L47.729,21.233a.879.879,0,0,1,.957-.193L50.8,21.9a.234.234,0,0,1,.077.383L33.96,39.2a.234.234,0,0,1-.383-.077l-.863-2.111a.88.88,0,0,1,.193-.957ZM25.1,51.01A1.5,1.5,0,0,1,27.66,49.95l3.455,3.455A1.5,1.5,0,0,1,29,55.525l-3.455-3.455a1.489,1.489,0,0,1-.439-1.06Zm-6.41,23.929A10.687,10.687,0,0,1,17,70.658l2.539-2.751c0,.052,0,.1,0,.157a14.7,14.7,0,0,0,1.643,7.015h-2.2A.345.345,0,0,1,18.692,74.939Zm50.222,3.992H24.132a1.285,1.285,0,0,1,0-2.569H68.914a1.285,1.285,0,0,1,0,2.569Z" transform="translate(0.001 -12.193)"/>
              <path id="Trazado_887386" data-name="Trazado 887386" d="M203.386,417.166a1.059,1.059,0,1,0,0,2.119h24.68a1.059,1.059,0,1,0,0-2.119Z" transform="translate(-173.749 -359.965)"/>
            </g>
          </g>
        </g>
      </g>
    </g>
  </g>
</svg>
