<svg xmlns="http://www.w3.org/2000/svg" width="50" height="50" viewBox="0 0 50 50">
  <g id="Grupo_1117583" data-name="Grupo 1117583" transform="translate(-514.914 -972)">
    <rect id="Rectángulo_410297" data-name="Rectángulo 410297" width="50" height="50" transform="translate(514.914 972)" fill="none"/>
    <g id="Grupo_1117576" data-name="Grupo 1117576" transform="translate(516.714 972.665)">
      <path id="Trazado_888429" data-name="Trazado 888429" d="M42.535,15.026H28.929V14.31a.716.716,0,0,0-.716-.716h-1.3L28.2,5.834A.716.716,0,0,0,27.5,5H18.9a.716.716,0,0,0-.706.834l1.293,7.759h-1.3a.716.716,0,0,0-.716.716v.716H3.864A2.864,2.864,0,0,0,1,17.89V40.806A2.864,2.864,0,0,0,3.864,43.67h38.67A2.864,2.864,0,0,0,45.4,40.806V17.89A2.864,2.864,0,0,0,42.535,15.026ZM19.749,6.432h6.9l-1.193,7.161H20.942ZM18.9,15.026H27.5v4.3H18.9Zm9.31,5.729a.716.716,0,0,0,.716-.716v-.716H41.1V39.374H5.3V19.322H17.471v.716a.716.716,0,0,0,.716.716ZM43.967,40.806a1.432,1.432,0,0,1-1.432,1.432H3.864a1.432,1.432,0,0,1-1.432-1.432V17.89a1.432,1.432,0,0,1,1.432-1.432H17.471V17.89H4.581a.716.716,0,0,0-.716.716V40.09a.716.716,0,0,0,.716.716H41.819a.716.716,0,0,0,.716-.716V18.606a.716.716,0,0,0-.716-.716H28.929V16.458H42.535a1.432,1.432,0,0,1,1.432,1.432Z" transform="translate(0)" fill="#144735"/>
      <path id="Trazado_888430" data-name="Trazado 888430" d="M28,21h1.432v1.432H28Z" transform="translate(-7.665 -4.542)" fill="#144735"/>
      <path id="Trazado_888431" data-name="Trazado 888431" d="M34,21h1.432v1.432H34Z" transform="translate(-9.368 -4.542)" fill="#144735"/>
      <path id="Trazado_888432" data-name="Trazado 888432" d="M9,29.716v12.89a.716.716,0,0,0,.716.716h12.89a.716.716,0,0,0,.716-.716V29.716A.716.716,0,0,0,22.606,29H9.716A.716.716,0,0,0,9,29.716Zm5.729,6.445h2.864a1.432,1.432,0,1,1-2.864,0Zm-.594-1.432a2.148,2.148,0,0,1,4.052,0Zm2.026,4.3a2.864,2.864,0,0,1,2.864,2.864H13.3A2.864,2.864,0,0,1,16.161,39.026Zm-5.729-8.593H21.89V41.89H20.458a4.3,4.3,0,0,0-2.225-3.762,2.847,2.847,0,0,0,.793-1.967.716.716,0,0,0,.716-.716,3.581,3.581,0,0,0-7.161,0,.716.716,0,0,0,.716.716,2.847,2.847,0,0,0,.793,1.967,4.3,4.3,0,0,0-2.225,3.762H10.432Z" transform="translate(-2.271 -6.813)" fill="#144735"/>
      <path id="Trazado_888433" data-name="Trazado 888433" d="M31,29H48.187v1.432H31Z" transform="translate(-8.516 -6.813)" fill="#144735"/>
      <path id="Trazado_888434" data-name="Trazado 888434" d="M31,35H48.187v1.432H31Z" transform="translate(-8.516 -8.516)" fill="#144735"/>
      <path id="Trazado_888435" data-name="Trazado 888435" d="M31,41H48.187v1.432H31Z" transform="translate(-8.516 -10.22)" fill="#144735"/>
      <path id="Trazado_888436" data-name="Trazado 888436" d="M31,47H45.322v1.432H31Z" transform="translate(-8.516 -11.923)" fill="#144735"/>
      <path id="Trazado_888437" data-name="Trazado 888437" d="M53,47h1.432v1.432H53Z" transform="translate(-14.762 -11.923)" fill="#144735"/>
    </g>
  </g>
</svg>
