<svg xmlns="http://www.w3.org/2000/svg" width="40" height="40" viewBox="0 0 40 40">
  <g id="Grupo_1100179" data-name="Grupo 1100179" transform="translate(-179.668 -742)">
    <rect id="Rectángulo_402006" data-name="Rectángulo 402006" width="40" height="40" rx="20" transform="translate(179.668 742)" fill="#3acc97"/>
    <g id="_3._Helm_construction" data-name="3. Helm construction" transform="translate(184.784 742.487)">
      <path id="Trazado_878165" data-name="Trazado 878165" d="M27.891,23.182c0-2.577.173-5.376-1.963-8.8a1.239,1.239,0,0,0-.13-1.524l-1.8-1.926a1.239,1.239,0,0,0-1.493-.223A12.9,12.9,0,0,0,17.912,8.6a1.858,1.858,0,0,0-.5-1.034c-.669-.737-1.288-.576-3.716-.576a1.858,1.858,0,0,0-1.858,1.6,13.051,13.051,0,0,0-4.571,2.112c-1.127-.619-1.79.545-3.3,2.155a1.239,1.239,0,0,0-.13,1.524c-2.131,3.413-1.963,6.231-1.963,8.8A2.478,2.478,0,0,0,2.5,28.05H27.271a2.478,2.478,0,0,0,.619-4.868ZM26.652,23.1H17.361l.508-13.236a11.824,11.824,0,0,1,3.859,1.827l-2.769,5.537a1.617,1.617,0,0,0,1.5,2.335c.911,0,.911-.26,4.6-4.218C26.826,18.369,26.652,20.834,26.652,23.1Zm-1.759-9.4c-4.546,4.887-4.224,4.621-4.453,4.621a.378.378,0,0,1-.347-.545l3-6ZM13.248,8.422c.242-.254.248-.192,2.824-.192a.619.619,0,0,1,.619.619L16.122,23.1H13.645C13.025,7.641,12.982,8.694,13.248,8.422ZM6.677,11.779c3.2,6.4,3.2,6.157,2.924,6.429a.372.372,0,0,1-.539,0L4.874,13.7ZM4.707,15.34l3.444,3.716a1.617,1.617,0,0,0,2.632-1.821L8.015,11.7a11.942,11.942,0,0,1,3.859-1.827L12.406,23.1H3.115C3.115,20.537,2.985,18.295,4.707,15.34ZM27.271,26.811H2.5a1.239,1.239,0,1,1,0-2.478H27.271a1.239,1.239,0,1,1,0,2.478Z" transform="translate(0 0)" fill="#12263f"/>
    </g>
  </g>
</svg>
