<svg xmlns="http://www.w3.org/2000/svg" width="76.901" height="76.894" viewBox="0 0 76.901 76.894">
  <g id="Artboard441" transform="translate(-7 -7.028)">
    <path id="Trazado_887656" data-name="Trazado 887656" d="M48.53,76.084H8.24A1.24,1.24,0,0,1,7,74.844V8.268a1.24,1.24,0,0,1,1.24-1.24H51.283a1.241,1.241,0,0,1,.877.363l8.325,8.325a1.24,1.24,0,0,1,.363.877V22.5a16.209,16.209,0,0,1,8,23.509l3.209,3.116a2.616,2.616,0,0,1,2.838.519h0l8.214,7.972a2.6,2.6,0,0,1,.054,3.677h0L80.2,64.347h0a2.61,2.61,0,0,1-3.672.06l0,0-8.209-7.971A2.6,2.6,0,0,1,67.7,53.61l-3.07-2.979a16.165,16.165,0,0,1-3.787,2.088v6.44a12.442,12.442,0,0,1,1.479-.088,12.077,12.077,0,0,1,2.012.172,1.24,1.24,0,0,1,1.029,1.324A12.262,12.262,0,0,1,60.848,69.1v5.741a1.24,1.24,0,0,1-1.24,1.24H54.091a7.826,7.826,0,0,1,4.986,6.465,1.24,1.24,0,0,1-1.233,1.373H44.772a1.24,1.24,0,0,1-1.233-1.373,7.822,7.822,0,0,1,4.991-6.465Zm9.838-54.323V17.833H51.283a1.24,1.24,0,0,1-1.24-1.24V9.509H9.481V73.6H50.073V71.821q-.285.014-.575.014a12.3,12.3,0,0,1-11.773-8.748H35.43a1.24,1.24,0,1,1,0-2.481h1.822c0-.012,0-.025,0-.038a1.24,1.24,0,0,1,1.029-1.324,12.1,12.1,0,0,1,2.023-.172,12.269,12.269,0,0,1,9.773,4.843V59.972a13.02,13.02,0,0,1-1.041-1.03l0,0q-.223-.248-.428-.5H35.43a1.24,1.24,0,0,1,0-2.481H47.062a10.893,10.893,0,0,1-.988-4.826,16.282,16.282,0,0,1-4.34-4.22h-6.3a1.24,1.24,0,0,1,0-2.481H40.3a16.085,16.085,0,0,1-.824-2.169H35.43a1.24,1.24,0,1,1,0-2.481h3.513a16.342,16.342,0,0,1-.144-2.17,16.138,16.138,0,0,1,1.525-6.872H35.43a1.24,1.24,0,1,1,0-2.481h6.34a16.28,16.28,0,0,1,1.841-2.169H35.43a1.24,1.24,0,1,1,0-2.481H46.849a16.258,16.258,0,0,1,11.519-1.845Zm-1.754-6.409-4.09-4.09v4.09ZM67.389,48.045q-.417.495-.873.956l2.774,2.692.9-.927Zm-9.021,5.412a16.186,16.186,0,0,1-2.272.314,11.573,11.573,0,0,1-3.542,6.181V63.9a12.313,12.313,0,0,1,5.813-4.182Zm-4.812.287q-.505-.045-1-.12v2.459A8.822,8.822,0,0,0,53.555,53.745Zm-3.482-.7q-.742-.236-1.451-.541a8.682,8.682,0,0,0,1.451,3.755Zm8.294,17.616a12.25,12.25,0,0,1-5.25,1.173q-.282,0-.564-.014V73.6h5.813Zm-3.142-1.534a9.816,9.816,0,0,0,7.5-7.566q-.2-.009-.4-.009a9.811,9.811,0,0,0-9,5.887l3.629-2.64a1.24,1.24,0,1,1,1.459,2.006ZM39.9,61.609A9.827,9.827,0,0,0,47.4,69.128l-3.2-2.323A1.24,1.24,0,0,1,45.656,64.8l3.635,2.64A9.816,9.816,0,0,0,40.3,61.552q-.2,0-.406.009v.007ZM78.422,62.62l2.964-3.054a.12.12,0,0,0,0-.169h0l-8.214-7.972a.12.12,0,0,0-.169,0h0l-2.965,3.055,0,0a.114.114,0,0,0,0,.162l0,0,8.21,7.972a.122.122,0,0,0,.169,0ZM55,23.891A13.718,13.718,0,1,0,68.716,37.609,13.717,13.717,0,0,0,55,23.891Zm0,1.679A12.039,12.039,0,1,1,42.96,37.609,12.038,12.038,0,0,1,55,25.571Zm0,2.481a9.558,9.558,0,1,0,9.558,9.558A9.558,9.558,0,0,0,55,28.051Zm-8.656,53.39h9.933a5.335,5.335,0,0,0-9.933,0ZM18.113,20.266H27.1a2.419,2.419,0,0,1,2.413,2.413v8.985A2.419,2.419,0,0,1,27.1,34.077H18.113A2.419,2.419,0,0,1,15.7,31.664V22.679A2.419,2.419,0,0,1,18.113,20.266Zm.068,2.481V31.6H27.03V22.747Zm1.156,5.071a1.24,1.24,0,1,1,1.752-1.756l1,.994,1.943-2.4a1.24,1.24,0,1,1,1.929,1.56l-2.809,3.474a1.24,1.24,0,0,1-1.841.1Zm-1.225,8.622H27.1a2.419,2.419,0,0,1,2.413,2.413v8.985A2.419,2.419,0,0,1,27.1,50.25H18.113A2.419,2.419,0,0,1,15.7,47.837V38.852A2.419,2.419,0,0,1,18.113,36.439Zm.068,2.481v8.849H27.03V38.92Zm1.156,5.07a1.24,1.24,0,0,1,1.754-1.754l1,1,1.942-2.4a1.24,1.24,0,0,1,1.929,1.56l-2.809,3.474a1.24,1.24,0,0,1-1.841.1Zm-1.224,8.623H27.1a2.424,2.424,0,0,1,2.413,2.417v8.985A2.419,2.419,0,0,1,27.1,66.427H18.113A2.419,2.419,0,0,1,15.7,64.014V55.029a2.424,2.424,0,0,1,2.413-2.417Zm.068,2.481v8.853H27.03V55.093Zm1.156,5.074a1.24,1.24,0,1,1,1.752-1.756l1,.994L24.029,57a1.24,1.24,0,1,1,1.929,1.56l-2.809,3.474a1.24,1.24,0,0,1-1.841.1Z" fill="#fff" fill-rule="evenodd"/>
  </g>
</svg>
