<svg xmlns="http://www.w3.org/2000/svg" width="85" height="85" viewBox="0 0 85 85">
  <g id="Grupo_1116477" data-name="Grupo 1116477" transform="translate(-179.711 -2281)">
    <rect id="Rectángulo_407620" data-name="Rectángulo 407620" width="85" height="85" rx="10" transform="translate(179.711 2281)" fill="#75b8fb"/>
    <g id="Grupo_1117572" data-name="Grupo 1117572" transform="translate(194.702 2296.417)">
      <g id="Grupo_1117570" data-name="Grupo 1117570" transform="translate(1.855 1.855)">
        <path id="Trazado_888298" data-name="Trazado 888298" d="M48.179,53.9H7.131A5.131,5.131,0,0,1,2,48.772V17.131A5.131,5.131,0,0,1,7.131,12H48.179a5.131,5.131,0,0,1,5.131,5.131V48.772A5.131,5.131,0,0,1,48.179,53.9Z" transform="translate(-2 -3.448)" fill="#a1b6c2"/>
        <path id="Trazado_888299" data-name="Trazado 888299" d="M49.12,12H8.5V39.793a8.551,8.551,0,0,0,8.552,8.552h37.2V17.131A5.131,5.131,0,0,0,49.12,12Z" transform="translate(-2.941 -3.448)" fill="#dfe6ea"/>
        <g id="Grupo_1117567" data-name="Grupo 1117567" transform="translate(29.076 19.669)">
          <path id="Trazado_888300" data-name="Trazado 888300" d="M36,25H58.234v1.71H36Z" transform="translate(-36 -25)" fill="#798992"/>
        </g>
        <g id="Grupo_1117568" data-name="Grupo 1117568" transform="translate(0 19.669)">
          <path id="Trazado_888301" data-name="Trazado 888301" d="M2,25H24.234v1.71H2Z" transform="translate(-2 -25)" fill="#798992"/>
        </g>
        <path id="Trazado_888302" data-name="Trazado 888302" d="M31.421,30.972A3.421,3.421,0,0,1,28,27.552V22.421a3.421,3.421,0,0,1,6.841,0v5.131A3.421,3.421,0,0,1,31.421,30.972Z" transform="translate(-5.766 -4.462)" fill="#393a3a"/>
        <path id="Trazado_888303" data-name="Trazado 888303" d="M33.262,43.131h3.421a1.71,1.71,0,0,1,1.71,1.71v1.71a1.71,1.71,0,0,1-1.71,1.71H33.262v3.421a1.71,1.71,0,0,1-1.71,1.71h-1.71a1.71,1.71,0,0,1-1.71-1.71V48.262H24.71A1.71,1.71,0,0,1,23,46.552v-1.71a1.71,1.71,0,0,1,1.71-1.71h3.421V39.71A1.71,1.71,0,0,1,29.841,38h1.71a1.71,1.71,0,0,1,1.71,1.71Z" transform="translate(-5.042 -7.214)" fill="#953528"/>
        <path id="Trazado_888304" data-name="Trazado 888304" d="M38.379,10.552V9.7a3.421,3.421,0,0,0-3.421-3.421H24.7A3.421,3.421,0,0,0,21.276,9.7v.855H17V8.841A6.842,6.842,0,0,1,23.841,2H35.814a6.842,6.842,0,0,1,6.841,6.841v1.71Z" transform="translate(-4.173 -2)" fill="#393a3a"/>
        <path id="Trazado_888305" data-name="Trazado 888305" d="M38.683,46.552v-1.71a1.71,1.71,0,0,0-1.71-1.71H33.552V39.71a1.71,1.71,0,0,0-3.421,0v3.421H26.71A1.71,1.71,0,0,0,25,44.841v1.71a1.71,1.71,0,0,0,1.71,1.71h3.421v3.421a1.71,1.71,0,1,0,3.421,0V48.262h3.421A1.71,1.71,0,0,0,38.683,46.552Z" transform="translate(-5.331 -7.214)" fill="#c64635"/>
        <g id="Grupo_1117569" data-name="Grupo 1117569" transform="translate(15.393 0)">
          <path id="Trazado_888306" data-name="Trazado 888306" d="M36.248,2H24.276A6.81,6.81,0,0,0,20,3.505V6.276a3.407,3.407,0,0,0,1.756,2.971,3.41,3.41,0,0,1,3.375-2.971H35.393A3.421,3.421,0,0,1,38.814,9.7h4.276V8.841A6.842,6.842,0,0,0,36.248,2Z" transform="translate(-20 -2)" fill="#434444"/>
          <path id="Trazado_888307" data-name="Trazado 888307" d="M31.638,19a3.374,3.374,0,0,0-1.68.458,3.374,3.374,0,0,0-.458,1.68v5.131a3.421,3.421,0,0,0,3.421,3.421,3.374,3.374,0,0,0,1.68-.458,3.374,3.374,0,0,0,.458-1.68V22.421A3.421,3.421,0,0,0,31.638,19Z" transform="translate(-21.376 -4.462)" fill="#434444"/>
        </g>
      </g>
      <g id="Grupo_1117571" data-name="Grupo 1117571" transform="translate(0.999 1)">
        <path id="Trazado_888308" data-name="Trazado 888308" d="M48.033,9.552H41.192V8.7A7.706,7.706,0,0,0,33.5,1H21.523a7.706,7.706,0,0,0-7.7,7.7v.855H6.985A5.993,5.993,0,0,0,1,15.538V47.179a5.993,5.993,0,0,0,5.986,5.986H48.033a5.993,5.993,0,0,0,5.986-5.986V15.538A5.993,5.993,0,0,0,48.033,9.552ZM15.537,8.7A5.993,5.993,0,0,1,21.523,2.71H33.5A5.993,5.993,0,0,1,39.481,8.7v.855H36.916A4.281,4.281,0,0,0,32.64,5.276H22.378A4.281,4.281,0,0,0,18.1,9.552H15.537Zm4.276.855a2.569,2.569,0,0,1,2.565-2.565H32.64a2.569,2.569,0,0,1,2.565,2.565Zm28.22,41.9H6.985a4.281,4.281,0,0,1-4.276-4.276V23.234H23.233v1.71a4.276,4.276,0,0,0,8.552,0v-1.71H52.309V47.179A4.281,4.281,0,0,1,48.033,51.455ZM24.944,24.945V19.814a2.565,2.565,0,0,1,5.131,0v5.131a2.565,2.565,0,0,1-5.131,0Zm27.365-3.421H31.785v-1.71a4.276,4.276,0,1,0-8.552,0v1.71H2.709V15.538a4.281,4.281,0,0,1,4.276-4.276H48.033a4.281,4.281,0,0,1,4.276,4.276Z" transform="translate(-0.999 -1)"/>
        <path id="Trazado_888309" data-name="Trazado 888309" d="M36.537,42.131H33.971V39.565A2.569,2.569,0,0,0,31.406,37H29.7a2.569,2.569,0,0,0-2.565,2.565v2.565H24.564A2.569,2.569,0,0,0,22,44.7v1.71a2.569,2.569,0,0,0,2.565,2.565H27.13v2.565A2.569,2.569,0,0,0,29.7,54.1h1.71a2.569,2.569,0,0,0,2.565-2.565V48.972h2.565A2.569,2.569,0,0,0,39.1,46.407V44.7A2.569,2.569,0,0,0,36.537,42.131Zm.855,4.276a.857.857,0,0,1-.855.855H33.116a.855.855,0,0,0-.855.855v3.421a.857.857,0,0,1-.855.855H29.7a.857.857,0,0,1-.855-.855V48.117a.855.855,0,0,0-.855-.855H24.564a.857.857,0,0,1-.855-.855V44.7a.857.857,0,0,1,.855-.855h3.421a.855.855,0,0,0,.855-.855V39.565a.857.857,0,0,1,.855-.855h1.71a.857.857,0,0,1,.855.855v3.421a.855.855,0,0,0,.855.855h3.421a.857.857,0,0,1,.855.855Z" transform="translate(-4.041 -6.214)"/>
      </g>
    </g>
  </g>
</svg>
