<svg xmlns="http://www.w3.org/2000/svg" width="85" height="85" viewBox="0 0 85 85">
  <g id="Grupo_1117091" data-name="Grupo 1117091" transform="translate(-205.825 -3688)">
    <rect id="Rectángulo_409789" data-name="Rectángulo 409789" width="85" height="85" transform="translate(205.825 3688)" fill="#81c784"/>
    <g id="Grupo_1117090" data-name="Grupo 1117090" transform="translate(212.825 3687.794)">
      <g id="Grupo_1117088" data-name="Grupo 1117088" transform="translate(1.035 9.241)">
        <g id="Grupo_1117084" data-name="Grupo 1117084" transform="translate(0 14.34)">
          <g id="Grupo_1117078" data-name="Grupo 1117078" transform="translate(0 16.517)">
            <g id="Grupo_1117070" data-name="Grupo 1117070" transform="translate(46.077)">
              <g id="Grupo_1117069" data-name="Grupo 1117069">
                <g id="Grupo_1117068" data-name="Grupo 1117068">
                  <g id="Grupo_1117067" data-name="Grupo 1117067">
                    <path id="Trazado_887659" data-name="Trazado 887659" d="M363.963,360.088H341.47V351.14a7.81,7.81,0,0,1,7.81-7.81h6.872a7.81,7.81,0,0,1,7.81,7.81v8.948Z" transform="translate(-341.47 -328.986)" fill="#27d1b3"/>
                    <g id="Grupo_1117064" data-name="Grupo 1117064" transform="translate(7.737 14.345)">
                      <g id="Grupo_1117063" data-name="Grupo 1117063">
                        <path id="Trazado_887660" data-name="Trazado 887660" d="M404.287,353.81l-2.686,2.361a.824.824,0,0,1-1.087,0l-2.686-2.361a.824.824,0,0,1-.254-.823l2.474-9.656h2.019l2.474,9.656a.824.824,0,0,1-.254.823Z" transform="translate(-397.548 -343.331)" fill="#fb4a59"/>
                      </g>
                    </g>
                    <path id="Trazado_887661" data-name="Trazado 887661" d="M430.3,351.14v8.948h-4.065V351.14a7.812,7.812,0,0,0-7.811-7.81h4.065A7.812,7.812,0,0,1,430.3,351.14Z" transform="translate(-407.807 -328.986)" fill="#20b69f"/>
                    <g id="Grupo_1117066" data-name="Grupo 1117066" transform="translate(4.879)">
                      <g id="Grupo_1117065" data-name="Grupo 1117065">
                        <path id="Trazado_887662" data-name="Trazado 887662" d="M383.2,254.393a6.368,6.368,0,0,1-6.367-6.367v-2.3a6.367,6.367,0,0,1,12.735,0v2.3A6.368,6.368,0,0,1,383.2,254.393Z" transform="translate(-376.833 -239.36)" fill="#ffcec0"/>
                        <path id="Trazado_887663" data-name="Trazado 887663" d="M416.763,245.732v2.3a6.371,6.371,0,0,1-8.383,6.042,6.371,6.371,0,0,0,4.351-6.042v-2.3a6.373,6.373,0,0,0-4.351-6.042,6.369,6.369,0,0,1,8.383,6.042Z" transform="translate(-404.028 -239.364)" fill="#fdb0a0"/>
                      </g>
                    </g>
                  </g>
                </g>
              </g>
            </g>
            <g id="Grupo_1117077" data-name="Grupo 1117077">
              <g id="Grupo_1117076" data-name="Grupo 1117076">
                <g id="Grupo_1117075" data-name="Grupo 1117075">
                  <path id="Trazado_887664" data-name="Trazado 887664" d="M29.993,360.088H7.5V351.14a7.81,7.81,0,0,1,7.81-7.81h6.872a7.81,7.81,0,0,1,7.81,7.81v8.948Z" transform="translate(-7.5 -328.986)" fill="#fb4a59"/>
                  <g id="Grupo_1117072" data-name="Grupo 1117072" transform="translate(7.737 14.345)">
                    <g id="Grupo_1117071" data-name="Grupo 1117071">
                      <path id="Trazado_887665" data-name="Trazado 887665" d="M70.317,353.81l-2.686,2.361a.824.824,0,0,1-1.087,0l-2.686-2.361a.824.824,0,0,1-.254-.823l2.474-9.656H68.1l2.474,9.656A.824.824,0,0,1,70.317,353.81Z" transform="translate(-63.578 -343.331)" fill="#f8f3f1"/>
                    </g>
                  </g>
                  <path id="Trazado_887666" data-name="Trazado 887666" d="M96.33,351.14v8.948H92.264V351.14a7.812,7.812,0,0,0-7.81-7.81h4.065A7.812,7.812,0,0,1,96.33,351.14Z" transform="translate(-73.837 -328.986)" fill="#f82f40"/>
                  <g id="Grupo_1117074" data-name="Grupo 1117074" transform="translate(4.879)">
                    <g id="Grupo_1117073" data-name="Grupo 1117073">
                      <path id="Trazado_887667" data-name="Trazado 887667" d="M49.23,254.393a6.367,6.367,0,0,1-6.367-6.367v-2.3a6.367,6.367,0,1,1,12.735,0v2.3a6.367,6.367,0,0,1-6.367,6.367Z" transform="translate(-42.863 -239.36)" fill="#ffcec0"/>
                      <path id="Trazado_887668" data-name="Trazado 887668" d="M82.793,245.732v2.3a6.371,6.371,0,0,1-8.383,6.042,6.371,6.371,0,0,0,4.351-6.042v-2.3a6.373,6.373,0,0,0-4.351-6.042,6.369,6.369,0,0,1,8.383,6.042Z" transform="translate(-70.058 -239.364)" fill="#fdb0a0"/>
                    </g>
                  </g>
                </g>
              </g>
            </g>
          </g>
          <g id="Grupo_1117083" data-name="Grupo 1117083" transform="translate(18.482)">
            <path id="Trazado_887669" data-name="Trazado 887669" d="M173.064,341.826H141.458V328.079A10.975,10.975,0,0,1,152.433,317.1h9.656a10.975,10.975,0,0,1,10.975,10.975v13.747Z" transform="translate(-141.458 -289.861)" fill="#0d5f7f"/>
            <path id="Trazado_887670" data-name="Trazado 887670" d="M266.277,328.079v13.747h-5.712V328.079A10.977,10.977,0,0,0,249.59,317.1H255.3A10.977,10.977,0,0,1,266.277,328.079Z" transform="translate(-234.671 -289.861)" fill="#094c66"/>
            <path id="Trazado_887671" data-name="Trazado 887671" d="M211.771,317.715l-8.428,16.052-8.428-16.052a10.988,10.988,0,0,1,3.6-.6h9.654A10.988,10.988,0,0,1,211.771,317.715Z" transform="translate(-187.541 -289.867)" fill="#fff"/>
            <path id="Trazado_887672" data-name="Trazado 887672" d="M233.428,325.573l-4.3,8.193-4.3-8.193,3.1-8.462h2.407Z" transform="translate(-213.324 -289.867)" fill="#fb4a59"/>
            <g id="Grupo_1117082" data-name="Grupo 1117082" transform="translate(1.293)">
              <g id="Grupo_1117079" data-name="Grupo 1117079" transform="translate(0 13.329)">
                <circle id="Elipse_11728" data-name="Elipse 11728" cx="3.389" cy="3.389" r="3.389" fill="#fdb0a0"/>
              </g>
              <g id="Grupo_1117080" data-name="Grupo 1117080" transform="translate(22.243 13.329)">
                <circle id="Elipse_11729" data-name="Elipse 11729" cx="3.389" cy="3.389" r="3.389" fill="#f69583"/>
              </g>
              <g id="Grupo_1117081" data-name="Grupo 1117081" transform="translate(5.563 7.086)">
                <path id="Trazado_887673" data-name="Trazado 887673" d="M200.1,192.133a8.947,8.947,0,0,1-8.947-8.947v-3.23a8.947,8.947,0,0,1,17.895,0v3.23a8.947,8.947,0,0,1-8.947,8.947Z" transform="translate(-191.149 -171.008)" fill="#ffcec0"/>
                <path id="Trazado_887674" data-name="Trazado 887674" d="M251.52,179.954v3.229a8.95,8.95,0,0,1-11.1,8.686,8.948,8.948,0,0,0,6.8-8.686v-3.229a8.952,8.952,0,0,0-6.8-8.686,8.946,8.946,0,0,1,11.1,8.686Z" transform="translate(-233.625 -171.006)" fill="#fdb0a0"/>
              </g>
              <path id="Trazado_887675" data-name="Trazado 887675" d="M266.472,144.219a25.091,25.091,0,0,1-8.429-.464,5.018,5.018,0,0,1-3.672-4.854v-3.415a3.135,3.135,0,0,1,3.135-3.135h2.358a7.756,7.756,0,0,1,7.756,7.756v2.843A1.274,1.274,0,0,1,266.472,144.219Z" transform="translate(-240.086 -130.598)" fill="#7a7179"/>
              <path id="Trazado_887676" data-name="Trazado 887676" d="M280.862,140.1v2.843a1.274,1.274,0,0,1-1.151,1.268,29.3,29.3,0,0,1-5.5.046c.181-.016.349-.03.505-.046a1.273,1.273,0,0,0,1.148-1.268V140.1a7.755,7.755,0,0,0-6.138-7.587,3.086,3.086,0,0,1,1.015-.17h2.358A7.756,7.756,0,0,1,280.862,140.1Z" transform="translate(-253.327 -130.595)" fill="#685e67"/>
              <path id="Trazado_887677" data-name="Trazado 887677" d="M162.735,133.619a29.866,29.866,0,0,0,10.152-.525,5.915,5.915,0,0,0,4.328-5.721v-4.025a3.7,3.7,0,0,0-3.7-3.7h-2.78a9.142,9.142,0,0,0-9.142,9.142v3.557A1.274,1.274,0,0,0,162.735,133.619Z" transform="translate(-160.111 -119.651)" fill="#9b8f99"/>
              <path id="Trazado_887678" data-name="Trazado 887678" d="M192.2,123.342v4.025a5.916,5.916,0,0,1-4.326,5.722,28.178,28.178,0,0,1-8.891.636,21.225,21.225,0,0,0,3.86-.636,5.916,5.916,0,0,0,4.329-5.722v-4.025a3.7,3.7,0,0,0-2.827-3.592,9.129,9.129,0,0,1,1.38-.1h2.781a3.7,3.7,0,0,1,3.695,3.695Z" transform="translate(-175.102 -119.647)" fill="#8b8088"/>
            </g>
          </g>
        </g>
        <g id="Grupo_1117087" data-name="Grupo 1117087" transform="translate(5.669)">
          <g id="Grupo_1117085" data-name="Grupo 1117085">
            <circle id="Elipse_11730" data-name="Elipse 11730" cx="12.617" cy="12.617" r="12.617" fill="#27d1b3"/>
            <path id="Trazado_887679" data-name="Trazado 887679" d="M131.723,28.326a12.626,12.626,0,0,1-15.964,12.168,12.167,12.167,0,0,0,0-24.334,12.628,12.628,0,0,1,15.967,12.167Z" transform="translate(-106.489 -15.709)" fill="#20b69f"/>
          </g>
          <g id="Grupo_1117086" data-name="Grupo 1117086" transform="translate(4.525 6.373)">
            <path id="Trazado_887680" data-name="Trazado 887680" d="M86.1,74.317l-4.528-4.528a.649.649,0,0,1,0-.918L83.445,67a.649.649,0,0,1,.918,0l2.658,2.658L94.59,62.09a.649.649,0,0,1,.918,0l1.87,1.87a.649.649,0,0,1,0,.918l-9.439,9.439A1.3,1.3,0,0,1,86.1,74.317Z" transform="translate(-81.385 -61.9)" fill="#bcea73"/>
          </g>
        </g>
      </g>
      <g id="Grupo_1117089" data-name="Grupo 1117089" transform="translate(0 8.206)">
        <path id="Trazado_887681" data-name="Trazado 887681" d="M63.9,53.663a7.37,7.37,0,0,0,1.86-4.9v-2.3a7.4,7.4,0,0,0-14.8,0v2.3a7.37,7.37,0,0,0,1.861,4.9,8.848,8.848,0,0,0-2.833,1.252,12.068,12.068,0,0,0-5.842-4.443,1.027,1.027,0,0,0-.112-.039,11.912,11.912,0,0,0-1.741-.453,9.967,9.967,0,0,0,2.867-5.45,4.422,4.422,0,0,0,4.038-7.693,2.313,2.313,0,0,0,.185-.905V33.09a8.8,8.8,0,0,0-8.79-8.79H38.23c-.11,0-.22.006-.33.014a4.723,4.723,0,0,0-3.683-1.767H32.952c.011-.229.019-.459.019-.69A13.649,13.649,0,1,0,21.261,35.371v.91a2.322,2.322,0,0,0,.088.635,4.422,4.422,0,0,0,4.134,7.615,9.968,9.968,0,0,0,2.868,5.451,11.894,11.894,0,0,0-1.712.445,1.036,1.036,0,0,0-.171.06,12.1,12.1,0,0,0-5.808,4.437,8.8,8.8,0,0,0-2.835-1.261,7.37,7.37,0,0,0,1.86-4.9v-2.3a7.4,7.4,0,1,0-14.8,0v2.3a7.37,7.37,0,0,0,1.86,4.9A8.86,8.86,0,0,0,0,62.253V71.2a1.035,1.035,0,1,0,2.07,0V62.253a6.783,6.783,0,0,1,6.776-6.776h.322a7.381,7.381,0,0,0,.7.282L7.8,63.842A1.85,1.85,0,0,0,8.368,65.7l2.686,2.361a1.863,1.863,0,0,0,2.454,0L16.194,65.7a1.85,1.85,0,0,0,.573-1.857L14.7,55.759a7.383,7.383,0,0,0,.7-.282h.322a6.737,6.737,0,0,1,3.9,1.24,11.908,11.908,0,0,0-1.134,5,1.035,1.035,0,0,0,1.028,1.042h.007a1.035,1.035,0,0,0,1.035-1.028,9.966,9.966,0,0,1,5.859-8.99l7.872,14.994v7.8a1.035,1.035,0,0,0,2.07,0v-7.8l7.874-15a9.952,9.952,0,0,1,5.86,9.06V75.546a1.035,1.035,0,1,0,2.07,0V61.8a11.939,11.939,0,0,0-1.133-5.089,6.78,6.78,0,0,1,3.9-1.234h.322a7.36,7.36,0,0,0,.7.282l-2.071,8.082a1.85,1.85,0,0,0,.573,1.857l2.686,2.361a1.863,1.863,0,0,0,2.454,0L62.271,65.7a1.85,1.85,0,0,0,.573-1.857l-.331-1.291a1.035,1.035,0,1,0-2,.514l.3,1.165-2.449,2.153L55.909,64.23l2.069-8.073q.189.01.381.01t.381-.01l.526,2.052a1.035,1.035,0,0,0,2-.514l-.5-1.935a7.333,7.333,0,0,0,.7-.285l.046,0h.271a6.783,6.783,0,0,1,6.776,6.776V71.2a1.035,1.035,0,0,0,2.07,0V62.253a8.86,8.86,0,0,0-6.739-8.59Zm-56.952-7.2a5.333,5.333,0,1,1,10.665,0v2.3a5.333,5.333,0,1,1-10.665,0v-2.3ZM14.73,64.23l-2.449,2.153L9.832,64.23,11.9,56.156q.189.01.381.01t.381-.01ZM46.441,42.653a2.336,2.336,0,0,1-1.139-.3V39.615a10.012,10.012,0,0,0-.079-1.245c.8-.029,1.517-.083,2.075-.139.072-.007.142-.018.211-.031a2.354,2.354,0,0,1-1.068,4.452ZM40.589,26.369a6.728,6.728,0,0,1,6.721,6.721v2.843a.239.239,0,0,1-.216.239,23.989,23.989,0,0,1-8.055-.433,3.9,3.9,0,0,1-1.241-.592,7,7,0,0,0,1.15-3.845V27.277a4.739,4.739,0,0,0-.088-.908h1.729ZM26.916,33.2a1.035,1.035,0,1,0-1.153-1.719A11.583,11.583,0,1,1,29,28.217a1.035,1.035,0,0,0,1.728,1.138,13.571,13.571,0,0,0,1.961-4.739h1.528a2.664,2.664,0,0,1,2.661,2.661V31.3a4.883,4.883,0,0,1-3.565,4.723,29.2,29.2,0,0,1-9.772.494.238.238,0,0,1-.212-.239V34.909A13.574,13.574,0,0,0,26.916,33.2Zm-5.072,7.1a2.35,2.35,0,0,1,.909-1.858,2.313,2.313,0,0,0,.57.136c.567.06,1.266.12,2.054.161-.026.293-.04.586-.04.876v2.743A2.352,2.352,0,0,1,21.844,40.3Zm5.563,2.546v-3.23a7.848,7.848,0,0,1,.046-.826,25.3,25.3,0,0,0,6.4-.766,6.819,6.819,0,0,0,2.556-1.327,5.978,5.978,0,0,0,2.082,1.041,20.553,20.553,0,0,0,4.638.639,7.98,7.98,0,0,1,.1,1.24v3.23a7.913,7.913,0,1,1-15.825,0Zm7.913,22.41-3.172-6.041L34.5,52.79c.271.022.544.037.821.037s.55-.014.821-.037l2.351,6.423Zm-4.828-13.4h.543a9.913,9.913,0,0,0,1.4.542L30.849,56.74,28.4,52.083A9.887,9.887,0,0,1,30.492,51.859Zm9.3,4.881L38.2,52.4a9.914,9.914,0,0,0,1.4-.543h.542a9.943,9.943,0,0,1,2.088.223Zm13.235-7.976v-2.3a5.333,5.333,0,0,1,10.665,0v2.3a5.333,5.333,0,0,1-10.665,0Z" transform="translate(0 -8.206)"/>
        <path id="Trazado_887682" data-name="Trazado 887682" d="M134.993,424.906a1.035,1.035,0,0,0-1.035,1.035v8.815a1.035,1.035,0,0,0,2.07,0v-8.815A1.035,1.035,0,0,0,134.993,424.906Z" transform="translate(-115.476 -367.415)"/>
        <path id="Trazado_887683" data-name="Trazado 887683" d="M277.594,445.24h-.027a1.035,1.035,0,0,0,0,2.07h.027a1.035,1.035,0,0,0,0-2.07Z" transform="translate(-238.38 -384.943)"/>
        <path id="Trazado_887684" data-name="Trazado 887684" d="M91.649,56.763l-1.87-1.87a1.684,1.684,0,0,0-2.381,0L80.561,61.73,78.635,59.8a1.684,1.684,0,0,0-2.381,0l-1.87,1.87a1.686,1.686,0,0,0,0,2.381l4.528,4.528a2.336,2.336,0,0,0,3.3,0l9.439-9.439A1.686,1.686,0,0,0,91.649,56.763ZM80.747,67.12a.264.264,0,0,1-.373,0l-4.255-4.255,1.325-1.325,2.385,2.385a1.035,1.035,0,0,0,1.463,0l7.3-7.3,1.325,1.324Z" transform="translate(-63.696 -48.027)"/>
      </g>
    </g>
  </g>
</svg>
