<svg xmlns="http://www.w3.org/2000/svg" width="189" height="100" viewBox="0 0 189 100">
  <g id="Grupo_1115796" data-name="Grupo 1115796" transform="translate(-390.332 -1159.204)">
    <rect id="Rectángulo_406738" data-name="Rectángulo 406738" width="189" height="100" rx="10" transform="translate(390.332 1159.204)" fill="#f2efdf"/>
    <g id="Grupo_1117057" data-name="Grupo 1117057" transform="translate(448.332 1172.204)">
      <g id="Grupo_1117056" data-name="Grupo 1117056" transform="translate(0.592 1.094)">
        <g id="Grupo_1117051" data-name="Grupo 1117051" transform="translate(0 0)">
          <path id="Trazado_887597" data-name="Trazado 887597" d="M63.513,23.21V70.631c0,4.3-10.941,7.778-24.438,7.778s-24.438-3.482-24.438-7.778V23.21c0-4.3,10.941-7.778,24.438-7.778S63.513,18.914,63.513,23.21Z" transform="translate(-14.637 -15.432)" fill="#8d9ca8" fill-rule="evenodd"/>
          <ellipse id="Elipse_11719" data-name="Elipse 11719" cx="24.438" cy="7.778" rx="24.438" ry="7.778" transform="translate(0 0)" fill="#8d9ca8"/>
          <ellipse id="Elipse_11720" data-name="Elipse 11720" cx="5.53" cy="2.912" rx="5.53" ry="2.912" transform="translate(29.444 5.092)" fill="#8192a5"/>
          <g id="Grupo_1117050" data-name="Grupo 1117050" transform="translate(0 7.778)">
            <path id="Trazado_887598" data-name="Trazado 887598" d="M39.076,76.058c-13.5,0-24.438-3.482-24.438-7.778V80.135c0,3.118,5.764,5.807,14.086,7.048a16.4,16.4,0,0,1,20.7,0c8.322-1.24,14.086-3.93,14.086-7.048V68.28c0,4.3-10.941,7.778-24.438,7.778Z" transform="translate(-14.638 -68.28)" fill="#9facba" fill-rule="evenodd"/>
            <path id="Trazado_887599" data-name="Trazado 887599" d="M24.534,195.358c-6-1.417-9.9-3.69-9.9-6.252v11.855c0,2.359,3.3,4.473,8.511,5.9a16.462,16.462,0,0,1,1.386-11.5Z" transform="translate(-14.637 -171.323)" fill="#9facba" fill-rule="evenodd"/>
            <path id="Trazado_887600" data-name="Trazado 887600" d="M26.592,316.62c-7.159-1.356-11.955-3.844-11.955-6.688v11.855c0,4.3,10.941,7.778,24.438,7.778a67.364,67.364,0,0,0,12.966-1.184l8.506-14.732a29.367,29.367,0,0,1-8.988,2.971,16.4,16.4,0,0,1-24.965,0Z" transform="translate(-14.637 -274.366)" fill="#9facba" fill-rule="evenodd"/>
            <path id="Trazado_887601" data-name="Trazado 887601" d="M279.48,195.358a16.462,16.462,0,0,1,1.385,11.5c5.211-1.426,8.511-3.54,8.511-5.9V189.106C289.376,191.668,285.485,193.941,279.48,195.358Z" transform="translate(-240.501 -171.323)" fill="#9facba" fill-rule="evenodd"/>
          </g>
          <path id="Trazado_887602" data-name="Trazado 887602" d="M200.853,23.21V70.631c0,4.3-10.941,7.778-24.438,7.778q-.369,0-.736,0c13.156-.124,23.7-3.557,23.7-7.774V23.21c0-4.217-10.546-7.65-23.7-7.774q.367,0,.736,0C189.911,15.432,200.853,18.914,200.853,23.21Z" transform="translate(-151.977 -15.432)" fill="#8d9ca8" fill-rule="evenodd"/>
        </g>
        <g id="Grupo_1117052" data-name="Grupo 1117052" transform="translate(36.155 40.038)">
          <path id="Trazado_887603" data-name="Trazado 887603" d="M281.727,290.112l11.57,20.04a5.284,5.284,0,0,1-4.576,7.926h-23.14a5.284,5.284,0,0,1-4.576-7.926l11.57-20.04a5.283,5.283,0,0,1,9.151,0Z" transform="translate(-260.292 -287.47)" fill="#ffe177" fill-rule="evenodd"/>
          <path id="Trazado_887604" data-name="Trazado 887604" d="M364.575,354.853a1.772,1.772,0,1,1-1.772,1.772A1.772,1.772,0,0,1,364.575,354.853Zm0-3.163a1.384,1.384,0,0,1-1.382-1.333l-.35-9.682a1.383,1.383,0,0,1,1.382-1.433h.7a1.383,1.383,0,0,1,1.382,1.433l-.35,9.682A1.384,1.384,0,0,1,364.575,351.69Z" transform="translate(-347.716 -331.621)" fill="#fe646f" fill-rule="evenodd"/>
          <path id="Trazado_887605" data-name="Trazado 887605" d="M375.154,290.112l11.57,20.04a5.284,5.284,0,0,1-4.576,7.926h-1.472a5.284,5.284,0,0,0,4.576-7.926l-11.57-20.04a5.242,5.242,0,0,0-3.84-2.591,5.393,5.393,0,0,1,.736-.051A5.248,5.248,0,0,1,375.154,290.112Z" transform="translate(-353.719 -287.47)" fill="#ffd064" fill-rule="evenodd"/>
          <path id="Trazado_887606" data-name="Trazado 887606" d="M371.182,354.853a1.772,1.772,0,1,1-.632,3.428,1.773,1.773,0,0,0,0-3.312A1.768,1.768,0,0,1,371.182,354.853Zm0-3.163a1.378,1.378,0,0,1-.632-.153,1.383,1.383,0,0,0,.751-1.181l.35-9.682a1.389,1.389,0,0,0-1.1-1.407,1.459,1.459,0,0,1,.282-.027h.7a1.383,1.383,0,0,1,1.382,1.433l-.35,9.682A1.384,1.384,0,0,1,371.182,351.69Z" transform="translate(-354.322 -331.621)" fill="#fd4755" fill-rule="evenodd"/>
        </g>
        <g id="Grupo_1117055" data-name="Grupo 1117055" transform="translate(1.244 16.211)">
          <g id="Grupo_1117053" data-name="Grupo 1117053" transform="translate(0 0)">
            <circle id="Elipse_11721" data-name="Elipse 11721" cx="16.398" cy="16.398" r="16.398" transform="translate(0 23.186) rotate(-45)" fill="#ffe177"/>
            <path id="Trazado_887607" data-name="Trazado 887607" d="M176.413,171.711a16.4,16.4,0,0,1,0,32.8c-.247,0-.492-.007-.736-.017a16.4,16.4,0,0,0,0-32.761C175.921,171.717,176.167,171.711,176.413,171.711Z" transform="translate(-153.22 -164.921)" fill="#ffd064" fill-rule="evenodd"/>
            <path id="Trazado_887608" data-name="Trazado 887608" d="M116.07,212.513a12.343,12.343,0,0,1,5.487,9.5.736.736,0,0,1-.734.783H97.634a.736.736,0,0,1-.734-.782,12.375,12.375,0,0,1,5.488-9.5.736.736,0,0,1,1.044.245l5.585,9.674a.719.719,0,0,1,0,.736l-5.584,9.672a.736.736,0,0,0,.31,1.027,12.343,12.343,0,0,0,10.972,0,.736.736,0,0,0,.311-1.028l-5.584-9.672a.719.719,0,0,1,0-.736l5.584-9.672a.735.735,0,0,1,1.044-.245Z" transform="translate(-86.035 -199.61)" fill="#fe646f" fill-rule="evenodd"/>
          </g>
          <g id="Grupo_1117054" data-name="Grupo 1117054" transform="translate(15.945 12.777)">
            <path id="Trazado_887609" data-name="Trazado 887609" d="M145.521,212.513a12.343,12.343,0,0,1,5.487,9.5.736.736,0,0,1-.734.783H148.8a.736.736,0,0,0,.734-.783,12.347,12.347,0,0,0-5.081-9.22l.021-.037a.736.736,0,0,1,1.044-.245Zm-14.089.28q.2-.145.406-.282a.736.736,0,0,1,1.044.245l5.062,8.767-.524.907a.733.733,0,0,0-.1.368Zm7.137,10a.733.733,0,0,1-.1.368l-.523.907L143,232.839a.736.736,0,0,1-.311,1.028,12.42,12.42,0,0,1-4.761,1.264,12.408,12.408,0,0,0,6.233-1.264.736.736,0,0,0,.311-1.028l-5.584-9.672a.733.733,0,0,1-.1-.368h-.222Z" transform="translate(-131.432 -212.388)" fill="#fd4755" fill-rule="evenodd"/>
          </g>
          <circle id="Elipse_11722" data-name="Elipse 11722" cx="4.027" cy="4.027" r="4.027" transform="translate(17.947 21.006) rotate(-22.514)" fill="#ffd064"/>
          <path id="Trazado_887610" data-name="Trazado 887610" d="M176.416,255.763a4.027,4.027,0,1,1-.736,7.987,4.028,4.028,0,0,0,0-7.919A4.065,4.065,0,0,1,176.416,255.763Z" transform="translate(-153.222 -236.602)" fill="#ffc338" fill-rule="evenodd"/>
        </g>
      </g>
      <path id="Trazado_887611" data-name="Trazado 887611" d="M64.308,58.077a.162.162,0,0,1,.145-.063h.7a.162.162,0,0,1,.145.063.177.177,0,0,1,.062.15l-.353,9.683a.2.2,0,0,1-.208.2.2.2,0,0,1-.2-.2l-.353-9.681a.178.178,0,0,1,.063-.15ZM64.8,70.463a2.553,2.553,0,0,0,2.563-2.468l.346-9.681a2.556,2.556,0,0,0-2.556-2.653h-.7A2.556,2.556,0,0,0,61.9,58.313l.346,9.681A2.551,2.551,0,0,0,64.8,70.463Zm0,4.352a.594.594,0,1,1,.6-.592A.591.591,0,0,1,64.8,74.814Zm0-3.542a2.949,2.949,0,1,0,2.951,2.95,2.952,2.952,0,0,0-2.951-2.95Zm15.13,5.322a4.069,4.069,0,0,0,0-4.106L68.361,52.448a4.108,4.108,0,0,0-7.114,0L49.677,72.488a4.106,4.106,0,0,0,3.554,6.159H76.376A4.06,4.06,0,0,0,79.93,76.594ZM12.968,64.379V56.452c2.106,1.609,5.57,2.933,10.17,3.84a17.546,17.546,0,0,0,26.179,0,39.236,39.236,0,0,0,5.535-1.482L48.444,69.918a67.163,67.163,0,0,1-12.22,1.061c-14.409,0-23.256-3.844-23.256-6.6Zm0-13.857v2c0,1.428,2.542,3.431,8.064,4.875a17.27,17.27,0,0,1-1.69-3.954,19.717,19.717,0,0,1-6.373-2.923Zm0-11.842a20.815,20.815,0,0,0,7.052,3.1,17.473,17.473,0,0,0-1.372,6.793,16.888,16.888,0,0,0,.146,2.229c-4.26-1.442-5.826-3.12-5.826-4.211Zm0-5.931v1.991c0,1.416,2.522,3.44,8.133,4.894a17.8,17.8,0,0,1,2.251-3.008A33.256,33.256,0,0,1,15.192,34.1,13.183,13.183,0,0,1,12.968,32.748Zm0-11.847a18.871,18.871,0,0,0,5.618,2.677,60.591,60.591,0,0,0,17.637,2.335,60.529,60.529,0,0,0,17.637-2.335A18.836,18.836,0,0,0,59.487,20.9v7.911c0,1.916-4.323,4.5-12.594,5.806a17.535,17.535,0,0,0-21.33,0c-8.271-1.305-12.594-3.89-12.594-5.806ZM36.224,10.357c-14.409,0-23.256,3.844-23.256,6.6s8.846,6.6,23.256,6.6,23.263-3.845,23.263-6.6-8.846-6.6-23.263-6.6ZM51.347,39.633c5.611-1.455,8.14-3.478,8.14-4.894V32.748A13.469,13.469,0,0,1,57.263,34.1,33.325,33.325,0,0,1,49.1,36.625,17.081,17.081,0,0,1,51.347,39.633Zm2.314,11.173a18.192,18.192,0,0,0,.138-2.229,17.469,17.469,0,0,0-1.365-6.793,20.942,20.942,0,0,0,7.052-3.1v7.915c0,1.091-1.566,2.769-5.826,4.211ZM36.224,33.357A15.22,15.22,0,1,1,21,48.577a15.235,15.235,0,0,1,15.22-15.22ZM56.84,55.372A23.987,23.987,0,0,1,51.423,57.4a17.3,17.3,0,0,0,1.69-3.954,19.889,19.889,0,0,0,6.373-2.924v.31c-.1.141-.194.287-.277.438ZM81.966,71.31,70.4,51.27a6.482,6.482,0,0,0-8.555-2.521V16.957c0-2.671-2.757-4.961-7.98-6.621A60.481,60.481,0,0,0,36.224,8a60.548,60.548,0,0,0-17.637,2.334c-5.216,1.66-7.974,3.951-7.974,6.621V64.379c0,2.671,2.757,4.961,7.974,6.621a60.547,60.547,0,0,0,17.637,2.334,72.023,72.023,0,0,0,10.862-.795A6.469,6.469,0,0,0,53.231,81H76.376a6.461,6.461,0,0,0,5.59-9.692ZM46.761,15.449c2.7,0,4.357,1.123,4.357,1.733s-1.656,1.735-4.357,1.735-4.35-1.123-4.35-1.735S44.066,15.449,46.761,15.449Zm0,5.824c3.824,0,6.713-1.759,6.713-4.091s-2.889-4.089-6.713-4.089-6.706,1.758-6.706,4.089S42.937,21.273,46.761,21.273ZM26.546,42.99a11.246,11.246,0,0,0-1.434,4.41H31.16a5.2,5.2,0,0,1,1.517-2.621L29.65,39.541A11.307,11.307,0,0,0,26.546,42.99Zm12.532,5.587a2.851,2.851,0,1,0-2.854,2.849A2.856,2.856,0,0,0,39.078,48.577Zm3.72-9.034-3.02,5.235A5.2,5.2,0,0,1,41.295,47.4h6.041A11.2,11.2,0,0,0,42.8,39.544ZM40.762,58.79l-3.02-5.233a5.2,5.2,0,0,1-3.027,0l-3.02,5.232A11.225,11.225,0,0,0,40.762,58.79Zm-8.084-6.413a5.192,5.192,0,0,1-1.517-2.621H23.872a1.175,1.175,0,0,1-1.178-1.176,13.542,13.542,0,0,1,6.768-11.72,1.178,1.178,0,0,1,1.607.431L34.714,43.6a5.2,5.2,0,0,1,3.027,0l3.644-6.307a1.179,1.179,0,0,1,1.607-.431A13.586,13.586,0,0,1,49.76,48.577a1.179,1.179,0,0,1-1.178,1.178H41.3a5.193,5.193,0,0,1-1.517,2.621l3.644,6.311a1.155,1.155,0,0,1,.118.894,1.182,1.182,0,0,1-.547.714,13.581,13.581,0,0,1-13.529,0,1.179,1.179,0,0,1-.43-1.609Z" transform="translate(-10.613 -8.002)" fill="#242222" fill-rule="evenodd"/>
    </g>
  </g>
</svg>
