<svg xmlns="http://www.w3.org/2000/svg" width="100" height="100" viewBox="0 0 100 100">
  <g id="Grupo_1100965" data-name="Grupo 1100965" transform="translate(0.242)">
    <g id="Grupo_1098742" data-name="Grupo 1098742" transform="translate(0)">
      <rect id="Rectángulo_400898" data-name="Rectángulo 400898" width="100" height="100" rx="50" transform="translate(-0.242)" fill="#fff" opacity="0.859"/>
      <g id="Rectángulo_400907" data-name="Rectángulo 400907" transform="translate(-0.242)" fill="none" stroke="#3acc97" stroke-linecap="round" stroke-width="2" stroke-dasharray="7">
        <rect width="100" height="100" rx="50" stroke="none"/>
        <rect x="1" y="1" width="98" height="98" rx="49" fill="none"/>
      </g>
    </g>
    <g id="Grupo_1107006" data-name="Grupo 1107006" transform="translate(8.156 8.156)">
      <rect id="Rectángulo_400898-2" data-name="Rectángulo 400898" width="84" height="84" rx="42" transform="translate(-0.399 -0.157)" fill="#d7f5ea" opacity="0.859"/>
      <rect id="Rectángulo_400907-2" data-name="Rectángulo 400907" width="84" height="84" rx="42" transform="translate(-0.398 -0.157)" fill="none"/>
    </g>
    <g id="Grupo_1117837" data-name="Grupo 1117837" transform="translate(15.683 -17.556)">
      <path id="Trazado_888896" data-name="Trazado 888896" d="M229.622,298.253V285.159l-3.28-2.2-1.5,5.745-1.5-5.746-3.28,2.2v13.094Z" transform="translate(-190.763 -211.812)" fill="#fff"/>
      <g id="Grupo_1117815" data-name="Grupo 1117815" transform="translate(12.778 57.323)">
        <path id="Trazado_888897" data-name="Trazado 888897" d="M312.879,179.122H312.8v.273a2.955,2.955,0,0,1-.445,1.564v1.561a5.324,5.324,0,0,1-5.324,5.324h-1.208v4.336h5.662a5.326,5.326,0,0,1,5.152,3.979h3.852v-9.433A7.6,7.6,0,0,0,312.879,179.122Z" transform="translate(-277.89 -179.122)" fill="#bb5d4c"/>
        <path id="Trazado_888898" data-name="Trazado 888898" d="M110.666,187.844h-1.208a5.324,5.324,0,0,1-5.324-5.324v-1.561a2.954,2.954,0,0,1-.445-1.564v-.273H103.6a7.6,7.6,0,0,0-7.6,7.6v12.462h3.68V197.5A5.324,5.324,0,0,1,105,192.18h5.662Z" transform="translate(-96 -179.122)" fill="#bb5d4c"/>
      </g>
      <g id="Grupo_1117816" data-name="Grupo 1117816" transform="translate(12.778 57.323)">
        <path id="Trazado_888899" data-name="Trazado 888899" d="M99.68,199.188V197.5a5.307,5.307,0,0,1,1.644-3.846v-6.932a7.588,7.588,0,0,1,2.756-5.858,2.955,2.955,0,0,1-.392-1.473v-.273H103.6a7.6,7.6,0,0,0-7.6,7.6v12.462Z" transform="translate(-96 -179.122)" fill="#a44f3e"/>
      </g>
      <g id="Grupo_1117829" data-name="Grupo 1117829" transform="translate(16.458 39.62)">
        <g id="Grupo_1117828" data-name="Grupo 1117828">
          <g id="Grupo_1117820" data-name="Grupo 1117820" transform="translate(4.454)">
            <g id="Grupo_1117817" data-name="Grupo 1117817" transform="translate(14.668 1.598)">
              <path id="Trazado_888900" data-name="Trazado 888900" d="M309.826,194.327H308.5a8.3,8.3,0,0,1-2.685,4.527v.953h1.208a5.324,5.324,0,0,0,5.324-5.324v-1.561A2.967,2.967,0,0,1,309.826,194.327Z" transform="translate(-300.692 -174.98)" fill="#fb8801"/>
              <path id="Trazado_888901" data-name="Trazado 888901" d="M268.389,239.42l-1.083,4.137,4.5,3.025a.4.4,0,0,0,.622-.332v-8.743A8.285,8.285,0,0,1,268.389,239.42Z" transform="translate(-267.306 -213.631)" fill="#fff"/>
              <path id="Trazado_888902" data-name="Trazado 888902" d="M275.057,64.512v.515h1.227A2.969,2.969,0,0,1,279.254,68v2.348h1.137a2.967,2.967,0,0,1,2.524,1.405v-5.64a7.986,7.986,0,0,0-7.986-7.986h-3.065A7.973,7.973,0,0,1,275.057,64.512Z" transform="translate(-271.256 -58.123)" fill="#fb8801"/>
            </g>
            <g id="Grupo_1117818" data-name="Grupo 1117818" transform="translate(0)">
              <path id="Trazado_888903" data-name="Trazado 888903" d="M159.631,59.939h1.194a2.97,2.97,0,0,1,2.912-2.387h4.583a2.474,2.474,0,0,0,1.979-.99l.713-.95a2.474,2.474,0,0,1,1.979-.99h2.584v-.515a7.986,7.986,0,0,0-7.986-7.986h-2.5a7.986,7.986,0,0,0-7.986,7.986v7.237a2.967,2.967,0,0,1,2.524-1.405Z" transform="translate(-157.107 -46.121)" fill="#fe9901"/>
              <path id="Trazado_888904" data-name="Trazado 888904" d="M160.954,194.327h-1.324a2.967,2.967,0,0,1-2.524-1.405v1.561a5.324,5.324,0,0,0,5.324,5.324h2.552A8.323,8.323,0,0,1,160.954,194.327Z" transform="translate(-157.107 -173.382)" fill="#fe9901"/>
            </g>
            <g id="Grupo_1117819" data-name="Grupo 1117819" transform="translate(0 0)">
              <path id="Trazado_888905" data-name="Trazado 888905" d="M159.631,59.939h1.194a2.973,2.973,0,0,1,1.858-2.194V54.107a7.988,7.988,0,0,1,6.446-7.836,8.018,8.018,0,0,0-1.54-.15h-2.5a7.986,7.986,0,0,0-7.986,7.986v7.237A2.967,2.967,0,0,1,159.631,59.939Z" transform="translate(-157.107 -46.121)" fill="#fb8801"/>
              <path id="Trazado_888906" data-name="Trazado 888906" d="M163.639,198.854a8.3,8.3,0,0,1-2.685-4.527h-1.324a2.967,2.967,0,0,1-2.524-1.405v1.561a5.324,5.324,0,0,0,5.324,5.324h1.208Z" transform="translate(-157.107 -173.382)" fill="#fb8801"/>
            </g>
          </g>
          <g id="Grupo_1117821" data-name="Grupo 1117821" transform="translate(0 30.761)">
            <path id="Trazado_888907" data-name="Trazado 888907" d="M135.254,281.013a.4.4,0,0,1-.622-.332v-3.456H128.97a5.324,5.324,0,0,0-5.324,5.324v1.684h1.511a.666.666,0,0,1,.666.666v8.386h10.788V280.1Z" transform="translate(-123.646 -277.225)" fill="#7a6d79"/>
            <path id="Trazado_888908" data-name="Trazado 888908" d="M128.971,277.226a5.324,5.324,0,0,0-5.324,5.324v1.684h1.511a.666.666,0,0,1,.666.666v8.386h3.407V282.55a5.324,5.324,0,0,1,5.324-5.324Z" transform="translate(-123.647 -277.226)" fill="#685e68"/>
            <path id="Trazado_888909" data-name="Trazado 888909" d="M296.378,293.285V281.871a.666.666,0,0,1,.666-.666h6.7a5.326,5.326,0,0,0-5.152-3.979h-5.662v3.456a.4.4,0,0,1-.622.332l-1.358-.912v13.183h5.432Z" transform="translate(-268.678 -277.226)" fill="#7a6d79"/>
          </g>
          <g id="Grupo_1117822" data-name="Grupo 1117822" transform="translate(10.986 25.474)">
            <path id="Trazado_888910" data-name="Trazado 888910" d="M210.225,239.42a8.286,8.286,0,0,1-4.043-1.912v8.743a.4.4,0,0,0,.622.332l4.5-3.025Z" transform="translate(-206.182 -237.508)" fill="#fff"/>
          </g>
          <path id="Trazado_888911" data-name="Trazado 888911" d="M240.332,251.994h-2.378a8.36,8.36,0,0,1-1.4-.12l2.588,9.883,2.588-9.883a8.345,8.345,0,0,1-1.4.12Z" transform="translate(-221.526 -224.487)" fill="#ffbd86"/>
          <g id="Grupo_1117827" data-name="Grupo 1117827" transform="translate(4.008 8.502)">
            <g id="Grupo_1117823" data-name="Grupo 1117823" transform="translate(0 5.317)">
              <path id="Trazado_888912" data-name="Trazado 888912" d="M157.867,155.312V150.52a2.983,2.983,0,0,1,.057-.582H156.73a2.969,2.969,0,0,0-2.969,2.969V154.1a2.969,2.969,0,0,0,2.969,2.969h1.324A8.346,8.346,0,0,1,157.867,155.312Z" transform="translate(-153.761 -149.938)" fill="#ffbd86"/>
              <path id="Trazado_888913" data-name="Trazado 888913" d="M327.312,149.937h-1.137v5.374a8.343,8.343,0,0,1-.187,1.752h1.324a2.969,2.969,0,0,0,2.969-2.969v-1.188A2.969,2.969,0,0,0,327.312,149.937Z" transform="translate(-303.064 -149.937)" fill="#ffbd86"/>
            </g>
            <g id="Grupo_1117824" data-name="Grupo 1117824" transform="translate(4.106)">
              <path id="Trazado_888914" data-name="Trazado 888914" d="M200.646,109.993h-3.812a2.474,2.474,0,0,0-1.979.99l-.713.95a2.474,2.474,0,0,1-1.979.99h-4.583a2.969,2.969,0,0,0-2.969,2.969v4.792A8.314,8.314,0,0,0,192.924,129H195.3a8.314,8.314,0,0,0,8.314-8.314v-7.722A2.969,2.969,0,0,0,200.646,109.993Z" transform="translate(-184.61 -109.993)" fill="#fed2a4"/>
            </g>
            <g id="Grupo_1117826" data-name="Grupo 1117826" transform="translate(4.106 2.93)">
              <g id="Grupo_1117825" data-name="Grupo 1117825">
                <path id="Trazado_888915" data-name="Trazado 888915" d="M188.788,139.764v-4.792A2.969,2.969,0,0,1,191.757,132h-4.178a2.969,2.969,0,0,0-2.969,2.969v4.792a8.314,8.314,0,0,0,8.314,8.314H195.3a8.415,8.415,0,0,0,.9-.049,8.314,8.314,0,0,1-7.413-8.264Z" transform="translate(-184.61 -132.003)" fill="#ffbd86"/>
              </g>
            </g>
          </g>
        </g>
      </g>
      <path id="Trazado_888916" data-name="Trazado 888916" d="M33,428.878v4.259a.666.666,0,0,0,.666.666H91.7a.666.666,0,0,0,.666-.666v-4.259Z" transform="translate(-28.608 -338.311)" fill="#f3f0f3"/>
      <path id="Trazado_888917" data-name="Trazado 888917" d="M38.723,434v-4.126H33V434a.666.666,0,0,0,.666.666h5.723A.666.666,0,0,1,38.723,434Z" transform="translate(-28.608 -339.178)" fill="#e2dee2"/>
      <g id="Grupo_1117832" data-name="Grupo 1117832" transform="translate(44.158 74.36)">
        <g id="Grupo_1117831" data-name="Grupo 1117831">
          <g id="Grupo_1117830" data-name="Grupo 1117830">
            <path id="Trazado_888918" data-name="Trazado 888918" d="M352.152,319.2h-20.4V307.788a.666.666,0,0,1,.666-.666h19.067a.666.666,0,0,1,.666.666Z" transform="translate(-331.754 -307.122)" fill="#f3f0f3"/>
          </g>
          <path id="Trazado_888919" data-name="Trazado 888919" d="M336.578,307.122H332.42a.666.666,0,0,0-.666.666V319.2h4.159V307.788A.666.666,0,0,1,336.578,307.122Z" transform="translate(-331.754 -307.122)" fill="#e2dee2"/>
          <path id="Trazado_888920" data-name="Trazado 888920" d="M384.857,343.328h-4.6a1.664,1.664,0,0,1,0-3.328h4.6a1.664,1.664,0,1,1,0,3.328Z" transform="translate(-372.358 -335.624)" fill="#fff"/>
        </g>
      </g>
      <g id="Grupo_1117834" data-name="Grupo 1117834" transform="translate(9.983 77.389)">
        <g id="Grupo_1117833" data-name="Grupo 1117833">
          <path id="Trazado_888921" data-name="Trazado 888921" d="M83.652,338.929H75v-8.386a.666.666,0,0,1,.666-.665h7.321a.666.666,0,0,1,.666.665Z" transform="translate(-75 -329.878)" fill="#fed402"/>
        </g>
        <path id="Trazado_888922" data-name="Trazado 888922" d="M79.659,329.878H75.666a.666.666,0,0,0-.666.665v8.386h3.993v-8.386A.666.666,0,0,1,79.659,329.878Z" transform="translate(-75 -329.878)" fill="#fac600"/>
      </g>
      <g id="Grupo_1117835" data-name="Grupo 1117835" transform="translate(0.998 86.44)">
        <path id="Trazado_888923" data-name="Trazado 888923" d="M72.987,402.137H8.166a.666.666,0,0,1-.666-.665v-2.928a.666.666,0,0,1,.666-.666H72.987a.666.666,0,0,1,.666.666v2.928A.666.666,0,0,1,72.987,402.137Z" transform="translate(-7.5 -397.878)" fill="#f6a96c"/>
      </g>
      <path id="Trazado_888924" data-name="Trazado 888924" d="M14.222,401.472v-2.928a.666.666,0,0,1,.666-.666H8.166a.666.666,0,0,0-.666.666v2.928a.666.666,0,0,0,.666.665h6.722A.666.666,0,0,1,14.222,401.472Z" transform="translate(-6.502 -311.438)" fill="#ea9b58"/>
      <g id="Grupo_1117836" data-name="Grupo 1117836" transform="translate(0 38.622)">
        <path id="Trazado_888925" data-name="Trazado 888925" d="M215.641,149.5a1,1,0,0,0-1,1v2a1,1,0,0,0,2,0v-2A1,1,0,0,0,215.641,149.5Z" transform="translate(-186.073 -134.742)"/>
        <path id="Trazado_888926" data-name="Trazado 888926" d="M283.355,149.5a1,1,0,0,0-1,1v2a1,1,0,1,0,2,0v-2A1,1,0,0,0,283.355,149.5Z" transform="translate(-244.774 -134.742)"/>
        <path id="Trazado_888927" data-name="Trazado 888927" d="M241.008,161.5a1,1,0,0,0,1.338-1.482l-.66-.6.9-1.984a1,1,0,1,0-1.818-.825l-1.2,2.648a1,1,0,0,0,.24,1.153Z" transform="translate(-207.603 -140.405)"/>
        <path id="Trazado_888928" data-name="Trazado 888928" d="M238.732,212.169h-3.906a1,1,0,1,0,0,2h3.906a1,1,0,0,0,0-2Z" transform="translate(-202.705 -189.069)"/>
        <path id="Trazado_888929" data-name="Trazado 888929" d="M373.753,337.824h4.6a2.662,2.662,0,0,0,0-5.324h-4.6a2.662,2.662,0,1,0,0,5.324Zm0-3.328h4.6a.666.666,0,1,1,0,1.331h-4.6a.666.666,0,1,1,0-1.331Z" transform="translate(-321.697 -293.384)"/>
        <path id="Trazado_888930" data-name="Trazado 888930" d="M66.485,85.442h-.932V75.026a1.666,1.666,0,0,0-1.664-1.664h-7.52V72.081a1,1,0,0,0-2,0v1.281H52.237a6.33,6.33,0,0,0-5.87-3.979H41.7V67.044h.21a6.33,6.33,0,0,0,6.322-6.322v-1.3a3.948,3.948,0,0,0,.367-1.043,6.615,6.615,0,0,1,5.77,6.551v2.5a1,1,0,0,0,2,0v-2.5a8.615,8.615,0,0,0-7.689-8.554,3.942,3.942,0,0,0-.444-1.789V49.2a8.995,8.995,0,0,0-8.985-8.985H36.5a8.93,8.93,0,0,0-5.1-1.6H28.9a8.995,8.995,0,0,0-8.985,8.985v6.978a3.942,3.942,0,0,0-.444,1.789,8.614,8.614,0,0,0-7.689,8.554V76.391H10.648a1.665,1.665,0,0,0-1.66,1.6h-.2A3,3,0,0,0,5.79,80.983v1.2a3,3,0,0,0,2.995,2.995h.2v.266H1.664A1.666,1.666,0,0,0,0,87.106v2.928A1.666,1.666,0,0,0,1.664,91.7h1.73v3.128A1.666,1.666,0,0,0,5.058,96.49H63.091a1.666,1.666,0,0,0,1.664-1.664V91.7h1.73a1.666,1.666,0,0,0,1.664-1.664V87.106a1.666,1.666,0,0,0-1.664-1.664ZM63.557,75.359V85.442h-18.4V75.359Zm-17.19-3.979A4.322,4.322,0,0,1,50,73.362H44.823a1.666,1.666,0,0,0-1.664,1.664V85.442H39.724V83a1,1,0,0,0-2,0v2.446H35.073V77.018l1.116-4.262,1.539,1.033v4.548a1,1,0,0,0,2,0V75.106a1.4,1.4,0,0,0,1.98-1.269V71.379h4.663Zm-15.946,2.41,1.539-1.033,1.116,4.262v8.424H30.421Zm-1.979-1.076v-5.67h.1a9.246,9.246,0,0,0,2.14.814l.747,2.853Zm4.369-4.591.075,0h2.378l.075,0-1.264,4.826Zm3.914,2.588.747-2.853a9.26,9.26,0,0,0,2.141-.814h.095v5.67Zm-1.461-4.583H32.886a7.323,7.323,0,0,1-7.315-7.315V54.021a1.973,1.973,0,0,1,1.971-1.971h4.583A3.489,3.489,0,0,0,34.9,50.661l.713-.95a1.483,1.483,0,0,1,1.181-.59h3.812a1.973,1.973,0,0,1,1.971,1.971v7.722A7.324,7.324,0,0,1,35.263,66.128ZM17.969,76.391h-.513v-.686a4.331,4.331,0,0,1,4.326-4.326h4.663v2.458a1.395,1.395,0,0,0,1.979,1.27V85.442H19.633V78.055A1.666,1.666,0,0,0,17.969,76.391Zm8-11.353a4.332,4.332,0,0,1-4.022-3.766,3.943,3.943,0,0,0,1.489.291h.556a9.318,9.318,0,0,0,1.976,3.474Zm16.208,0a9.312,9.312,0,0,0,1.983-3.475h.556a3.943,3.943,0,0,0,1.489-.291A4.332,4.332,0,0,1,42.175,65.038ZM46.685,57.6a1.973,1.973,0,0,1-1.971,1.971h-.172c.02-.249.033-.5.033-.754V54.437h.139a1.973,1.973,0,0,1,1.971,1.971V57.6Zm-7.433-15.38A7,7,0,0,1,46.239,49.2v3.542a3.945,3.945,0,0,0-1.525-.305h-.139v-1.35a3.972,3.972,0,0,0-3.967-3.967h-.243a8.934,8.934,0,0,0-1.791-4.908ZM21.91,47.607A7,7,0,0,1,28.9,40.619h2.5a7,7,0,0,1,6.969,6.5H36.8a3.489,3.489,0,0,0-2.778,1.389l-.713.95a1.483,1.483,0,0,1-1.181.59H27.541A3.972,3.972,0,0,0,23.9,52.44h-.468a3.945,3.945,0,0,0-1.525.305Zm-.445,8.8a1.973,1.973,0,0,1,1.971-1.971h.139v4.376c0,.254.012.505.032.754h-.171A1.973,1.973,0,0,1,21.464,57.6Zm-7.688,8.52a6.615,6.615,0,0,1,5.77-6.551,3.948,3.948,0,0,0,.367,1.043v1.3a6.33,6.33,0,0,0,6.322,6.322h.21v2.339H21.782a6.33,6.33,0,0,0-6.322,6.322v.686H13.776Zm-2.8,13.46h6.655v7.054H10.981Zm-2.2,4.792a1,1,0,0,1-1-1v-1.2a1,1,0,0,1,1-1h.2v3.194ZM66.153,89.7H20.631a1,1,0,0,0,0,2H62.758v2.8H5.391V91.7H15.972a1,1,0,0,0,0-2H2V87.439H66.153Z" transform="translate(0 -38.622)"/>
      </g>
    </g>
  </g>
</svg>
