<svg xmlns="http://www.w3.org/2000/svg" width="64.001" height="64" viewBox="0 0 64.001 64">
  <g id="Grupo_1117136" data-name="Grupo 1117136" transform="translate(0 0)">
    <path id="Trazado_887872" data-name="Trazado 887872" d="M29,50a18,18,0,0,1,0-36,1,1,0,0,1,0,2,16,16,0,0,0,0,32,1,1,0,0,1,0,2Z" fill="#144735"/>
    <g id="Grupo_1117131" data-name="Grupo 1117131">
      <path id="Trazado_887873" data-name="Trazado 887873" d="M29,61a1,1,0,0,1,0-2,21.5,21.5,0,0,0,0-43,1,1,0,0,1,0-2,23.5,23.5,0,0,1,0,47Z" fill="#144735"/>
      <path id="Trazado_887874" data-name="Trazado 887874" d="M29,64a1,1,0,0,1-1-1V57a1,1,0,0,1,2,0v6A1,1,0,0,1,29,64Z" fill="#144735"/>
      <path id="Trazado_887875" data-name="Trazado 887875" d="M29,64a.994.994,0,0,1-.514-.143l-5-3a1,1,0,1,1,1.029-1.715l5,3A1,1,0,0,1,29,64Z" fill="#144735"/>
      <path id="Trazado_887876" data-name="Trazado 887876" d="M24,61a1,1,0,0,1-.515-1.857l5-3a1,1,0,1,1,1.029,1.715l-5,3A.994.994,0,0,1,24,61Z" fill="#144735"/>
    </g>
    <path id="Trazado_887877" data-name="Trazado 887877" d="M29,61a1,1,0,0,1,0-2,21.5,21.5,0,0,0,0-43,1,1,0,0,1,0-2,23.5,23.5,0,0,1,0,47Z" fill="#144735"/>
    <g id="Grupo_1117132" data-name="Grupo 1117132">
      <path id="Trazado_887878" data-name="Trazado 887878" d="M3.961,45.53a1,1,0,0,1-.895-.552A28.707,28.707,0,0,1,0,32,29.033,29.033,0,0,1,29,3a1,1,0,0,1,0,2A27.03,27.03,0,0,0,2,32,26.724,26.724,0,0,0,4.854,44.082a1,1,0,0,1-.892,1.448Z" fill="#144735"/>
      <path id="Trazado_887879" data-name="Trazado 887879" d="M30,8a1,1,0,0,1-1-1V1a1,1,0,0,1,2,0V7A1,1,0,0,1,30,8Z" fill="#144735"/>
      <path id="Trazado_887880" data-name="Trazado 887880" d="M35,5a.994.994,0,0,1-.514-.143l-5-3A1,1,0,1,1,30.514.142l5,3A1,1,0,0,1,35,5Z" fill="#144735"/>
      <path id="Trazado_887881" data-name="Trazado 887881" d="M30,8a1,1,0,0,1-.515-1.857l5-3a1,1,0,0,1,1.029,1.715l-5,3A.994.994,0,0,1,30,8Z" fill="#144735"/>
    </g>
    <path id="Trazado_887882" data-name="Trazado 887882" d="M60.039,51.53a1,1,0,0,1-.892-1.448A26.724,26.724,0,0,0,62,38,27.03,27.03,0,0,0,35,11a1,1,0,0,1,0-2A29.034,29.034,0,0,1,64,38a28.707,28.707,0,0,1-3.066,12.979,1,1,0,0,1-.9.552Z" fill="#144735"/>
    <path id="Trazado_887883" data-name="Trazado 887883" d="M63,54a1,1,0,0,1-.64-.231l-6-5a1,1,0,1,1,1.281-1.537l6,5A1,1,0,0,1,63,54Z" fill="#144735"/>
    <path id="Trazado_887884" data-name="Trazado 887884" d="M57,56a1,1,0,0,1-1-1V48a1,1,0,0,1,2,0v7A1,1,0,0,1,57,56Z" fill="#144735"/>
    <path id="Trazado_887885" data-name="Trazado 887885" d="M57,56a1,1,0,0,1-.316-1.949l6-2a1,1,0,1,1,.633,1.9l-6,2A1,1,0,0,1,57,56Z" fill="#144735"/>
    <path id="Trazado_887886" data-name="Trazado 887886" d="M53,64a4,4,0,1,1,4-4A4,4,0,0,1,53,64Zm0-6a2,2,0,1,0,2,2A2,2,0,0,0,53,58Z" fill="#144735"/>
    <path id="Trazado_887887" data-name="Trazado 887887" d="M5,57a4,4,0,1,1,4-4A4,4,0,0,1,5,57Zm0-6a2,2,0,1,0,2,2A2,2,0,0,0,5,51Z" fill="#144735"/>
    <path id="Trazado_887888" data-name="Trazado 887888" d="M11,49a3,3,0,1,1,3-3A3,3,0,0,1,11,49Zm0-4a1,1,0,1,0,1,1A1,1,0,0,0,11,45Z" fill="#144735"/>
    <path id="Trazado_887889" data-name="Trazado 887889" d="M22,56a3,3,0,1,1,3-3A3,3,0,0,1,22,56Zm0-4a1,1,0,1,0,1,1A1,1,0,0,0,22,52Z" fill="#144735"/>
    <path id="Trazado_887890" data-name="Trazado 887890" d="M57,39a3,3,0,1,1,3-3A3,3,0,0,1,57,39Zm0-4a1,1,0,1,0,1,1A1,1,0,0,0,57,35Z" fill="#144735"/>
    <path id="Trazado_887891" data-name="Trazado 887891" d="M10,23a3,3,0,1,1,3-3A3,3,0,0,1,10,23Zm0-4a1,1,0,1,0,1,1A1,1,0,0,0,10,19Z" fill="#144735"/>
    <path id="Trazado_887892" data-name="Trazado 887892" d="M57,14a3,3,0,1,1,3-3A3,3,0,0,1,57,14Zm0-4a1,1,0,1,0,1,1A1,1,0,0,0,57,10Z" fill="#144735"/>
    <path id="Trazado_887893" data-name="Trazado 887893" d="M9,7a3,3,0,1,1,3-3A3,3,0,0,1,9,7ZM9,3a1,1,0,1,0,1,1A1,1,0,0,0,9,3Z" fill="#144735"/>
    <path id="Trazado_887894" data-name="Trazado 887894" d="M48,9a4,4,0,1,1,4-4A4,4,0,0,1,48,9Zm0-6a2,2,0,1,0,2,2A2,2,0,0,0,48,3Z" fill="#144735"/>
    <g id="Grupo_1117135" data-name="Grupo 1117135">
      <path id="Trazado_887895" data-name="Trazado 887895" d="M29,50a1,1,0,0,1-1-1V32a1,1,0,0,1,2,0V49A1,1,0,0,1,29,50Z" fill="#144735"/>
      <g id="Grupo_1117133" data-name="Grupo 1117133">
        <path id="Trazado_887896" data-name="Trazado 887896" d="M21,41a6.006,6.006,0,0,1-6-6c0-3.025,4.686-8.959,5.22-9.625A1,1,0,0,1,22,26c0,2.192,1.1,3.177,2.375,4.316C25.6,31.417,27,32.664,27,35A6.006,6.006,0,0,1,21,41Zm-.583-12.569C18.764,30.741,17,33.64,17,35a4,4,0,0,0,8,0c0-1.374-.707-2.074-1.958-3.192A8.625,8.625,0,0,1,20.417,28.431Z" fill="#144735"/>
        <path id="Trazado_887897" data-name="Trazado 887897" d="M28,43a8.009,8.009,0,0,1-8-8,1,1,0,0,1,2,0,6.006,6.006,0,0,0,6,6,1,1,0,0,1,0,2Z" fill="#144735"/>
      </g>
      <path id="Trazado_887898" data-name="Trazado 887898" d="M37,48a6.006,6.006,0,0,1-6-6c0-2.336,1.4-3.583,2.625-4.684C34.9,36.176,36,35.192,36,33a1,1,0,0,1,1.78-.625c.534.666,5.22,6.6,5.22,9.625A6.006,6.006,0,0,1,37,48Zm.583-12.569a8.625,8.625,0,0,1-2.625,3.377C33.707,39.926,33,40.626,33,42a4,4,0,0,0,8,0C41,40.64,39.236,37.74,37.583,35.431Z" fill="#144735"/>
      <g id="Grupo_1117134" data-name="Grupo 1117134">
        <path id="Trazado_887899" data-name="Trazado 887899" d="M31,33.364a6,6,0,0,1-4.242-10.243c2.139-2.139,9.647-3.021,10.5-3.115a1,1,0,0,1,.817,1.7c-1.55,1.55-1.468,3.024-1.373,4.732.092,1.647.2,3.516-1.456,5.167A5.957,5.957,0,0,1,31,33.365Zm4.233-11.058c-2.8.464-6.1,1.268-7.062,2.229a4,4,0,0,0,0,5.657,4.093,4.093,0,0,0,5.656,0c.972-.972.967-1.967.873-3.642a8.613,8.613,0,0,1,.532-4.244Z" fill="#144735"/>
        <path id="Trazado_887900" data-name="Trazado 887900" d="M28.971,32.934h-.049a1,1,0,0,1-.951-1.047,7.931,7.931,0,0,1,2.322-5.229,1,1,0,1,1,1.414,1.414,5.925,5.925,0,0,0-1.738,3.91A1,1,0,0,1,28.971,32.934Z" fill="#144735"/>
      </g>
    </g>
    <path id="Trazado_887901" data-name="Trazado 887901" d="M29,50a1,1,0,0,1,0-2c3.859,0,7-2.691,7-6a1,1,0,0,1,2,0C38,46.411,33.963,50,29,50Z" fill="#144735"/>
    <path id="Trazado_887902" data-name="Trazado 887902" d="M46,37a1,1,0,0,1-1-1,5.006,5.006,0,0,0-5-5,1,1,0,0,1,0-2,7.009,7.009,0,0,1,7,7A1,1,0,0,1,46,37Z" fill="#144735"/>
  </g>
</svg>
