<svg xmlns="http://www.w3.org/2000/svg" width="189" height="100" viewBox="0 0 189 100">
  <g id="Grupo_1115800" data-name="Grupo 1115800" transform="translate(-390.332 -1159.204)">
    <rect id="Rectángulo_406738" data-name="Rectángulo 406738" width="189" height="100" rx="10" transform="translate(390.332 1159.204)" fill="#f2efdf"/>
    <g id="Grupo_1117059" data-name="Grupo 1117059" transform="translate(447.332 1172.204)">
      <circle id="Elipse_11723" data-name="Elipse 11723" cx="21.518" cy="21.518" r="21.518" transform="translate(15.541 16.095)" fill="#cbe1ff"/>
      <path id="Trazado_887627" data-name="Trazado 887627" d="M40,52.036l-.9,5.379a21.522,21.522,0,0,1-16.114-3.67l1.327-5.236a3.587,3.587,0,0,0-.49-2.857L22,42.915a3.64,3.64,0,0,1-.5-2.857l.5-2A3.563,3.563,0,0,0,19.215,33.7L14.23,32.682A21.483,21.483,0,0,1,26.7,16.58l5.762,2.307a3.1,3.1,0,0,1,1.686,4.136L29.34,33.842a3.1,3.1,0,0,0,1.112,3.837l1.243.813a3.069,3.069,0,0,1,1.219,3.55l-.873,2.642a3.108,3.108,0,0,0,3.933,3.921A3.1,3.1,0,0,1,40,52.048Z" transform="translate(1.586 1.404)" fill="#6ed974"/>
      <circle id="Elipse_11724" data-name="Elipse 11724" cx="4.483" cy="4.483" r="4.483" transform="translate(61.266 47.176)" fill="#ffd098"/>
      <path id="Trazado_887628" data-name="Trazado 887628" d="M44,59.661l7.173-3.586v8.368H65.518V53.684A4.189,4.189,0,0,0,61.334,49.5H53.169a5.987,5.987,0,0,0-3.586,1.2L44,54.879Z" transform="translate(7.404 7.837)" fill="#ff8080"/>
      <circle id="Elipse_11725" data-name="Elipse 11725" cx="4.483" cy="4.483" r="4.483" transform="translate(32.575 47.176)" fill="#ffd098"/>
      <path id="Trazado_887629" data-name="Trazado 887629" d="M20,59.661l7.173-3.586v8.368H41.518V56.075l7.173,3.586V54.879l-4.937-3.706A8.366,8.366,0,0,0,38.732,49.5H29.169a5.987,5.987,0,0,0-3.586,1.2L20,54.879Z" transform="translate(2.713 7.837)" fill="#4d99ff"/>
      <circle id="Elipse_11726" data-name="Elipse 11726" cx="4.483" cy="4.483" r="4.483" transform="translate(3.885 47.176)" fill="#ffd098"/>
      <path id="Trazado_887630" data-name="Trazado 887630" d="M23.518,54.879,17.935,50.7a5.987,5.987,0,0,0-3.586-1.2H6.184A4.189,4.189,0,0,0,2,53.684V64.443H16.345V56.075l7.173,3.586Z" transform="translate(-0.805 7.837)" fill="#ffde66"/>
      <path id="Trazado_887631" data-name="Trazado 887631" d="M33.294,3.934c2.1-2.1,6.336-1.267,6.336-1.267S40.467,6.911,38.363,9s-6.336,1.267-6.336,1.267S31.19,6.026,33.294,3.934Z" transform="translate(5.031 -1.348)" fill="#9ae674"/>
      <path id="Trazado_887632" data-name="Trazado 887632" d="M27.622,8.854c-1.865-1.865-1.267-5.5-1.267-5.5s3.622-.6,5.5,1.267,1.267,5.5,1.267,5.5S29.5,10.719,27.622,8.854Z" transform="translate(3.937 -1.199)" fill="#9ae674"/>
      <path id="Trazado_887633" data-name="Trazado 887633" d="M51.38,28.821l-7.974,6.455a1.576,1.576,0,0,1-2.57-1.458l.442-2.7a1.6,1.6,0,0,0-1.554-1.865,1.536,1.536,0,0,0-.932.335,1.578,1.578,0,0,1-2.439-1.769L40.179,16.64a21.6,21.6,0,0,1,11.2,12.169Z" transform="translate(5.893 1.415)" fill="#6ed974"/>
      <path id="Trazado_887634" data-name="Trazado 887634" d="M20.571,52.693a20.288,20.288,0,0,1-5.176-13.544,20.552,20.552,0,0,1,.108-2.116l3.73.753A2.424,2.424,0,0,1,20.8,38.862a2.353,2.353,0,0,1,.3,1.829l-.526,2.032a4.891,4.891,0,0,0,.681,3.8l1.817,2.726a2.382,2.382,0,0,1,.383,1.028l2.367-.323a4.724,4.724,0,0,0-.765-2.032L23.237,45.2a2.416,2.416,0,0,1-.347-1.913l.514-2.008A4.783,4.783,0,0,0,19.7,35.443l-3.8-.765A20.344,20.344,0,0,1,27,20.823l5.26,2.092a1.978,1.978,0,0,1,1.076,1.076,1.93,1.93,0,0,1-.012,1.482L28.509,36.28a4.335,4.335,0,0,0,1.554,5.332l1.231.813a1.833,1.833,0,0,1,.825,1.781l2.367.3A4.217,4.217,0,0,0,32.6,40.428l-1.231-.8a1.925,1.925,0,0,1-.693-2.367L35.49,26.442a4.281,4.281,0,0,0,.048-3.347A4.345,4.345,0,0,0,33.147,20.7L30.326,19.58a20.435,20.435,0,0,1,5.379-.741A20.137,20.137,0,0,1,43.212,20.3L39.758,30.422a2.772,2.772,0,0,0,4.292,3.1.366.366,0,0,1,.526.072.356.356,0,0,1,.072.311L44.2,36.6a2.772,2.772,0,0,0,2.738,3.24,2.784,2.784,0,0,0,1.757-.634l6.611-5.332a20.052,20.052,0,0,1,.729,5.32,20.288,20.288,0,0,1-5.176,13.544l1.781,1.59a22.693,22.693,0,0,0-15.732-37.8v-4.7c.227.012.466.024.717.024a7.4,7.4,0,0,0,5.26-1.781c2.522-2.522,1.638-7.208,1.59-7.412a1.2,1.2,0,0,0-.944-.944c-.2-.036-4.889-.932-7.412,1.59a4.948,4.948,0,0,0-.741.968c-.036-.036-.072-.084-.108-.12-2.283-2.271-6.36-1.626-6.539-1.6a1.194,1.194,0,0,0-.98.98c-.024.167-.669,4.256,1.6,6.539a7.132,7.132,0,0,0,5.021,1.709h.12v4.758a22.693,22.693,0,0,0-15.732,37.8l1.781-1.59ZM54.5,31.4l-7.316,5.905a.364.364,0,0,1-.442.036.368.368,0,0,1-.179-.394l.442-2.7A2.773,2.773,0,0,0,46.4,32a2.824,2.824,0,0,0-3.79-.442.33.33,0,0,1-.442,0,.354.354,0,0,1-.143-.43L45.4,21.253a20.475,20.475,0,0,1,9.1,10.125ZM37.821,4.96c1.064-1.064,3.12-1.16,4.423-1.052.108,1.3.024,3.359-1.052,4.423-1,1-2.9,1.136-4.208,1.064a9.978,9.978,0,0,0-.167-2.128,4.128,4.128,0,0,1,.992-2.319ZM31.055,8.343a5.023,5.023,0,0,1-1-3.55,5.141,5.141,0,0,1,3.55,1,5.023,5.023,0,0,1,1,3.55A5.141,5.141,0,0,1,31.055,8.343Z" transform="translate(1.341 -1.536)"/>
      <path id="Trazado_887635" data-name="Trazado 887635" d="M70.144,50.2a5.678,5.678,0,1,0-6.838-.036H61.572a7.243,7.243,0,0,0-4.3,1.435L52.4,55.242l-4.22-3.168a9.648,9.648,0,0,0-5.738-1.913H41.5a5.678,5.678,0,1,0-6.886,0H32.882a7.243,7.243,0,0,0-4.3,1.435l-4.865,3.646L18.848,51.6a7.243,7.243,0,0,0-4.3-1.435H12.811a5.679,5.679,0,1,0-6.838.036A5.372,5.372,0,0,0,1,55.541V66.3a1.2,1.2,0,0,0,1.2,1.2H16.541a1.2,1.2,0,0,0,1.2-1.2V59.868l5.439,2.726a1.23,1.23,0,0,0,1.064,0l5.439-2.726V66.3a1.2,1.2,0,0,0,1.2,1.2H45.219a1.2,1.2,0,0,0,1.2-1.2V59.868l5.439,2.726a1.23,1.23,0,0,0,1.064,0c.335-.155,5.439-2.714,5.439-2.714v6.431a1.2,1.2,0,0,0,1.2,1.2H73.9a1.2,1.2,0,0,0,1.2-1.2V55.553a5.372,5.372,0,0,0-4.973-5.344ZM9.368,42.391a3.287,3.287,0,1,1-3.287,3.287A3.286,3.286,0,0,1,9.368,42.391Zm13.15,17.19-5.439-2.726a1.21,1.21,0,0,0-1.16.048,1.194,1.194,0,0,0-.562,1.016v7.173H3.391V55.529A2.99,2.99,0,0,1,6.379,52.54h8.165a4.784,4.784,0,0,1,2.869.956l5.1,3.825v2.247Zm15.541-17.19a3.287,3.287,0,1,1-3.287,3.287A3.286,3.286,0,0,1,38.058,42.391Zm13.15,17.19-5.439-2.726a1.21,1.21,0,0,0-1.16.048,1.194,1.194,0,0,0-.562,1.016v7.173H32.093V57.92a1.194,1.194,0,0,0-.562-1.016,1.179,1.179,0,0,0-1.16-.048l-5.439,2.726V57.334l5.1-3.825a4.784,4.784,0,0,1,2.869-.956h9.563a7.243,7.243,0,0,1,4.3,1.435l4.459,3.347v2.247Zm15.541-17.19a3.287,3.287,0,1,1-3.287,3.287A3.286,3.286,0,0,1,66.749,42.391ZM72.726,65.1H60.772V57.931a1.194,1.194,0,0,0-.562-1.016,1.179,1.179,0,0,0-1.16-.048l-5.439,2.726V57.346l5.1-3.825a4.784,4.784,0,0,1,2.869-.956h8.165a2.99,2.99,0,0,1,2.989,2.989v9.563Z" transform="translate(-1 5.981)"/>
    </g>
  </g>
</svg>
