<svg xmlns="http://www.w3.org/2000/svg" width="100" height="100" viewBox="0 0 100 100">
  <g id="Grupo_1100965" data-name="Grupo 1100965" transform="translate(0.242)">
    <g id="Grupo_1098742" data-name="Grupo 1098742" transform="translate(0)">
      <rect id="Rectángulo_400898" data-name="Rectángulo 400898" width="100" height="100" rx="50" transform="translate(-0.242)" fill="#fff" opacity="0.859"/>
      <g id="Rectángulo_400907" data-name="Rectángulo 400907" transform="translate(-0.242)" fill="none" stroke="#3acc97" stroke-linecap="round" stroke-width="2" stroke-dasharray="7">
        <rect width="100" height="100" rx="50" stroke="none"/>
        <rect x="1" y="1" width="98" height="98" rx="49" fill="none"/>
      </g>
    </g>
    <g id="Grupo_1107006" data-name="Grupo 1107006" transform="translate(8.156 8.156)">
      <rect id="Rectángulo_400898-2" data-name="Rectángulo 400898" width="84" height="84" rx="42" transform="translate(-0.399 -0.157)" fill="#d7f5ea" opacity="0.859"/>
      <rect id="Rectángulo_400907-2" data-name="Rectángulo 400907" width="84" height="84" rx="42" transform="translate(-0.398 -0.157)" fill="none"/>
    </g>
    <g id="Layer_68" transform="translate(16.326 16.568)">
      <g id="Grupo_1117814" data-name="Grupo 1117814" transform="translate(0 0)">
        <g id="Grupo_1117754" data-name="Grupo 1117754" transform="translate(0.653 35.37)">
          <path id="Trazado_888852" data-name="Trazado 888852" d="M42.328,146.688a3.82,3.82,0,0,0-2.881-3.492l-5.556-1.4a18.947,18.947,0,0,1-1.843-.569L27.9,146.02a1.061,1.061,0,0,1-1.5.107l-1.851-1.6a1.061,1.061,0,0,1-.107-1.5l3.573-4.122a3.333,3.333,0,0,1-.6-1.908V135.42a9.6,9.6,0,0,1-8.918,0V137a3.335,3.335,0,0,1-.622,1.937l3.547,4.093a1.061,1.061,0,0,1-.107,1.5l-1.851,1.6a1.061,1.061,0,0,1-1.5-.107l-4.142-4.779c-.592.214-1.193.4-1.8.554l-5.562,1.4a3.819,3.819,0,0,0-2.881,3.492L2.5,165.14a1.062,1.062,0,0,0,1.06,1.121H42.339a1.062,1.062,0,0,0,1.06-1.121Z" transform="translate(-2.501 -135.42)" fill="#3caadc"/>
        </g>
        <g id="Grupo_1117755" data-name="Grupo 1117755" transform="translate(0.653 56.573)">
          <path id="Trazado_888853" data-name="Trazado 888853" d="M9.615,216.6H3L2.5,225.117a1.062,1.062,0,0,0,1.06,1.121H9.615Z" transform="translate(-2.501 -216.6)" fill="#f9d0b4"/>
        </g>
        <g id="Grupo_1117756" data-name="Grupo 1117756" transform="translate(34.579 56.573)">
          <path id="Trazado_888854" data-name="Trazado 888854" d="M138.869,216.6H132.39v9.638H138.3a1.062,1.062,0,0,0,1.06-1.121Z" transform="translate(-132.39 -216.6)" fill="#f9d0b4"/>
        </g>
        <g id="Grupo_1117757" data-name="Grupo 1117757" transform="translate(22.333 38.854)">
          <path id="Trazado_888855" data-name="Trazado 888855" d="M87.724,155.984a1.061,1.061,0,0,0,1.5-.107l4.153-4.791a19.094,19.094,0,0,1-2.009-.86c-.541-.27-1.009-.508-1.1-.564a3.343,3.343,0,0,1-.93-.9l-3.573,4.122a1.061,1.061,0,0,0,.107,1.5Z" transform="translate(-85.507 -148.761)" fill="#70d6f9"/>
        </g>
        <g id="Grupo_1117758" data-name="Grupo 1117758" transform="translate(11.973 38.883)">
          <path id="Trazado_888856" data-name="Trazado 888856" d="M48.77,149.865c-.045.025-.461.231-.957.477a18.971,18.971,0,0,1-1.973.838l4.142,4.779a1.061,1.061,0,0,0,1.5.107l1.851-1.6a1.061,1.061,0,0,0,.107-1.5l-3.547-4.093A3.346,3.346,0,0,1,48.77,149.865Z" transform="translate(-45.839 -148.87)" fill="#70d6f9"/>
        </g>
        <g id="Grupo_1117759" data-name="Grupo 1117759" transform="translate(11.425 14.849)">
          <path id="Trazado_888857" data-name="Trazado 888857" d="M54.869,57.05c-3.535,4.446-8.75,3.818-10.5,3.451a.516.516,0,0,0-.624.5v7.792a9.679,9.679,0,1,0,19.357,0V60.171q0-.076,0-.151a.519.519,0,0,0-.5-.509C58.576,59.393,56.458,57.8,55.644,57A.521.521,0,0,0,54.869,57.05Z" transform="translate(-43.741 -56.852)" fill="#f9d0b4"/>
        </g>
        <g id="Grupo_1117761" data-name="Grupo 1117761" transform="translate(8.282 5.833)">
          <g id="Grupo_1117760" data-name="Grupo 1117760">
            <path id="Trazado_888858" data-name="Trazado 888858" d="M34.23,35.914a4.059,4.059,0,0,1,.621.049V35.5a.517.517,0,0,1,.625-.5c1.753.367,6.968.994,10.5-3.451a.521.521,0,0,1,.775-.049c.814.8,2.933,2.391,6.953,2.509a.519.519,0,0,1,.5.509c0,.05,0,.1,0,.151v1.294a4.018,4.018,0,0,1,3.424,1.085V29.779A5.545,5.545,0,0,0,52.1,24.251a5.476,5.476,0,0,0-2.824.788,5.534,5.534,0,0,0-4.741-2.706H41.7a10.02,10.02,0,0,0-9.99,9.99V36.8A4.02,4.02,0,0,1,34.23,35.914Z" transform="translate(-31.709 -22.333)" fill="#754e34"/>
          </g>
        </g>
        <g id="Grupo_1117762" data-name="Grupo 1117762" transform="translate(30.757 19.414)">
          <path id="Trazado_888859" data-name="Trazado 888859" d="M118.4,74.329a4.023,4.023,0,0,0-.621.049v7.327c0,.218-.01.434-.024.649a4.039,4.039,0,1,0,.645-8.025Z" transform="translate(-117.759 -74.329)" fill="#f9d0b4"/>
        </g>
        <g id="Grupo_1117763" data-name="Grupo 1117763" transform="translate(6.762 19.413)">
          <path id="Trazado_888860" data-name="Trazado 888860" d="M30.553,81.7V74.377a4.042,4.042,0,1,0,.024,7.976h0C30.563,82.139,30.553,81.923,30.553,81.7Z" transform="translate(-25.891 -74.328)" fill="#f9d0b4"/>
        </g>
        <g id="Grupo_1117764" data-name="Grupo 1117764" transform="translate(16.022 35.37)">
          <path id="Trazado_888861" data-name="Trazado 888861" d="M64.891,143.027a1.051,1.051,0,0,1,.253.609h2.517a1.052,1.052,0,0,1,.253-.609l3.573-4.122a3.333,3.333,0,0,1-.6-1.908v-1.575a9.6,9.6,0,0,1-8.918,0V137a3.335,3.335,0,0,1-.622,1.937Z" transform="translate(-61.343 -135.422)" fill="#f9d0b4"/>
        </g>
        <g id="Grupo_1117765" data-name="Grupo 1117765" transform="translate(42.108 34.089)">
          <path id="Trazado_888862" data-name="Trazado 888862" d="M167.71,130.514h-5.4a1.094,1.094,0,0,0-1.094,1.094v5.4a1.094,1.094,0,0,0,1.094,1.094h5.4a1.094,1.094,0,0,0,1.094-1.094v-5.4A1.094,1.094,0,0,0,167.71,130.514Z" transform="translate(-161.218 -130.514)" fill="#87d147"/>
        </g>
        <g id="Grupo_1117766" data-name="Grupo 1117766" transform="translate(42.108 23.413)">
          <path id="Trazado_888863" data-name="Trazado 888863" d="M167.71,89.641h-5.4a1.094,1.094,0,0,0-1.094,1.094v5.4a1.094,1.094,0,0,0,1.094,1.094h5.4a1.094,1.094,0,0,0,1.094-1.094v-5.4A1.094,1.094,0,0,0,167.71,89.641Z" transform="translate(-161.218 -89.641)" fill="#87d147"/>
        </g>
        <g id="Grupo_1117767" data-name="Grupo 1117767" transform="translate(42.108 12.738)">
          <path id="Trazado_888864" data-name="Trazado 888864" d="M167.71,48.769h-5.4a1.094,1.094,0,0,0-1.094,1.094v5.4a1.094,1.094,0,0,0,1.094,1.094h5.4a1.094,1.094,0,0,0,1.094-1.094v-5.4A1.094,1.094,0,0,0,167.71,48.769Z" transform="translate(-161.218 -48.769)" fill="#87d147"/>
        </g>
        <g id="Grupo_1117770" data-name="Grupo 1117770" transform="translate(3.513 3.395)">
          <g id="Grupo_1117769" data-name="Grupo 1117769">
            <g id="Grupo_1117768" data-name="Grupo 1117768">
              <path id="Trazado_888865" data-name="Trazado 888865" d="M18.243,15.312a2.9,2.9,0,0,1-2.325-2.272c0-.052-.1-.052-.1,0a2.9,2.9,0,0,1-2.325,2.272c-.052,0-.052.078,0,.1a2.9,2.9,0,0,1,2.325,2.272c0,.052.1.052.1,0a2.9,2.9,0,0,1,2.325-2.272C18.3,15.39,18.3,15.312,18.243,15.312Z" transform="translate(-13.45 -13)" fill="#f5c84c"/>
            </g>
          </g>
        </g>
        <g id="Grupo_1117773" data-name="Grupo 1117773" transform="translate(33.549 32.346)">
          <g id="Grupo_1117772" data-name="Grupo 1117772">
            <g id="Grupo_1117771" data-name="Grupo 1117771">
              <path id="Trazado_888866" data-name="Trazado 888866" d="M131.96,125.536a2.123,2.123,0,0,1-1.7-1.664c0-.038-.077-.038-.077,0a2.123,2.123,0,0,1-1.7,1.664c-.038,0-.038.057,0,.077a2.123,2.123,0,0,1,1.7,1.664c0,.038.077.038.077,0a2.123,2.123,0,0,1,1.7-1.664C132,125.594,132,125.536,131.96,125.536Z" transform="translate(-128.45 -123.843)" fill="#fc657e"/>
            </g>
          </g>
        </g>
        <g id="Grupo_1117776" data-name="Grupo 1117776" transform="translate(47.405 47.014)">
          <g id="Grupo_1117775" data-name="Grupo 1117775">
            <g id="Grupo_1117774" data-name="Grupo 1117774">
              <path id="Trazado_888867" data-name="Trazado 888867" d="M185.209,181.437h-.6v-.6a.842.842,0,0,0-.836-.836.825.825,0,0,0-.836.836v.6h-.6a.842.842,0,0,0-.836.836.825.825,0,0,0,.836.836h.6v.6a.842.842,0,0,0,.836.836.825.825,0,0,0,.836-.836v-.6h.6a.842.842,0,0,0,.836-.836A.825.825,0,0,0,185.209,181.437Z" transform="translate(-181.5 -180)" fill="#70d6f9"/>
            </g>
          </g>
        </g>
        <g id="Grupo_1117779" data-name="Grupo 1117779" transform="translate(11.858)">
          <g id="Grupo_1117778" data-name="Grupo 1117778">
            <g id="Grupo_1117777" data-name="Grupo 1117777">
              <circle id="Elipse_11761" data-name="Elipse 11761" cx="0.888" cy="0.888" r="0.888" fill="#87d147"/>
            </g>
          </g>
        </g>
        <g id="Grupo_1117782" data-name="Grupo 1117782" transform="translate(45.551 55.685)">
          <g id="Grupo_1117781" data-name="Grupo 1117781">
            <g id="Grupo_1117780" data-name="Grupo 1117780">
              <circle id="Elipse_11762" data-name="Elipse 11762" cx="0.888" cy="0.888" r="0.888" fill="#f5c84c"/>
            </g>
          </g>
        </g>
        <g id="Grupo_1117783" data-name="Grupo 1117783" transform="translate(18.1 28.433)">
          <path id="Trazado_888868" data-name="Trazado 888868" d="M72.573,111.292a4.082,4.082,0,0,1-3.123-1.357.653.653,0,1,1,1-.839,2.974,2.974,0,0,0,4.244,0,.653.653,0,1,1,1,.839A4.082,4.082,0,0,1,72.573,111.292Z" transform="translate(-69.298 -108.862)"/>
        </g>
        <g id="Grupo_1117784" data-name="Grupo 1117784" transform="translate(24.003 22.861)">
          <circle id="Elipse_11763" data-name="Elipse 11763" cx="1.17" cy="1.17" r="1.17"/>
        </g>
        <g id="Grupo_1117785" data-name="Grupo 1117785" transform="translate(16.143 22.861)">
          <circle id="Elipse_11764" data-name="Elipse 11764" cx="1.17" cy="1.17" r="1.17"/>
        </g>
        <g id="Grupo_1117786" data-name="Grupo 1117786" transform="translate(0 34.955)">
          <path id="Trazado_888869" data-name="Trazado 888869" d="M40.491,165.741H1.715A1.715,1.715,0,0,1,0,163.931l1.07-18.454a4.452,4.452,0,0,1,3.374-4.087l5.562-1.4c.57-.143,1.156-.323,1.742-.535a.654.654,0,0,1,.715.186l4.142,4.779a.409.409,0,0,0,.576.041l1.851-1.6a.409.409,0,0,0,.041-.576l-3.547-4.093a.653.653,0,0,1-.038-.807,2.671,2.671,0,0,0,.5-1.558v-1.337a.653.653,0,1,1,1.306,0v1.337a3.962,3.962,0,0,1-.467,1.872l3.234,3.731a1.717,1.717,0,0,1-.173,2.419l-1.851,1.6a1.717,1.717,0,0,1-2.418-.173l-3.852-4.444c-.485.163-.968.306-1.441.425l-5.562,1.4a3.153,3.153,0,0,0-2.389,2.894l-1.07,18.454a.409.409,0,0,0,.408.43H40.491A.409.409,0,0,0,40.9,164l-1.07-18.451a3.153,3.153,0,0,0-2.389-2.9l-5.556-1.4c-.484-.122-.981-.269-1.481-.439l-3.862,4.456a1.717,1.717,0,0,1-2.418.173l-1.851-1.6a1.717,1.717,0,0,1-.173-2.419l3.262-3.763a3.957,3.957,0,0,1-.452-1.84v-1.272a.653.653,0,0,1,1.306,0v1.272a2.671,2.671,0,0,0,.486,1.535.653.653,0,0,1-.042.8l-3.573,4.122a.409.409,0,0,0,.041.576l1.851,1.6a.409.409,0,0,0,.576-.041l4.153-4.792a.653.653,0,0,1,.716-.186,18.371,18.371,0,0,0,1.779.549l5.556,1.4a4.453,4.453,0,0,1,3.374,4.088L42.2,163.93a1.715,1.715,0,0,1-1.712,1.812Z" transform="translate(0 -133.833)"/>
        </g>
        <g id="Grupo_1117787" data-name="Grupo 1117787" transform="translate(33.926 49.51)">
          <path id="Trazado_888870" data-name="Trazado 888870" d="M130.544,206.651a.653.653,0,0,1-.653-.653V190.21a.653.653,0,0,1,1.306,0V206A.653.653,0,0,1,130.544,206.651Z" transform="translate(-129.891 -189.557)"/>
        </g>
        <g id="Grupo_1117788" data-name="Grupo 1117788" transform="translate(7.115 49.51)">
          <path id="Trazado_888871" data-name="Trazado 888871" d="M27.894,206.651a.653.653,0,0,1-.653-.653V190.21a.653.653,0,1,1,1.306,0V206a.653.653,0,0,1-.653.653Z" transform="translate(-27.241 -189.557)"/>
        </g>
        <g id="Grupo_1117789" data-name="Grupo 1117789" transform="translate(41.455 33.436)">
          <path id="Trazado_888872" data-name="Trazado 888872" d="M165.862,136.907h-5.4a1.749,1.749,0,0,1-1.747-1.747v-5.4a1.749,1.749,0,0,1,1.747-1.747h5.4a1.749,1.749,0,0,1,1.747,1.747v5.4A1.749,1.749,0,0,1,165.862,136.907Zm-5.4-7.586a.442.442,0,0,0-.441.441v5.4a.442.442,0,0,0,.441.441h5.4a.442.442,0,0,0,.441-.441v-5.4a.442.442,0,0,0-.441-.441Z" transform="translate(-158.717 -128.015)"/>
        </g>
        <g id="Grupo_1117790" data-name="Grupo 1117790" transform="translate(52.178 34.467)">
          <path id="Trazado_888873" data-name="Trazado 888873" d="M213.807,133.27h-13.38a.653.653,0,1,1,0-1.306h13.38a.653.653,0,0,1,0,1.306Z" transform="translate(-199.774 -131.964)"/>
        </g>
        <g id="Grupo_1117791" data-name="Grupo 1117791" transform="translate(52.178 37.229)">
          <path id="Trazado_888874" data-name="Trazado 888874" d="M213.807,143.843h-13.38a.653.653,0,1,1,0-1.306h13.38a.653.653,0,0,1,0,1.306Z" transform="translate(-199.774 -142.537)"/>
        </g>
        <g id="Grupo_1117792" data-name="Grupo 1117792" transform="translate(52.178 39.99)">
          <path id="Trazado_888875" data-name="Trazado 888875" d="M208.2,154.415h-7.773a.653.653,0,1,1,0-1.306H208.2a.653.653,0,1,1,0,1.306Z" transform="translate(-199.774 -153.109)"/>
        </g>
        <g id="Grupo_1117793" data-name="Grupo 1117793" transform="translate(41.455 22.76)">
          <path id="Trazado_888876" data-name="Trazado 888876" d="M165.862,96.034h-5.4a1.749,1.749,0,0,1-1.747-1.747v-5.4a1.749,1.749,0,0,1,1.747-1.747h5.4a1.749,1.749,0,0,1,1.747,1.747v5.4A1.749,1.749,0,0,1,165.862,96.034Zm-5.4-7.586a.442.442,0,0,0-.441.441v5.4a.442.442,0,0,0,.441.441h5.4a.442.442,0,0,0,.441-.441v-5.4a.442.442,0,0,0-.441-.441Z" transform="translate(-158.717 -87.142)"/>
        </g>
        <g id="Grupo_1117794" data-name="Grupo 1117794" transform="translate(52.178 23.792)">
          <path id="Trazado_888877" data-name="Trazado 888877" d="M213.807,92.4h-13.38a.653.653,0,1,1,0-1.306h13.38a.653.653,0,0,1,0,1.306Z" transform="translate(-199.774 -91.092)"/>
        </g>
        <g id="Grupo_1117795" data-name="Grupo 1117795" transform="translate(52.178 26.553)">
          <path id="Trazado_888878" data-name="Trazado 888878" d="M213.807,102.97h-13.38a.653.653,0,1,1,0-1.306h13.38a.653.653,0,0,1,0,1.306Z" transform="translate(-199.774 -101.664)"/>
        </g>
        <g id="Grupo_1117796" data-name="Grupo 1117796" transform="translate(52.178 29.315)">
          <path id="Trazado_888879" data-name="Trazado 888879" d="M208.2,113.543h-7.773a.653.653,0,1,1,0-1.306H208.2a.653.653,0,1,1,0,1.306Z" transform="translate(-199.774 -112.237)"/>
        </g>
        <g id="Grupo_1117797" data-name="Grupo 1117797" transform="translate(41.455 12.085)">
          <path id="Trazado_888880" data-name="Trazado 888880" d="M165.862,55.161h-5.4a1.749,1.749,0,0,1-1.747-1.747v-5.4a1.749,1.749,0,0,1,1.747-1.747h5.4a1.749,1.749,0,0,1,1.747,1.747v5.4A1.749,1.749,0,0,1,165.862,55.161Zm-5.4-7.586a.442.442,0,0,0-.441.441v5.4a.442.442,0,0,0,.441.441h5.4a.442.442,0,0,0,.441-.441v-5.4a.442.442,0,0,0-.441-.441Z" transform="translate(-158.717 -46.269)"/>
        </g>
        <g id="Grupo_1117798" data-name="Grupo 1117798" transform="translate(52.178 13.117)">
          <path id="Trazado_888881" data-name="Trazado 888881" d="M213.807,51.526h-13.38a.653.653,0,1,1,0-1.306h13.38a.653.653,0,0,1,0,1.306Z" transform="translate(-199.774 -50.22)"/>
        </g>
        <g id="Grupo_1117799" data-name="Grupo 1117799" transform="translate(52.178 15.878)">
          <path id="Trazado_888882" data-name="Trazado 888882" d="M213.807,62.1h-13.38a.653.653,0,1,1,0-1.306h13.38a.653.653,0,0,1,0,1.306Z" transform="translate(-199.774 -60.792)"/>
        </g>
        <g id="Grupo_1117800" data-name="Grupo 1117800" transform="translate(52.178 18.64)">
          <path id="Trazado_888883" data-name="Trazado 888883" d="M208.2,72.671h-7.773a.653.653,0,1,1,0-1.306H208.2a.653.653,0,1,1,0,1.306Z" transform="translate(-199.774 -71.365)"/>
        </g>
        <g id="Grupo_1117801" data-name="Grupo 1117801" transform="translate(43.604 36.219)">
          <path id="Trazado_888884" data-name="Trazado 888884" d="M168.863,141.962a.651.651,0,0,1-.462-.191l-1.264-1.264a.653.653,0,1,1,.923-.923l.8.8,1.525-1.525a.653.653,0,0,1,.923.923l-1.986,1.986A.65.65,0,0,1,168.863,141.962Z" transform="translate(-166.945 -138.67)"/>
        </g>
        <g id="Grupo_1117802" data-name="Grupo 1117802" transform="translate(43.604 25.544)">
          <path id="Trazado_888885" data-name="Trazado 888885" d="M168.863,101.09a.652.652,0,0,1-.462-.191l-1.264-1.264a.653.653,0,0,1,.923-.923l.8.8,1.525-1.525a.653.653,0,0,1,.923.923l-1.986,1.986A.65.65,0,0,1,168.863,101.09Z" transform="translate(-166.945 -97.798)"/>
        </g>
        <g id="Grupo_1117803" data-name="Grupo 1117803" transform="translate(43.604 14.868)">
          <path id="Trazado_888886" data-name="Trazado 888886" d="M168.863,60.218a.651.651,0,0,1-.462-.191l-1.264-1.264a.653.653,0,0,1,.923-.923l.8.8,1.525-1.525a.653.653,0,0,1,.923.923l-1.986,1.986A.65.65,0,0,1,168.863,60.218Z" transform="translate(-166.945 -56.926)"/>
        </g>
        <g id="Grupo_1117804" data-name="Grupo 1117804" transform="translate(0.653 55.92)">
          <path id="Trazado_888887" data-name="Trazado 888887" d="M9.313,215.406H3.153a.653.653,0,0,1,0-1.306h6.16a.653.653,0,0,1,0,1.306Z" transform="translate(-2.5 -214.1)"/>
        </g>
        <g id="Grupo_1117805" data-name="Grupo 1117805" transform="translate(34.142 55.92)">
          <path id="Trazado_888888" data-name="Trazado 888888" d="M137.453,215.406h-6.081a.653.653,0,0,1,0-1.306h6.081a.653.653,0,0,1,0,1.306Z" transform="translate(-130.719 -214.1)"/>
        </g>
        <g id="Grupo_1117806" data-name="Grupo 1117806" transform="translate(25.512 38.201)">
          <path id="Trazado_888889" data-name="Trazado 888889" d="M102.365,149.891a.653.653,0,0,1-.223-.039,19.689,19.689,0,0,1-2.079-.89c-1.014-.506-1.107-.567-1.158-.6a3.986,3.986,0,0,1-1.112-1.076.653.653,0,0,1,1.071-.747,2.677,2.677,0,0,0,.748.725c.023.014.183.1,1.034.529a18.482,18.482,0,0,0,1.94.831.653.653,0,0,1-.223,1.267Z" transform="translate(-97.676 -146.26)"/>
        </g>
        <g id="Grupo_1117807" data-name="Grupo 1117807" transform="translate(11.319 38.23)">
          <path id="Trazado_888890" data-name="Trazado 888890" d="M43.991,149.985a.653.653,0,0,1-.222-1.267,18.274,18.274,0,0,0,1.905-.809c.474-.234.873-.432.936-.465a2.705,2.705,0,0,0,.9-.8.653.653,0,0,1,1.063.758,4.025,4.025,0,0,1-1.338,1.189c-.027.015-.069.038-.981.489a19.709,19.709,0,0,1-2.041.866.64.64,0,0,1-.221.039Z" transform="translate(-43.338 -146.369)"/>
        </g>
        <g id="Grupo_1117808" data-name="Grupo 1117808" transform="translate(10.771 14.196)">
          <path id="Trazado_888891" data-name="Trazado 888891" d="M51.571,77.278A10.343,10.343,0,0,1,41.24,66.946V59.161a1.169,1.169,0,0,1,1.411-1.145c1.881.394,6.609.868,9.858-3.218a1.174,1.174,0,0,1,1.743-.109c.674.661,2.659,2.21,6.516,2.323A1.169,1.169,0,0,1,61.9,58.16c0,.054,0,.109,0,.164v8.622A10.342,10.342,0,0,1,51.571,77.278ZM42.546,59.326v7.62a9.026,9.026,0,0,0,18.051,0V58.313a10.727,10.727,0,0,1-7.155-2.591C49.754,60.241,44.367,59.678,42.546,59.326Z" transform="translate(-41.24 -54.352)"/>
        </g>
        <g id="Grupo_1117810" data-name="Grupo 1117810" transform="translate(7.629 5.18)">
          <g id="Grupo_1117809" data-name="Grupo 1117809">
            <path id="Trazado_888892" data-name="Trazado 888892" d="M55.785,35.678a.653.653,0,0,1-.653-.653V27.932a4.859,4.859,0,0,0-7.364-4.18.653.653,0,0,1-.9-.225,4.908,4.908,0,0,0-4.181-2.389H39.852a9.348,9.348,0,0,0-9.337,9.337v4.345a.653.653,0,0,1-1.306,0V30.476A10.655,10.655,0,0,1,39.852,19.833h2.839a6.216,6.216,0,0,1,4.955,2.506,6.124,6.124,0,0,1,2.611-.588,6.189,6.189,0,0,1,6.181,6.182v7.093A.653.653,0,0,1,55.785,35.678Z" transform="translate(-29.209 -19.833)"/>
          </g>
        </g>
        <g id="Grupo_1117811" data-name="Grupo 1117811" transform="translate(30.332 18.76)">
          <path id="Trazado_888893" data-name="Trazado 888893" d="M117.2,81.215a4.39,4.39,0,0,1-.489-.029.653.653,0,0,1,.145-1.3,3.1,3.1,0,0,0,.344.021,3.388,3.388,0,0,0,0-6.776c-.1,0-.205.005-.31.015a.653.653,0,0,1-.125-1.3c.146-.014.292-.021.434-.021a4.694,4.694,0,0,1,0,9.388Z" transform="translate(-116.133 -71.827)"/>
        </g>
        <g id="Grupo_1117812" data-name="Grupo 1117812" transform="translate(6.109 18.76)">
          <path id="Trazado_888894" data-name="Trazado 888894" d="M28.085,81.215a4.694,4.694,0,0,1,0-9.388,4.643,4.643,0,0,1,.514.029.653.653,0,1,1-.146,1.3,3.286,3.286,0,0,0-.368-.021,3.388,3.388,0,0,0,0,6.776c.09,0,.179,0,.266-.013a.653.653,0,1,1,.12,1.3c-.131.012-.261.018-.387.018Z" transform="translate(-23.391 -71.827)"/>
        </g>
        <g id="Grupo_1117813" data-name="Grupo 1117813" transform="translate(19.312 42.931)">
          <path id="Trazado_888895" data-name="Trazado 888895" d="M76.8,165.677H74.591a.653.653,0,1,1,0-1.306H76.8a.653.653,0,1,1,0,1.306Z" transform="translate(-73.938 -164.371)"/>
        </g>
      </g>
    </g>
  </g>
</svg>
