<svg xmlns="http://www.w3.org/2000/svg" width="189" height="100" viewBox="0 0 189 100">
  <g id="Grupo_1115794" data-name="Grupo 1115794" transform="translate(-390.332 -1159.205)">
    <rect id="Rectángulo_406738" data-name="Rectángulo 406738" width="189" height="100" rx="10" transform="translate(390.332 1159.205)" fill="#f2efdf"/>
    <g id="Grupo_1117049" data-name="Grupo 1117049" transform="translate(448.332 1172.205)">
      <path id="Trazado_887571" data-name="Trazado 887571" d="M25.478,192.04l-3.65-6.083-9.733-3.65,7.3-1.217-4.867-10.95,6.083,4.867,3.65-3.65v9.733l6.083,9.733s4.867-10.95-1.217-19.467-19.467-9.733-19.467-9.733-3.65,13.383,0,21.9S25.478,192.04,25.478,192.04Z" transform="translate(-6.817 -137.29)" fill="#a0d92a"/>
      <path id="Trazado_887572" data-name="Trazado 887572" d="M136.549,385.623l-2.859,4.575a3.274,3.274,0,0,0-.365,2.725H117.666a4.863,4.863,0,0,0,4.7,6.083h14.178V385.623Z" transform="translate(-99.637 -327.223)" fill="#2580a6"/>
      <path id="Trazado_887573" data-name="Trazado 887573" d="M261.588,392.923H245.93a3.1,3.1,0,0,0,.146-.949,3.355,3.355,0,0,0-.511-1.776l-2.859-4.575v13.383h14.178A4.863,4.863,0,0,0,261.588,392.923Z" transform="translate(-205.795 -327.223)" fill="#20557d"/>
      <path id="Trazado_887574" data-name="Trazado 887574" d="M245.565,173.5a3.372,3.372,0,0,1-2.859,5.159v14.6a4.867,4.867,0,0,1,4.867-4.867h2.433a4.867,4.867,0,0,1-4.867,4.867h-2.433v2.433l2.859,4.575a3.355,3.355,0,0,1,.511,1.776,3.1,3.1,0,0,1-.146.949h15.658a4.935,4.935,0,0,0-.314-.883L251.223,181.09v-14.6h0a2.433,2.433,0,1,0,0-4.867h-8.517v7.3Z" transform="translate(-205.795 -137.29)" fill="#d0dfea"/>
      <path id="Trazado_887575" data-name="Trazado 887575" d="M134.572,200.264l2.859-4.575v-4.867H135a4.867,4.867,0,0,1-4.867-4.867h2.433a4.867,4.867,0,0,1,4.867,4.867V178.656a3.372,3.372,0,0,1-2.859-5.159l2.859-4.575v-7.3h-8.517a2.433,2.433,0,0,0,0,4.867h0v14.6l-10.051,21.017a4.909,4.909,0,0,0-.314.883h15.658A3.273,3.273,0,0,1,134.572,200.264Zm-10.524.292,1.217-2.433Zm2.433-4.867,2.433-4.867Z" transform="translate(-100.52 -137.29)" fill="#fff"/>
      <path id="Trazado_887576" data-name="Trazado 887576" d="M221.019,214.2a3.372,3.372,0,0,0,2.859,5.159v-9.733Z" transform="translate(-186.966 -177.99)" fill="#2580a6"/>
      <path id="Trazado_887577" data-name="Trazado 887577" d="M245.565,214.2l-2.859-4.575v9.733A3.372,3.372,0,0,0,245.565,214.2Z" transform="translate(-205.795 -177.99)" fill="#20557d"/>
      <path id="Trazado_887578" data-name="Trazado 887578" d="M252.439,74.84l-1.217-1.217-7.3,7.3h-1.217V82.14h3.65l7.3-7.3-.606-.606Z" transform="translate(-205.795 -62.673)" fill="#d0dfea"/>
      <path id="Trazado_887579" data-name="Trazado 887579" d="M317.413,11.214a4.265,4.265,0,0,0-2.42-1.2,4.3,4.3,0,0,1-.013,6.067L310.724,20.3l.606.606,1.217,1.217,4.867-4.823A4.3,4.3,0,0,0,317.413,11.214Z" transform="translate(-263.468 -8.738)" fill="#20557d"/>
      <path id="Trazado_887580" data-name="Trazado 887580" d="M251.223,63.448,249.4,61.623l-6.692,6.692v2.433h1.217Z" transform="translate(-205.795 -52.498)" fill="#fff"/>
      <path id="Trazado_887581" data-name="Trazado 887581" d="M286.706,58.231l1.825,1.825,1.217,1.217.611-.606-3.044-3.044Z" transform="translate(-243.103 -49.106)" fill="#20557d"/>
      <path id="Trazado_887582" data-name="Trazado 887582" d="M287.573,10.958l-4.867,4.823L283.923,17l3.044,3.044,4.256-4.218a4.3,4.3,0,0,0,.013-6.067A4.283,4.283,0,0,0,287.573,10.958Z" transform="translate(-239.711 -8.481)" fill="#2580a6"/>
      <path id="Trazado_887583" data-name="Trazado 887583" d="M347.518,235.849s-10.95-3.65-18.25,2.433-3.65,14.557-3.65,14.557l4.867-4.824,2.433-7.3,1.217,3.65,8.517-3.65L330.485,254.1a9.656,9.656,0,0,0,10.95-1.217C348.735,246.8,347.518,235.849,347.518,235.849Z" transform="translate(-275.324 -199.307)" fill="#a0d92a"/>
      <g id="Grupo_1117048" data-name="Grupo 1117048" transform="translate(29.611 48.667)">
        <path id="Trazado_887584" data-name="Trazado 887584" d="M250.006,337.623h-2.433a4.867,4.867,0,0,0-4.867,4.867h2.433A4.867,4.867,0,0,0,250.006,337.623Z" transform="translate(-235.406 -335.19)" fill="#f1e200"/>
        <path id="Trazado_887585" data-name="Trazado 887585" d="M197.139,321.623h-2.433a4.867,4.867,0,0,0,4.867,4.867h2.433A4.867,4.867,0,0,0,197.139,321.623Z" transform="translate(-194.706 -321.623)" fill="#f1e200"/>
      </g>
      <path id="Trazado_887586" data-name="Trazado 887586" d="M135.921,14.627a6.015,6.015,0,0,1,.761,2.889A6.083,6.083,0,0,1,130.6,23.6a6.017,6.017,0,0,1-2.889-.761,6.064,6.064,0,1,0,8.212-8.212Z" transform="translate(-108.287 -12.649)" fill="#c4b800"/>
      <path id="Trazado_887587" data-name="Trazado 887587" d="M132.439,13.273a6.017,6.017,0,0,0-.761-2.889,5.977,5.977,0,0,0-7.756,1.706v0a5.932,5.932,0,0,0-.456,6.506,6.015,6.015,0,0,0,2.889.761A6.083,6.083,0,0,0,132.439,13.273Zm-6.083,1.217v0Z" transform="translate(-104.045 -8.406)" fill="#f1e200"/>
      <path id="Trazado_887588" data-name="Trazado 887588" d="M376.354,138.745a3.611,3.611,0,0,1,.171,1.046,3.65,3.65,0,0,1-3.65,3.65,3.607,3.607,0,0,1-1.046-.171,3.64,3.64,0,1,0,4.525-4.525Z" transform="translate(-315.28 -117.891)" fill="#c4b800"/>
      <path id="Trazado_887589" data-name="Trazado 887589" d="M375.573,138.84a3.608,3.608,0,0,0-.171-1.046,3.61,3.61,0,0,0-1.046-.171,3.65,3.65,0,0,0-3.65,3.65,3.609,3.609,0,0,0,.171,1.046,3.609,3.609,0,0,0,1.046.171A3.65,3.65,0,0,0,375.573,138.84Z" transform="translate(-314.328 -116.94)" fill="#f1e200"/>
      <path id="Trazado_887590" data-name="Trazado 887590" d="M217.072,214.005a4.588,4.588,0,0,0,3.89-7.021L218.1,202.41a1.264,1.264,0,0,0-2.063,0l-2.859,4.574a4.588,4.588,0,0,0,3.89,7.021Zm-1.827-5.73,1.827-2.924,1.827,2.924a2.155,2.155,0,1,1-3.655,0Z" transform="translate(-180.161 -171.422)"/>
      <path id="Trazado_887591" data-name="Trazado 887591" d="M235.923,22.323h3.65a1.216,1.216,0,0,0,.86-.356l6.44-6.44.356.356,2.433,2.433,1.721-1.721-1.569-1.569,4-3.967a5.518,5.518,0,0,0-7.8-7.807L242.01,7.223l-1.577-1.577-1.721,1.721L241.146,9.8l.356.356-6.44,6.44a1.216,1.216,0,0,0-.356.86v3.65A1.216,1.216,0,0,0,235.923,22.323Zm11.81-17.347A3.085,3.085,0,0,1,252.1,9.335l-4.006,3.971-.36-.36-3.65-3.65-.353-.353ZM237.139,17.96l6.083-6.083,1.93,1.93-6.083,6.083h-1.93Z" transform="translate(-199.011 -1.639)"/>
      <path id="Trazado_887592" data-name="Trazado 887592" d="M73.4,166.911a1.215,1.215,0,0,0-.825-1.019c-.473-.158-11.681-3.79-19.414,2.652a13.143,13.143,0,0,0-4.879,8.915l-1.641-3.431V160.712a3.651,3.651,0,0,0-1.217-7.092H28.4a3.651,3.651,0,0,0-1.217,7.092v13.316l-.593,1.24a18.5,18.5,0,0,0-3.284-11.4c-6.334-8.868-19.777-10.186-20.346-10.238a1.208,1.208,0,0,0-1.284.892c-.153.563-3.718,13.893.056,22.7,3.921,9.149,16.4,9.255,16.935,9.255a1.217,1.217,0,0,0,1.043-1.843l-3.65-6.083a1.219,1.219,0,0,0-.615-.513l-5.485-2.057,2.823-.471a1.217,1.217,0,0,0,.912-1.694l-2.838-6.385,2.183,1.747a1.218,1.218,0,0,0,1.621-.09l1.573-1.573v6.8a1.215,1.215,0,0,0,.185.645l5.849,9.358-5.017,10.489a6.084,6.084,0,0,0,5.488,8.708H51.09a6.084,6.084,0,0,0,5.488-8.708l-4.956-10.361,4.4-4.358a1.2,1.2,0,0,0,.3-.479l1.28-3.838.063.188a1.216,1.216,0,0,0,1.633.733l3.373-1.445-8.4,9.241a1.218,1.218,0,0,0,.271,1.859,10.5,10.5,0,0,0,5.224,1.34,10.977,10.977,0,0,0,7.135-2.663C74.6,178.585,73.457,167.385,73.4,166.911Zm-55.494-3.466a1.213,1.213,0,0,0-1.326.264l-2.88,2.88L8.472,162.4A1.217,1.217,0,0,0,6.6,163.847l4.229,9.514-5.749.959a1.217,1.217,0,0,0-.228,2.34l9.337,3.5,2.218,3.7c-3.494-.453-10.059-2.038-12.442-7.6-2.872-6.7-.932-16.842-.194-20.074,3.17.482,12.812,2.457,17.553,9.093,3.987,5.583,2.871,12.433,1.883,15.946l-4.543-7.269V164.57A1.215,1.215,0,0,0,17.911,163.446Zm11.582,11.382a1.216,1.216,0,0,0,.119-.525V160.919h3.65v-2.433H28.4a1.217,1.217,0,0,1,0-2.433H45.429a1.217,1.217,0,1,1,0,2.433H40.562v2.433h3.65V174.3a1.218,1.218,0,0,0,.119.525l9.641,20.158H41.49a4.63,4.63,0,0,0-.688-2.154l-2.673-4.278v-.868h1.217a6.09,6.09,0,0,0,6.083-6.083,1.216,1.216,0,0,0-1.217-1.217H41.779a6.024,6.024,0,0,0-3.65,1.248V181.6h-.516a6.087,6.087,0,0,0-5.568-3.65H29.612a1.216,1.216,0,0,0-1.217,1.217,6.09,6.09,0,0,0,6.083,6.083H35.7v3.3l-2.673,4.278a4.558,4.558,0,0,0-.688,2.154H19.852Zm8.843,10.425a3.658,3.658,0,0,1,3.442-2.433h1.009a3.657,3.657,0,0,1-3.442,2.433Zm-2.849-2.433H34.479a3.658,3.658,0,0,1-3.442-2.433h1.009A3.658,3.658,0,0,1,35.487,182.819Zm18.691,16.546a3.632,3.632,0,0,1-3.088,1.7H22.734a3.61,3.61,0,0,1-3.632-3.65H33.687a1.216,1.216,0,0,0,1.162-1.577,2.06,2.06,0,0,1,.235-1.721l1.827-2.924,1.823,2.917a2.138,2.138,0,0,1,.33,1.138,1.882,1.882,0,0,1-.087.579,1.216,1.216,0,0,0,1.158,1.587H54.722A3.617,3.617,0,0,1,54.178,199.366Zm11.156-16.222a8.348,8.348,0,0,1-8.126,1.71l11.021-12.123a1.217,1.217,0,0,0-1.379-1.937l-7.3,3.128-.8-2.4a1.216,1.216,0,0,0-2.307,0L54.1,178.553l-3.214,3.185a11.234,11.234,0,0,1,3.839-11.324c5.612-4.679,13.783-3.083,16.312-2.432C71.134,170.516,70.954,178.461,65.334,183.144Z" transform="translate(-0.001 -130.503)"/>
      <rect id="Rectángulo_410250" data-name="Rectángulo 410250" width="5.441" height="2.433" transform="translate(29.484 54.077) rotate(116.565)"/>
      <rect id="Rectángulo_410251" data-name="Rectángulo 410251" width="2.72" height="2.433" transform="translate(25.835 61.38) rotate(116.565)"/>
      <path id="Trazado_887593" data-name="Trazado 887593" d="M122.006,16.223a7.3,7.3,0,1,0-7.3-7.3A7.308,7.308,0,0,0,122.006,16.223Zm0-12.167a4.867,4.867,0,1,1-4.867,4.867A4.872,4.872,0,0,1,122.006,4.056Z" transform="translate(-97.261 -1.623)"/>
      <path id="Trazado_887594" data-name="Trazado 887594" d="M367.573,139.356a4.867,4.867,0,1,0-4.867-4.867A4.872,4.872,0,0,0,367.573,139.356Zm0-7.3a2.433,2.433,0,1,1-2.433,2.433A2.437,2.437,0,0,1,367.573,132.056Z" transform="translate(-307.545 -110.156)"/>
      <path id="Trazado_887595" data-name="Trazado 887595" d="M437.139,8.923h2.433V6.49h2.433V4.056h-2.433V1.623h-2.433V4.056h-2.433V6.49h2.433Z" transform="translate(-368.595 -1.623)"/>
      <rect id="Rectángulo_410252" data-name="Rectángulo 410252" width="2.433" height="2.433" transform="translate(21.095 6.083)"/>
      <path id="Trazado_887596" data-name="Trazado 887596" d="M29.139,56.923h2.433V54.49h2.433V52.056H31.573V49.623H29.139v2.433H26.706V54.49h2.433Z" transform="translate(-22.645 -42.323)"/>
    </g>
  </g>
</svg>
