<svg xmlns="http://www.w3.org/2000/svg" width="88" height="88" viewBox="0 0 88 88">
  <g id="Grupo_1117751" data-name="Grupo 1117751" transform="translate(-205.914 -3382)">
    <rect id="Rectángulo_409987" data-name="Rectángulo 409987" width="88" height="88" transform="translate(205.914 3382)" fill="#75b8fb"/>
    <g id="Grupo_1117750" data-name="Grupo 1117750" transform="translate(211.426 3388.002)">
      <path id="Trazado_888734" data-name="Trazado 888734" d="M210.679,87.086a.324.324,0,0,1,.546.235v9.441h11.3V87.153a.309.309,0,0,1,.532-.213L228,92a2.9,2.9,0,0,0,4.028.118l4.72-4.466a1.746,1.746,0,0,0,.068-2.468l-.05-.051a1.746,1.746,0,0,0-2.4-.033l-4.377,4.034-5.278-5.608a3.151,3.151,0,0,0-2.3-.991h-2.436a.981.981,0,0,1-1.189-.716,1,1,0,0,1-.029-.237v-.659a3.66,3.66,0,0,1-3.767-.007v.7a.98.98,0,0,1-1.194.958h-1.845a4.52,4.52,0,0,0-3.046,1.181l-4.295,3.914a5.9,5.9,0,0,0-1.73,2.856l-1.389,5.273a1.662,1.662,0,0,0,3.18.957c.007-.021.014-.043.021-.064l1.484-5.047a1.722,1.722,0,0,1,.474-.771Zm0,0" transform="translate(-171.378 -69.008)" fill="#60bae2"/>
      <path id="Trazado_888735" data-name="Trazado 888735" d="M38.557,204.07a1.629,1.629,0,0,0-2.166.62l-2.608,4.467a.59.59,0,0,1-.816.167l-.014-.01-3.882-2.721a4.862,4.862,0,0,0-2.79-.881H24.017A.981.981,0,0,1,22.828,205a.992.992,0,0,1-.029-.236V204.1a3.66,3.66,0,0,1-3.767-.007v.7a.981.981,0,0,1-.982.981.971.971,0,0,1-.212-.023H15.316a2.774,2.774,0,0,0-1.87.724l-5.175,4.717A4.155,4.155,0,0,0,7.053,213.2l-1.523,5.77a1.662,1.662,0,0,0,3.181.958c.007-.022.014-.043.02-.065l1.616-5.5,4.917-4.616v10.189h11.3v-9.608a.309.309,0,0,1,.532-.214l4.524,2.893a3.377,3.377,0,0,0,4.664-1.025c.026-.041.052-.084.076-.126l2.884-5.6a1.629,1.629,0,0,0-.69-2.188Zm0,0" transform="translate(-4.253 -173.882)" fill="#e9e9ea"/>
      <path id="Trazado_888736" data-name="Trazado 888736" d="M268.8,213.246h3.009a2.388,2.388,0,0,1,.643.09V194.71a1.6,1.6,0,0,1,1.6-1.6h5.209v11.126a2.385,2.385,0,0,1,.808-.143h3.008a2.389,2.389,0,0,1,.677.1V191.93a3.313,3.313,0,0,0-3.313-3.313H267.957V213.4a2.375,2.375,0,0,1,.841-.156Zm0,0" transform="translate(-228.111 -160.863)" fill="#6d6c6b"/>
      <path id="Trazado_888737" data-name="Trazado 888737" d="M72.845,337.652h3.009a2.365,2.365,0,0,1,.643.091V319.117a1.6,1.6,0,0,1,1.6-1.6h5.209v11.128a2.371,2.371,0,0,1,.807-.143h3.009a2.389,2.389,0,0,1,.677.1V316.336a3.313,3.313,0,0,0-3.313-3.313H72v24.785a2.388,2.388,0,0,1,.841-.156Zm0,0" transform="translate(-60.992 -266.963)" fill="#6d6c6b"/>
      <path id="Trazado_888738" data-name="Trazado 888738" d="M267.957,339.669v2.557a2.388,2.388,0,0,1,.841-.156h3.009a2.365,2.365,0,0,1,.643.091v-2.492Zm0,0" transform="translate(-228.111 -289.687)" fill="#e9e9ea"/>
      <path id="Trazado_888739" data-name="Trazado 888739" d="M344.762,277.462v2.544a2.385,2.385,0,0,1,.808-.143h3.008a2.388,2.388,0,0,1,.677.1v-2.5Zm0,0" transform="translate(-293.614 -236.634)" fill="#e9e9ea"/>
      <path id="Trazado_888740" data-name="Trazado 888740" d="M72,464.078v2.557a2.374,2.374,0,0,1,.841-.156h3.009a2.386,2.386,0,0,1,.643.09v-2.492Zm0,0" transform="translate(-60.992 -395.79)" fill="#e9e9ea"/>
      <path id="Trazado_888741" data-name="Trazado 888741" d="M148.813,401.875v2.546a2.371,2.371,0,0,1,.807-.143h3.009a2.389,2.389,0,0,1,.677.1v-2.5Zm0,0" transform="translate(-126.499 -342.74)" fill="#e9e9ea"/>
      <path id="Trazado_888742" data-name="Trazado 888742" d="M274.19,10.389a1.532,1.532,0,0,1,.235.019v-.176a.2.2,0,0,1,.2-.2.178.178,0,0,1,.039,0,4,4,0,0,0,4-1.314.2.2,0,0,1,.279-.033l.016.014a3.837,3.837,0,0,0,2.649.955.2.2,0,0,1,.19.194v.552a1.531,1.531,0,0,1,1.3.412V8.054A2.11,2.11,0,0,0,281,5.949a2.081,2.081,0,0,0-1.075.3,2.107,2.107,0,0,0-1.805-1.03h-1.081a3.814,3.814,0,0,0-3.8,3.8v1.7a1.53,1.53,0,0,1,.96-.337Zm0,0" transform="translate(-232.608 -4.452)" fill="#6d6c6b"/>
      <path id="Trazado_888743" data-name="Trazado 888743" d="M78.237,134.8a1.537,1.537,0,0,1,.235.018v-.176a.2.2,0,0,1,.2-.194.181.181,0,0,1,.039,0,3.993,3.993,0,0,0,4-1.314.2.2,0,0,1,.279-.032l.016.014a3.838,3.838,0,0,0,2.649.955.2.2,0,0,1,.19.194v.552a1.529,1.529,0,0,1,1.3.412v-2.767a2.111,2.111,0,0,0-2.1-2.107,2.088,2.088,0,0,0-1.075.3,2.106,2.106,0,0,0-1.8-1.03H81.081a3.815,3.815,0,0,0-3.8,3.8v1.7A1.526,1.526,0,0,1,78.237,134.8Zm0,0" transform="translate(-65.49 -110.556)" fill="#6d6c6b"/>
      <path id="Trazado_888744" data-name="Trazado 888744" d="M339.309,293.777H336.3a2.413,2.413,0,0,0-2.407,2.407v1.177a.326.326,0,0,0,.326.327h7.17a.326.326,0,0,0,.326-.326h0v-1.177A2.413,2.413,0,0,0,339.309,293.777Zm0,0" transform="translate(-284.345 -250.549)" fill="#c1814c"/>
      <path id="Trazado_888745" data-name="Trazado 888745" d="M262.731,355.992h-3.009a2.413,2.413,0,0,0-2.407,2.407v1.177a.326.326,0,0,0,.326.326h7.169a.326.326,0,0,0,.326-.325h0V358.4A2.413,2.413,0,0,0,262.731,355.992Zm0,0" transform="translate(-219.036 -303.609)" fill="#c1814c"/>
      <path id="Trazado_888746" data-name="Trazado 888746" d="M143.356,418.2h-3.009a2.413,2.413,0,0,0-2.407,2.407v1.177a.326.326,0,0,0,.326.326h7.17a.326.326,0,0,0,.326-.326h0V420.6A2.414,2.414,0,0,0,143.356,418.2Zm0,0" transform="translate(-117.227 -356.659)" fill="#c1814c"/>
      <path id="Trazado_888747" data-name="Trazado 888747" d="M66.779,480.4H63.77a2.413,2.413,0,0,0-2.407,2.407v1.177a.326.326,0,0,0,.326.327h7.17a.326.326,0,0,0,.326-.326h0V482.8A2.414,2.414,0,0,0,66.779,480.4Zm0,0" transform="translate(-51.917 -409.709)" fill="#c1814c"/>
      <path id="Trazado_888748" data-name="Trazado 888748" d="M331.628,40.355a1.526,1.526,0,0,0-.245.02c.005.082.009.165.009.249v2.539c0,.083,0,.166-.009.247a1.538,1.538,0,0,0,.494-3.036,1.639,1.639,0,0,0-.249-.02Zm0,0" transform="translate(-282.204 -34.418)" fill="#f9d0b4"/>
      <path id="Trazado_888749" data-name="Trazado 888749" d="M271.01,43.152v-2.54c0-.084,0-.167.009-.249a1.539,1.539,0,1,0,0,3.036c-.006-.081-.01-.164-.01-.247Zm0,0" transform="translate(-229.192 -34.407)" fill="#f9d0b4"/>
      <path id="Trazado_888750" data-name="Trazado 888750" d="M295.144,81.58v-.659a3.66,3.66,0,0,1-3.767-.007v.7a.976.976,0,0,1-.376.772l.543.977a.882.882,0,0,0,.771.454h1.893a.882.882,0,0,0,.771-.454l.555-1a.976.976,0,0,1-.389-.782Zm0,0" transform="translate(-247.763 -69.009)" fill="#f9d0b4"/>
      <path id="Trazado_888751" data-name="Trazado 888751" d="M331.628,40.355a1.526,1.526,0,0,0-.245.02c.005.082.009.165.009.249v2.539c0,.083,0,.166-.009.247a1.538,1.538,0,0,0,.494-3.036,1.639,1.639,0,0,0-.249-.02Zm0,0" transform="translate(-282.204 -34.418)" fill="#f9d0b4"/>
      <path id="Trazado_888752" data-name="Trazado 888752" d="M271.01,43.152v-2.54c0-.084,0-.167.009-.249a1.539,1.539,0,1,0,0,3.036c-.006-.081-.01-.164-.01-.247Zm0,0" transform="translate(-229.192 -34.407)" fill="#f9d0b4"/>
      <path id="Trazado_888753" data-name="Trazado 888753" d="M285.6,28.618a3.992,3.992,0,0,1-4,1.314.2.2,0,0,0-.233.151.228.228,0,0,0,0,.039v2.967a3.685,3.685,0,0,0,7.371,0V29.747a.2.2,0,0,0-.19-.194,3.845,3.845,0,0,1-2.649-.955.2.2,0,0,0-.28,0l-.015.017Zm0,0" transform="translate(-239.541 -24.343)" fill="#f9d0b4"/>
      <path id="Trazado_888754" data-name="Trazado 888754" d="M201.905,171.359l-.414,1.57a1.662,1.662,0,0,0,3.18.958c.007-.022.014-.043.021-.065l.454-1.543Zm0,0" transform="translate(-171.378 -146.145)" fill="#f9d0b4"/>
      <path id="Trazado_888755" data-name="Trazado 888755" d="M417.926,106.627l-1.255,1.156,2.422,2.546,1.216-1.15a1.746,1.746,0,1,0-2.384-2.552Zm0,0" transform="translate(-354.942 -90.537)" fill="#f9d0b4"/>
      <path id="Trazado_888756" data-name="Trazado 888756" d="M135.675,164.766a1.524,1.524,0,0,0-.245.02c.006.083.009.166.009.249v2.54c0,.083,0,.165-.009.247a1.538,1.538,0,0,0,.494-3.036A1.5,1.5,0,0,0,135.675,164.766Zm0,0" transform="translate(-115.085 -140.522)" fill="#f9d0b4"/>
      <path id="Trazado_888757" data-name="Trazado 888757" d="M75.06,167.563v-2.54c0-.083,0-.166.01-.249a1.539,1.539,0,0,0-.511,3.036,1.556,1.556,0,0,0,.511,0C75.064,167.729,75.06,167.646,75.06,167.563Zm0,0" transform="translate(-62.076 -140.511)" fill="#f9d0b4"/>
      <path id="Trazado_888758" data-name="Trazado 888758" d="M99.194,205.987v-.658a3.665,3.665,0,0,1-3.767-.009v.7a.975.975,0,0,1-.376.772l.543.977a.882.882,0,0,0,.771.454h1.893a.882.882,0,0,0,.771-.454l.555-1a.977.977,0,0,1-.389-.781Zm0,0" transform="translate(-80.648 -175.109)" fill="#f9d0b4"/>
      <path id="Trazado_888759" data-name="Trazado 888759" d="M135.675,164.766a1.524,1.524,0,0,0-.245.02c.006.083.009.166.009.249v2.54c0,.083,0,.165-.009.247a1.538,1.538,0,0,0,.494-3.036A1.5,1.5,0,0,0,135.675,164.766Zm0,0" transform="translate(-115.085 -140.522)" fill="#f9d0b4"/>
      <path id="Trazado_888760" data-name="Trazado 888760" d="M75.06,167.563v-2.54c0-.083,0-.166.01-.249a1.539,1.539,0,0,0-.511,3.036,1.556,1.556,0,0,0,.511,0C75.064,167.729,75.06,167.646,75.06,167.563Zm0,0" transform="translate(-62.076 -140.511)" fill="#f9d0b4"/>
      <path id="Trazado_888761" data-name="Trazado 888761" d="M89.643,153.028a3.993,3.993,0,0,1-4,1.314.2.2,0,0,0-.233.151.233.233,0,0,0,0,.04V157.5a3.685,3.685,0,0,0,7.37,0v-3.342a.2.2,0,0,0-.19-.194,3.845,3.845,0,0,1-2.649-.955.2.2,0,0,0-.281,0l-.014.016Zm0,0" transform="translate(-72.422 -130.446)" fill="#f9d0b4"/>
      <path id="Trazado_888762" data-name="Trazado 888762" d="M5.946,295.777l-.415,1.569a1.662,1.662,0,0,0,3.181.958c.007-.022.014-.043.02-.065l.454-1.543Zm0,0" transform="translate(-4.253 -252.255)" fill="#f9d0b4"/>
      <path id="Trazado_888763" data-name="Trazado 888763" d="M212.007,204.07a1.629,1.629,0,0,0-2.166.62l-.989,1.7,2.938,1.636.908-1.764A1.63,1.63,0,0,0,212.007,204.07Zm0,0" transform="translate(-177.703 -173.882)" fill="#f9d0b4"/>
      <path id="Trazado_888764" data-name="Trazado 888764" d="M382.536,23.112l.8-.736a1.74,1.74,0,0,1,1.175-.46L378.32,8.077a1.173,1.173,0,0,0-1.46-.643,1.148,1.148,0,0,0-.675,1.476c.009.023.018.045.028.067Zm0,0" transform="translate(-320.352 -6.286)" fill="#c1814c"/>
      <path id="Trazado_888765" data-name="Trazado 888765" d="M432.687,127.917,431.831,126c-.029.034-.061.068-.1.1l-1.665,1.576.524,1.172a1.146,1.146,0,1,0,2.092-.936Zm0,0" transform="translate(-366.37 -107.464)" fill="#c1814c"/>
      <path id="Trazado_888766" data-name="Trazado 888766" d="M392.551,15.383l3.261,7.289,6.417-7.244Zm0,0" transform="translate(-334.371 -13.12)" fill="#f75c64"/>
      <path id="Trazado_888767" data-name="Trazado 888767" d="M412.383,221.482h-13.2a1.471,1.471,0,1,1,0-2.943h13.2a1.471,1.471,0,0,1,0,2.943Zm0,0" transform="translate(-338.772 -186.382)" fill="#e9e9ea"/>
      <path id="Trazado_888768" data-name="Trazado 888768" d="M433.257,198.543h-4.185a1.6,1.6,0,0,0-1.6,1.6v1.342h7.387v-1.342a1.6,1.6,0,0,0-1.6-1.6Zm0,0" transform="translate(-364.154 -169.329)" fill="#e9e9ea"/>
      <path id="Trazado_888769" data-name="Trazado 888769" d="M407.6,238.539h12.891v39.5H407.6Zm0,0" transform="translate(-347.204 -203.439)" fill="#ffae2c"/>
      <path id="Trazado_888770" data-name="Trazado 888770" d="M319.992,320.367h12.891v27.459H319.992Zm0,0" transform="translate(-272.489 -273.226)" fill="#fcd770"/>
      <path id="Trazado_888771" data-name="Trazado 888771" d="M232.391,382.57h12.891v18.306H232.391Zm0,0" transform="translate(-197.778 -326.276)" fill="#ffae2c"/>
      <path id="Trazado_888772" data-name="Trazado 888772" d="M144.785,444.773h12.891v9.153H144.785Zm0,0" transform="translate(-123.064 -379.326)" fill="#fcd770"/>
      <path id="Trazado_888773" data-name="Trazado 888773" d="M166.4,2.631A3.258,3.258,0,0,1,163.815.045.06.06,0,0,0,163.744,0a.06.06,0,0,0-.044.045,3.258,3.258,0,0,1-2.586,2.586.059.059,0,0,0,0,.114A3.259,3.259,0,0,1,163.7,5.331a.059.059,0,0,0,.07.045.06.06,0,0,0,.045-.045A3.258,3.258,0,0,1,166.4,2.745a.059.059,0,0,0,0-.114Zm0,0" transform="translate(-136.95)" fill="#ffae2c"/>
      <path id="Trazado_888774" data-name="Trazado 888774" d="M20.3,379.049H17.744a.736.736,0,1,1,0-1.471H20.3a.736.736,0,0,1,0,1.471Zm0,0" transform="translate(-14.089 -322.019)" fill="#60bae2"/>
      <path id="Trazado_888775" data-name="Trazado 888775" d="M26.431,372.908a.736.736,0,0,1-.736-.736v-2.557a.736.736,0,0,1,1.471,0v2.557A.736.736,0,0,1,26.431,372.908Zm0,0" transform="translate(-21.498 -314.6)" fill="#60bae2"/>
      <path id="Trazado_888776" data-name="Trazado 888776" d="M488.343,118.94h-2.556a.736.736,0,0,1,0-1.471h2.557a.736.736,0,0,1,0,1.471Zm0,0" transform="translate(-413.259 -100.185)" fill="#f75c64"/>
      <path id="Trazado_888777" data-name="Trazado 888777" d="M494.466,112.806a.736.736,0,0,1-.736-.736v-2.557a.736.736,0,0,1,1.471,0v2.557A.736.736,0,0,1,494.466,112.806Zm0,0" transform="translate(-420.661 -92.772)" fill="#f75c64"/>
      <path id="Trazado_888778" data-name="Trazado 888778" d="M473.4,165.8a.733.733,0,0,1-.612-.326.827.827,0,0,1-.068-.128.762.762,0,0,1-.041-.137.679.679,0,0,1-.015-.144.672.672,0,0,1,.015-.144.762.762,0,0,1,.041-.137.8.8,0,0,1,.068-.128.735.735,0,0,1,.893-.271.784.784,0,0,1,.126.068.683.683,0,0,1,.112.091.772.772,0,0,1,.091.112.755.755,0,0,1,.067.128.725.725,0,0,1,.043.137.8.8,0,0,1,.014.144.814.814,0,0,1-.014.144.725.725,0,0,1-.043.137.711.711,0,0,1-.159.24.683.683,0,0,1-.112.091.833.833,0,0,1-.126.068.776.776,0,0,1-.138.041A.665.665,0,0,1,473.4,165.8Zm0,0" transform="translate(-402.695 -140.153)" fill="#fcd770"/>
      <path id="Trazado_888779" data-name="Trazado 888779" d="M209.556,65.1a.733.733,0,0,1-.612-.326.8.8,0,0,1-.068-.128.763.763,0,0,1-.041-.137.672.672,0,0,1-.015-.144.68.68,0,0,1,.015-.144.763.763,0,0,1,.041-.137.827.827,0,0,1,.068-.128.735.735,0,0,1,.893-.271.833.833,0,0,1,.126.068.683.683,0,0,1,.112.091.712.712,0,0,1,.159.24.725.725,0,0,1,.043.137.814.814,0,0,1,.014.144.8.8,0,0,1-.014.144.725.725,0,0,1-.043.137.755.755,0,0,1-.067.128.773.773,0,0,1-.091.112.655.655,0,0,1-.112.091.785.785,0,0,1-.126.068.725.725,0,0,1-.139.041A.655.655,0,0,1,209.556,65.1Zm0,0" transform="translate(-177.676 -54.265)" fill="#6dcc6d"/>
      <path id="Trazado_888780" data-name="Trazado 888780" d="M408.119,217.953h-13.2a2.207,2.207,0,1,1,0-4.414h13.2a2.207,2.207,0,1,1,0,4.414Zm-13.2-2.943a.736.736,0,1,0,0,1.471h13.2a.736.736,0,1,0,0-1.471Zm0,0" transform="translate(-334.507 -182.118)" fill="#231f20"/>
      <path id="Trazado_888781" data-name="Trazado 888781" d="M430.587,197.957H423.2a.736.736,0,0,1-.736-.736v-1.342a2.339,2.339,0,0,1,2.336-2.336h4.185a2.339,2.339,0,0,1,2.337,2.336v1.342A.736.736,0,0,1,430.587,197.957Zm-6.651-1.471h5.915v-.606a.866.866,0,0,0-.865-.865H424.8a.866.866,0,0,0-.865.865Zm0,0" transform="translate(-359.883 -165.064)" fill="#231f20"/>
      <path id="Trazado_888782" data-name="Trazado 888782" d="M391.546,19.139a.736.736,0,0,1-.671-.435l-3.261-7.29a.737.737,0,0,1,.055-.7.717.717,0,0,1,.62-.335l9.677.045a.736.736,0,0,1,.548,1.223L392.1,18.891a.733.733,0,0,1-.551.248Zm-2.123-7.284,2.329,5.207,4.583-5.174Zm0,0" transform="translate(-330.106 -8.852)" fill="#231f20"/>
      <path id="Trazado_888783" data-name="Trazado 888783" d="M331.628,40.355a1.526,1.526,0,0,0-.245.02c.005.082.009.165.009.249v2.539c0,.083,0,.166-.009.247a1.538,1.538,0,0,0,.494-3.036,1.639,1.639,0,0,0-.249-.02Zm0,0" transform="translate(-282.204 -34.418)" fill="#f9d0b4"/>
      <path id="Trazado_888784" data-name="Trazado 888784" d="M271.01,43.152v-2.54c0-.084,0-.167.009-.249a1.539,1.539,0,1,0,0,3.036c-.006-.081-.01-.164-.01-.247Zm0,0" transform="translate(-229.192 -34.407)" fill="#f9d0b4"/>
      <path id="Trazado_888785" data-name="Trazado 888785" d="M302.142,111.671a.734.734,0,0,1-.736-.731v0a.731.731,0,0,1,.215-.521.759.759,0,0,1,1.039,0,.732.732,0,0,1,.218.521.746.746,0,0,1-.218.521.754.754,0,0,1-.238.159A.744.744,0,0,1,302.142,111.671Zm0,0" transform="translate(-256.638 -93.993)" fill="#231f20"/>
      <path id="Trazado_888786" data-name="Trazado 888786" d="M302.141,130.193a.746.746,0,0,1-.521-.214.806.806,0,0,1-.091-.112.816.816,0,0,1-.068-.127.872.872,0,0,1-.041-.139.606.606,0,0,1-.015-.144.749.749,0,0,1,.012-.144.773.773,0,0,1,.112-.265.659.659,0,0,1,.091-.112.766.766,0,0,1,1.042,0,.847.847,0,0,1,.091.112,1.024,1.024,0,0,1,.068.126.781.781,0,0,1,.041.139.735.735,0,0,1,0,.288.649.649,0,0,1-.044.139.715.715,0,0,1-.065.127c-.029.038-.059.076-.091.112A.748.748,0,0,1,302.141,130.193Zm0,0" transform="translate(-256.638 -109.791)" fill="#231f20"/>
      <path id="Trazado_888787" data-name="Trazado 888787" d="M302.143,148.651a.644.644,0,0,1-.144-.015.762.762,0,0,1-.138-.041.628.628,0,0,1-.127-.068.807.807,0,0,1-.112-.091.85.85,0,0,1-.091-.112.743.743,0,0,1-.109-.553.89.89,0,0,1,.041-.139.816.816,0,0,1,.068-.127.658.658,0,0,1,.091-.109.732.732,0,0,1,.665-.2.768.768,0,0,1,.136.041.838.838,0,0,1,.126.068.579.579,0,0,1,.112.094.627.627,0,0,1,.094.109,1.074,1.074,0,0,1,.068.127.833.833,0,0,1,.041.139.857.857,0,0,1,.014.144.739.739,0,0,1-.218.521.68.68,0,0,1-.112.091.636.636,0,0,1-.126.067.7.7,0,0,1-.136.041A.606.606,0,0,1,302.143,148.651Zm0,0" transform="translate(-256.639 -125.523)" fill="#231f20"/>
      <path id="Trazado_888788" data-name="Trazado 888788" d="M302.143,167.183a.583.583,0,0,1-.144-.014.763.763,0,0,1-.138-.042.626.626,0,0,1-.127-.067.567.567,0,0,1-.112-.091.74.74,0,0,1,0-1.042.708.708,0,0,1,.112-.091.658.658,0,0,1,.127-.068.734.734,0,0,1,.562,0,.671.671,0,0,1,.126.068.914.914,0,0,1,.114.091c.033.036.062.074.091.112a.863.863,0,0,1,.068.129.738.738,0,0,1,.041.136.731.731,0,0,1,0,.289.776.776,0,0,1-.041.138.953.953,0,0,1-.068.126,1.213,1.213,0,0,1-.091.112.649.649,0,0,1-.114.091.637.637,0,0,1-.126.067.768.768,0,0,1-.136.042A.606.606,0,0,1,302.143,167.183Zm0,0" transform="translate(-256.639 -141.329)" fill="#231f20"/>
      <path id="Trazado_888789" data-name="Trazado 888789" d="M289.951,80.285h-1.892a1.618,1.618,0,0,1-1.413-.832l-.543-.977a.736.736,0,0,1,.189-.936.243.243,0,0,0,.095-.193v-.7a.736.736,0,0,1,1.115-.631,2.972,2.972,0,0,0,3.011.006.736.736,0,0,1,1.113.632v.659a.242.242,0,0,0,.1.2.735.735,0,0,1,.2.942l-.555,1a1.62,1.62,0,0,1-1.416.833ZM287.631,78.2l.3.539a.148.148,0,0,0,.128.075h1.892a.148.148,0,0,0,.128-.075l.309-.555a1.7,1.7,0,0,1-.181-.439,4.426,4.426,0,0,1-2.4,0A1.677,1.677,0,0,1,287.631,78.2Zm0,0" transform="translate(-243.508 -64.744)" fill="#231f20"/>
      <path id="Trazado_888790" data-name="Trazado 888790" d="M327.357,39.906a2.255,2.255,0,0,1-.363-.031.736.736,0,0,1-.618-.777c0-.066.007-.131.007-.2v-2.54c0-.068,0-.134-.007-.2a.736.736,0,0,1,.618-.775,2.274,2.274,0,0,1,.714,4.492,2.251,2.251,0,0,1-.352.029Zm.5-2.9v1.257a.8.8,0,0,0,0-1.257Zm0,0" transform="translate(-277.932 -30.155)" fill="#231f20"/>
      <path id="Trazado_888791" data-name="Trazado 888791" d="M266.551,39.9a2.275,2.275,0,1,1,.363-4.519.735.735,0,0,1,.618.776c0,.066-.007.132-.007.2V38.9c0,.067,0,.132.007.2a.735.735,0,0,1-.618.775,2.268,2.268,0,0,1-.363.031Zm-.5-2.9a.8.8,0,0,0-.13,1.127.817.817,0,0,0,.13.13Zm0,0" transform="translate(-224.969 -30.154)" fill="#231f20"/>
      <path id="Trazado_888792" data-name="Trazado 888792" d="M280.78,33.259a4.426,4.426,0,0,1-4.421-4.421V25.874a.931.931,0,0,1,1.124-.912,3.246,3.246,0,0,0,3.273-1.051.935.935,0,0,1,.675-.351.954.954,0,0,1,.712.266,3.127,3.127,0,0,0,2.153.745.932.932,0,0,1,.9.913v3.355a4.426,4.426,0,0,1-4.42,4.421Zm-2.949-6.766v2.345a2.949,2.949,0,1,0,5.9,0V26a4.674,4.674,0,0,1-2.184-.773,4.65,4.65,0,0,1-3.714,1.262Zm4.076-1.667" transform="translate(-235.276 -20.092)" fill="#231f20"/>
      <path id="Trazado_888793" data-name="Trazado 888793" d="M278.837,7.292a.735.735,0,0,1-.511-.206.809.809,0,0,0-.679-.216.736.736,0,0,1-.848-.727V6.1a4.67,4.67,0,0,1-2.184-.773,4.687,4.687,0,0,1-3.855,1.249.736.736,0,0,1-.71.294.789.789,0,0,0-.623.166.735.735,0,0,1-1.2-.575v-1.7A4.545,4.545,0,0,1,272.77.219h1.081a2.855,2.855,0,0,1,2.031.862,2.8,2.8,0,0,1,.85-.132,2.844,2.844,0,0,1,2.841,2.84V6.556a.736.736,0,0,1-.736.736Zm-6.066-5.6A3.071,3.071,0,0,0,269.7,4.758v.55c.021-.021.044-.042.068-.062a.93.93,0,0,1,.781-.19,3.246,3.246,0,0,0,3.273-1.051.935.935,0,0,1,.675-.354.956.956,0,0,1,.712.267,3.13,3.13,0,0,0,2.153.744.928.928,0,0,1,.736.4V3.789a1.37,1.37,0,0,0-1.367-1.369,1.354,1.354,0,0,0-.7.195.736.736,0,0,1-1.009-.252,1.379,1.379,0,0,0-1.174-.673Zm1.409,3.279" transform="translate(-228.344 -0.188)" fill="#231f20"/>
      <path id="Trazado_888794" data-name="Trazado 888794" d="M198.842,94.359a2.4,2.4,0,0,1-2.322-3.011l1.39-5.272a6.625,6.625,0,0,1,1.946-3.213l4.294-3.914a5.245,5.245,0,0,1,3.541-1.372h1.845a.739.739,0,0,1,.159.018.246.246,0,0,0,.294-.186.282.282,0,0,0,.006-.053v-.7a.735.735,0,0,1,1.115-.63,2.973,2.973,0,0,0,3.011.006.736.736,0,0,1,1.113.632v.657a.247.247,0,0,0,.246.247.229.229,0,0,0,.059-.007.731.731,0,0,1,.176-.022h2.436a3.9,3.9,0,0,1,2.83,1.223l4.779,5.078L229.6,80.3a2.482,2.482,0,0,1,3.387,3.628l-4.72,4.466a3.626,3.626,0,0,1-5.06-.139L219,83.944V92.5a.736.736,0,0,1-.736.736h-11.3a.736.736,0,0,1-.736-.736V84.016l-3.336,3.131a.989.989,0,0,0-.272.441l-1.483,5.047a2.4,2.4,0,0,1-2.3,1.723Zm8.851-15.311a3.778,3.778,0,0,0-2.55.988l-4.294,3.914a5.152,5.152,0,0,0-1.515,2.5l-1.389,5.272a.926.926,0,0,0,1.773.533c0-.012.008-.024.012-.036l1.482-5.048a2.467,2.467,0,0,1,.677-1.1l4.029-3.782a1.06,1.06,0,0,1,1.785.773v8.7h9.83V82.9a1.044,1.044,0,0,1,1.8-.723l4.934,5.054a2.157,2.157,0,0,0,3.006.089l4.709-4.456a1.01,1.01,0,1,0-1.378-1.476l-4.377,4.034a.736.736,0,0,1-1.034-.037l-5.278-5.608a2.425,2.425,0,0,0-1.758-.759h-2.359a1.719,1.719,0,0,1-1.977-1.259,4.428,4.428,0,0,1-2.4,0,1.719,1.719,0,0,1-1.953,1.3ZM218.273,83.2l0,0Zm0,0" transform="translate(-167.119 -64.751)" fill="#231f20"/>
      <path id="Trazado_888795" data-name="Trazado 888795" d="M198.842,171.489a2.4,2.4,0,0,1-2.322-3.011l.414-1.57a.735.735,0,0,1,.9-.524l.013,0,3.241.92a.736.736,0,0,1,.507.909l0,.006-.454,1.543a2.4,2.4,0,0,1-2.3,1.723Zm-.677-3.48-.223.845a.926.926,0,0,0,1.773.533c0-.012.008-.024.011-.036l.244-.83Zm0,0" transform="translate(-167.119 -141.881)" fill="#231f20"/>
      <path id="Trazado_888796" data-name="Trazado 888796" d="M414.831,106.911a.733.733,0,0,1-.533-.229l-2.421-2.546a.735.735,0,0,1,.026-1.04l.008-.008,1.255-1.157a2.482,2.482,0,0,1,3.387,3.628l-1.216,1.15A.735.735,0,0,1,414.831,106.911Zm-1.373-3.247,1.4,1.471.682-.648a1.01,1.01,0,1,0-1.378-1.476Zm0,0" transform="translate(-350.68 -86.384)" fill="#231f20"/>
      <path id="Trazado_888797" data-name="Trazado 888797" d="M337.126,294.161h-7.17a1.063,1.063,0,0,1-1.062-1.062v-1.177a3.146,3.146,0,0,1,3.142-3.145h3.009a3.146,3.146,0,0,1,3.142,3.144V293.1A1.063,1.063,0,0,1,337.126,294.161Zm-6.76-1.471h6.35v-.769a1.673,1.673,0,0,0-1.671-1.671h-3.009a1.673,1.673,0,0,0-1.671,1.671Zm0,0" transform="translate(-280.081 -246.285)" fill="#231f20"/>
      <path id="Trazado_888798" data-name="Trazado 888798" d="M260.547,356.386h-7.169a1.063,1.063,0,0,1-1.062-1.062v-1.177A3.146,3.146,0,0,1,255.459,351h3.009a3.147,3.147,0,0,1,3.143,3.143v1.177A1.063,1.063,0,0,1,260.547,356.386Zm-6.76-1.471h6.351v-.768a1.673,1.673,0,0,0-1.672-1.672h-3.007a1.673,1.673,0,0,0-1.671,1.672Zm0,0" transform="translate(-214.772 -299.355)" fill="#231f20"/>
      <path id="Trazado_888799" data-name="Trazado 888799" d="M263.689,209.873a.736.736,0,0,1-.736-.736V184.353a.736.736,0,0,1,.736-.736h12.482a4.053,4.053,0,0,1,4.049,4.048v12.262a.736.736,0,0,1-.944.706,1.663,1.663,0,0,0-.469-.069H275.8a1.644,1.644,0,0,0-.559.1.735.735,0,0,1-.941-.443.723.723,0,0,1-.044-.249V189.581h-4.474a.865.865,0,0,0-.864.865v18.627a.736.736,0,0,1-.736.736.722.722,0,0,1-.2-.028,1.645,1.645,0,0,0-.445-.063H264.53a1.643,1.643,0,0,0-.583.109.733.733,0,0,1-.259.047Zm.736-24.784v23.159l.106,0h2.916v-17.8a2.339,2.339,0,0,1,2.336-2.336h5.209a.736.736,0,0,1,.736.736v10.248h3.022V187.665a2.581,2.581,0,0,0-2.577-2.577Zm0,0" transform="translate(-223.843 -156.599)" fill="#231f20"/>
      <path id="Trazado_888800" data-name="Trazado 888800" d="M263.689,338.7a.736.736,0,0,1-.736-.736v-2.557a.736.736,0,0,1,.736-.736h4.493a.736.736,0,0,1,.736.736V337.9a.736.736,0,0,1-.736.736.724.724,0,0,1-.2-.028,1.641,1.641,0,0,0-.445-.063H264.53a1.642,1.642,0,0,0-.583.109A.733.733,0,0,1,263.689,338.7Zm.736-2.557v.932l.106,0h2.916v-.93Zm0,0" transform="translate(-223.843 -285.426)" fill="#231f20"/>
      <path id="Trazado_888801" data-name="Trazado 888801" d="M340.5,276.484a.735.735,0,0,1-.736-.736V273.2a.736.736,0,0,1,.736-.736h4.493a.736.736,0,0,1,.736.736v2.5a.736.736,0,0,1-.735.736.751.751,0,0,1-.209-.03,1.643,1.643,0,0,0-.469-.069h-3.009a1.657,1.657,0,0,0-.559.1A.715.715,0,0,1,340.5,276.484Zm.736-2.544v.931h3.022v-.93Zm0,0" transform="translate(-289.35 -232.376)" fill="#231f20"/>
      <path id="Trazado_888802" data-name="Trazado 888802" d="M378.266,19.573a.735.735,0,0,1-.671-.435L371.27,5a1.884,1.884,0,0,1,.952-2.488c.037-.016.074-.031.112-.045A1.906,1.906,0,0,1,374.721,3.5l6.191,13.84a.735.735,0,0,1-.668,1.036,1.01,1.01,0,0,0-.68.265l-.8.736a.737.737,0,0,1-.5.2ZM372.972,3.824a.36.36,0,0,0-.125.022.411.411,0,0,0-.245.527c0,.009.007.018.011.027l5.907,13.2.047-.043a2.473,2.473,0,0,1,.641-.428L373.378,4.1a.459.459,0,0,0-.406-.276Zm0,0" transform="translate(-316.081 -2.011)" fill="#231f20"/>
      <path id="Trazado_888803" data-name="Trazado 888803" d="M427.378,126.025a1.883,1.883,0,0,1-1.721-1.113l-.524-1.171a.735.735,0,0,1,.166-.835l1.665-1.576c.02-.018.036-.037.053-.056a.737.737,0,0,1,1.22.19l.855,1.913a1.881,1.881,0,0,1-1.715,2.649Zm-.689-2.409.311.695a.41.41,0,1,0,.749-.335l-.429-.958Zm0,0" transform="translate(-362.103 -103.221)" fill="#231f20"/>
      <path id="Trazado_888804" data-name="Trazado 888804" d="M135.675,164.766a1.524,1.524,0,0,0-.245.02c.006.083.009.166.009.249v2.54c0,.083,0,.165-.009.247a1.538,1.538,0,0,0,.494-3.036A1.5,1.5,0,0,0,135.675,164.766Zm0,0" transform="translate(-115.085 -140.522)" fill="#f9d0b4"/>
      <path id="Trazado_888805" data-name="Trazado 888805" d="M75.06,167.563v-2.54c0-.083,0-.166.01-.249a1.539,1.539,0,0,0-.511,3.036,1.556,1.556,0,0,0,.511,0C75.064,167.729,75.06,167.646,75.06,167.563Zm0,0" transform="translate(-62.076 -140.511)" fill="#f9d0b4"/>
      <g id="Grupo_1117749" data-name="Grupo 1117749" transform="translate(0.488 18.338)">
        <path id="Trazado_888806" data-name="Trazado 888806" d="M106.178,236.01a.736.736,0,0,1-.521-1.257c.036-.032.074-.062.112-.091a1.026,1.026,0,0,1,.126-.068.819.819,0,0,1,.139-.041.7.7,0,0,1,.288,0,.819.819,0,0,1,.139.041,1.069,1.069,0,0,1,.126.068,1.213,1.213,0,0,1,.112.091.736.736,0,0,1-.521,1.257Zm0,0" transform="translate(-89.997 -218.365)" fill="#231f20"/>
        <path id="Trazado_888807" data-name="Trazado 888807" d="M106.185,254.54a.6.6,0,0,1-.144-.014.833.833,0,0,1-.139-.041.743.743,0,0,1-.126-.068.815.815,0,0,1-.112-.091.779.779,0,0,1-.091-.112.655.655,0,0,1-.067-.127.72.72,0,0,1-.041-.138.813.813,0,0,1-.015-.144.764.764,0,0,1,.015-.141.731.731,0,0,1,.041-.139.667.667,0,0,1,.067-.126.744.744,0,0,1,.091-.112.779.779,0,0,1,.112-.091.757.757,0,0,1,.126-.071.817.817,0,0,1,.139-.041.782.782,0,0,1,.288,0,.724.724,0,0,1,.139.041.757.757,0,0,1,.126.071.66.66,0,0,1,.112.091.706.706,0,0,1,.091.112.67.67,0,0,1,.068.126.775.775,0,0,1,.041.139.714.714,0,0,1,0,.285.719.719,0,0,1-.041.138.657.657,0,0,1-.068.127.724.724,0,0,1-.612.326Zm0,0" transform="translate(-90.004 -234.17)" fill="#231f20"/>
        <path id="Trazado_888808" data-name="Trazado 888808" d="M106.185,273.056a.8.8,0,0,1-.144-.012A.821.821,0,0,1,105.9,273a.742.742,0,0,1-.126-.068.778.778,0,0,1-.112-.091.745.745,0,0,1-.091-.112.9.9,0,0,1-.067-.127.713.713,0,0,1-.041-.139.775.775,0,0,1-.015-.141.813.813,0,0,1,.015-.144.72.72,0,0,1,.041-.138.654.654,0,0,1,.067-.127.7.7,0,0,1,.2-.2.7.7,0,0,1,.126-.068.824.824,0,0,1,.139-.044.727.727,0,0,1,.553.112.776.776,0,0,1,.112.091.7.7,0,0,1,.091.112.656.656,0,0,1,.068.127.725.725,0,0,1,.041.139.714.714,0,0,1,0,.285.783.783,0,0,1-.041.139.67.67,0,0,1-.068.126.738.738,0,0,1-.091.112.773.773,0,0,1-.112.091.7.7,0,0,1-.126.068.762.762,0,0,1-.139.044A.808.808,0,0,1,106.185,273.056Zm0,0" transform="translate(-90.004 -249.961)" fill="#231f20"/>
        <path id="Trazado_888809" data-name="Trazado 888809" d="M106.178,291.642a.736.736,0,0,1-.521-1.257.761.761,0,0,1,1.042,0,.653.653,0,0,1,.091.112.671.671,0,0,1,.068.126.768.768,0,0,1,.041.139.753.753,0,0,1,.014.144.813.813,0,0,1-.014.144.748.748,0,0,1-.041.135.671.671,0,0,1-.068.126.877.877,0,0,1-.091.115.853.853,0,0,1-.112.091.985.985,0,0,1-.126.067.769.769,0,0,1-.139.042A.867.867,0,0,1,106.178,291.642Zm0,0" transform="translate(-89.997 -265.818)" fill="#231f20"/>
        <path id="Trazado_888810" data-name="Trazado 888810" d="M94,204.691H92.107a1.619,1.619,0,0,1-1.413-.832l-.543-.977a.736.736,0,0,1,.189-.936.243.243,0,0,0,.095-.193v-.7a.735.735,0,0,1,1.115-.63,2.973,2.973,0,0,0,3.011.005.736.736,0,0,1,1.113.632v.659a.241.241,0,0,0,.1.2.736.736,0,0,1,.2.942l-.556,1a1.619,1.619,0,0,1-1.415.831Zm-2.319-2.085.3.539a.147.147,0,0,0,.128.075H94a.147.147,0,0,0,.128-.075l.309-.555a1.7,1.7,0,0,1-.181-.439,4.426,4.426,0,0,1-2.4,0,1.733,1.733,0,0,1-.18.455Zm0,0" transform="translate(-76.879 -189.182)" fill="#231f20"/>
        <path id="Trazado_888811" data-name="Trazado 888811" d="M131.4,164.313a2.253,2.253,0,0,1-.363-.031.735.735,0,0,1-.618-.775c0-.066.007-.132.007-.2v-2.54c0-.067,0-.133-.007-.2a.735.735,0,0,1,.618-.775,2.274,2.274,0,1,1,.363,4.519Zm.5-2.9v1.257a.8.8,0,0,0,.13-1.127A.816.816,0,0,0,131.906,161.41Zm0,0" transform="translate(-111.303 -154.594)" fill="#231f20"/>
        <path id="Trazado_888812" data-name="Trazado 888812" d="M70.6,164.314a2.274,2.274,0,1,1-.007-4.548,2.218,2.218,0,0,1,.37.029.736.736,0,0,1,.616.775c0,.067-.007.133-.007.2v2.54c0,.067,0,.132.007.2a.735.735,0,0,1-.618.775,2.241,2.241,0,0,1-.361.031Zm-.5-2.9a.8.8,0,0,0-.13,1.127.772.772,0,0,0,.13.13Zm0,0" transform="translate(-58.339 -154.595)" fill="#231f20"/>
        <path id="Trazado_888813" data-name="Trazado 888813" d="M84.827,157.665a4.426,4.426,0,0,1-4.421-4.421V150.28a.933.933,0,0,1,.933-.932.968.968,0,0,1,.191.02,3.244,3.244,0,0,0,3.273-1.051.935.935,0,0,1,1.313-.149c.025.02.049.042.073.064a3.129,3.129,0,0,0,2.153.745.933.933,0,0,1,.9.915v3.353a4.426,4.426,0,0,1-4.42,4.421ZM81.877,150.9v2.345a2.949,2.949,0,0,0,5.9,0v-2.836a4.662,4.662,0,0,1-2.184-.771,4.645,4.645,0,0,1-3.715,1.262Zm4.076-1.668" transform="translate(-68.646 -144.53)" fill="#231f20"/>
        <path id="Trazado_888814" data-name="Trazado 888814" d="M82.88,131.7a.738.738,0,0,1-.511-.206.809.809,0,0,0-.679-.216.735.735,0,0,1-.84-.613.746.746,0,0,1-.009-.113v-.047a4.662,4.662,0,0,1-2.184-.771,4.686,4.686,0,0,1-3.856,1.25.734.734,0,0,1-.709.294.788.788,0,0,0-.623.166.736.736,0,0,1-1.2-.575v-1.7a4.544,4.544,0,0,1,4.54-4.539h1.081a2.848,2.848,0,0,1,2.03.862,2.805,2.805,0,0,1,.85-.132,2.844,2.844,0,0,1,2.841,2.841v2.767a.736.736,0,0,1-.736.736Zm-6.066-5.6a3.071,3.071,0,0,0-3.068,3.068v.55c.022-.022.045-.043.068-.062a.937.937,0,0,1,.78-.19,3.244,3.244,0,0,0,3.273-1.051.935.935,0,0,1,1.313-.151.879.879,0,0,1,.073.065,3.129,3.129,0,0,0,2.154.745.93.93,0,0,1,.736.4V128.2a1.361,1.361,0,0,0-2.064-1.174.736.736,0,0,1-1.01-.252h0a1.378,1.378,0,0,0-1.174-.673Zm0,0" transform="translate(-61.711 -124.629)" fill="#231f20"/>
        <path id="Trazado_888815" data-name="Trazado 888815" d="M2.889,217.528a2.4,2.4,0,0,1-2.322-3.011l1.522-5.77a4.885,4.885,0,0,1,1.434-2.367L8.7,201.662a3.506,3.506,0,0,1,2.366-.917h2.522a.743.743,0,0,1,.159.018.246.246,0,0,0,.293-.186.242.242,0,0,0,.006-.053v-.7a.735.735,0,0,1,1.115-.63,2.973,2.973,0,0,0,3.011.006.735.735,0,0,1,1.113.632v.659a.246.246,0,0,0,.246.246.226.226,0,0,0,.059-.007.735.735,0,0,1,.177-.021h2.263a5.572,5.572,0,0,1,3.213,1.013l3.751,2.629,2.512-4.3a2.365,2.365,0,0,1,4.145,2.275l-2.884,5.6-.018.032a4.113,4.113,0,0,1-5.622,1.5c-.051-.03-.1-.061-.152-.093l-3.923-2.508v8.819a.736.736,0,0,1-.736.736h-11.3a.736.736,0,0,1-.736-.736v-8.49L6.745,210.5l-1.56,5.3a2.4,2.4,0,0,1-2.3,1.723Zm8.175-15.31a2.034,2.034,0,0,0-1.374.533l-5.174,4.717a3.417,3.417,0,0,0-1,1.655l-1.522,5.77a.926.926,0,0,0,1.773.533c0-.012.008-.024.011-.036l1.615-5.5a.735.735,0,0,1,.2-.329l4.916-4.615a.736.736,0,0,1,1.239.536v9.453h9.83v-8.873a1.044,1.044,0,0,1,1.716-.8l4.471,2.859a2.64,2.64,0,0,0,3.648-.8l.052-.084,2.875-5.586a.894.894,0,0,0-1.566-.86l-2.608,4.467c-.007.012-.014.024-.022.036a1.324,1.324,0,0,1-1.835.374l-.03-.02-3.881-2.722a4.107,4.107,0,0,0-2.368-.747H19.841a1.719,1.719,0,0,1-1.977-1.259,4.439,4.439,0,0,1-2.4,0,1.719,1.719,0,0,1-1.953,1.3Zm0,0" transform="translate(-0.488 -187.951)" fill="#231f20"/>
        <path id="Trazado_888816" data-name="Trazado 888816" d="M2.889,295.9a2.4,2.4,0,0,1-2.322-3.011l.414-1.57a.736.736,0,0,1,.9-.524l.013,0,3.24.92a.736.736,0,0,1,.507.909l0,.007-.454,1.542a2.4,2.4,0,0,1-2.3,1.723Zm-.676-3.48-.223.846a.926.926,0,0,0,1.773.532l.011-.035.244-.831Zm0,0" transform="translate(-0.488 -266.32)" fill="#231f20"/>
        <path id="Trazado_888817" data-name="Trazado 888817" d="M141.173,418.588H134a1.063,1.063,0,0,1-1.062-1.062v-1.177a3.146,3.146,0,0,1,3.142-3.142h3.009a3.146,3.146,0,0,1,3.142,3.142v1.177A1.063,1.063,0,0,1,141.173,418.588Zm-6.76-1.471h6.35v-.769a1.672,1.672,0,0,0-1.671-1.671h-3.009a1.672,1.672,0,0,0-1.671,1.671Zm0,0" transform="translate(-113.451 -370.743)" fill="#231f20"/>
        <path id="Trazado_888818" data-name="Trazado 888818" d="M64.6,480.781h-7.17a1.062,1.062,0,0,1-1.062-1.061v-1.177a3.146,3.146,0,0,1,3.142-3.144h3.009a3.146,3.146,0,0,1,3.142,3.142v1.177A1.063,1.063,0,0,1,64.6,480.781Zm-6.76-1.471h6.35v-.768a1.673,1.673,0,0,0-1.671-1.672H59.506a1.673,1.673,0,0,0-1.671,1.672Zm0,0" transform="translate(-48.142 -423.783)" fill="#231f20"/>
        <path id="Trazado_888819" data-name="Trazado 888819" d="M67.74,334.279a.736.736,0,0,1-.736-.736V308.759a.736.736,0,0,1,.736-.736H80.221a4.054,4.054,0,0,1,4.049,4.049v12.262a.735.735,0,0,1-.944.706,1.656,1.656,0,0,0-.468-.068H79.849a1.643,1.643,0,0,0-.559.1.735.735,0,0,1-.983-.691V313.988H73.833a.866.866,0,0,0-.865.865v18.626a.736.736,0,0,1-.736.736.727.727,0,0,1-.2-.028,1.687,1.687,0,0,0-.445-.063H68.581a1.652,1.652,0,0,0-.582.109.738.738,0,0,1-.259.047Zm.736-24.785v23.159l.105,0H71.5v-17.8a2.339,2.339,0,0,1,2.336-2.336h5.209a.736.736,0,0,1,.736.736V323.5H82.8V312.072a2.581,2.581,0,0,0-2.577-2.577Zm0,0" transform="translate(-57.216 -281.037)" fill="#231f20"/>
        <path id="Trazado_888820" data-name="Trazado 888820" d="M67.74,463.11a.736.736,0,0,1-.736-.736v-2.557a.736.736,0,0,1,.736-.736h4.493a.735.735,0,0,1,.736.736v2.492a.736.736,0,0,1-.736.736.727.727,0,0,1-.2-.028,1.687,1.687,0,0,0-.445-.063H68.581a1.651,1.651,0,0,0-.582.109.738.738,0,0,1-.259.047Zm.736-2.557v.931l.105,0H71.5v-.929Zm0,0" transform="translate(-57.216 -409.867)" fill="#231f20"/>
        <path id="Trazado_888821" data-name="Trazado 888821" d="M144.549,400.9a.736.736,0,0,1-.736-.736v-2.545a.736.736,0,0,1,.736-.736h4.493a.736.736,0,0,1,.736.736v2.5a.736.736,0,0,1-.735.736.758.758,0,0,1-.209-.03,1.636,1.636,0,0,0-.468-.069h-3.009a1.643,1.643,0,0,0-.559.1A.728.728,0,0,1,144.549,400.9Zm.736-2.545v.931h3.021v-.93Zm0,0" transform="translate(-122.723 -356.824)" fill="#231f20"/>
        <path id="Trazado_888822" data-name="Trazado 888822" d="M207.518,204.484a.734.734,0,0,1-.358-.093l-2.938-1.635a.736.736,0,0,1-.285-1l.007-.013.99-1.7a2.365,2.365,0,0,1,4.145,2.275l-.908,1.764a.736.736,0,0,1-.654.4Zm-1.924-2.649,1.619.9.559-1.089a.894.894,0,0,0-1.566-.86Zm0,0" transform="translate(-173.921 -187.946)" fill="#231f20"/>
        <path id="Trazado_888823" data-name="Trazado 888823" d="M416.227,274.511h-12.89a.736.736,0,0,1-.736-.736v-39.5a.736.736,0,0,1,.736-.736h12.89a.736.736,0,0,1,.736.736v39.5a.736.736,0,0,1-.736.736Zm-12.154-1.471h11.418V235.01H404.073Zm0,0" transform="translate(-343.431 -217.513)" fill="#231f20"/>
        <path id="Trazado_888824" data-name="Trazado 888824" d="M328.623,344.3H315.732a.736.736,0,0,1-.736-.736V316.1a.736.736,0,0,1,.736-.736h12.891a.736.736,0,0,1,.736.736v27.459A.736.736,0,0,1,328.623,344.3Zm-12.155-1.471h11.419V316.839H316.468Zm0,0" transform="translate(-268.717 -287.301)" fill="#231f20"/>
        <path id="Trazado_888825" data-name="Trazado 888825" d="M241.02,397.356H228.13a.736.736,0,0,1-.736-.736V378.315a.736.736,0,0,1,.736-.736h12.89a.736.736,0,0,1,.736.736V396.62A.736.736,0,0,1,241.02,397.356Zm-12.154-1.471h11.418V379.05H228.866Zm0,0" transform="translate(-194.005 -340.357)" fill="#231f20"/>
        <path id="Trazado_888826" data-name="Trazado 888826" d="M153.416,450.4H140.525a.736.736,0,0,1-.736-.736v-9.153a.736.736,0,0,1,.736-.736h12.891a.736.736,0,0,1,.736.736v9.153A.736.736,0,0,1,153.416,450.4Zm-12.155-1.471H152.68v-7.681H141.261Zm0,0" transform="translate(-119.291 -393.404)" fill="#231f20"/>
        <path id="Trazado_888827" data-name="Trazado 888827" d="M71.266,503.448H59.318a.736.736,0,0,1,0-1.471H71.266a.736.736,0,0,1,0,1.471Zm0,0" transform="translate(-50.033 -446.45)" fill="#231f20"/>
        <path id="Trazado_888828" data-name="Trazado 888828" d="M22.085,503.448h-2.6a.736.736,0,0,1,0-1.471h2.6a.736.736,0,0,1,0,1.471Zm0,0" transform="translate(-16.063 -446.45)" fill="#231f20"/>
      </g>
    </g>
  </g>
</svg>
