<svg xmlns="http://www.w3.org/2000/svg" width="189" height="100" viewBox="0 0 189 100">
  <g id="Grupo_1115798" data-name="Grupo 1115798" transform="translate(0 -2)">
    <rect id="Rectángulo_406738" data-name="Rectángulo 406738" width="189" height="100" rx="10" transform="translate(0 2)" fill="#f2efdf"/>
    <g id="Grupo_1117058" data-name="Grupo 1117058" transform="translate(132 89.1) rotate(180)">
      <path id="Trazado_887612" data-name="Trazado 887612" d="M366.016,409.461a4.314,4.314,0,0,1-1.373-.224,5.491,5.491,0,0,1-10.022-1.814,3.323,3.323,0,1,1-.533-6.6h11.929a4.321,4.321,0,1,1,0,8.641Z" transform="translate(-300.802 -395.949)" fill="#49cb8b"/>
      <path id="Trazado_887613" data-name="Trazado 887613" d="M397.895,409.461a4.312,4.312,0,0,1-1.373-.224,5.488,5.488,0,0,1-8.578.9,5.494,5.494,0,0,0,3.638-2.47,4.32,4.32,0,0,0,5.694-4.1V400.82h.619a4.321,4.321,0,1,1,0,8.641Z" transform="translate(-332.681 -395.949)" fill="#13b766"/>
      <path id="Trazado_887614" data-name="Trazado 887614" d="M28.28,409.461a4.314,4.314,0,0,0,1.373-.224,5.491,5.491,0,0,0,10.022-1.814,3.323,3.323,0,1,0,.533-6.6H28.28a4.321,4.321,0,1,0,0,8.641Z" transform="translate(-20.592 -395.949)" fill="#49cb8b"/>
      <path id="Trazado_887615" data-name="Trazado 887615" d="M69.247,400.82h5.212a3.323,3.323,0,1,1-.533,6.6,5.491,5.491,0,0,1-10.021,1.816C67.5,407.443,68.532,404.132,69.247,400.82Z" transform="translate(-54.842 -395.949)" fill="#13b766"/>
      <path id="Trazado_887616" data-name="Trazado 887616" d="M114.548,71.672a4.649,4.649,0,0,1-.318,1.609l-.527,1.35a.964.964,0,0,1-1.8,0l-.527-1.35a4.653,4.653,0,0,1-.318-1.609c-.222-12.243-3.832-41.229-22.068-64.172h11.638a12.181,12.181,0,1,0,24.346,0h11.638C118.38,30.443,114.769,59.429,114.548,71.672ZM108.14,27.119A132.767,132.767,0,0,1,112.8,44.651a132.768,132.768,0,0,1,4.664-17.531Z" transform="translate(-76.353 -3.313)" fill="#f9c36e"/>
      <path id="Trazado_887617" data-name="Trazado 887617" d="M245.166,71.673a4.65,4.65,0,0,1-.318,1.609l-.527,1.35a.964.964,0,0,1-1.8,0L242,73.282a4.635,4.635,0,0,1-.318-1.6c-.024-1.351-.09-2.906-.212-4.635a53.76,53.76,0,0,1,.819-13.926c2.626-13.679,8.3-30.891,20.008-45.615h4.94C249,30.444,245.388,59.43,245.166,71.673Z" transform="translate(-206.972 -3.314)" fill="#e7b467"/>
      <path id="Trazado_887618" data-name="Trazado 887618" d="M215.2,214.6H201.21a.953.953,0,0,0-.953.953v1.878a.953.953,0,0,0,.953.953H215.2a.953.953,0,0,0,.953-.953v-1.878A.953.953,0,0,0,215.2,214.6Z" transform="translate(-171.754 -175.98)" fill="#d7a85f"/>
      <path id="Trazado_887619" data-name="Trazado 887619" d="M266.118,218.383h-6.475q.479-1.867,1.036-3.785h5.439a.953.953,0,0,1,.953.953v1.878A.953.953,0,0,1,266.118,218.383Z" transform="translate(-222.673 -175.98)" fill="#c89b58"/>
      <path id="Trazado_887620" data-name="Trazado 887620" d="M181.824,338.918h-27.3a.953.953,0,0,0-.953.953v2.206a.953.953,0,0,0,.953.953h27.3a.953.953,0,0,0,.953-.953v-2.206A.953.953,0,0,0,181.824,338.918Z" transform="translate(-131.721 -318.353)" fill="#d7a85f"/>
      <path id="Trazado_887621" data-name="Trazado 887621" d="M309.433,343.031H302.4q.908-2.057,1.925-4.113h5.111a.953.953,0,0,1,.953.953v2.207A.953.953,0,0,1,309.433,343.031Z" transform="translate(-259.331 -318.353)" fill="#c89b58"/>
      <path id="Trazado_887622" data-name="Trazado 887622" d="M238.418,45.8h-4.862a.9.9,0,0,0-.9.9v1.678a.9.9,0,0,0,.9.9h4.862a.9.9,0,0,0,.9-.9V46.693A.9.9,0,0,0,238.418,45.8Z" transform="translate(-199.536 17.203)" fill="#c89b58"/>
      <path id="Trazado_887623" data-name="Trazado 887623" d="M77.233,469.6H9.218a1.374,1.374,0,0,0-1.374,1.374V473.2a1.374,1.374,0,0,0,1.374,1.374H77.233a1.374,1.374,0,0,0,1.374-1.374v-2.229A1.374,1.374,0,0,0,77.233,469.6Z" transform="translate(-6.774 -468.525)" fill="#688b96"/>
      <path id="Trazado_887624" data-name="Trazado 887624" d="M385.542,76.24a1.069,1.069,0,0,1,1.322.734,1.149,1.149,0,0,0,2.051.333,1.439,1.439,0,0,1,1.186-.62h0a1.438,1.438,0,0,1,1.185.621,1.149,1.149,0,0,0,2.051-.334,1.069,1.069,0,1,1,2.056.589,3.287,3.287,0,0,1-5.292,1.6,3.287,3.287,0,0,1-5.292-1.6A1.069,1.069,0,0,1,385.542,76.24Z" transform="translate(-329.956 -17.808)"/>
      <path id="Trazado_887625" data-name="Trazado 887625" d="M40.239,232.767a1.069,1.069,0,0,1,1.322.734,1.149,1.149,0,0,0,2.051.333,1.443,1.443,0,0,1,2.371,0,1.148,1.148,0,0,0,2.051-.333,1.069,1.069,0,1,1,2.056.588,3.287,3.287,0,0,1-5.293,1.6,3.287,3.287,0,0,1-5.292-1.6A1.07,1.07,0,0,1,40.239,232.767Z" transform="translate(-33.886 -196.652)"/>
      <path id="Trazado_887626" data-name="Trazado 887626" d="M70.8,7.116h-.275a5.383,5.383,0,0,1-5.9,7.385,6.565,6.565,0,0,1-9.976.242q-1.514,2.555-2.888,5.245a2.017,2.017,0,0,1,.7,1.531v2.207a2.025,2.025,0,0,1-2.023,2.023H49.052a111.32,111.32,0,0,0-4.387,12.005,2.023,2.023,0,0,1,1.145,1.819V41.45a2.025,2.025,0,0,1-2.023,2.023h-.7c-.669,2.687-1.255,5.429-1.742,8.164a1.069,1.069,0,0,1-2.105-.375c.464-2.608,1.017-5.222,1.644-7.789H32.7A123.925,123.925,0,0,1,35.768,61.93h2.053c.162-1.862.372-3.768.634-5.686a1.069,1.069,0,1,1,2.119.289c-.255,1.869-.461,3.726-.619,5.54A1.968,1.968,0,0,1,41.19,63.9v1.678A1.969,1.969,0,0,1,39.627,67.5c-.009.3-.016.6-.021.88a9.19,9.19,0,0,1-.919,3.329,2.033,2.033,0,0,1-3.788,0,9.249,9.249,0,0,1-.918-3.329c-.005-.284-.012-.578-.021-.879A1.969,1.969,0,0,1,32.4,65.574V63.9a1.968,1.968,0,0,1,1.237-1.824,121.794,121.794,0,0,0-3.132-18.6h-.7a2.025,2.025,0,0,1-2.023-2.023V39.572a2.023,2.023,0,0,1,1.145-1.819,111.341,111.341,0,0,0-4.387-12.005H23.142a2.025,2.025,0,0,1-2.023-2.023V21.518a2.018,2.018,0,0,1,.7-1.531q-1.372-2.688-2.888-5.245A6.565,6.565,0,0,1,8.959,14.5a5.383,5.383,0,0,1-5.9-7.385H2.785A2.446,2.446,0,0,1,.342,4.673V2.443A2.446,2.446,0,0,1,2.785,0H70.8a2.446,2.446,0,0,1,2.443,2.443V4.673A2.446,2.446,0,0,1,70.8,7.116ZM39.052,65.4V64.069H34.535V65.4Zm-2.259,5.276a6.7,6.7,0,0,0,.674-2.338c0-.259.011-.527.019-.8H36.1c.008.272.015.54.019.8A6.688,6.688,0,0,0,36.793,70.677ZM59.538,14.783a4.4,4.4,0,0,0,3.74-2.066,1.069,1.069,0,0,1,1.244-.443,3.255,3.255,0,0,0,4.285-3.083,3.213,3.213,0,0,0-.751-2.076h-8.35q-2.018,2.723-3.865,5.67a4.387,4.387,0,0,0,3.7,2Zm-17.6,10.964c-1.241,3.788-2.332,7.747-3.25,11.8h3.8a114.164,114.164,0,0,1,4.23-11.8Zm-2.25,0H33.9c1.089,3.387,2.059,6.9,2.9,10.5C37.63,32.652,38.6,29.135,39.688,25.747ZM29.915,41.334H43.671V39.688H29.915Zm1.178-3.785h3.8c-.918-4.054-2.008-8.014-3.25-11.8H26.863a114.179,114.179,0,0,1,4.23,11.8Zm-7.835-13.94h27.07V21.634H31.987a1.069,1.069,0,1,1,0-2.139H49.615a94.75,94.75,0,0,1,7.446-12.38H49.727A13.787,13.787,0,0,1,45.5,14.5a12.922,12.922,0,0,1-17.407,0,13.787,13.787,0,0,1-4.23-7.384H16.525A94.759,94.759,0,0,1,23.971,19.5h3.015a1.069,1.069,0,1,1,0,2.139H23.258v1.974ZM47.532,7.116H26.054a11.63,11.63,0,0,0,3.468,5.8,10.784,10.784,0,0,0,14.542,0A11.629,11.629,0,0,0,47.532,7.116ZM4.779,9.192a3.255,3.255,0,0,0,4.285,3.083,1.07,1.07,0,0,1,1.244.443,4.419,4.419,0,0,0,7.437.069Q15.9,9.843,13.879,7.116H5.53a3.213,3.213,0,0,0-.751,2.076ZM71.105,2.443a.3.3,0,0,0-.3-.3H2.785a.3.3,0,0,0-.3.3V4.673a.3.3,0,0,0,.3.3H70.8a.3.3,0,0,0,.3-.3V2.443Z" transform="translate(-0.342 0)"/>
    </g>
  </g>
</svg>
