<svg xmlns="http://www.w3.org/2000/svg" width="100" height="100" viewBox="0 0 100 100">
  <g id="Grupo_1100965" data-name="Grupo 1100965" transform="translate(0.242)">
    <g id="Grupo_1098742" data-name="Grupo 1098742" transform="translate(0)">
      <rect id="Rectángulo_400898" data-name="Rectángulo 400898" width="100" height="100" rx="50" transform="translate(-0.242)" fill="#fff" opacity="0.859"/>
      <g id="Rectángulo_400907" data-name="Rectángulo 400907" transform="translate(-0.242)" fill="none" stroke="#3acc97" stroke-linecap="round" stroke-width="2" stroke-dasharray="7">
        <rect width="100" height="100" rx="50" stroke="none"/>
        <rect x="1" y="1" width="98" height="98" rx="49" fill="none"/>
      </g>
    </g>
    <g id="Grupo_1107006" data-name="Grupo 1107006" transform="translate(8.156 8.156)">
      <rect id="Rectángulo_400898-2" data-name="Rectángulo 400898" width="84" height="84" rx="42" transform="translate(-0.399 -0.157)" fill="#d7f5ea" opacity="0.859"/>
      <rect id="Rectángulo_400907-2" data-name="Rectángulo 400907" width="84" height="84" rx="42" transform="translate(-0.398 -0.157)" fill="none"/>
    </g>
    <g id="Grupo_1117843" data-name="Grupo 1117843" transform="translate(19.069 3.925)">
      <g id="Grupo_1117841" data-name="Grupo 1117841" transform="translate(0.899 18.381)">
        <g id="Grupo_1117838" data-name="Grupo 1117838" transform="translate(0 16.642)">
          <path id="Trazado_888931" data-name="Trazado 888931" d="M24.962,347.718v14.421H7.5V347.718l6.217-2.588h5.027Z" transform="translate(-7.502 -323.394)" fill="#fea613"/>
          <path id="Trazado_888932" data-name="Trazado 888932" d="M38.416,256H32.534a3.168,3.168,0,0,1-3.168-3.168V247.26H41.584v5.576A3.168,3.168,0,0,1,38.416,256Z" transform="translate(-26.745 -237.256)" fill="#ffdfcf"/>
          <path id="Trazado_888933" data-name="Trazado 888933" d="M95.384,247.26v5.575A3.168,3.168,0,0,1,92.215,256H90.494a3.168,3.168,0,0,0,3.168-3.168V247.26Z" transform="translate(-80.545 -237.256)" fill="#ffcebf"/>
          <path id="Trazado_888934" data-name="Trazado 888934" d="M28.824,223.547H14.172a.687.687,0,0,1-.687-.687V221a.687.687,0,0,1,.687-.687H28.824a.687.687,0,0,1,.687.687v1.856A.687.687,0,0,1,28.824,223.547Z" transform="translate(-12.768 -213.543)" fill="#fea613"/>
          <path id="Trazado_888935" data-name="Trazado 888935" d="M129.422,221.007v1.856a.687.687,0,0,1-.686.687H127a.687.687,0,0,0,.687-.687v-1.856a.686.686,0,0,0-.687-.687h1.731A.686.686,0,0,1,129.422,221.007Z" transform="translate(-112.679 -213.545)" fill="#fe9901"/>
          <path id="Trazado_888936" data-name="Trazado 888936" d="M37.264,181.645H23.683a5.267,5.267,0,0,1,5.267-5.267H32A5.267,5.267,0,0,1,37.264,181.645Z" transform="translate(-21.743 -174.871)" fill="#ffd15b"/>
          <path id="Trazado_888937" data-name="Trazado 888937" d="M87.169,181.647H85.652a5.267,5.267,0,0,0-5.267-5.267H81.9A5.268,5.268,0,0,1,87.169,181.647Z" transform="translate(-71.648 -174.873)" fill="#ffc344"/>
          <path id="Trazado_888938" data-name="Trazado 888938" d="M70.112,163.806H68.28a.6.6,0,0,0-.6.6v6.174h3.032v-6.174A.6.6,0,0,0,70.112,163.806Z" transform="translate(-60.466 -163.806)" fill="#fea613"/>
          <path id="Trazado_888939" data-name="Trazado 888939" d="M77.441,164.409v6.175H75.924v-6.175a.6.6,0,0,0-.6-.6H76.84A.6.6,0,0,1,77.441,164.409Z" transform="translate(-67.194 -163.81)" fill="#fe9901"/>
          <path id="Trazado_888940" data-name="Trazado 888940" d="M59.364,320.2H64.39v2.988H59.364Z" transform="translate(-53.147 -301.452)" fill="#ffdfcf"/>
          <path id="Trazado_888941" data-name="Trazado 888941" d="M86.365,320.2h1.79v2.989h-1.79Z" transform="translate(-76.911 -301.452)" fill="#ffcebf"/>
          <path id="Trazado_888942" data-name="Trazado 888942" d="M59.364,345.129l2.513,5,2.513-5Z" transform="translate(-53.147 -323.393)" fill="#0593fc"/>
          <path id="Trazado_888943" data-name="Trazado 888943" d="M76.273,345.13l-2.514,5-.894-1.779,1.618-3.22Z" transform="translate(-65.029 -323.394)" fill="#0181fa"/>
          <path id="Trazado_888944" data-name="Trazado 888944" d="M7.5,416.073H24.961v3.982H7.5Z" transform="translate(-7.5 -385.832)" fill="#eaf6ff"/>
          <path id="Trazado_888945" data-name="Trazado 888945" d="M102.472,357.611v14.421h-6.9l3.924-15.662Z" transform="translate(-85.012 -333.286)" fill="#fe9901"/>
          <path id="Trazado_888946" data-name="Trazado 888946" d="M110.79,416.07v3.982h-5.77l1-3.982Z" transform="translate(-93.33 -385.829)" fill="#c8effe"/>
        </g>
        <g id="Grupo_1117839" data-name="Grupo 1117839" transform="translate(42.118 16.642)">
          <path id="Trazado_888947" data-name="Trazado 888947" d="M376.307,347.718v14.421h-17.46V347.718l6.217-2.588h5.027Z" transform="translate(-358.847 -323.394)" fill="#fea613"/>
          <path id="Trazado_888948" data-name="Trazado 888948" d="M491.36,361.246v14.421h-1.79V360.5Z" transform="translate(-473.899 -336.921)" fill="#fe9901"/>
          <path id="Trazado_888949" data-name="Trazado 888949" d="M389.762,256H383.88a3.168,3.168,0,0,1-3.168-3.168V247.26H392.93v5.576A3.168,3.168,0,0,1,389.762,256Z" transform="translate(-378.091 -237.256)" fill="#ffdfcf"/>
          <path id="Trazado_888950" data-name="Trazado 888950" d="M446.73,247.26v5.575A3.168,3.168,0,0,1,443.561,256H441.84a3.168,3.168,0,0,0,3.168-3.168V247.26Z" transform="translate(-431.891 -237.256)" fill="#ffcebf"/>
          <path id="Trazado_888951" data-name="Trazado 888951" d="M380.17,223.547H365.518a.687.687,0,0,1-.687-.687V221a.687.687,0,0,1,.687-.687H380.17a.687.687,0,0,1,.687.687v1.856A.687.687,0,0,1,380.17,223.547Z" transform="translate(-364.113 -213.543)" fill="#fea613"/>
          <path id="Trazado_888952" data-name="Trazado 888952" d="M480.767,221.007v1.856a.687.687,0,0,1-.686.687H478.35a.687.687,0,0,0,.687-.687v-1.856a.686.686,0,0,0-.687-.687h1.731A.686.686,0,0,1,480.767,221.007Z" transform="translate(-464.024 -213.545)" fill="#fe9901"/>
          <path id="Trazado_888953" data-name="Trazado 888953" d="M388.61,181.645H375.029a5.267,5.267,0,0,1,5.267-5.267h3.046A5.267,5.267,0,0,1,388.61,181.645Z" transform="translate(-373.089 -174.871)" fill="#ffd15b"/>
          <path id="Trazado_888954" data-name="Trazado 888954" d="M438.514,181.647H437a5.267,5.267,0,0,0-5.267-5.267h1.516A5.268,5.268,0,0,1,438.514,181.647Z" transform="translate(-422.993 -174.873)" fill="#ffc344"/>
          <path id="Trazado_888955" data-name="Trazado 888955" d="M421.457,163.806h-1.832a.6.6,0,0,0-.6.6v6.174h3.032v-6.174A.6.6,0,0,0,421.457,163.806Z" transform="translate(-411.811 -163.806)" fill="#fea613"/>
          <path id="Trazado_888956" data-name="Trazado 888956" d="M428.786,164.409v6.175h-1.516v-6.175a.6.6,0,0,0-.6-.6h1.515a.6.6,0,0,1,.6.6Z" transform="translate(-418.539 -163.81)" fill="#fe9901"/>
          <path id="Trazado_888957" data-name="Trazado 888957" d="M410.71,320.2h5.026v2.988H410.71Z" transform="translate(-404.493 -301.452)" fill="#ffdfcf"/>
          <path id="Trazado_888958" data-name="Trazado 888958" d="M437.71,320.2h1.79v2.989h-1.79Z" transform="translate(-428.256 -301.452)" fill="#ffcebf"/>
          <path id="Trazado_888959" data-name="Trazado 888959" d="M410.71,345.129l2.513,5,2.513-5Z" transform="translate(-404.493 -323.393)" fill="#0593fc"/>
          <path id="Trazado_888960" data-name="Trazado 888960" d="M427.618,345.13l-2.514,5-.894-1.779,1.618-3.22Z" transform="translate(-416.374 -323.394)" fill="#0181fa"/>
          <path id="Trazado_888961" data-name="Trazado 888961" d="M358.845,416.073h17.461v3.982H358.845Z" transform="translate(-358.845 -385.832)" fill="#eaf6ff"/>
          <path id="Trazado_888962" data-name="Trazado 888962" d="M489.57,416.07h1.79v3.982h-1.79Z" transform="translate(-473.899 -385.829)" fill="#c8effe"/>
        </g>
        <g id="Grupo_1117840" data-name="Grupo 1117840" transform="translate(12.358)">
          <path id="Trazado_888963" data-name="Trazado 888963" d="M322.745,145.09a3.7,3.7,0,0,0,0-7.4l-.712,3.7Z" transform="translate(-296.686 -124.177)" fill="#ffcebf"/>
          <path id="Trazado_888964" data-name="Trazado 888964" d="M156.856,145.09a3.7,3.7,0,0,1,0-7.4l.646,3.7Z" transform="translate(-148.052 -124.177)" fill="#ffdfcf"/>
          <path id="Trazado_888965" data-name="Trazado 888965" d="M171.087,141.391l-.646,3.7a3.691,3.691,0,0,1-1.851-.5v-6.412a3.679,3.679,0,0,1,1.851-.5Z" transform="translate(-161.637 -124.179)" fill="#ffcebf"/>
          <path id="Trazado_888966" data-name="Trazado 888966" d="M196.811,151.324H188.5a4.475,4.475,0,0,1-4.475-4.475v-9.16h17.255v9.16A4.475,4.475,0,0,1,196.811,151.324Z" transform="translate(-175.226 -124.178)" fill="#ffdfcf"/>
          <path id="Trazado_888967" data-name="Trazado 888967" d="M279.255,137.69v9.16a4.474,4.474,0,0,1-4.475,4.475h-2.16a4.474,4.474,0,0,0,4.475-4.475v-9.16Z" transform="translate(-253.196 -124.179)" fill="#ffcebf"/>
          <path id="Trazado_888968" data-name="Trazado 888968" d="M183.264,108.734H162.571a.97.97,0,0,1-.97-.97v-2a.97.97,0,0,1,.97-.97h20.692a.97.97,0,0,1,.97.97v2A.97.97,0,0,1,183.264,108.734Z" transform="translate(-155.486 -95.223)" fill="#fea613"/>
          <path id="Trazado_888969" data-name="Trazado 888969" d="M328.529,105.76v2a.969.969,0,0,1-.97.97H325.55a.969.969,0,0,0,.97-.97v-2a.969.969,0,0,0-.97-.97h2.009A.969.969,0,0,1,328.529,105.76Z" transform="translate(-299.781 -95.223)" fill="#fe9901"/>
          <path id="Trazado_888970" data-name="Trazado 888970" d="M195.183,50.176H176a7.439,7.439,0,0,1,7.439-7.439h4.3A7.439,7.439,0,0,1,195.183,50.176Z" transform="translate(-168.162 -40.608)" fill="#ffd15b"/>
          <path id="Trazado_888971" data-name="Trazado 888971" d="M266.541,50.178h-2.022a7.438,7.438,0,0,0-7.438-7.438H259.1A7.439,7.439,0,0,1,266.541,50.178Z" transform="translate(-239.519 -40.611)" fill="#ffc344"/>
          <path id="Trazado_888972" data-name="Trazado 888972" d="M241.573,24.982h-2.587a.847.847,0,0,0-.848.848v8.72h4.282V25.83A.848.848,0,0,0,241.573,24.982Z" transform="translate(-222.848 -24.982)" fill="#fea613"/>
          <path id="Trazado_888973" data-name="Trazado 888973" d="M252.869,25.828v8.72h-2.012v-8.72a.848.848,0,0,0-.848-.848h2.012A.847.847,0,0,1,252.869,25.828Z" transform="translate(-233.296 -24.98)" fill="#fe9901"/>
          <path id="Trazado_888974" data-name="Trazado 888974" d="M226.4,251.428h7.1v4.22h-7.1Z" transform="translate(-212.512 -224.282)" fill="#ffdfcf"/>
          <path id="Trazado_888975" data-name="Trazado 888975" d="M267.3,251.43h2.195v4.22H267.3Z" transform="translate(-248.514 -224.284)" fill="#ffcebf"/>
          <path id="Trazado_888976" data-name="Trazado 888976" d="M145.45,310.653H110.587l4.507-17.985a4.9,4.9,0,0,1,2.862-3.324l6.514-2.712h7.1l6.514,2.712a4.895,4.895,0,0,1,2.862,3.324Z" transform="translate(-110.587 -255.266)" fill="#0593fc"/>
          <path id="Trazado_888977" data-name="Trazado 888977" d="M283.377,310.652h-2.194l-4.506-17.986a4.9,4.9,0,0,0-2.861-3.323L267.3,286.63h2.195l6.514,2.713a4.9,4.9,0,0,1,2.861,3.323Z" transform="translate(-248.514 -255.264)" fill="#0181fa"/>
          <path id="Trazado_888978" data-name="Trazado 888978" d="M180.348,290.715a8.506,8.506,0,0,0-2.093,5.59v14.347H158.583V296.305a8.506,8.506,0,0,0-2.093-5.59,4.849,4.849,0,0,1,1.865-1.373l6.514-2.713,3.55,5.414,3.55-5.414,6.514,2.713A4.849,4.849,0,0,1,180.348,290.715Z" transform="translate(-150.987 -255.264)" fill="#fea613"/>
          <path id="Trazado_888979" data-name="Trazado 888979" d="M290.531,290.715a8.507,8.507,0,0,0-2.093,5.59v14.347h-2.195V296.305a8.507,8.507,0,0,1,2.093-5.59,4.85,4.85,0,0,0-1.865-1.373l-4.79-1.995.471-.718,6.514,2.713A4.849,4.849,0,0,1,290.531,290.715Z" transform="translate(-261.17 -255.264)" fill="#fe9901"/>
          <path id="Trazado_888980" data-name="Trazado 888980" d="M173.953,386.825h19.671v5.623H173.953Z" transform="translate(-166.357 -343.448)" fill="#eaf6ff"/>
          <path id="Trazado_888981" data-name="Trazado 888981" d="M319.74,386.83h2.195v5.622H319.74Z" transform="translate(-294.667 -343.453)" fill="#c8effe"/>
        </g>
      </g>
      <g id="Grupo_1117842" data-name="Grupo 1117842" transform="translate(0 17.482)">
        <path id="Trazado_888982" data-name="Trazado 888982" d="M60.823,58.517,55.159,56.16V54.642a4.073,4.073,0,0,0,3.6-4.039V45.926h.318a1.588,1.588,0,0,0,1.586-1.586V42.484a1.588,1.588,0,0,0-1.285-1.556A6.179,6.179,0,0,0,54.163,35.7a1.56,1.56,0,0,0-1.5-1.572H50.831a1.561,1.561,0,0,0-1.5,1.572,6.179,6.179,0,0,0-5.212,5.231,1.588,1.588,0,0,0-1.285,1.556V44.34a1.588,1.588,0,0,0,1.586,1.586h.318V50.6a4.073,4.073,0,0,0,3.6,4.039V56.16l-3.351,1.395-.5-1.989A5.894,5.894,0,0,0,41.1,51.629l-.67-.279a.9.9,0,1,0-.691,1.66l.67.279a3.994,3.994,0,0,1,1.01.61,9.4,9.4,0,0,0-1.791,5.522v1.437H31.587v-5.43l2.993-4.565,1.572.655a.9.9,0,1,0,.691-1.66l-1.707-.711v-2.73a5.38,5.38,0,0,0,5.079-5.365V40.1a4.6,4.6,0,0,0,2.191-7.917,1.86,1.86,0,0,0,.5-1.266v-2a1.87,1.87,0,0,0-1.775-1.864,8.39,8.39,0,0,0-7.4-7.4v-.43a1.749,1.749,0,0,0-1.746-1.747H29.395a1.749,1.749,0,0,0-1.746,1.747v.43a8.385,8.385,0,0,0-7.4,7.4,1.87,1.87,0,0,0-1.775,1.864v2a1.86,1.86,0,0,0,.5,1.266A4.6,4.6,0,0,0,21.162,40.1v.948a5.38,5.38,0,0,0,5.079,5.365v2.73L20.28,51.629a5.881,5.881,0,0,0-3.389,3.935l-.5,1.99L13.041,56.16V54.642a4.073,4.073,0,0,0,3.6-4.039V45.926a1.683,1.683,0,0,0,1.9-1.586V42.484a1.588,1.588,0,0,0-1.285-1.556A6.18,6.18,0,0,0,12.044,35.7v-.074a1.5,1.5,0,0,0-1.5-1.5H8.713a1.5,1.5,0,0,0-1.5,1.5V35.7a6.156,6.156,0,0,0-2.106.709.9.9,0,1,0,.876,1.571,4.347,4.347,0,0,1,1.231-.456V40.9H3.831q.024-.117.055-.232A.9.9,0,0,0,2.149,40.2,6.154,6.154,0,0,0,2,40.927,1.588,1.588,0,0,0,.717,42.484V44.34a1.68,1.68,0,0,0,1.9,1.586V50.6a4.073,4.073,0,0,0,3.6,4.039V56.16L.554,58.517a.9.9,0,0,0-.554.83V73.768a.9.9,0,0,0,1.8,0V70.145H8.73v3.624a.9.9,0,0,0,1.8,0V70.145h2.709l-.853,3.4a.9.9,0,1,0,1.744.437L18.636,56a3.927,3.927,0,0,1,.189-.564,7.605,7.605,0,0,1,1.129,3.985V73.768a.9.9,0,0,0,1.8,0V68.28h8.038v5.488a.9.9,0,0,0,1.8,0V68.28h8.038v5.488a.9.9,0,0,0,1.8,0V59.421a7.605,7.605,0,0,1,1.129-3.985,3.937,3.937,0,0,1,.189.565l4.506,17.985a.9.9,0,0,0,1.744-.437l-.853-3.4h2.709v3.624a.9.9,0,0,0,1.8,0V70.145h6.932v3.624a.9.9,0,0,0,1.8,0V59.347a.9.9,0,0,0-.554-.83ZM14.686,64.365H10.528V61.971l2.041-4.06,3.381,1.407ZM11.243,55.86H8.015V54.67h3.228Zm-.559,1.8-1.055,2.1-1.055-2.1ZM15.427,40.9H12.044V37.521A4.381,4.381,0,0,1,15.427,40.9ZM9.012,35.922h1.234V40.9H9.012ZM2.516,42.7H16.743v1.432H2.516Zm1.9,7.906V45.926H8.73v1.231a.9.9,0,0,0,1.8,0V45.926h4.311V50.6a2.272,2.272,0,0,1-2.269,2.269H6.689A2.272,2.272,0,0,1,4.419,50.6Zm2.27,7.309,2.041,4.06v2.394H1.8V59.947ZM1.8,68.346V66.163H8.73v2.184Zm8.73,0V66.163h3.707l-.547,2.184ZM30.688,53.52,28.8,50.646h3.769Zm2.65-4.673h-5.3V46.426h5.3Zm6.877-10.6V32.939a2.8,2.8,0,0,1,0,5.308ZM36.8,22.748l-.873.588a.9.9,0,1,0,1,1.491l1.155-.778a6.507,6.507,0,0,1,1.232,3H33.729v-5.58A6.506,6.506,0,0,1,36.8,22.748ZM29.446,19.28h2.484v7.769H29.446Zm-6.154,4.77,1.155.778a.9.9,0,1,0,1-1.491l-.872-.587a6.519,6.519,0,0,1,3.069-1.279v5.579H22.06A6.5,6.5,0,0,1,23.292,24.05Zm-2.95,6.943a.071.071,0,0,1-.071-.071v-2a.071.071,0,0,1,.071-.071H41.035a.071.071,0,0,1,.071.071v2a.071.071,0,0,1-.071.071Zm-1.083,4.6a2.807,2.807,0,0,1,1.9-2.654v5.308A2.807,2.807,0,0,1,19.259,35.593Zm3.7,5.459V32.791H38.417v8.261a3.58,3.58,0,0,1-3.575,3.575H26.535a3.579,3.579,0,0,1-3.575-3.575Zm-3,12.847a3.989,3.989,0,0,1,1.01-.61L26.8,50.863l2.993,4.565v5.43H21.752V59.421A9.4,9.4,0,0,0,19.961,53.9Zm1.791,12.583V62.657h8.037v3.825Zm17.873,0H31.587V62.657h8.037Zm12.123-6.726-1.055-2.1H52.8Zm1.614-3.9H50.134V54.67h3.228ZM57.545,40.9H54.163V37.521A4.381,4.381,0,0,1,57.545,40.9ZM51.13,35.922h1.234V40.9H51.13Zm-1.8,1.6V40.9H45.949A4.382,4.382,0,0,1,49.332,37.522Zm-4.7,5.174H58.861v1.432H44.634Zm1.9,7.906V45.926h4.311v1.231a.9.9,0,0,0,1.8,0V45.926h4.311V50.6a2.272,2.272,0,0,1-2.269,2.269H48.807A2.272,2.272,0,0,1,46.537,50.6Zm2.27,7.309,2.041,4.06v2.394H46.691l-1.264-5.046ZM47.688,68.346l-.547-2.184h3.707v2.184Zm4.958,0V66.163h1.4a.9.9,0,1,0,0-1.8h-1.4V61.971l2.041-4.06,4.891,2.036v4.418H58.235a.9.9,0,1,0,0,1.8h1.344v2.184H52.646Z" transform="translate(0 -17.482)"/>
        <path id="Trazado_888983" data-name="Trazado 888983" d="M414.627,282.039a2.478,2.478,0,0,0,2.237-1.424.9.9,0,0,0-1.629-.761.671.671,0,0,1-1.216,0,.9.9,0,0,0-1.629.761A2.478,2.478,0,0,0,414.627,282.039Z" transform="translate(-362.879 -247.945)"/>
        <path id="Trazado_888984" data-name="Trazado 888984" d="M249.4,158.242a.9.9,0,0,0,.9-.9V154.45a.9.9,0,1,0-1.8,0v2.893A.9.9,0,0,0,249.4,158.242Z" transform="translate(-218.711 -137.24)"/>
        <path id="Trazado_888985" data-name="Trazado 888985" d="M234.647,204.122a3.128,3.128,0,0,0,2.824-1.8.9.9,0,0,0-1.629-.761,1.318,1.318,0,0,1-2.389,0,.9.9,0,0,0-1.629.761A3.128,3.128,0,0,0,234.647,204.122Z" transform="translate(-203.959 -179.04)"/>
        <path id="Trazado_888986" data-name="Trazado 888986" d="M63.281,282.039a2.478,2.478,0,0,0,2.237-1.424.9.9,0,0,0-1.629-.761.671.671,0,0,1-1.216,0,.9.9,0,0,0-1.629.761A2.478,2.478,0,0,0,63.281,282.039Z" transform="translate(-53.651 -247.945)"/>
      </g>
    </g>
  </g>
</svg>
