<svg id="Grupo_1116664" data-name="Grupo 1116664" xmlns="http://www.w3.org/2000/svg" width="122.487" height="122.486" viewBox="0 0 122.487 122.486">
  <rect id="Rectángulo_402033" data-name="Rectángulo 402033" width="122.486" height="122.486" rx="5" transform="translate(0)" fill="#d7f5ea"/>
  <g id="Grupo_1117874" data-name="Grupo 1117874" transform="translate(19.998 -10.451)">
    <g id="Grupo_1117872" data-name="Grupo 1117872" transform="translate(1.208 37.505)">
      <g id="Grupo_1117871" data-name="Grupo 1117871" transform="translate(0 0)">
        <g id="Grupo_1117861" data-name="Grupo 1117861" transform="translate(37.983)">
          <g id="Grupo_1117859" data-name="Grupo 1117859">
            <path id="Trazado_889041" data-name="Trazado 889041" d="M260.949,45.728,243.775,75.475a3.865,3.865,0,0,0,3.348,5.8h34.349a3.865,3.865,0,0,0,3.348-5.8L267.644,45.728A3.865,3.865,0,0,0,260.949,45.728Z" transform="translate(-243.251 -43.796)" fill="#fedf30"/>
          </g>
          <g id="Grupo_1117860" data-name="Grupo 1117860" transform="translate(0.002 0.001)">
            <path id="Trazado_889042" data-name="Trazado 889042" d="M284.829,75.48,267.654,45.733a3.864,3.864,0,0,0-6.6-.153l14.107,24.434a3.865,3.865,0,0,1-3.347,5.8h-28.2a3.865,3.865,0,0,0,3.517,5.466h34.349A3.866,3.866,0,0,0,284.829,75.48Z" transform="translate(-243.263 -43.801)" fill="#fed402"/>
          </g>
        </g>
        <g id="Grupo_1117870" data-name="Grupo 1117870" transform="translate(0 7.14)">
          <g id="Grupo_1117862" data-name="Grupo 1117862" transform="translate(0 25.667)">
            <path id="Trazado_889043" data-name="Trazado 889043" d="M51.034,281.382V255.428a8.006,8.006,0,0,0-8.006-8.006H15.506A8.006,8.006,0,0,0,7.5,255.428v25.954a1.611,1.611,0,0,0,1.611,1.611H49.423A1.611,1.611,0,0,0,51.034,281.382Z" transform="translate(-7.5 -247.422)" fill="#c4e2ff"/>
          </g>
          <g id="Grupo_1117863" data-name="Grupo 1117863" transform="translate(0 25.82)">
            <path id="Trazado_889044" data-name="Trazado 889044" d="M44.59,248.374v27.362a1.611,1.611,0,0,1-1.611,1.611H7.5v4.833a1.611,1.611,0,0,0,1.611,1.611H49.423a1.611,1.611,0,0,0,1.611-1.611V256.227a8.008,8.008,0,0,0-6.445-7.853Z" transform="translate(-7.5 -248.374)" fill="#b3dafe"/>
          </g>
          <g id="Grupo_1117864" data-name="Grupo 1117864" transform="translate(8.801)">
            <circle id="Elipse_11769" data-name="Elipse 11769" cx="12.833" cy="12.833" r="12.833" fill="#d78878"/>
          </g>
          <g id="Grupo_1117865" data-name="Grupo 1117865" transform="translate(12.906 0.207)">
            <path id="Trazado_889045" data-name="Trazado 889045" d="M98.617,89.4A12.828,12.828,0,0,1,87.6,111.429,12.832,12.832,0,1,0,98.617,89.4Z" transform="translate(-87.604 -89.398)" fill="#c96e59"/>
          </g>
          <g id="Grupo_1117869" data-name="Grupo 1117869" transform="translate(15.777 25.667)">
            <g id="Grupo_1117866" data-name="Grupo 1117866" transform="translate(0 7.623)">
              <path id="Trazado_889046" data-name="Trazado 889046" d="M117.345,322.682l-3.5-27.72-.323-.229h-4.093l-.323.229-3.677,27.72Z" transform="translate(-105.426 -294.733)" fill="#0593fc"/>
            </g>
            <g id="Grupo_1117867" data-name="Grupo 1117867" transform="translate(0 29.127)">
              <path id="Trazado_889047" data-name="Trazado 889047" d="M106.281,428.2l-.855,6.445h11.919l-.814-6.445Z" transform="translate(-105.426 -428.203)" fill="#0182fc"/>
            </g>
            <g id="Grupo_1117868" data-name="Grupo 1117868" transform="translate(0.831)">
              <path id="Trazado_889048" data-name="Trazado 889048" d="M110.584,247.422l2.846,7.851h4.74l2.731-7.829Z" transform="translate(-110.584 -247.422)" fill="#0182fc"/>
            </g>
          </g>
        </g>
      </g>
    </g>
    <g id="Grupo_1117873" data-name="Grupo 1117873" transform="translate(0 36.297)">
      <path id="Trazado_889049" data-name="Trazado 889049" d="M316.049,301.805a1.208,1.208,0,0,0-1.7.2l-3.087,3.914-1.888-1.791a1.208,1.208,0,0,0-1.663,1.753l2.849,2.7a1.208,1.208,0,0,0,.832.332c.029,0,.058,0,.087,0a1.208,1.208,0,0,0,.862-.457l3.906-4.953a1.208,1.208,0,0,0-.2-1.7Z" transform="translate(-257.82 -258.81)"/>
      <path id="Trazado_889050" data-name="Trazado 889050" d="M405.179,316.918h-16.2a1.208,1.208,0,1,0,0,2.417h16.2a1.208,1.208,0,0,0,0-2.417Z" transform="translate(-325.295 -271.706)"/>
      <path id="Trazado_889051" data-name="Trazado 889051" d="M316.049,363.861a1.208,1.208,0,0,0-1.7.2l-3.087,3.914-1.888-1.791a1.208,1.208,0,1,0-1.663,1.753l2.849,2.7a1.208,1.208,0,0,0,.832.332c.029,0,.058,0,.087,0a1.208,1.208,0,0,0,.862-.457l3.906-4.954a1.208,1.208,0,0,0-.2-1.7Z" transform="translate(-257.82 -310.868)"/>
      <path id="Trazado_889052" data-name="Trazado 889052" d="M405.179,378.976h-16.2a1.208,1.208,0,0,0,0,2.417h16.2a1.208,1.208,0,0,0,0-2.417Z" transform="translate(-325.295 -323.765)"/>
      <path id="Trazado_889053" data-name="Trazado 889053" d="M316.049,425.919a1.208,1.208,0,0,0-1.7.2l-3.087,3.914-1.888-1.791A1.208,1.208,0,0,0,307.714,430l2.849,2.7a1.208,1.208,0,0,0,.832.332q.043,0,.087,0a1.208,1.208,0,0,0,.862-.457l3.906-4.954a1.208,1.208,0,0,0-.2-1.7Z" transform="translate(-257.82 -362.927)"/>
      <path id="Trazado_889054" data-name="Trazado 889054" d="M405.179,441.034h-16.2a1.208,1.208,0,0,0,0,2.417h16.2a1.208,1.208,0,0,0,0-2.417Z" transform="translate(-325.295 -375.825)"/>
      <path id="Trazado_889055" data-name="Trazado 889055" d="M367.584,118.493a1.208,1.208,0,0,0,1.208-1.208v-9.523a1.208,1.208,0,1,0-2.417,0v9.523A1.208,1.208,0,0,0,367.584,118.493Z" transform="translate(-307.347 -95.234)"/>
      <path id="Trazado_889056" data-name="Trazado 889056" d="M366.376,211.1a1.208,1.208,0,1,0,2.417,0V209.77a1.208,1.208,0,1,0-2.417,0Z" transform="translate(-307.347 -180.807)"/>
      <path id="Trazado_889057" data-name="Trazado 889057" d="M81.8,68.581,64.629,38.834a5.074,5.074,0,0,0-8.788,0l-6.5,11.25a1.208,1.208,0,0,0,2.093,1.208l6.5-11.25a2.657,2.657,0,0,1,4.6,0L79.71,69.789a2.657,2.657,0,0,1-2.3,3.986H44.748a9.273,9.273,0,0,0-4.086-3.79c.031-.066.063-.131.1-.2l7.86-13.613a1.208,1.208,0,0,0-2.093-1.208l-7.86,13.613a5.22,5.22,0,0,0-.324.667,9.225,9.225,0,0,0-1.609-.144H30.711a14.042,14.042,0,1,0-15.735,0H9.214A9.225,9.225,0,0,0,0,78.319v2.6a1.208,1.208,0,1,0,2.417,0v-2.6a6.805,6.805,0,0,1,6.8-6.8h7.755L19.426,78.3l-3.5,26.378H2.82a.4.4,0,0,1-.4-.4V86.559a1.208,1.208,0,1,0-2.417,0v17.714a2.823,2.823,0,0,0,2.82,2.82H43.131a2.823,2.823,0,0,0,2.82-2.82V78.318a9.2,9.2,0,0,0-.251-2.127H77.409A5.074,5.074,0,0,0,81.8,68.581Zm-70.585-11.1A11.625,11.625,0,1,1,22.843,69.1,11.638,11.638,0,0,1,11.218,57.479Zm8.323,14.046,6.893.014-1.89,5.417H21.51Zm23.993,32.748a.4.4,0,0,1-.4.4H29.97L28.627,94.045a1.208,1.208,0,0,0-2.4.3l1.3,10.328H18.365l3.357-25.3h2.616l1.185,9.374a1.208,1.208,0,0,0,2.4-.3L26.637,78.294,29,71.521h7.737a6.805,6.805,0,0,1,6.8,6.8Z" transform="translate(0 -36.297)"/>
    </g>
  </g>
</svg>
