<svg xmlns="http://www.w3.org/2000/svg" width="122.486" height="122.486" viewBox="0 0 122.486 122.486">
  <g id="Grupo_1116663" data-name="Grupo 1116663" transform="translate(0.119 -0.011)">
    <rect id="Rect치ngulo_402033" data-name="Rect치ngulo 402033" width="122.486" height="122.486" rx="5" transform="translate(-0.119 0.011)" fill="#d7f5ea"/>
    <g id="Grupo_1117858" data-name="Grupo 1117858" transform="translate(-4.978 16.283)">
      <rect id="Rect치ngulo_410310" data-name="Rect치ngulo 410310" width="45.467" height="54.231" rx="21.006" transform="translate(43.652 12.522)" fill="#b6dbff"/>
      <path id="Trazado_889024" data-name="Trazado 889024" d="M119.994,56.119h35.959a3.437,3.437,0,0,1,3.436,3.436v47.36a3.437,3.437,0,0,1-3.436,3.436H119.994a3.437,3.437,0,0,1-3.436-3.436V59.555A3.437,3.437,0,0,1,119.994,56.119Z" transform="translate(-72.906 -43.597)" fill="#e3f1ff"/>
      <g id="Grupo_1117857" data-name="Grupo 1117857" transform="translate(55.573 5.156)">
        <path id="Trazado_889025" data-name="Trazado 889025" d="M200.259,11.08a4.205,4.205,0,0,0-4.205,4.205v.577l-4.169-.729a2.081,2.081,0,0,0-2.439,2.049v4.525h21.625V17.183a2.081,2.081,0,0,0-2.439-2.049l-4.169.729v-.577A4.205,4.205,0,0,0,200.259,11.08Z" transform="translate(-189.446 -11.08)" fill="#c86f5c" fill-rule="evenodd"/>
        <path id="Trazado_889026" data-name="Trazado 889026" d="M196.054,19.851v.577l-4.169-.729a2.081,2.081,0,0,0-2.439,2.049v4.525h19.738v-4.2a2.081,2.081,0,0,0-2.439-2.049l-2.281.4-1.017.178-.534.093c.066-5.806-6.86-5.006-6.86-.849Z" transform="translate(-189.446 -15.646)" fill="#f29988" fill-rule="evenodd"/>
        <path id="Trazado_889027" data-name="Trazado 889027" d="M328.737,125.9a30.434,30.434,0,0,0,8.4,3.335l2.854.728V142.2a9.85,9.85,0,0,1-1.394,5.113c-2.127,3.581-6.423,5.852-9.9,7.957l-1.962,1.186-1.962-1.186c-3.481-2.1-7.778-4.376-9.9-7.957a9.85,9.85,0,0,1-1.394-5.113V129.968l2.854-.728a30.436,30.436,0,0,0,8.4-3.335l2.008-1.254,2.008,1.254Z" transform="translate(-293.185 -106.076)" fill="#f2671f" fill-rule="evenodd"/>
        <path id="Trazado_889028" data-name="Trazado 889028" d="M328.736,125.906a30.433,30.433,0,0,0,8.4,3.335l1.628.415V141.71a9.85,9.85,0,0,1-1.394,5.113c-2.127,3.581-6.423,5.852-9.9,7.957l-1.754,1.06-.943-.57c-3.481-2.1-7.778-4.376-9.9-7.957a9.85,9.85,0,0,1-1.394-5.113V129.969l2.854-.728a30.436,30.436,0,0,0,8.4-3.335l2.008-1.254,2.008,1.254Z" transform="translate(-293.184 -106.077)" fill="#ff8748" fill-rule="evenodd"/>
        <path id="Trazado_889029" data-name="Trazado 889029" d="M340.593,434.316a11.99,11.99,0,0,1,11.939,10.9H328.654A11.99,11.99,0,0,1,340.593,434.316Z" transform="translate(-305.886 -365.095)" fill="#fdc72e" fill-rule="evenodd"/>
        <path id="Trazado_889030" data-name="Trazado 889030" d="M349.207,445.481H328.654a11.991,11.991,0,0,1,10.822-10.848,12.335,12.335,0,0,1,9.731,10.848Z" transform="translate(-305.886 -365.361)" fill="#fcdb35" fill-rule="evenodd"/>
      </g>
      <circle id="Elipse_11766" data-name="Elipse 11766" cx="5.71" cy="5.71" r="5.71" transform="translate(83.972 63.581) rotate(-6.258)" fill="#fdb0a0"/>
      <path id="Trazado_889031" data-name="Trazado 889031" d="M371.3,376.159a5.711,5.711,0,1,1,4.554-5.593A5.712,5.712,0,0,1,371.3,376.159Z" transform="translate(-282.173 -301.938)" fill="#ffcec0" fill-rule="evenodd"/>
      <path id="Trazado_889032" data-name="Trazado 889032" d="M194.5,434.316a11.99,11.99,0,0,1,11.939,10.9H182.558A11.99,11.99,0,0,1,194.5,434.316Z" transform="translate(-128.112 -359.939)" fill="#2a92fa" fill-rule="evenodd"/>
      <path id="Trazado_889033" data-name="Trazado 889033" d="M203.111,445.481H182.558a11.991,11.991,0,0,1,10.822-10.848,12.335,12.335,0,0,1,9.731,10.848Z" transform="translate(-128.112 -360.204)" fill="#4eb1fc" fill-rule="evenodd"/>
      <circle id="Elipse_11767" data-name="Elipse 11767" cx="5.71" cy="5.71" r="5.71" transform="matrix(0.984, -0.179, 0.179, 0.984, 59.743, 64.05)" fill="#fdb0a0"/>
      <path id="Trazado_889034" data-name="Trazado 889034" d="M225.2,376.159a5.711,5.711,0,0,1,0-11.185,5.711,5.711,0,0,1,0,11.185Z" transform="translate(-159.971 -301.938)" fill="#ffcec0" fill-rule="evenodd"/>
      <path id="Trazado_889035" data-name="Trazado 889035" d="M48.4,434.316a11.99,11.99,0,0,1,11.939,10.9H36.462A11.99,11.99,0,0,1,48.4,434.316Z" transform="translate(-5.91 -359.939)" fill="#a0d904" fill-rule="evenodd"/>
      <path id="Trazado_889036" data-name="Trazado 889036" d="M57.015,445.481H36.462a11.991,11.991,0,0,1,10.822-10.848,12.335,12.335,0,0,1,9.731,10.848Z" transform="translate(-5.91 -360.204)" fill="#baed2c" fill-rule="evenodd"/>
      <circle id="Elipse_11768" data-name="Elipse 11768" cx="5.71" cy="5.71" r="5.71" transform="matrix(0.984, -0.179, 0.179, 0.984, 35.845, 64.046)" fill="#fdb0a0"/>
      <path id="Trazado_889037" data-name="Trazado 889037" d="M79.106,376.159a5.711,5.711,0,0,1,0-11.185,5.711,5.711,0,0,1,0,11.185Z" transform="translate(-37.77 -301.938)" fill="#ffcec0" fill-rule="evenodd"/>
      <path id="Trazado_889038" data-name="Trazado 889038" d="M331.3,175.17c-.383.107-.734.2-1.047.28v9.286a6.051,6.051,0,0,0,.863,3.177c1.608,2.708,5.794,5.078,8.786,6.887.281-.17.571-.343.867-.518l.522-.424L331.3,175.17Z" transform="translate(-251.649 -143.177)" fill="#f2671f" fill-rule="evenodd"/>
      <path id="Trazado_889039" data-name="Trazado 889039" d="M346.12,151.982a35.132,35.132,0,0,1-9.469,3.792v9.286a6.051,6.051,0,0,0,.863,3.177c1.608,2.708,5.614,4.839,8.606,6.648,2.992-1.809,7-3.94,8.606-6.648a6.051,6.051,0,0,0,.863-3.177v-9.286A35.132,35.132,0,0,1,346.12,151.982Z" transform="translate(-257.003 -123.781)" fill="#f3f3ff" fill-rule="evenodd"/>
      <path id="Trazado_889040" data-name="Trazado 889040" d="M85.7,38.569a1.144,1.144,0,1,0-1.982,1.145l2.2,3.815a1.143,1.143,0,0,0,.843.562,1.082,1.082,0,0,0,.151.01,1.145,1.145,0,0,0,.81-.336l6.609-6.609a1.145,1.145,0,0,0-1.619-1.619l-5.555,5.554L85.7,38.569Zm3.415-9.033a36.091,36.091,0,0,0,8.323,3.337v8.405a4.872,4.872,0,0,1-.7,2.593C95.474,46,92.389,47.826,89.67,49.44l-.555.329-.554-.329c-2.721-1.614-5.806-3.443-7.067-5.569a4.873,4.873,0,0,1-.7-2.593V32.874a36.085,36.085,0,0,0,8.325-3.337Zm.605-2.307a33.847,33.847,0,0,0,9.145,3.655,1.144,1.144,0,0,1,.862,1.109v9.286a7.161,7.161,0,0,1-1.023,3.762c-1.56,2.627-4.911,4.615-7.868,6.369-.388.23-.767.455-1.13.674a1.142,1.142,0,0,1-1.184,0q-.548-.329-1.13-.673c-2.957-1.754-6.308-3.742-7.869-6.37A7.169,7.169,0,0,1,78.5,41.279V31.993a1.145,1.145,0,0,1,.862-1.109,33.862,33.862,0,0,0,9.146-3.655,1.143,1.143,0,0,1,1.212,0ZM87.97,62.166a6.9,6.9,0,0,0-3.856,3.455H72.547a6.857,6.857,0,0,0-12.329,0H48.652A6.9,6.9,0,0,0,44.8,62.166V15.974a2.294,2.294,0,0,1,2.292-2.29h7.278v2.147a1.144,1.144,0,0,0,1.145,1.146H77.256A1.144,1.144,0,0,0,78.4,15.831V13.684H85.68a2.293,2.293,0,0,1,2.291,2.29V23.1l-1.47.918A25.224,25.224,0,0,1,80.907,26.5h-18.6a1.145,1.145,0,0,0,0,2.289H74.744a1.147,1.147,0,0,0-.034.26v6.515h-12.4a1.145,1.145,0,0,0,0,2.289h12.4v2.858h-12.4a1.145,1.145,0,0,0,0,2.29h12.53a10.931,10.931,0,0,0,1.427,3.978,13.59,13.59,0,0,0,2.245,2.8h-16.2a1.145,1.145,0,0,0,0,2.29h19.01c1.339.94,2.748,1.778,4.084,2.573q.591.351,1.157.692l1.41.852v5.986Zm2.308,1.89a4.569,4.569,0,1,0,4.567,4.569A4.574,4.574,0,0,0,90.278,64.056Zm0,11.465a10.783,10.783,0,0,0-10.623,8.617H100.9A10.788,10.788,0,0,0,90.278,75.521ZM77.006,84.139a10.856,10.856,0,0,0-21.245,0Zm-23.893,0a10.857,10.857,0,0,0-21.247,0H53.113Zm17.84-15.513a4.569,4.569,0,1,0-4.569,4.568,4.575,4.575,0,0,0,4.569-4.568Zm2.29,0a6.92,6.92,0,0,0-.038-.715H83.456a6.92,6.92,0,0,0-.038.715,6.849,6.849,0,0,0,2.553,5.332A13.145,13.145,0,0,0,78.33,80.9a13.145,13.145,0,0,0-7.641-6.943A6.848,6.848,0,0,0,73.242,68.625Zm-23.9,0a6.92,6.92,0,0,0-.037-.715H59.561c-.023.235-.036.473-.036.715a6.847,6.847,0,0,0,2.552,5.332A13.138,13.138,0,0,0,54.435,80.9a13.148,13.148,0,0,0-7.64-6.943A6.852,6.852,0,0,0,49.347,68.625Zm-11.427,0a4.569,4.569,0,1,0,4.567-4.569A4.573,4.573,0,0,0,37.92,68.625ZM56.655,14.687H76.111V11.281A.946.946,0,0,0,75,10.347l-4.191.733a1.144,1.144,0,0,1-1.342-1.128v-.58a3.084,3.084,0,1,0-6.167,0v.58a1.146,1.146,0,0,1-1.343,1.128l-4.192-.733a.949.949,0,0,0-1.111.933ZM90.516,25.955a31.173,31.173,0,0,0,8.72,3.473l1.992.508V41.279A8.746,8.746,0,0,1,100,45.808c-1.745,2.94-5.249,5.023-8.34,6.861q-.6.355-1.172.7l-1.369.828-1.369-.828c-.383-.231-.776-.464-1.173-.7-3.091-1.837-6.594-3.921-8.341-6.861A8.76,8.76,0,0,1,77,41.279V29.936l1.992-.508a31.146,31.146,0,0,0,8.722-3.473l1.4-.875ZM90.259,56.18v5.586h.019a6.855,6.855,0,0,1,4.306,12.191,13.149,13.149,0,0,1,8.781,11.224,1.147,1.147,0,0,1-1.141,1.247H30.542A1.146,1.146,0,0,1,29.4,85.181a13.149,13.149,0,0,1,8.781-11.224,6.855,6.855,0,0,1,4.306-12.191h.018V15.974a4.586,4.586,0,0,1,4.582-4.58h7.278v-.114A3.236,3.236,0,0,1,58.16,8.092l2.9.508A5.374,5.374,0,0,1,71.7,8.6l2.9-.508A3.237,3.237,0,0,1,78.4,11.281v.114h7.279a4.584,4.584,0,0,1,4.58,4.58V23.1l1.469.918a28.928,28.928,0,0,0,8.074,3.2l2.856.728a1.143,1.143,0,0,1,.86,1.109V41.279a11,11,0,0,1-1.554,5.7c-2.044,3.441-5.813,5.682-9.139,7.659-.393.234-.78.464-1.158.692l-1.409.852ZM56.984,50.092l-4.124,4.124-.981-1.7A1.144,1.144,0,1,0,49.9,53.664l1.725,2.99a1.148,1.148,0,0,0,.843.563,1.183,1.183,0,0,0,.15.009,1.15,1.15,0,0,0,.81-.335l5.179-5.18a1.145,1.145,0,1,0-1.619-1.619Zm0-14.212-4.124,4.125-.981-1.7A1.144,1.144,0,1,0,49.9,39.452l1.725,2.99a1.148,1.148,0,0,0,.843.563,1.182,1.182,0,0,0,.15.009,1.15,1.15,0,0,0,.81-.335L58.6,37.5a1.145,1.145,0,1,0-1.619-1.619Zm0-14.211-4.124,4.124-.981-1.7A1.145,1.145,0,1,0,49.9,25.241l1.725,2.989a1.145,1.145,0,0,0,.843.563,1.074,1.074,0,0,0,.15.01,1.154,1.154,0,0,0,.81-.335l5.179-5.18a1.145,1.145,0,1,0-1.619-1.619ZM81.75,54.921H62.309a1.145,1.145,0,1,0,0,2.289H81.75a1.145,1.145,0,1,0,0-2.289ZM61.164,22.5a1.145,1.145,0,0,0,1.145,1.145H81.88a1.145,1.145,0,0,0,0-2.29H62.309A1.145,1.145,0,0,0,61.164,22.5Z" transform="translate(0 0)" fill-rule="evenodd"/>
    </g>
  </g>
</svg>
