<svg xmlns="http://www.w3.org/2000/svg" width="100" height="100" viewBox="0 0 100 100">
  <g id="Grupo_1100965" data-name="Grupo 1100965" transform="translate(0.242)">
    <g id="Grupo_1098742" data-name="Grupo 1098742" transform="translate(0)">
      <rect id="Rectángulo_400898" data-name="Rectángulo 400898" width="100" height="100" rx="50" transform="translate(-0.242)" fill="#fff" opacity="0.859"/>
      <g id="Rectángulo_400907" data-name="Rectángulo 400907" transform="translate(-0.242)" fill="none" stroke="#3acc97" stroke-linecap="round" stroke-width="2" stroke-dasharray="7">
        <rect width="100" height="100" rx="50" stroke="none"/>
        <rect x="1" y="1" width="98" height="98" rx="49" fill="none"/>
      </g>
    </g>
    <g id="Grupo_1107006" data-name="Grupo 1107006" transform="translate(8.156 8.156)">
      <rect id="Rectángulo_400898-2" data-name="Rectángulo 400898" width="84" height="84" rx="42" transform="translate(-0.399 -0.157)" fill="#d7f5ea" opacity="0.859"/>
      <rect id="Rectángulo_400907-2" data-name="Rectángulo 400907" width="84" height="84" rx="42" transform="translate(-0.398 -0.157)" fill="none"/>
    </g>
    <g id="Grupo_1117856" data-name="Grupo 1117856" transform="translate(-12.862 11.094)">
      <g id="Grupo_1117855" data-name="Grupo 1117855" transform="translate(29.101 1.14)">
        <g id="Grupo_1117844" data-name="Grupo 1117844" transform="translate(23.305)">
          <path id="Trazado_888987" data-name="Trazado 888987" d="M204.266,59.861H193.746a4.953,4.953,0,0,0-4.953,4.953v10.17h20.426V64.814A4.953,4.953,0,0,0,204.266,59.861Z" transform="translate(-188.793 -51.903)" fill="#fe76a8"/>
          <path id="Trazado_888988" data-name="Trazado 888988" d="M199.1,59.86a4.953,4.953,0,0,0-4.953,4.953v10.17h-5.35V64.813a4.953,4.953,0,0,1,4.953-4.953Z" transform="translate(-188.793 -51.902)" fill="#fe5694"/>
          <path id="Trazado_888989" data-name="Trazado 888989" d="M228.3,34.7a6.047,6.047,0,1,1-11.658-2.257c2.46,1.008,3.068.453,5.611.453s2.814.73,5.611-.453A6.023,6.023,0,0,1,228.3,34.7Z" transform="translate(-212.037 -28.65)" fill="#ffdfcf"/>
          <path id="Trazado_888990" data-name="Trazado 888990" d="M230.3,11.29a6.047,6.047,0,0,1-11.222,0,6.048,6.048,0,0,1,11.222,0Z" transform="translate(-214.471 -7.5)" fill="#7a6d79"/>
        </g>
        <path id="Trazado_888991" data-name="Trazado 888991" d="M204.266,367.753H193.746a4.953,4.953,0,0,1-4.953-4.953V352.63h20.426V362.8A4.953,4.953,0,0,1,204.266,367.753Z" transform="translate(-165.488 -300.177)" fill="#8ac9fe"/>
        <path id="Trazado_888992" data-name="Trazado 888992" d="M199.1,367.753a4.953,4.953,0,0,1-4.953-4.953V352.63h-5.35V362.8a4.953,4.953,0,0,0,4.953,4.953Z" transform="translate(-165.488 -300.177)" fill="#60b7ff"/>
        <path id="Trazado_888993" data-name="Trazado 888993" d="M228.3,430.959a6.047,6.047,0,1,0-11.658,2.257c2.46-1.008,3.068-.453,5.611-.453s2.814-.729,5.611.453A6.022,6.022,0,0,0,228.3,430.959Z" transform="translate(-188.732 -361.472)" fill="#ffdfcf"/>
        <path id="Trazado_888994" data-name="Trazado 888994" d="M230.3,458.4a6.048,6.048,0,1,0-5.611,3.79A6.046,6.046,0,0,0,230.3,458.4Z" transform="translate(-191.166 -386.658)" fill="#7a6d79"/>
        <g id="Grupo_1117847" data-name="Grupo 1117847" transform="translate(0 15.83)">
          <g id="Grupo_1117845" data-name="Grupo 1117845">
            <path id="Trazado_888995" data-name="Trazado 888995" d="M70.38,114.136l-5.26,9.11a4.954,4.954,0,0,0,1.813,6.767l8.807,5.085,10.213-17.69-8.807-5.085A4.954,4.954,0,0,0,70.38,114.136Z" transform="translate(-60.047 -111.658)" fill="#8ac9fe"/>
            <path id="Trazado_888996" data-name="Trazado 888996" d="M67.793,157.419a4.953,4.953,0,0,0,1.813,6.766l8.808,5.085L75.739,173.9l-8.808-5.085a4.953,4.953,0,0,1-1.813-6.766Z" transform="translate(-60.046 -150.464)" fill="#60b7ff"/>
            <path id="Trazado_888997" data-name="Trazado 888997" d="M51.709,113a6.047,6.047,0,1,1-7.784,8.968c2.1-1.627,1.926-2.431,3.2-4.633s2.039-2.073,2.414-5.086A6.024,6.024,0,0,1,51.709,113Z" transform="translate(-42.637 -112.157)" fill="#ae6c6c"/>
            <path id="Trazado_888998" data-name="Trazado 888998" d="M42.347,111.912a6.048,6.048,0,0,1-5.611,9.719,6.048,6.048,0,0,1,5.611-9.719Z" transform="translate(-35.447 -111.823)" fill="#7a6d79"/>
          </g>
          <g id="Grupo_1117846" data-name="Grupo 1117846" transform="translate(41.13 20.435)">
            <path id="Trazado_888999" data-name="Trazado 888999" d="M326.911,257.97l-5.26,9.11a4.954,4.954,0,0,1-6.767,1.813l-8.807-5.085,10.213-17.69L325.1,251.2a4.954,4.954,0,0,1,1.813,6.767Z" transform="translate(-306.077 -246.118)" fill="#9be69d"/>
            <path id="Trazado_889000" data-name="Trazado 889000" d="M324.326,335.3a4.953,4.953,0,0,1-6.766,1.813l-8.808-5.085-2.675,4.633,8.808,5.085a4.953,4.953,0,0,0,6.766-1.813Z" transform="translate(-306.077 -318.971)" fill="#6fd7a3"/>
            <path id="Trazado_889001" data-name="Trazado 889001" d="M406.009,321.367a6.047,6.047,0,1,0-3.875,11.225c.357-2.635,1.142-2.884,2.414-5.086s.775-2.8,3.2-4.633a6.02,6.02,0,0,0-1.736-1.506Z" transform="translate(-383.127 -309.242)" fill="#ffdfcf"/>
            <path id="Trazado_889002" data-name="Trazado 889002" d="M429.558,335.47a6.048,6.048,0,1,0,.477,6.755A6.045,6.045,0,0,0,429.558,335.47Z" transform="translate(-404.94 -321.84)" fill="#7a6d79"/>
          </g>
        </g>
        <g id="Grupo_1117850" data-name="Grupo 1117850" transform="translate(0 15.83)">
          <g id="Grupo_1117848" data-name="Grupo 1117848" transform="translate(0 20.435)">
            <path id="Trazado_889003" data-name="Trazado 889003" d="M65.121,257.97l5.26,9.11a4.954,4.954,0,0,0,6.767,1.813l8.807-5.085-10.213-17.69L66.934,251.2A4.954,4.954,0,0,0,65.121,257.97Z" transform="translate(-60.047 -246.118)" fill="#7a6d79"/>
            <path id="Trazado_889004" data-name="Trazado 889004" d="M85.836,335.3a4.953,4.953,0,0,0,6.766,1.813l8.808-5.085,2.675,4.633-8.808,5.085a4.953,4.953,0,0,1-6.766-1.813Z" transform="translate(-78.178 -318.971)" fill="#685e68"/>
            <path id="Trazado_889005" data-name="Trazado 889005" d="M45.661,321.367a6.047,6.047,0,1,1,3.875,11.225c-.357-2.635-1.142-2.884-2.414-5.086s-.775-2.8-3.2-4.633a6.02,6.02,0,0,1,1.736-1.506Z" transform="translate(-42.637 -309.242)" fill="#ffdfcf"/>
            <path id="Trazado_889006" data-name="Trazado 889006" d="M36.736,335.47a6.048,6.048,0,0,1,5.611,9.719,6.048,6.048,0,0,1-5.611-9.719Z" transform="translate(-35.448 -321.84)" fill="#7a6d79"/>
          </g>
          <g id="Grupo_1117849" data-name="Grupo 1117849" transform="translate(41.13)">
            <path id="Trazado_889007" data-name="Trazado 889007" d="M321.651,114.136l5.26,9.11a4.954,4.954,0,0,1-1.813,6.767L316.29,135.1l-10.213-17.69,8.807-5.085A4.954,4.954,0,0,1,321.651,114.136Z" transform="translate(-306.077 -111.658)" fill="#ffe177"/>
            <path id="Trazado_889008" data-name="Trazado 889008" d="M366.3,157.419a4.953,4.953,0,0,1-1.813,6.766l-8.808,5.085,2.675,4.633,8.808-5.085a4.953,4.953,0,0,0,1.813-6.766Z" transform="translate(-348.139 -150.464)" fill="#fece85"/>
            <path id="Trazado_889009" data-name="Trazado 889009" d="M399.962,113a6.047,6.047,0,1,0,7.784,8.968c-2.1-1.627-1.926-2.431-3.2-4.633s-2.039-2.073-2.414-5.086a6.024,6.024,0,0,0-2.173.751Z" transform="translate(-383.127 -112.157)" fill="#ae6c6c"/>
            <path id="Trazado_889010" data-name="Trazado 889010" d="M423.947,111.912a6.048,6.048,0,0,0,5.611,9.719,6.048,6.048,0,0,0-5.611-9.719Z" transform="translate(-404.94 -111.823)" fill="#7a6d79"/>
          </g>
        </g>
        <circle id="Elipse_11765" data-name="Elipse 11765" cx="20.551" cy="20.551" r="20.551" transform="translate(12.968 17.216)" fill="#dc8758"/>
        <path id="Trazado_889011" data-name="Trazado 889011" d="M184.325,189.143l-3.4,8.058a.979.979,0,0,1-1.283.522l-11.363-4.79a.979.979,0,0,1-.522-1.283l3.4-8.058a.979.979,0,0,1,1.283-.522l11.363,4.79A.979.979,0,0,1,184.325,189.143Z" transform="translate(-147.586 -156.322)" fill="#d8ecfe"/>
        <path id="Trazado_889012" data-name="Trazado 889012" d="M265.5,210.635l-8.02,3.486a.979.979,0,0,1-1.288-.508L251.277,202.3a.979.979,0,0,1,.508-1.288l8.02-3.486a.979.979,0,0,1,1.288.508l4.916,11.309A.979.979,0,0,1,265.5,210.635Z" transform="translate(-218.406 -168.58)" fill="#f5f8f9"/>
        <path id="Trazado_889013" data-name="Trazado 889013" d="M256.267,250.378l-8.02,3.486a.979.979,0,0,1-1.288-.508l-4.916-11.309a.979.979,0,0,1,.508-1.288l8.02-3.486a.979.979,0,0,1,1.288.508l4.916,11.309A.979.979,0,0,1,256.267,250.378Z" transform="translate(-210.576 -202.283)" fill="#f5f8f9"/>
        <path id="Trazado_889014" data-name="Trazado 889014" d="M143.088,161.321q-.88.078-1.781.078a20.551,20.551,0,1,1,0-41.1q.9,0,1.781.078a20.551,20.551,0,0,0,0,40.946Z" transform="translate(-107.791 -103.154)" fill="#c57a44"/>
        <g id="Grupo_1117851" data-name="Grupo 1117851" transform="translate(35.338 49.645)">
          <path id="Trazado_889015" data-name="Trazado 889015" d="M277.463,347.3l1.8,1.8v6.091h5.151v-7.268a2.318,2.318,0,0,0-.679-1.638l-2.628-2.628-2.589,1.1Z" transform="translate(-276.02 -342.212)" fill="#8ac9fe"/>
          <path id="Trazado_889016" data-name="Trazado 889016" d="M268.719,338.553l.69.69,3.643-3.643-.69-.69a2.576,2.576,0,0,0-3.643,3.643Z" transform="translate(-267.966 -334.156)" fill="#ffdfcf"/>
        </g>
        <g id="Grupo_1117852" data-name="Grupo 1117852" transform="translate(41.263 16.495)">
          <path id="Trazado_889017" data-name="Trazado 889017" d="M320.447,120.491l-5.275,3.046-.6,2.223-2.031.876a1.055,1.055,0,1,1-2.06-.456l-.885-1.754.9-3.355a2.316,2.316,0,0,1,1.079-1.407l6.293-3.634" transform="translate(-309.198 -116.031)" fill="#ffe177"/>
          <path id="Trazado_889018" data-name="Trazado 889018" d="M309.53,175.69a2.609,2.609,0,0,1-.669-.088,2.577,2.577,0,0,1-1.821-3.154l.315-1.178,4.976,1.334-.315,1.176A2.576,2.576,0,0,1,309.53,175.69Z" transform="translate(-306.953 -162.875)" fill="#9b5e5e"/>
        </g>
        <g id="Grupo_1117853" data-name="Grupo 1117853" transform="translate(6.886 37.406)">
          <path id="Trazado_889019" data-name="Trazado 889019" d="M83.333,262.03l5.275-3.046,2.222.6s2.452-.538,2.82-1.912-1.486-3.064-1.486-3.064l-3.356-.9a2.316,2.316,0,0,0-1.758.231l-6.293,3.634Z" transform="translate(-80.758 -253.626)" fill="#7a6d79"/>
          <path id="Trazado_889020" data-name="Trazado 889020" d="M151.454,262.867a2.609,2.609,0,0,1-.088.669,2.577,2.577,0,0,1-3.154,1.821l-1.178-.315,1.334-4.976,1.176.315A2.576,2.576,0,0,1,151.454,262.867Z" transform="translate(-136.961 -259.087)" fill="#ffdfcf"/>
        </g>
        <g id="Grupo_1117854" data-name="Grupo 1117854" transform="translate(23.304 49.646)">
          <path id="Trazado_889021" data-name="Trazado 889021" d="M195.736,347.308l-1.8,1.8V355.2h-5.151v-7.268a2.318,2.318,0,0,1,.679-1.638l2.628-2.628,2.589,1.1Z" transform="translate(-188.786 -342.221)" fill="#60b7ff"/>
          <path id="Trazado_889022" data-name="Trazado 889022" d="M214.88,338.562l-.69.69-3.643-3.643.69-.69a2.576,2.576,0,0,1,3.643,3.643Z" transform="translate(-207.24 -334.165)" fill="#ffdfcf"/>
        </g>
      </g>
      <path id="Trazado_889023" data-name="Trazado 889023" d="M93.683,48.542a7.206,7.206,0,0,0-.953-.46A6.061,6.061,0,0,0,89.822,41.5l-4.5-2.6,4.5-2.6a6.06,6.06,0,0,0,2.908-6.579,7.18,7.18,0,0,0,4.525-7.259,1.14,1.14,0,0,0-2.273.181,4.922,4.922,0,0,1-.766,3.038,4.9,4.9,0,0,1-4.354-7.541,4.925,4.925,0,0,1,3.015.857,1.14,1.14,0,1,0,1.294-1.877,7.2,7.2,0,0,0-8.552.286,6.061,6.061,0,0,0-7.15-.77l-4.486,2.59-.011.006V14.05a6.061,6.061,0,0,0-4.243-5.807,7.188,7.188,0,1,0-14.219,0,6.061,6.061,0,0,0-4.243,5.807v5.193l-4.5-2.6a6.061,6.061,0,0,0-7.151.771A7.189,7.189,0,1,0,32.509,29.73a6.061,6.061,0,0,0,2.907,6.58l4.5,2.6-4.5,2.6a6.061,6.061,0,0,0-2.908,6.579A7.188,7.188,0,1,0,39.619,60.4a6.058,6.058,0,0,0,7.15.772l4.5-2.6V61.1a1.14,1.14,0,0,0,2.28,0V56.5a1.19,1.19,0,0,1,.344-.832l1.822-1.822,2.032,2.032-.993.993a1.139,1.139,0,0,0-.334.806v4.055a1.14,1.14,0,1,0,2.28,0V60.242a21.793,21.793,0,0,0,7.845,0v1.485a1.14,1.14,0,1,0,2.28,0V57.671a1.139,1.139,0,0,0-.334-.806l-.993-.994,2.031-2.031,1.823,1.823a1.169,1.169,0,0,1,.345.832v7.267h0A3.792,3.792,0,0,1,69.038,67.4a7.183,7.183,0,0,0-12.836,0A3.828,3.828,0,0,1,54.1,65.736a1.14,1.14,0,0,0-1.951,1.18,6.117,6.117,0,0,0,3.365,2.65,7.188,7.188,0,1,0,14.219.005,6.061,6.061,0,0,0,4.243-5.807V58.571l4.5,2.6a6.057,6.057,0,0,0,7.15-.772,7.217,7.217,0,0,0,.876.6,7.188,7.188,0,1,0,7.188-12.45ZM62.619,65.718a4.915,4.915,0,0,1,4.84,4.1,7.21,7.21,0,0,0-9.681,0A4.915,4.915,0,0,1,62.619,65.718Zm0,9.816a4.912,4.912,0,0,1-4.356-2.651,4.9,4.9,0,0,1,8.712,0A4.912,4.912,0,0,1,62.619,75.534Zm24.35-56.276a7.2,7.2,0,0,0,4.845,8.384,4.908,4.908,0,0,1-4.845-8.384Zm-2.89-.157A7.2,7.2,0,0,0,90.1,30.238c.135,0,.269-.006.4-.013a3.792,3.792,0,0,1-1.821,4.111l-4.463,2.577a21.542,21.542,0,0,0-5.085-12.071l1.4-.808a1.14,1.14,0,0,0-1.14-1.974l-3.625,2.093a1.14,1.14,0,0,0-.531.692l-.3,1.123-2.774-.743.6-2.255a1.169,1.169,0,0,1,.548-.715l6.293-3.634h0a3.791,3.791,0,0,1,4.47.48ZM66,52.346a1.434,1.434,0,0,1,1.906-.11L65.89,54.252A1.438,1.438,0,0,1,66,52.346ZM69.256,50.4a3.687,3.687,0,0,0-2.241-.752h0a3.715,3.715,0,0,0-1.3.234L61.677,40.6,69.4,37.24l4.788,11.014ZM60.62,38.57a2.124,2.124,0,0,0-1.272,1.971l-8.96-3.777L53.66,29l8.367,3.528h0a2.123,2.123,0,0,0-1.1,2.788l1.14,2.623ZM71.43,36.186a2.116,2.116,0,0,0-2.788-1.1l-4.485,1.949-1.076-2.477L70.807,31.2l4.787,11.015-1.3.564Zm1.137-6.926A1.436,1.436,0,0,1,71.552,27.5l.02-.075,2.774.743-.02.075a1.438,1.438,0,0,1-1.758,1.015ZM62.619,2.28a4.912,4.912,0,0,1,4.356,2.651,4.9,4.9,0,0,1-8.712,0A4.912,4.912,0,0,1,62.619,2.28ZM67.459,8a4.907,4.907,0,0,1-9.681,0,7.21,7.21,0,0,0,9.681,0ZM56.2,10.416a7.183,7.183,0,0,0,12.838,0,3.792,3.792,0,0,1,2.654,3.634V19.2a21.766,21.766,0,0,0-18.146-.011V14.051A3.792,3.792,0,0,1,56.2,10.416ZM39.4,25.5a4.916,4.916,0,0,1-5.976,2.14,7.2,7.2,0,0,0,4.845-8.382A4.915,4.915,0,0,1,39.4,25.5Zm-8.5-4.908a4.911,4.911,0,0,1,4.259-2.453c.072,0,.144,0,.216.007a4.9,4.9,0,0,1-4.36,7.544,4.917,4.917,0,0,1-.114-5.1Zm0,36.627a4.916,4.916,0,0,1,.114-5.1,4.9,4.9,0,0,1,4.36,7.545A4.912,4.912,0,0,1,30.9,57.22Zm7.37,1.334a7.21,7.21,0,0,0-4.838-8.383,4.906,4.906,0,0,1,4.838,8.383Zm7.36.638a3.791,3.791,0,0,1-4.474-.483,7.183,7.183,0,0,0-6.42-11.116,3.792,3.792,0,0,1,1.82-4.116h0l6.294-3.634a1.169,1.169,0,0,1,.893-.118l2.255.6L45.255,43.1l-1.123-.3a1.14,1.14,0,0,0-.865.114l-3.348,1.933a1.14,1.14,0,1,0,1.14,1.974l1.121-.647a21.936,21.936,0,0,0,7.914,10.437ZM48.275,40.94a1.436,1.436,0,0,1-.743,2.774l-.075-.02L48.2,40.92ZM59.347,54.253l-2.017-2.017a1.435,1.435,0,0,1,2.017,2.017Zm-.464,3.7,1.967-1.968A3.716,3.716,0,0,0,55.6,50.733l-3.319,3.319a3.454,3.454,0,0,0-.627.867,19.621,19.621,0,0,1-7.4-9.724l2.691.721a3.716,3.716,0,0,0,1.923-7.178l-4.532-1.214a3.457,3.457,0,0,0-1.065-.113,19.379,19.379,0,0,1,2.5-8.144,1.14,1.14,0,1,0-1.977-1.134,21.657,21.657,0,0,0-2.769,8.782l-4.465-2.578a3.792,3.792,0,0,1-1.821-4.115c.134.007.268.013.4.013A7.184,7.184,0,0,0,41.156,19.1a3.791,3.791,0,0,1,4.474-.483l4.458,2.574a21.99,21.99,0,0,0-2.943,2.511,1.14,1.14,0,1,0,1.626,1.6A19.415,19.415,0,0,1,71,21.4a3.465,3.465,0,0,0-.436.981L69.35,26.911a3.687,3.687,0,0,0,.15,2.369l-4.584,1.993L54.4,26.837a2.123,2.123,0,0,0-2.775,1.129l-3.4,8.06A2.124,2.124,0,0,0,49.354,38.8l11.089,4.675,3.434,7.9a3.72,3.72,0,0,0,.51,4.613l1.967,1.968a19.7,19.7,0,0,1-7.471,0Zm12.14-5.841,4.224-1.835a2.121,2.121,0,0,0,1.1-2.788L75.2,44.867l1.444-.627a2.118,2.118,0,0,0,1.1-2.788l-4.3-9.9a3.72,3.72,0,0,0,3.082-2.716l.721-2.688a19.41,19.41,0,0,1-3.658,28.77,3.46,3.46,0,0,0-.631-.867Zm8.585,7.077-4.465-2.578A21.776,21.776,0,0,0,84.215,40.9l4.467,2.579a3.792,3.792,0,0,1,1.82,4.116,7.183,7.183,0,0,0-6.42,11.116,3.791,3.791,0,0,1-4.473.483Zm6.229-6.88a4.9,4.9,0,0,1,5.969-2.141,7.21,7.21,0,0,0-4.838,8.383,4.915,4.915,0,0,1-1.131-6.242Zm8.5,4.908a4.912,4.912,0,0,1-4.474,2.447,4.9,4.9,0,0,1,4.36-7.545,4.917,4.917,0,0,1,.114,5.1Z"/>
    </g>
  </g>
</svg>
