<svg xmlns="http://www.w3.org/2000/svg" width="85" height="85" viewBox="0 0 85 85">
  <g id="Grupo_1117170" data-name="Grupo 1117170" transform="translate(-625.949 -6616)">
    <rect id="Rectángulo_409890" data-name="Rectángulo 409890" width="85" height="85" transform="translate(625.949 6616)" fill="#81c784"/>
    <g id="Grupo_1117169" data-name="Grupo 1117169" transform="translate(611.341 6609.561)">
      <path id="Trazado_887968" data-name="Trazado 887968" d="M60.916,49.489H76.681a70.854,70.854,0,0,1,3.91-5.921,29.017,29.017,0,0,0,2.031-3.053,1.988,1.988,0,0,0-.215-2.075l-1.84-2.484a4.781,4.781,0,0,1-3.329-.679,4.134,4.134,0,0,1-6.954-2.816A7,7,0,0,1,68.8,30.437a6.126,6.126,0,0,1-.187-4.939,6.683,6.683,0,0,1,.995-1.711l-.008-.053a3.464,3.464,0,0,1-.033-.458A3.592,3.592,0,0,1,70.791,20.6a4.244,4.244,0,0,1,2.847-1.07,4.323,4.323,0,0,1,2.76,1.033,6.469,6.469,0,0,1,1.47-.655,7.419,7.419,0,0,1,2.17-.321A7.23,7.23,0,0,1,83,20.2a2.066,2.066,0,0,0,.044-.436,3.591,3.591,0,0,1,1.221-2.674,4.244,4.244,0,0,1,2.847-1.07,4.322,4.322,0,0,1,2.76,1.033,6.469,6.469,0,0,1,1.47-.655,7.419,7.419,0,0,1,2.17-.321A6.863,6.863,0,0,1,97.6,17.357a4.169,4.169,0,0,1,1.81,3.323,3.579,3.579,0,0,1-.025.422,4.244,4.244,0,0,1,.759.237q.241-.05.484-.08a6.246,6.246,0,0,1,.763-.047,6.1,6.1,0,0,1,3.907,1.4,5.838,5.838,0,0,1,1.921,2.98,4.594,4.594,0,0,1,2.557,1.309,4.475,4.475,0,0,1-.046,6.358,4.6,4.6,0,0,1-3.235,1.322c-.05,0-.1,0-.158,0a4.6,4.6,0,0,1-3.8,1.991,4.686,4.686,0,0,1-2.059-.483,4.635,4.635,0,0,1-3.462.374,34.349,34.349,0,0,1-3.99,2.037,15.7,15.7,0,0,0-4.74,2.81.739.739,0,0,1-.051.055,15.871,15.871,0,0,0-3.186,4.513A23.857,23.857,0,0,0,83.7,49.489h29.431a.754.754,0,0,1,.754.754,26.863,26.863,0,0,1-53.726,0,.754.754,0,0,1,.754-.754Zm32.808-17q-.227.022-.459.022a4.761,4.761,0,0,1-1.608-.28c.142.654.311,1.352.475,1.922.05.173.1.332.146.472.233-.107.451-.2.664-.3.384-.169.748-.328,1.1-.512A4.438,4.438,0,0,1,93.724,32.49Zm-5.673.393q-.081,0-.163,0a4.222,4.222,0,0,1-1.173-.171,4.259,4.259,0,0,1-2.476.276,4.774,4.774,0,0,1-.514.964L86.3,37.063c.2.247,1.749-.643,1.956-.749.236-.121.17-.581.1-1.205-.077-.67-.191-1.474-.3-2.226Z" transform="translate(-29.916)" fill-rule="evenodd"/>
      <path id="Trazado_887969" data-name="Trazado 887969" d="M193.271,151.422h3.717a26.231,26.231,0,0,1,1.56-4.261,17.365,17.365,0,0,1,3.487-4.937l.022-.02a16.615,16.615,0,0,1,5.2-3.14c1-.457,2.035-.928,3.029-1.483a4.6,4.6,0,0,1-.377-.333q-.108-.107-.209-.22c-.433.231-.856.416-1.3.613-.392.172-.8.353-1.221.562h0a.815.815,0,0,1-.165.063.76.76,0,0,1-.091.017c-.457.072-.795-.225-1.035-.78a8.942,8.942,0,0,1-.342-1.006c-.2-.694-.406-1.566-.567-2.339a4.123,4.123,0,0,1-.374.214q-.111.056-.225.105c.118.786.241,1.649.326,2.39.139,1.215.09,2.2-.376,2.435l-.518.272c-1.527.806-2.875,1.516-3.817.378l-2.462-2.973a4.807,4.807,0,0,1-.615.4l1.555,2.1a3.483,3.483,0,0,1,.373,3.595,28.252,28.252,0,0,1-2.172,3.3c-1.07,1.5-2.35,3.305-3.4,5.05Z" transform="translate(-144.768 -101.933)" fill="#c99c6d" fill-rule="evenodd"/>
      <path id="Trazado_887970" data-name="Trazado 887970" d="M121.924,271h-7.917c-.056.138-.112.28-.165.426a7.248,7.248,0,0,0-.262.855,10.335,10.335,0,0,0-.191,1.492,13.793,13.793,0,0,1-.241,1.867,25.268,25.268,0,0,1-1.231,3.668l-.252.645c-.187.484.031-.078-.141.372a11.837,11.837,0,0,1-1.838,3.6,4.03,4.03,0,0,1-1.609,1.128,2.391,2.391,0,0,1-1.839-.015c-.943-.444-1.327-1.517-1.726-2.634-.074-.208-.046-.131,0,0h0l-.069-.192c-.076-.213-.007-.017-.09-.246a7.425,7.425,0,0,1-.657-3.11,6.472,6.472,0,0,1,.463-1.72,5.583,5.583,0,0,0,.329-1.093,2.6,2.6,0,0,0-.081-1.012,6.516,6.516,0,0,0-.4-1.055c-.141-.308-.3-.62-.441-.9-.16-.317-.3-.6-.419-.886a4.578,4.578,0,0,1-.31-1.189H89.2l.058.063a15.045,15.045,0,0,0,1.364,1.231,11.815,11.815,0,0,1,1.367,1.254,2.749,2.749,0,0,1,.693,1.469,5.265,5.265,0,0,1-.088,1.6,21.02,21.02,0,0,1-.487,2.2,8.041,8.041,0,0,1-.609,1.6,2.866,2.866,0,0,1-1.234,1.222,1.64,1.64,0,0,0-.275.184,1.393,1.393,0,0,0-.281.517,14.525,14.525,0,0,0-.407,1.437l-.115.467a21.1,21.1,0,0,1-1.248,4,2.95,2.95,0,0,1-1.151,1.295,2.371,2.371,0,0,1-1.215.294,2.339,2.339,0,0,1-1.043-.211,1.919,1.919,0,0,1-.873-.869,4.905,4.905,0,0,1-.43-1.356c-.1-.518-.187-1.149-.278-1.913-.037-.306-.086-.733-.136-1.176-.144-1.255-.3-2.637-.472-3.608a7.94,7.94,0,0,0-.337-1.37,3.211,3.211,0,0,0-.405-.767c-.123-.175-.262-.348-.407-.529a9.267,9.267,0,0,1-1.006-1.451,7.974,7.974,0,0,1-.62-1.539,6.927,6.927,0,0,1-.275-1.577,7.41,7.41,0,0,1,.182-1.819c.043-.227.085-.446.11-.65H71.236a25.355,25.355,0,0,0,50.688,0Z" transform="translate(-39.471 -220.001)" fill="#4394cf" fill-rule="evenodd"/>
      <path id="Trazado_887971" data-name="Trazado 887971" d="M104.579,282.589l-.066-.185c-.074-.208-.046-.131,0,0h0l-.069-.192c-.076-.213-.007-.017-.09-.246a7.426,7.426,0,0,1-.657-3.11,6.473,6.473,0,0,1,.463-1.72,5.582,5.582,0,0,0,.329-1.093,2.6,2.6,0,0,0-.081-1.012,6.517,6.517,0,0,0-.4-1.055c-.141-.308-.3-.62-.441-.9-.16-.317-.3-.6-.419-.886a4.578,4.578,0,0,1-.31-1.189H89.2l.058.063a15.046,15.046,0,0,0,1.364,1.231,11.815,11.815,0,0,1,1.367,1.254,2.749,2.749,0,0,1,.693,1.469,5.265,5.265,0,0,1-.088,1.6,21.027,21.027,0,0,1-.487,2.2,8.041,8.041,0,0,1-.609,1.6,2.865,2.865,0,0,1-1.234,1.222,1.64,1.64,0,0,0-.275.184,1.392,1.392,0,0,0-.281.517,14.526,14.526,0,0,0-.407,1.437l-.115.467a21.1,21.1,0,0,1-1.248,4,2.95,2.95,0,0,1-1.151,1.295,2.371,2.371,0,0,1-1.215.294,2.338,2.338,0,0,1-1.043-.211,1.919,1.919,0,0,1-.873-.869,4.905,4.905,0,0,1-.43-1.356c-.1-.518-.187-1.149-.278-1.913-.037-.306-.086-.733-.136-1.176-.144-1.255-.3-2.637-.472-3.608a7.94,7.94,0,0,0-.337-1.37,3.21,3.21,0,0,0-.405-.767c-.123-.175-.262-.348-.407-.529a9.267,9.267,0,0,1-1.006-1.451,7.975,7.975,0,0,1-.62-1.539,6.928,6.928,0,0,1-.275-1.577,7.409,7.409,0,0,1,.182-1.819c.043-.227.085-.446.11-.65H71.237a25.383,25.383,0,0,0,15.1,22.448,31.47,31.47,0,0,0,18.239-10.858Z" transform="translate(-39.472 -220.002)" fill="#65ade0" fill-rule="evenodd"/>
      <path id="Trazado_887972" data-name="Trazado 887972" d="M320.817,271H312.79a2.943,2.943,0,0,0,.176.624c.078.192.216.464.372.774.139.276.293.581.464.955a7.955,7.955,0,0,1,.484,1.3,4.078,4.078,0,0,1,.116,1.595,6.729,6.729,0,0,1-.411,1.411,5.266,5.266,0,0,0-.369,1.32,6.377,6.377,0,0,0,.569,2.474c.023.063-.046-.127.09.252l.07.194h0l.036.1c.28.781.553,1.511.913,1.68a.932.932,0,0,0,.685-.038,2.517,2.517,0,0,0,1-.71,10.992,10.992,0,0,0,1.556-3.139c.034-.088.012-.031,0,0h0l.146-.378c.173-.45.214-.554.252-.651a24.263,24.263,0,0,0,1.16-3.433,12.647,12.647,0,0,0,.211-1.673,11.354,11.354,0,0,1,.226-1.71,8.491,8.491,0,0,1,.282-.945Z" transform="translate(-247.893 -220.002)" fill="#337a2e" fill-rule="evenodd"/>
      <path id="Trazado_887973" data-name="Trazado 887973" d="M319.057,271h-6.266a2.941,2.941,0,0,0,.176.624c.078.192.216.464.372.774.139.276.293.581.464.955a7.956,7.956,0,0,1,.484,1.3,4.078,4.078,0,0,1,.116,1.595,6.729,6.729,0,0,1-.412,1.411,5.267,5.267,0,0,0-.369,1.32,5.62,5.62,0,0,0,.472,2.205A31.37,31.37,0,0,0,319.057,271Z" transform="translate(-247.894 -220.003)" fill="#4caa46" fill-rule="evenodd"/>
      <path id="Trazado_887974" data-name="Trazado 887974" d="M147.384,271h-6.2q-.007.084-.016.164c-.03.257-.078.508-.128.768a6.25,6.25,0,0,0-.159,1.472,5.4,5.4,0,0,0,.216,1.224,6.459,6.459,0,0,0,.5,1.245,8.005,8.005,0,0,0,.853,1.221c.166.207.324.4.465.605a4.663,4.663,0,0,1,.588,1.115,9.3,9.3,0,0,1,.408,1.629c.174,1,.336,2.412.483,3.7.043.378.085.745.136,1.17.088.73.168,1.328.261,1.8a3.612,3.612,0,0,0,.277.938.478.478,0,0,0,.2.221.951.951,0,0,0,.39.058.965.965,0,0,0,.478-.1,1.513,1.513,0,0,0,.55-.665,20.391,20.391,0,0,0,1.124-3.673l.115-.473a15.44,15.44,0,0,1,.46-1.6,2.744,2.744,0,0,1,.658-1.088,2.778,2.778,0,0,1,.546-.385,1.573,1.573,0,0,0,.675-.65,6.655,6.655,0,0,0,.48-1.285,19.375,19.375,0,0,0,.451-2.034,4.05,4.05,0,0,0,.082-1.151,1.328,1.328,0,0,0-.346-.7,10.754,10.754,0,0,0-1.184-1.078,16.453,16.453,0,0,1-1.5-1.36,8.811,8.811,0,0,1-.6-.726c-.1-.129-.183-.248-.263-.362Z" transform="translate(-99.562 -220.003)" fill="#4caa46" fill-rule="evenodd"/>
      <path id="Trazado_887975" data-name="Trazado 887975" d="M28.142,133.673a.751.751,0,1,1-.353-1.461L31.5,131.3a.752.752,0,0,1,.907.554l.027.111.006.024.876,3.572a.751.751,0,0,1-1.461.353l-.464-1.894a30.121,30.121,0,0,0,21.179,45.44.753.753,0,1,1-.224,1.49,31.608,31.608,0,0,1-22.2-47.771l-2,.49Z" transform="translate(0 -99.449)" fill-rule="evenodd"/>
      <path id="Trazado_887976" data-name="Trazado 887976" d="M322.443,65.079a4.27,4.27,0,0,1-4.225,6.73,4.761,4.761,0,0,1-1.432,1.956,4.816,4.816,0,0,1-1.062.655v.021a2.979,2.979,0,0,0,.895,2.13,3.1,3.1,0,0,0,2.18.886,3.131,3.131,0,0,0,.92-.135,3.087,3.087,0,0,0,.8-.381.753.753,0,0,1,.857-.035,3.092,3.092,0,0,0,.8.362,3.174,3.174,0,0,0,2.468-.315,3.056,3.056,0,0,0,1.123-1.169.753.753,0,0,1,.783-.415q.108.015.225.024.1.007.226.007a3.1,3.1,0,0,0,2.181-.886,2.982,2.982,0,0,0,.028-4.231,3.09,3.09,0,0,0-2.106-.915.752.752,0,0,1-.74-.634,4.307,4.307,0,0,0-1.52-2.633,4.578,4.578,0,0,0-2.4-1.021Z" transform="translate(-250.425 -42.326)" fill="#589c14" fill-rule="evenodd"/>
      <path id="Trazado_887977" data-name="Trazado 887977" d="M319.9,113.982a4.255,4.255,0,0,1-1.685.022,4.761,4.761,0,0,1-1.432,1.956,4.816,4.816,0,0,1-1.062.655v.021a2.979,2.979,0,0,0,.895,2.13,3.1,3.1,0,0,0,2.18.886,3.132,3.132,0,0,0,.92-.135,3.087,3.087,0,0,0,.8-.381.753.753,0,0,1,.857-.035,3.165,3.165,0,0,0,.4.216,31.281,31.281,0,0,0-1.876-5.335Z" transform="translate(-250.425 -84.522)" fill="#66b01c" fill-rule="evenodd"/>
      <path id="Trazado_887978" data-name="Trazado 887978" d="M240.445,40.8l.018,0,.043-.01a2.575,2.575,0,0,0,.542-.2,2.648,2.648,0,0,0,.907-.753.754.754,0,0,1,1.129-.155,3.27,3.27,0,0,0,5.354-1.758.765.765,0,0,1,.041-.148.752.752,0,0,1,.975-.427,2.736,2.736,0,0,0,.5.144,2.8,2.8,0,0,0,.518.046,2.766,2.766,0,1,0,0-5.531v0a.753.753,0,0,1-.746-1.025,2.279,2.279,0,0,0,.117-.4,2.161,2.161,0,0,0,.037-.407,2.7,2.7,0,0,0-1.2-2.116,5.349,5.349,0,0,0-3.187-.976,5.907,5.907,0,0,0-1.728.25,4.789,4.789,0,0,0-1.437.709h0a.747.747,0,0,1-.444.145,1.479,1.479,0,0,1-.921-.421,3.007,3.007,0,0,0-1.87-.739,2.739,2.739,0,0,0-1.84.682,2.1,2.1,0,0,0-.72,1.555,3.443,3.443,0,0,1-.157,1.046c-.022.07-.045.137-.07.2a4.106,4.106,0,0,1,1.615,3.17,3.577,3.577,0,0,1-.025.422,4.274,4.274,0,0,1,2.557,6.7Z" transform="translate(-181.893 -9.486)" fill="#589c14" fill-rule="evenodd"/>
      <path id="Trazado_887979" data-name="Trazado 887979" d="M240.444,40.8l.018,0,.043-.01a2.575,2.575,0,0,0,.542-.2,2.648,2.648,0,0,0,.907-.753.741.741,0,0,1,.066-.087.753.753,0,0,1,1.063-.068,3.27,3.27,0,0,0,5.354-1.758.765.765,0,0,1,.041-.148.752.752,0,0,1,.975-.427,2.736,2.736,0,0,0,.5.144,2.8,2.8,0,0,0,.518.046q.106,0,.211-.008a31.627,31.627,0,0,0-7.906-9.783,4.328,4.328,0,0,0-.452.291h0a.748.748,0,0,1-.444.145,1.479,1.479,0,0,1-.921-.421,3.007,3.007,0,0,0-1.87-.739,2.739,2.739,0,0,0-1.84.682,2.1,2.1,0,0,0-.72,1.555,3.443,3.443,0,0,1-.157,1.046c-.022.07-.045.137-.07.2a4.106,4.106,0,0,1,1.615,3.17,3.58,3.58,0,0,1-.025.422,4.274,4.274,0,0,1,2.557,6.7Z" transform="translate(-181.892 -9.486)" fill="#66b01c" fill-rule="evenodd"/>
      <path id="Trazado_887980" data-name="Trazado 887980" d="M146.929,58.384a2.757,2.757,0,0,0-1.956-.81v0a.753.753,0,0,1-.746-1.025,2.282,2.282,0,0,0,.117-.4,2.159,2.159,0,0,0,.037-.407,2.7,2.7,0,0,0-1.2-2.116,5.349,5.349,0,0,0-3.187-.976,5.908,5.908,0,0,0-1.728.25,4.789,4.789,0,0,0-1.437.709h0a.748.748,0,0,1-.444.145,1.478,1.478,0,0,1-.921-.421,3.007,3.007,0,0,0-1.87-.739,2.738,2.738,0,0,0-1.839.682,2.1,2.1,0,0,0-.72,1.555,1.726,1.726,0,0,0,.069.517h0a.75.75,0,0,1-.162.694,5.26,5.26,0,0,0-.964,1.557,4.67,4.67,0,0,0,.14,3.743,5.573,5.573,0,0,0,1.366,1.77.75.75,0,0,1,.264.6l0,.051c0,.067,0-.071,0,.049a2.629,2.629,0,0,0,4.719,1.6.763.763,0,0,1,.066-.087.753.753,0,0,1,1.063-.068,3.267,3.267,0,0,0,4.538-.212.741.741,0,0,1,.056-.06,3.26,3.26,0,0,0,.761-1.486.763.763,0,0,1,.041-.148.752.752,0,0,1,.975-.427,2.74,2.74,0,0,0,.5.144,2.8,2.8,0,0,0,.518.047,2.766,2.766,0,0,0,1.956-4.721Z" transform="translate(-89.87 -31.55)" fill="#66b01c" fill-rule="evenodd"/>
      <path id="Trazado_887981" data-name="Trazado 887981" d="M255.956,484.562a.754.754,0,1,0,.038,1.507l.151,0,.2-.006.2-.007.2-.008.2-.01.2-.011.2-.012.175-.012a.754.754,0,1,0-.1-1.5l-.165.011-.192.012-.192.01-.193.009-.193.008-.193.007-.194.005-.151,0Z" transform="translate(-198.221 -404.214)" fill-rule="evenodd"/>
      <path id="Trazado_887982" data-name="Trazado 887982" d="M342.358,461.712l-.164.081-.164.08-.165.079-.165.078-.166.077-.166.076-.167.075-.172.076a.754.754,0,1,0,.6,1.381l.18-.08.175-.079.175-.08.174-.081.174-.082.173-.083.172-.084.18-.089a.754.754,0,0,0-.678-1.347Z" transform="translate(-271.869 -384.486)" fill-rule="evenodd"/>
      <path id="Trazado_887983" data-name="Trazado 887983" d="M299.4,477.6a.754.754,0,0,0,.33,1.471l.157-.035.191-.044.191-.045.191-.046.19-.047.19-.048.189-.049.2-.054a.754.754,0,1,0-.4-1.453l-.184.049-.18.047-.181.046-.181.045-.181.044-.182.043-.182.042-.157.035Z" transform="translate(-235.835 -397.939)" fill-rule="evenodd"/>
      <path id="Trazado_887984" data-name="Trazado 887984" d="M379.206,439.382a.754.754,0,1,0,.866,1.234l.106-.074.155-.11.155-.111.154-.112.153-.112.153-.113.152-.114.217-.166a.754.754,0,1,0-.924-1.191l-.2.155-.145.109-.145.108-.146.107-.147.106-.147.105-.148.1Z" transform="translate(-304.923 -364.402)" fill-rule="evenodd"/>
      <path id="Trazado_887985" data-name="Trazado 887985" d="M412.522,409.648a.754.754,0,1,0,1.085,1.047l.151-.157.13-.138.13-.138.129-.139.128-.14.127-.141.126-.142.124-.141a.754.754,0,1,0-1.134-.994l-.118.134-.12.135-.121.134-.122.133-.123.132-.124.132-.124.131-.145.15Z" transform="translate(-333.763 -338.477)" fill-rule="evenodd"/>
      <path id="Trazado_887986" data-name="Trazado 887986" d="M439.735,374.282A.754.754,0,1,0,441,375.1l.063-.1.1-.161.1-.161.1-.162.1-.163.1-.163.1-.164.1-.165.046-.08a.754.754,0,1,0-1.307-.752l-.134.229-.093.156-.094.156-.095.155-.1.154-.1.154-.1.153-.063.1Z" transform="translate(-357.322 -307.71)" fill-rule="evenodd"/>
      <path id="Trazado_887987" data-name="Trazado 887987" d="M459.783,334.586a.754.754,0,1,0,1.4.553l.1-.245.069-.18.068-.181.067-.181.066-.182.065-.182.064-.183.039-.115a.754.754,0,1,0-1.428-.483l-.036.106-.061.174-.062.174-.063.173-.064.173-.065.172-.066.172-.093.236Z" transform="translate(-374.677 -273.235)" fill-rule="evenodd"/>
      <path id="Trazado_887988" data-name="Trazado 887988" d="M471.858,292.06a.754.754,0,1,0,1.484.265l.024-.132L473.4,292l.033-.2.032-.2.031-.2.029-.2.028-.2.03-.219a.754.754,0,1,0-1.5-.19l-.027.2-.027.188-.028.187-.029.187-.03.186-.031.186-.033.186-.024.132Z" transform="translate(-385.132 -236.353)" fill-rule="evenodd"/>
      <path id="Trazado_887989" data-name="Trazado 887989" d="M475.17,248.348a.754.754,0,1,0,1.508-.022q-.011-.772-.057-1.542a.754.754,0,0,0-1.5.092q.045.736.054,1.471Z" transform="translate(-387.952 -198.498)" fill-rule="evenodd"/>
      <path id="Trazado_887990" data-name="Trazado 887990" d="M468.549,205.111a.754.754,0,1,0,1.475-.311q-.158-.756-.355-1.5a.754.754,0,1,0-1.458.384c.125.473.238.952.338,1.431Z" transform="translate(-381.975 -161.101)" fill-rule="evenodd"/>
      <path id="Trazado_887991" data-name="Trazado 887991" d="M453.607,163.99a.754.754,0,1,0,1.386-.594q-.3-.71-.642-1.4a.754.754,0,1,0-1.355.66Q453.317,163.314,453.607,163.99Z" transform="translate(-368.801 -125.58)" fill-rule="evenodd"/>
      <g id="Grupo_1117168" data-name="Grupo 1117168" transform="translate(65.042 59.788)">
        <path id="Trazado_887992" data-name="Trazado 887992" d="M324.166,350.457c.246.684.126.346.038.1l-.036-.1Z" transform="translate(-322.75 -348.348)" fill="#ccc" fill-rule="evenodd"/>
        <path id="Trazado_887993" data-name="Trazado 887993" d="M313.845,354.142c.081.223.218.6,0,0Z" transform="translate(-313.845 -351.528)" fill="#ccc" fill-rule="evenodd"/>
        <path id="Trazado_887994" data-name="Trazado 887994" d="M354.664,335.09c-.006.017-.01.026,0,0h0Z" transform="translate(-349.06 -335.09)" fill="#ccc" fill-rule="evenodd"/>
      </g>
    </g>
  </g>
</svg>
