<svg id="Grupo_1116357" data-name="Grupo 1116357" xmlns="http://www.w3.org/2000/svg" width="100" height="100" viewBox="0 0 100 100">
  <rect id="Rect치ngulo_402033" data-name="Rect치ngulo 402033" width="100" height="100" rx="5" transform="translate(0)" fill="#d7f5ea"/>
  <g id="Grupo_1117145" data-name="Grupo 1117145" transform="translate(-18.512 13.002)">
    <path id="Trazado_887925" data-name="Trazado 887925" d="M163.985,21.031,145.806,9.806,127.628,21.031V46.62h36.357Z" transform="translate(-77.294 -8.36)" fill="#d7e6d8"/>
    <rect id="Rect치ngulo_410272" data-name="Rect치ngulo 410272" width="10.772" height="16.612" transform="translate(63.126 21.648)" fill="#3acc97"/>
    <g id="Grupo_1117144" data-name="Grupo 1117144" transform="translate(36.965 0)">
      <path id="Trazado_887926" data-name="Trazado 887926" d="M436.8,249.459h-1.646a1.475,1.475,0,0,0,0,2.949H436.8a1.475,1.475,0,0,0,0-2.949Z" transform="translate(-375.181 -212.674)" fill="#333"/>
      <path id="Trazado_887927" data-name="Trazado 887927" d="M54.769,39.734v12.88l-1.484-1.483A1.475,1.475,0,1,0,51.2,53.216l3.82,3.82a1.474,1.474,0,0,0,2.276.21l.01-.009,4.02-4.02a1.475,1.475,0,0,0-2.086-2.086l-1.522,1.522V39.734H79.306v8.4a1.475,1.475,0,1,0,2.949,0v-8.4H92a1.475,1.475,0,0,0,0-2.949H88.165V15.335l2.317,1.433a1.475,1.475,0,1,0,1.551-2.508L69.318.21a1.648,1.648,0,0,0-1.611,0L44.991,14.26a1.475,1.475,0,1,0,1.551,2.508l2.317-1.433v21.45H38.44a1.475,1.475,0,0,0,0,2.949h16.33ZM64.6,36.785V23.123h7.823V36.785Zm16.18,0H75.373V21.648A1.475,1.475,0,0,0,73.9,20.173H63.126a1.475,1.475,0,0,0-1.475,1.475V36.785H51.809V13.511L68.512,3.18l16.7,10.331V36.785Z" transform="translate(-36.965 0)" fill="#333"/>
      <path id="Trazado_887928" data-name="Trazado 887928" d="M159.455,405.092a1.475,1.475,0,0,0,1.281-1.646,10.656,10.656,0,0,1-.081-1.31,1.475,1.475,0,1,0-2.949,0,13.582,13.582,0,0,0,.1,1.675,1.475,1.475,0,0,0,1.461,1.292A1.523,1.523,0,0,0,159.455,405.092Z" transform="translate(-139.902 -341.58)" fill="#333"/>
      <path id="Trazado_887929" data-name="Trazado 887929" d="M192.56,345.264a1.475,1.475,0,0,0-2.086,0l-4.02,4.02a1.475,1.475,0,1,0,2.086,2.086l1.483-1.483v4.653a10.5,10.5,0,0,1-10.491,10.491h-.606a10.467,10.467,0,0,1-9.311-5.653A1.475,1.475,0,0,0,167,360.74a13.407,13.407,0,0,0,11.927,7.24h.606a13.455,13.455,0,0,0,13.44-13.44v-4.692l1.522,1.522a1.475,1.475,0,1,0,2.085-2.085Z" transform="translate(-147.682 -293.984)" fill="#333"/>
    </g>
  </g>
</svg>
