<svg id="Grupo_1116714" data-name="Grupo 1116714" xmlns="http://www.w3.org/2000/svg" width="122.486" height="122.486" viewBox="0 0 122.486 122.486">
  <rect id="Rectángulo_402033" data-name="Rectángulo 402033" width="122.486" height="122.486" rx="5" transform="translate(0)" fill="#d7f5ea"/>
  <g id="Grupo_1117911" data-name="Grupo 1117911" transform="translate(22.427 23.623)">
    <g id="Grupo_1117909" data-name="Grupo 1117909" transform="translate(1.242 1.242)">
      <g id="Grupo_1117889" data-name="Grupo 1117889" transform="translate(59.627 53.415)">
        <path id="Trazado_889078" data-name="Trazado 889078" d="M63.907,51.453H49a7.453,7.453,0,0,1,14.907,0Z" transform="translate(-49 -44)" fill="#b27946"/>
      </g>
      <g id="Grupo_1117890" data-name="Grupo 1117890" transform="translate(0 53.415)">
        <path id="Trazado_889079" data-name="Trazado 889079" d="M15.907,51.453H1a7.453,7.453,0,0,1,14.907,0Z" transform="translate(-1 -44)" fill="#b27946"/>
      </g>
      <g id="Grupo_1117891" data-name="Grupo 1117891" transform="translate(27.329 64.595)">
        <path id="Trazado_889080" data-name="Trazado 889080" d="M42.876,62.938H23a9.938,9.938,0,0,1,19.876,0Z" transform="translate(-23 -53)" fill="#b27946"/>
      </g>
      <g id="Grupo_1117892" data-name="Grupo 1117892" transform="translate(39.751 53.415)">
        <path id="Trazado_889081" data-name="Trazado 889081" d="M47.907,51.453H33a7.453,7.453,0,0,1,14.907,0Z" transform="translate(-33 -44)" fill="#656d78"/>
      </g>
      <g id="Grupo_1117893" data-name="Grupo 1117893" transform="translate(2.484 64.595)">
        <path id="Trazado_889082" data-name="Trazado 889082" d="M22.876,62.938H3a9.938,9.938,0,0,1,19.876,0Z" transform="translate(-3 -53)" fill="#fcd770"/>
      </g>
      <g id="Grupo_1117894" data-name="Grupo 1117894" transform="translate(52.173 64.595)">
        <path id="Trazado_889083" data-name="Trazado 889083" d="M62.876,62.938H43a9.938,9.938,0,0,1,19.876,0Z" transform="translate(-43 -53)" fill="#fcd770"/>
      </g>
      <g id="Grupo_1117895" data-name="Grupo 1117895" transform="translate(19.876 53.415)">
        <path id="Trazado_889084" data-name="Trazado 889084" d="M31.907,51.453H17a7.453,7.453,0,0,1,14.907,0Z" transform="translate(-17 -44)" fill="#fcd770"/>
      </g>
      <g id="Grupo_1117896" data-name="Grupo 1117896" transform="translate(29.813 42.235)">
        <path id="Trazado_889085" data-name="Trazado 889085" d="M39.907,42.453H25a7.453,7.453,0,1,1,14.907,0Z" transform="translate(-25 -35)" fill="#b27946"/>
      </g>
      <g id="Grupo_1117897" data-name="Grupo 1117897" transform="translate(49.689 42.235)">
        <path id="Trazado_889086" data-name="Trazado 889086" d="M55.907,42.453H41a7.453,7.453,0,1,1,14.907,0Z" transform="translate(-41 -35)" fill="#656d78"/>
      </g>
      <g id="Grupo_1117898" data-name="Grupo 1117898" transform="translate(9.938 42.235)">
        <path id="Trazado_889087" data-name="Trazado 889087" d="M23.907,42.453H9a7.453,7.453,0,1,1,14.907,0Z" transform="translate(-9 -35)" fill="#656d78"/>
      </g>
      <g id="Grupo_1117899" data-name="Grupo 1117899" transform="translate(24.633 2.484)">
        <path id="Trazado_889088" data-name="Trazado 889088" d="M22.283,7.137A6.6,6.6,0,0,0,20.83,3H69.488A1.246,1.246,0,0,1,70.73,4.242V6.727a1.246,1.246,0,0,1-1.242,1.242H22.221a4.609,4.609,0,0,0,.062-.832Z" transform="translate(-20.83 -3)" fill="#ccd1d9"/>
      </g>
      <g id="Grupo_1117900" data-name="Grupo 1117900" transform="translate(18.633 7.453)">
        <path id="Trazado_889089" data-name="Trazado 889089" d="M42.894,20.95a4.864,4.864,0,0,0,2.919.957,4.986,4.986,0,1,0-2.919-.957ZM69.415,7V39.3H19.727V29.36L21.379,30.6a12.415,12.415,0,0,0,7.453,2.484h7.019A2.5,2.5,0,0,0,38.335,30.6a2.458,2.458,0,0,0-1.006-1.988,2.384,2.384,0,0,0-1.478-.5H27.18L25.143,26.08a7.5,7.5,0,0,0-4.05-2.087L16,23.149V19.2a3.687,3.687,0,0,0,2.484-3.5V14.453h2.484a2.492,2.492,0,0,0,2.484-2.484A2.436,2.436,0,0,0,22.72,10.2a2.042,2.042,0,0,0-.41-.323A6.462,6.462,0,0,0,23.391,7H69.415Z" transform="translate(-16 -7)" fill="#e6e9ed"/>
      </g>
      <g id="Grupo_1117901" data-name="Grupo 1117901" transform="translate(6.211)">
        <path id="Trazado_889090" data-name="Trazado 889090" d="M25.876,7.621a4.609,4.609,0,0,1-.062.832,6.462,6.462,0,0,1-1.081,2.882,2.367,2.367,0,0,0-1.342-.4H20.907a6,6,0,0,1-4.236-1.752l-.733-.733-.733.733a6,6,0,0,1-4.236,1.752H8.484a2.367,2.367,0,0,0-1.342.4A6.618,6.618,0,0,1,12.621,1h6.633a6.625,6.625,0,0,1,6.621,6.621Z" transform="translate(-6 -1)" fill="#b27946"/>
      </g>
      <g id="Grupo_1117902" data-name="Grupo 1117902" transform="translate(4.956 23.602)">
        <path id="Trazado_889091" data-name="Trazado 889091" d="M23.76,20.845a7.5,7.5,0,0,1,4.05,2.087l2.037,2.037h6.211v4.969H31.5a12.415,12.415,0,0,1-7.453-2.484l-1.652-1.242v9.938H5L4.99,27.727a7.465,7.465,0,0,1,6.4-7.4L13.7,20l2.484,2.484L18.667,20Z" transform="translate(-4.99 -20)" fill="#ff826e"/>
      </g>
      <g id="Grupo_1117903" data-name="Grupo 1117903" transform="translate(43.478 12.422)">
        <path id="Trazado_889092" data-name="Trazado 889092" d="M40.969,11a4.969,4.969,0,1,1,0,9.938,4.864,4.864,0,0,1-2.919-.957A4.963,4.963,0,0,1,40.969,11Z" transform="translate(-36 -11)" fill="#69d6f4"/>
      </g>
      <g id="Grupo_1117904" data-name="Grupo 1117904" transform="translate(36.024 28.571)">
        <path id="Trazado_889093" data-name="Trazado 889093" d="M33.938,24.5a2.458,2.458,0,0,1,1.006,1.988,2.5,2.5,0,0,1-2.484,2.484H30V24h2.46A2.384,2.384,0,0,1,33.938,24.5Z" transform="translate(-30 -24)" fill="#f0d0b4"/>
      </g>
      <g id="Grupo_1117905" data-name="Grupo 1117905" transform="translate(13.664 19.652)">
        <path id="Trazado_889094" data-name="Trazado 889094" d="M15.727,17.044a3.443,3.443,0,0,0,1.242-.224v3.95l-2.484,2.484L12,20.77V16.82a3.443,3.443,0,0,0,1.242.224Z" transform="translate(-12 -16.82)" fill="#f0d0b4"/>
      </g>
      <g id="Grupo_1117906" data-name="Grupo 1117906" transform="translate(21.118 9.938)">
        <path id="Trazado_889095" data-name="Trazado 889095" d="M22.236,9.72a2.436,2.436,0,0,1,.733,1.764,2.492,2.492,0,0,1-2.484,2.484H18V9h2.484a2.367,2.367,0,0,1,1.342.4A2.042,2.042,0,0,1,22.236,9.72Z" transform="translate(-18 -9)" fill="#f0d0b4"/>
      </g>
      <g id="Grupo_1117907" data-name="Grupo 1117907" transform="translate(11.18 7.453)">
        <path id="Trazado_889096" data-name="Trazado 889096" d="M19.938,14.453V15.7a3.687,3.687,0,0,1-2.484,3.5,3.443,3.443,0,0,1-1.242.224H13.727a3.443,3.443,0,0,1-1.242-.224A3.687,3.687,0,0,1,10,15.7V9.484a6,6,0,0,0,4.236-1.752L14.969,7l.733.733a6,6,0,0,0,4.236,1.752Z" transform="translate(-10 -7)" fill="#f0d0b4"/>
      </g>
      <g id="Grupo_1117908" data-name="Grupo 1117908" transform="translate(6.211 9.938)">
        <path id="Trazado_889097" data-name="Trazado 889097" d="M10.969,9v4.969H8.484A2.5,2.5,0,0,1,6,11.484,2.47,2.47,0,0,1,7.143,9.4,2.367,2.367,0,0,1,8.484,9Z" transform="translate(-6 -9)" fill="#f0d0b4"/>
      </g>
    </g>
    <g id="Grupo_1117910" data-name="Grupo 1117910">
      <path id="Trazado_889098" data-name="Trazado 889098" d="M8,24h2.484V35.18H8Z" transform="translate(1.938 5.813)"/>
      <path id="Trazado_889099" data-name="Trazado 889099" d="M73.567,2.484H25.46A7.84,7.84,0,0,0,19.737,0H13.112A7.854,7.854,0,0,0,6.068,11.355a3.706,3.706,0,0,0,2.9,6.036h1.242a4.94,4.94,0,0,0,1.455,3.514,5,5,0,0,0,1.03.769v2.093l-1.24.176a8.735,8.735,0,0,0-7.469,8.628L4,41l2.484,0-.014-8.425A6.237,6.237,0,0,1,11.808,26.4l1.693-.241,2.924,2.924,2.911-2.911,4.467.744a6.172,6.172,0,0,1,3.37,1.734l2.4,2.4h5.483V33.54H31.745A11.245,11.245,0,0,1,25.037,31.3l-1.159-.868V28.571H21.394V40.993h2.484V33.519a13.74,13.74,0,0,0,7.867,2.506h7.011a3.724,3.724,0,0,0,3.083-5.816l4.317-5.935a6.126,6.126,0,0,0,2.566.571,6.269,6.269,0,1,0-4.57-2.04l-4.322,5.943a3.707,3.707,0,0,0-1.075-.176H30.6L28.929,26.9a8.651,8.651,0,0,0-4.718-2.429l-4.06-.676V21.673a5,5,0,0,0,1.03-.769,4.937,4.937,0,0,0,1.455-3.513h1.242a3.705,3.705,0,0,0,2.9-6.035,7.75,7.75,0,0,0,.533-1.419H71.083v32.3h2.484V9.938a2.487,2.487,0,0,0,2.484-2.484V4.969a2.487,2.487,0,0,0-2.484-2.484ZM48.723,14.907A3.727,3.727,0,1,1,45,18.633,3.731,3.731,0,0,1,48.723,14.907ZM40,32.3a1.244,1.244,0,0,1-1.242,1.242H37.543V31.055h1.214A1.244,1.244,0,0,1,40,32.3ZM7.729,13.664a1.244,1.244,0,0,1,1.242-1.242h1.242v2.484H8.972A1.244,1.244,0,0,1,7.729,13.664Zm9.938,6.211H15.183A2.483,2.483,0,0,1,12.7,17.391V12.317a7.186,7.186,0,0,0,3.727-1.868,7.168,7.168,0,0,0,3.725,1.868v5.074A2.487,2.487,0,0,1,17.667,19.876ZM15.183,24.33V22.36h2.484v1.97l-1.242,1.242ZM18.031,8.545,16.425,6.939,14.819,8.545a4.726,4.726,0,0,1-3.363,1.393H8.972a3.682,3.682,0,0,0-.781.086,5.364,5.364,0,0,1,4.922-7.539h6.625a5.363,5.363,0,0,1,4.923,7.538,3.764,3.764,0,0,0-.781-.084H21.393A4.723,4.723,0,0,1,18.031,8.545Zm5.847,6.361H22.635V12.422h1.243a1.242,1.242,0,0,1,0,2.484ZM73.567,7.453H27.584a7.8,7.8,0,0,0-.539-2.484H73.567Z" transform="translate(0.966)"/>
      <path id="Trazado_889100" data-name="Trazado 889100" d="M53.18,52A11.193,11.193,0,0,0,42,63.18h2.484a8.7,8.7,0,0,1,17.391,0H64.36A11.194,11.194,0,0,0,53.18,52Z" transform="translate(10.173 12.595)"/>
      <path id="Trazado_889101" data-name="Trazado 889101" d="M33.18,52A11.193,11.193,0,0,0,22,63.18h2.484a8.7,8.7,0,0,1,17.391,0H44.36A11.194,11.194,0,0,0,33.18,52Z" transform="translate(5.329 12.595)"/>
      <path id="Trazado_889102" data-name="Trazado 889102" d="M13.18,52A11.193,11.193,0,0,0,2,63.18H4.484a8.7,8.7,0,0,1,17.391,0H24.36A11.194,11.194,0,0,0,13.18,52Z" transform="translate(0.484 12.595)"/>
      <path id="Trazado_889103" data-name="Trazado 889103" d="M8.7,45.484A6.218,6.218,0,0,1,14.907,51.7h2.484A8.7,8.7,0,1,0,0,51.7H2.484A6.219,6.219,0,0,1,8.7,45.484Z" transform="translate(0 10.415)"/>
      <path id="Trazado_889104" data-name="Trazado 889104" d="M16,51.7h2.484a6.211,6.211,0,1,1,12.422,0h2.484A8.7,8.7,0,1,0,16,51.7Z" transform="translate(3.876 10.415)"/>
      <path id="Trazado_889105" data-name="Trazado 889105" d="M32,51.7h2.484a6.211,6.211,0,0,1,12.422,0h2.484A8.7,8.7,0,1,0,32,51.7Z" transform="translate(7.751 10.415)"/>
      <path id="Trazado_889106" data-name="Trazado 889106" d="M56.7,43A8.706,8.706,0,0,0,48,51.7h2.484a6.211,6.211,0,0,1,12.422,0h2.484A8.706,8.706,0,0,0,56.7,43Z" transform="translate(11.627 10.415)"/>
      <path id="Trazado_889107" data-name="Trazado 889107" d="M10.484,42.7a6.211,6.211,0,0,1,12.422,0h2.484A8.7,8.7,0,1,0,8,42.7Z" transform="translate(1.938 8.235)"/>
      <path id="Trazado_889108" data-name="Trazado 889108" d="M32.7,34A8.706,8.706,0,0,0,24,42.7h2.484a6.211,6.211,0,0,1,12.422,0h2.484A8.706,8.706,0,0,0,32.7,34Z" transform="translate(5.813 8.235)"/>
      <path id="Trazado_889109" data-name="Trazado 889109" d="M42.484,42.7a6.211,6.211,0,0,1,12.422,0h2.484A8.7,8.7,0,1,0,40,42.7Z" transform="translate(9.689 8.235)"/>
      <path id="Trazado_889110" data-name="Trazado 889110" d="M54,30h2.484v2.484H54Z" transform="translate(13.08 7.267)"/>
      <path id="Trazado_889111" data-name="Trazado 889111" d="M42,30H54.422v2.484H42Z" transform="translate(10.173 7.267)"/>
      <path id="Trazado_889112" data-name="Trazado 889112" d="M42,26H59.391v2.484H42Z" transform="translate(10.173 6.298)"/>
      <path id="Trazado_889113" data-name="Trazado 889113" d="M42,22H59.391v2.484H42Z" transform="translate(10.173 5.329)"/>
      <path id="Trazado_889114" data-name="Trazado 889114" d="M46,18H58.422v2.484H46Z" transform="translate(11.142 4.36)"/>
    </g>
  </g>
</svg>
