<svg xmlns="http://www.w3.org/2000/svg" width="85" height="85" viewBox="0 0 85 85">
  <g id="Grupo_1117547" data-name="Grupo 1117547" transform="translate(-625.949 -11629)">
    <rect id="Rectángulo_409909" data-name="Rectángulo 409909" width="85" height="85" transform="translate(625.949 11629)" fill="#81c784"/>
    <g id="Grupo_1117546" data-name="Grupo 1117546" transform="translate(636.825 11639)">
      <circle id="Elipse_11739" data-name="Elipse 11739" cx="3" cy="3" r="3" transform="translate(29 5)" fill="#cc6c66"/>
      <path id="Trazado_888136" data-name="Trazado 888136" d="M9,6a1,1,0,0,1,1-1h7a2,2,0,0,1,0,4H13a1,1,0,0,0-1,1,1,1,0,0,1-1,1H5A2,2,0,1,1,5,7H8A1,1,0,0,0,9,6Z" fill="#adc4e6"/>
      <g id="Grupo_1117545" data-name="Grupo 1117545">
        <path id="Trazado_888137" data-name="Trazado 888137" d="M36.947,23.526A4.9,4.9,0,0,0,37,23a5,5,0,1,0-10,0,4.9,4.9,0,0,0,.053.526A3.987,3.987,0,0,0,29,31h6a3.987,3.987,0,0,0,1.947-7.474Z" fill="#58b389"/>
        <path id="Trazado_888138" data-name="Trazado 888138" d="M50.947,23.526A4.9,4.9,0,0,0,51,23a5,5,0,0,0-10,0,4.9,4.9,0,0,0,.053.526A3.987,3.987,0,0,0,43,31h6a3.987,3.987,0,0,0,1.947-7.474Z" fill="#58b389"/>
        <path id="Trazado_888139" data-name="Trazado 888139" d="M22.947,23.526A4.9,4.9,0,0,0,23,23a5,5,0,1,0-10,0,4.9,4.9,0,0,0,.053.526A3.987,3.987,0,0,0,15,31h6a3.987,3.987,0,0,0,1.947-7.474Z" fill="#58b389"/>
      </g>
      <path id="Trazado_888140" data-name="Trazado 888140" d="M2,36a30.308,30.308,0,0,0,60,0Z" fill="#6893cc"/>
      <path id="Trazado_888141" data-name="Trazado 888141" d="M60.86,41.047,55,43l-3-1-3,3,1,5-4,1-5-1-4-3-5,3,1,5-5,1-3.957,4.946a30.387,30.387,0,0,0,36.817-19.9Z" fill="#6acca0"/>
      <path id="Trazado_888142" data-name="Trazado 888142" d="M14.051,56.158,15,56l4-3V50l-2-3,1-3,4-2,2-2V36H2A29.941,29.941,0,0,0,14.051,56.158Z" fill="#6acca0"/>
      <path id="Trazado_888143" data-name="Trazado 888143" d="M32,63A31.259,31.259,0,0,0,62.992,36.133,1,1,0,0,0,62,35H47V32h2a4.985,4.985,0,0,0,3-8.978V23a6,6,0,1,0-12,0v.022a5.032,5.032,0,0,0-1,1.014,5.032,5.032,0,0,0-1-1.014V23a6,6,0,1,0-12,0v.022a5.032,5.032,0,0,0-1,1.014,5.032,5.032,0,0,0-1-1.014V23a6,6,0,0,0-12,0v.022A4.985,4.985,0,0,0,15,32h2v3H2a1,1,0,0,0-.991,1.133A31.259,31.259,0,0,0,32,63Zm0-2a29.336,29.336,0,0,1-6.189-.663l2.742-3.427,4.643-.929a1,1,0,0,0,.784-1.177L33.119,50.5,36.939,48.2,40.4,50.8a1,1,0,0,0,.4.181l5,1a.98.98,0,0,0,.439-.01l4-1a1,1,0,0,0,.738-1.166l-.9-4.475,2.185-2.185,2.414.8a1,1,0,0,0,.633,0l3.9-1.3A29.373,29.373,0,0,1,32,61ZM60.834,37a28.454,28.454,0,0,1-.78,3.261L55,41.946l-2.684-.895a1,1,0,0,0-1.023.242l-3,3a1,1,0,0,0-.273.9l.813,4.065-2.857.714-4.557-.911L37.6,46.2a1,1,0,0,0-1.115-.058l-5,3A1,1,0,0,0,31.02,50.2l.8,4.019-4.02.8a1,1,0,0,0-.584.356l-3.534,4.417a29.429,29.429,0,0,1-7.512-3.423L19.6,53.8A1,1,0,0,0,20,53V50a1,1,0,0,0-.168-.555L18.1,46.852l.714-2.143,3.629-1.814a1,1,0,0,0,.26-.187l2-2A1,1,0,0,0,25,40V37ZM41.544,24.4a1,1,0,0,0,.5-.98l-.024-.188A1.708,1.708,0,0,1,42,23a4,4,0,1,1,8,0,1.7,1.7,0,0,1-.023.23l-.024.188a1,1,0,0,0,.5.979A2.988,2.988,0,0,1,49,30H47V28.535l2.555-1.7-1.109-1.664L47,26.132V24H45v2.132l-1.445-.964-1.109,1.664L45,28.535V30H43a2.987,2.987,0,0,1-1.457-5.6ZM39,29.969A4.981,4.981,0,0,0,43,32h2v3H33V32h2a4.981,4.981,0,0,0,4-2.031ZM27.544,24.4a1,1,0,0,0,.5-.98l-.024-.188A1.705,1.705,0,0,1,28,23a4,4,0,0,1,8,0,1.708,1.708,0,0,1-.023.23l-.024.188a1,1,0,0,0,.5.979A2.988,2.988,0,0,1,35,30H33V28.535l2.555-1.7-1.109-1.664L33,26.132V24H31v2.132l-1.445-.964-1.109,1.664L31,28.535V30H29a2.987,2.987,0,0,1-1.457-5.6ZM25,29.969A4.981,4.981,0,0,0,29,32h2v3H19V32h2a4.981,4.981,0,0,0,4-2.031ZM15,30a2.987,2.987,0,0,1-1.457-5.6,1,1,0,0,0,.5-.98l-.024-.188A1.706,1.706,0,0,1,14,23a4,4,0,0,1,8,0,1.707,1.707,0,0,1-.023.23l-.024.188a1,1,0,0,0,.5.979A2.987,2.987,0,0,1,21,30H19V28.535l2.555-1.7-1.109-1.664L19,26.132V24H17v2.132l-1.445-.964-1.109,1.664L17,28.535V30Zm8,7v2.586l-1.592,1.592-3.855,1.927a1,1,0,0,0-.5.578l-1,3a1,1,0,0,0,.117.871L18,50.3v2.2l-3.557,2.668A28.914,28.914,0,0,1,3.167,37Z"/>
      <path id="Trazado_888144" data-name="Trazado 888144" d="M32,12a4,4,0,1,0-4-4A4,4,0,0,0,32,12Zm0-6a2,2,0,1,1-2,2,2,2,0,0,1,2-2Z"/>
      <path id="Trazado_888145" data-name="Trazado 888145" d="M31,1h2V3H31Z"/>
      <path id="Trazado_888146" data-name="Trazado 888146" d="M31,13h2v2H31Z"/>
      <path id="Trazado_888147" data-name="Trazado 888147" d="M37,7h2V9H37Z"/>
      <path id="Trazado_888148" data-name="Trazado 888148" d="M25,7h2V9H25Z"/>
      <path id="Trazado_888149" data-name="Trazado 888149" d="M35.243,2.758h2v2h-2Z" transform="translate(7.958 26.728) rotate(-45)"/>
      <path id="Trazado_888150" data-name="Trazado 888150" d="M26.758,11.243h2v2h-2Z" transform="translate(-0.527 23.214) rotate(-45)"/>
      <path id="Trazado_888151" data-name="Trazado 888151" d="M35.243,11.243h2v2h-2Z" transform="translate(1.958 29.214) rotate(-45)"/>
      <path id="Trazado_888152" data-name="Trazado 888152" d="M26.758,2.758h2v2h-2Z" transform="translate(5.473 20.728) rotate(-45)"/>
      <path id="Trazado_888153" data-name="Trazado 888153" d="M55,6a1,1,0,0,1,1,1h2a1,1,0,0,1,2,0h2a2.987,2.987,0,0,0-5-2.22A2.987,2.987,0,0,0,52,7h2A1,1,0,0,1,55,6Z"/>
      <path id="Trazado_888154" data-name="Trazado 888154" d="M50,11a1,1,0,0,1,1,1h2a1,1,0,1,1,2,0h2a2.987,2.987,0,0,0-5-2.22A2.987,2.987,0,0,0,47,12h2a1,1,0,0,1,1-1Z"/>
      <path id="Trazado_888155" data-name="Trazado 888155" d="M5,12h6a2,2,0,0,0,2-2h4a3,3,0,1,0,0-6H10A2,2,0,0,0,8,6H5a3,3,0,0,0,0,6ZM5,8H8a2,2,0,0,0,2-2h7a1,1,0,0,1,0,2H13a2,2,0,0,0-2,2H5A1,1,0,0,1,5,8Z"/>
    </g>
  </g>
</svg>
