<svg id="Grupo_1116689" data-name="Grupo 1116689" xmlns="http://www.w3.org/2000/svg" width="122.486" height="122.486" viewBox="0 0 122.486 122.486">
  <rect id="Rectángulo_402033" data-name="Rectángulo 402033" width="122.486" height="122.486" rx="5" transform="translate(0)" fill="#d7f5ea"/>
  <g id="Grupo_1117888" data-name="Grupo 1117888" transform="translate(15.769 15.85)">
    <g id="Grupo_1117886" data-name="Grupo 1117886" transform="translate(2.425 2.425)">
      <g id="Grupo_1117877" data-name="Grupo 1117877" transform="translate(46.754 9.972)">
        <path id="Trazado_889067" data-name="Trazado 889067" d="M73.539,30.368v8.547l-3.533,1.2a22.309,22.309,0,0,1-2.621,6.3l1.667,3.348-6.04,6.04L59.664,54.13a22.309,22.309,0,0,1-6.3,2.621l-1.2.228-2.194-.7a20.7,20.7,0,0,0-1.766-4.3l.128-.242A17.1,17.1,0,1,0,38.752,20.2l-2.935-1a20.077,20.077,0,0,0-1-3.049h.014l1.3-1a22.309,22.309,0,0,1,6.3-2.621L43.624,9h8.547l1.2,3.533a22.309,22.309,0,0,1,6.3,2.621l3.348-1.667,6.04,6.04-1.667,3.348a22.309,22.309,0,0,1,2.621,6.3Z" transform="translate(-34.82 -9)" fill="#fcd770"/>
      </g>
      <g id="Grupo_1117878" data-name="Grupo 1117878" transform="translate(51.099 32.765)">
        <path id="Trazado_889068" data-name="Trazado 889068" d="M45.178,37.821l-.256.271L42.6,35.77l-3.362,1.738q-.662-.363-1.368-.684l.185-.427V25H55.15V37.821Z" transform="translate(-37.87 -25)" fill="#e6e9ed"/>
      </g>
      <g id="Grupo_1117879" data-name="Grupo 1117879" transform="translate(51.284 27.066)">
        <path id="Trazado_889069" data-name="Trazado 889069" d="M55.095,21v5.7H38V21Z" transform="translate(-38 -21)" fill="#ff826e"/>
      </g>
      <g id="Grupo_1117880" data-name="Grupo 1117880" transform="translate(0 0)">
        <path id="Trazado_889070" data-name="Trazado 889070" d="M40.392,39.053a17.141,17.141,0,1,0-12.75,5.684A17.106,17.106,0,0,0,40.392,39.053Zm-18.22,10.7a22.309,22.309,0,0,1-6.3-2.621L12.527,48.8l-6.04-6.04,1.667-3.348a22.309,22.309,0,0,1-2.621-6.3L2,31.916V23.368l3.533-1.2a22.309,22.309,0,0,1,2.621-6.3L6.487,12.527l6.04-6.04,3.348,1.667a22.309,22.309,0,0,1,6.3-2.621L23.368,2h8.547l1.2,3.533a22.309,22.309,0,0,1,6.3,2.621l3.348-1.667,6.04,6.04L47.13,15.875a21.6,21.6,0,0,1,1.624,3.248,20.077,20.077,0,0,1,1,3.049l2.935,1,.6.2v8.547l-3.533,1.2a22.309,22.309,0,0,1-2.621,6.3l1.239,2.479H40.463l-1.154,3.618a20.7,20.7,0,0,0-4.3,1.766l-3.362-1.738-6.054,6.054.883,1.7H23.368Z" transform="translate(-2 -2)" fill="#b4dd7f"/>
      </g>
      <g id="Grupo_1117881" data-name="Grupo 1117881" transform="translate(17.095 25.642)">
        <path id="Trazado_889071" data-name="Trazado 889071" d="M31.095,20V31.4H25.4V25.7H19.7v5.7H14V20Z" transform="translate(-14 -20)" fill="#e6e9ed"/>
      </g>
      <g id="Grupo_1117882" data-name="Grupo 1117882" transform="translate(22.793 31.34)">
        <path id="Trazado_889072" data-name="Trazado 889072" d="M23.7,24v5.7H18V24Z" transform="translate(-18 -24)" fill="#aab2bd"/>
      </g>
      <g id="Grupo_1117883" data-name="Grupo 1117883" transform="translate(14.245 14.245)">
        <path id="Trazado_889073" data-name="Trazado 889073" d="M34.793,23.4H12L23.4,12Z" transform="translate(-12 -12)" fill="#ff826e"/>
      </g>
      <g id="Grupo_1117884" data-name="Grupo 1117884" transform="translate(19.944 39.887)">
        <path id="Trazado_889074" data-name="Trazado 889074" d="M61.586,48.519v8.547L57.967,58.22a20.7,20.7,0,0,1-1.766,4.3l1.738,3.362-6.054,6.04L48.522,70.2a20.7,20.7,0,0,1-4.3,1.766l-1.154,3.618H34.519l-1.154-3.618a20.7,20.7,0,0,1-4.3-1.766L25.7,71.924l-6.054-6.04,1.738-3.362a20.7,20.7,0,0,1-1.766-4.3L16,57.066V48.519l3.618-1.154a20.7,20.7,0,0,1,1.766-4.3L20.53,41.4l-.883-1.7L25.7,33.647l3.362,1.738a20.7,20.7,0,0,1,4.3-1.766L34.519,30h8.547l1.154,3.618A20.631,20.631,0,0,1,47.155,34.7q.705.321,1.368.684l3.362-1.738,2.322,2.322L57.939,39.7l-1.61,3.12-.128.242a20.7,20.7,0,0,1,1.766,4.3l2.194.7Z" transform="translate(-16 -30)" fill="#ffc729"/>
      </g>
      <g id="Grupo_1117885" data-name="Grupo 1117885" transform="translate(28.491 48.435)">
        <circle id="Elipse_11770" data-name="Elipse 11770" cx="14" cy="14" r="14" transform="translate(0.245 0.302)" fill="#fcd770"/>
      </g>
    </g>
    <g id="Grupo_1117887" data-name="Grupo 1117887" transform="translate(1 1)">
      <path id="Trazado_889075" data-name="Trazado 889075" d="M36.67,35A15.67,15.67,0,1,0,52.34,50.67,15.689,15.689,0,0,0,36.67,35Zm0,28.491A12.821,12.821,0,1,1,49.491,50.67,12.837,12.837,0,0,1,36.67,63.491Z" transform="translate(7.491 13.435)"/>
      <path id="Trazado_889076" data-name="Trazado 889076" d="M32.274,44.7h2.849a1.427,1.427,0,0,1,1.425,1.425H39.4a4.279,4.279,0,0,0-4.274-4.274V39H32.274v2.849a4.274,4.274,0,1,0,0,8.547h2.849a1.425,1.425,0,1,1,0,2.849H32.274a1.427,1.427,0,0,1-1.425-1.425H28a4.279,4.279,0,0,0,4.274,4.274v2.849h2.849V56.095a4.274,4.274,0,1,0,0-8.547H32.274a1.425,1.425,0,1,1,0-2.849Z" transform="translate(10.463 15.133)"/>
      <path id="Trazado_889077" data-name="Trazado 889077" d="M85.543,31.468a24.058,24.058,0,0,0-2.175-5.249l1.772-3.574-7.49-7.49-3.574,1.772a24.029,24.029,0,0,0-5.249-2.175l-1.274-3.779H56.958l-1.274,3.779a24,24,0,0,0-5.932,2.574l-.037.028c-.182-.368-.336-.748-.537-1.107l1.772-3.574-7.49-7.49L39.886,6.955a24.029,24.029,0,0,0-5.249-2.175L33.363,1H22.769L21.495,4.779a24.058,24.058,0,0,0-5.249,2.175L12.673,5.182l-7.49,7.49,1.772,3.574A24.029,24.029,0,0,0,4.779,21.5L1,22.77V33.364l3.779,1.274a24.058,24.058,0,0,0,2.175,5.249L5.182,43.462l7.49,7.49,3.574-1.772A24.028,24.028,0,0,0,21.5,51.355l1.274,3.778h3.258l.121.235a21.276,21.276,0,0,0-1.309,3.175l-3.9,1.249V70.418l3.895,1.248a21.3,21.3,0,0,0,1.309,3.175l-1.869,3.63,7.513,7.513,3.631-1.869A21.275,21.275,0,0,0,38.6,85.424l1.251,3.9H50.475l1.248-3.895A21.275,21.275,0,0,0,54.9,84.118l3.631,1.869,7.513-7.513-1.869-3.63a21.3,21.3,0,0,0,1.309-3.175l3.9-1.252V61.154a23.96,23.96,0,0,0,4.7-2l3.574,1.772,7.49-7.49-1.772-3.574a24.029,24.029,0,0,0,2.175-5.249l3.779-1.274V32.74Zm-62.6,17.321a21.141,21.141,0,0,1-5.9-2.447l-.67-.406-3.128,1.553-4.6-4.6L10.2,39.763l-.406-.67a21.227,21.227,0,0,1-2.447-5.9l-.187-.759L3.849,31.317v-6.5L7.157,23.7l.187-.759a21.141,21.141,0,0,1,2.447-5.9l.406-.67L8.644,13.243l4.6-4.6L16.369,10.2l.67-.406a21.227,21.227,0,0,1,5.9-2.447l.759-.187,1.114-3.309h6.5L32.43,7.157l.759.187a21.141,21.141,0,0,1,5.9,2.447l.67.406L42.89,8.644l4.6,4.6-1.553,3.128.406.67a21.227,21.227,0,0,1,2.447,5.9l.187.759,3.309,1.114v6.5l-3.308,1.114-.187.759a21.141,21.141,0,0,1-2.447,5.9l-.406.67.558,1.124H41.4a18.5,18.5,0,1,0-13.332,5.7c.486,0,.962-.036,1.437-.073l-4.96,4.96-.842-2.5ZM55.133,24.118A15.651,15.651,0,1,1,65.175,53.423l.868-1.687-2.3-2.3h8.487V28.066H55.133Zm-5.457,16.77-.5-1a24.029,24.029,0,0,0,2.175-5.249l.93-.313V44.987c-.188-.067-.37-.144-.561-.205l-1.249-3.895Zm19.7-7.123H55.133V30.916H69.378ZM55.133,36.614H69.378v9.972H60.891l-2.362-2.362-3.4,1.746ZM40.145,38.038H38.038V29.491h1.425a1.424,1.424,0,0,0,1.007-2.432l-11.4-11.4a1.423,1.423,0,0,0-2.014,0l-11.4,11.4a1.424,1.424,0,0,0,1.007,2.432h1.425v8.547H15.988a15.67,15.67,0,1,1,24.157,0Zm-10.654,0H26.642V35.189h2.849Zm-5.7-5.7v5.7H20.944V29.491H35.189v8.547H32.34v-5.7Zm-3.684-5.7,7.958-7.958,7.958,7.958Zm7.426,14.245h9.512a15.582,15.582,0,0,1-17.964,0Zm11.7,1.917L38.6,44.782a21.276,21.276,0,0,0-3.175,1.309l-1.158-.6A18.456,18.456,0,0,0,39.233,42.8Zm27.3,25.535-3.356,1.076-.208.736a18.339,18.339,0,0,1-1.643,3.982l-.375.668,1.61,3.127L57.983,82.5l-3.127-1.608-.667.373a18.4,18.4,0,0,1-3.983,1.643l-.736.208L48.4,86.473H41.927l-1.076-3.356-.736-.208a18.469,18.469,0,0,1-3.983-1.643l-.667-.373L32.339,82.5l-4.574-4.574,1.61-3.127L29,74.132a18.369,18.369,0,0,1-1.643-3.982l-.208-.736L23.793,68.34V61.871L27.149,60.8l.208-.736A18.469,18.469,0,0,1,29,56.076l.373-.667-1.608-3.127,4.574-4.574,3.127,1.608.667-.373A18.4,18.4,0,0,1,40.115,47.3l.736-.208,1.074-3.356h6.469l1.076,3.356.736.208a18.469,18.469,0,0,1,3.983,1.643l.667.373,3.127-1.608,4.574,4.574-1.608,3.127.373.667a18.4,18.4,0,0,1,1.643,3.983l.208.736,3.356,1.074ZM86.473,41.289,83.165,42.4l-.187.759a21.184,21.184,0,0,1-2.447,5.9l-.406.67,1.553,3.128-4.6,4.6-3.128-1.553-.67.406a21.184,21.184,0,0,1-5.831,2.432l-.838.161-1.131-.363a21.321,21.321,0,0,0-.832-2.14,18.519,18.519,0,1,0-11.7-34.369l-1.6-.54c-.138-.489-.329-.957-.5-1.435l.44-.339a21.19,21.19,0,0,1,5.836-2.406l.759-.187L59,13.821h6.5l1.114,3.308.759.187a21.141,21.141,0,0,1,5.9,2.447l.67.406,3.128-1.553,4.6,4.6-1.553,3.128.406.67a21.226,21.226,0,0,1,2.447,5.9l.187.759,3.309,1.114Z" transform="translate(-1 -1)"/>
    </g>
  </g>
</svg>
