<svg id="Grupo_1116739" data-name="Grupo 1116739" xmlns="http://www.w3.org/2000/svg" width="122.486" height="122.486" viewBox="0 0 122.486 122.486">
  <rect id="Rectángulo_402033" data-name="Rectángulo 402033" width="122.486" height="122.486" rx="5" transform="translate(0)" fill="#d7f5ea"/>
  <g id="Layer_31" data-name="Layer 31" transform="translate(20.311 19.716)">
    <path id="Trazado_889115" data-name="Trazado 889115" d="M23,37h7.787V47.382H23Z" transform="translate(6.253 11.018)" fill="#ffd3b6"/>
    <path id="Trazado_889116" data-name="Trazado 889116" d="M23,41.639a14.016,14.016,0,0,0,7.787,0V37H23Z" transform="translate(6.253 11.018)" fill="#f9b995"/>
    <path id="Trazado_889117" data-name="Trazado 889117" d="M18.573,45H47.124A15.573,15.573,0,0,1,62.7,60.573V68.36H3V60.573A15.573,15.573,0,0,1,18.573,45Z" transform="translate(0.298 13.4)" fill="#e6e6e6"/>
    <path id="Trazado_889118" data-name="Trazado 889118" d="M33.589,64.466,31.551,45h-1.3L27.286,62.309a2.6,2.6,0,0,1-2.559,2.157H14.633a7.748,7.748,0,0,1-7.787-7.553,15.493,15.493,0,0,1,2.733-9.04A15.539,15.539,0,0,0,3,60.573V68.36H62.7V64.466Z" transform="translate(0.298 13.4)" fill="#cecece"/>
    <path id="Trazado_889119" data-name="Trazado 889119" d="M15,17H43.551V31.275a14.275,14.275,0,0,1-28.551,0Z" transform="translate(3.871 5.063)" fill="#ffd3b6"/>
    <path id="Trazado_889120" data-name="Trazado 889120" d="M33.169,41.657A14.275,14.275,0,0,1,18.893,27.382V17H15V31.275a14.275,14.275,0,0,0,26.126,7.958,14.2,14.2,0,0,1-7.958,2.424Z" transform="translate(3.871 5.063)" fill="#f9b995"/>
    <path id="Trazado_889121" data-name="Trazado 889121" d="M25.6,49,23,67.169h7.787L28.191,49Z" transform="translate(6.253 14.591)" fill="#f97878"/>
    <path id="Trazado_889122" data-name="Trazado 889122" d="M23.557,60,23,63.893h7.787L30.23,60Z" transform="translate(6.253 17.866)" fill="#ed5d5d"/>
    <path id="Trazado_889123" data-name="Trazado 889123" d="M0,0H5.506V5.506H0Z" transform="translate(29.244 62.29) rotate(-45)" fill="#ed5d5d"/>
    <path id="Trazado_889124" data-name="Trazado 889124" d="M23.893,41,20,46.191l1.3,7.787,6.489-7.787Z" transform="translate(5.36 12.209)" fill="#e6e6e6"/>
    <path id="Trazado_889125" data-name="Trazado 889125" d="M24.412,45.963a1.3,1.3,0,0,1-2.278-.618l-.359-2.163L20,45.541l1.3,7.787,6.489-7.787-1.428-1.913Z" transform="translate(5.36 12.858)" fill="#cecece"/>
    <path id="Trazado_889126" data-name="Trazado 889126" d="M29.893,41l3.893,5.191-1.3,7.787L26,46.191Z" transform="translate(7.146 12.209)" fill="#e6e6e6"/>
    <path id="Trazado_889127" data-name="Trazado 889127" d="M29.374,45.963a1.3,1.3,0,0,0,2.278-.618l.359-2.163,1.775,2.359-1.3,7.787L26,45.541l1.434-1.913Z" transform="translate(7.146 12.858)" fill="#cecece"/>
    <path id="Trazado_889128" data-name="Trazado 889128" d="M14.191,17h2.6V29.978h-2.6A5.191,5.191,0,0,1,9,24.787v-2.6A5.191,5.191,0,0,1,14.191,17Z" transform="translate(2.084 5.063)" fill="#f97878"/>
    <path id="Trazado_889129" data-name="Trazado 889129" d="M12.893,20.861v-2.6a5.157,5.157,0,0,1,.14-1.158A5.191,5.191,0,0,0,9,22.159v2.6a5.191,5.191,0,0,0,5.191,5.191h2.6V25.869a5.181,5.181,0,0,1-3.893-5.008Z" transform="translate(2.084 5.095)" fill="#ed5d5d"/>
    <path id="Trazado_889130" data-name="Trazado 889130" d="M5.191,0h2.6V12.978h-2.6A5.191,5.191,0,0,1,0,7.787v-2.6A5.191,5.191,0,0,1,5.191,0Z" transform="translate(55.208 35.04) rotate(180)" fill="#f97878"/>
    <path id="Trazado_889131" data-name="Trazado 889131" d="M43.489,26.084a2.6,2.6,0,0,1-2.6-2.6V17.183A5.161,5.161,0,0,0,39.6,17H37V29.978h2.6a5.191,5.191,0,0,0,5.051-4.033,5.157,5.157,0,0,1-1.158.14Z" transform="translate(10.421 5.063)" fill="#ed5d5d"/>
    <path id="Trazado_889132" data-name="Trazado 889132" d="M11,20.466v2.6h5.191v-2.6a14.275,14.275,0,1,1,28.551,0v2.6h5.191v-2.6a19.466,19.466,0,1,0-38.933,0Z" transform="translate(2.68 0.299)" fill="#f97878"/>
    <path id="Trazado_889133" data-name="Trazado 889133" d="M29.275,5A14.275,14.275,0,0,0,15,19.275v6.489H28.423a5.191,5.191,0,0,0,3.671-1.521l2.372-2.372,2.372,2.372a5.191,5.191,0,0,0,3.671,1.521h3.041V19.275A14.275,14.275,0,0,0,29.275,5Z" transform="translate(3.871 1.49)" fill="#7a838b"/>
    <path id="Trazado_889134" data-name="Trazado 889134" d="M31.222,5.148A14.177,14.177,0,0,0,15,19.275v6.489h3.893V19.275A14.266,14.266,0,0,1,31.222,5.148Z" transform="translate(3.871 1.489)" fill="#5d6972"/>
    <path id="Trazado_889135" data-name="Trazado 889135" d="M42.787,46.36V45.153a2.6,2.6,0,0,0-1.156-2.159L35,38.573h5.191a2.6,2.6,0,0,0,2.6-2.6V25.6a2.6,2.6,0,0,1,2.6-2.6H66.146a2.6,2.6,0,0,1,2.6,2.6V46.36a2.6,2.6,0,0,1-2.6,2.6H45.382A2.6,2.6,0,0,1,42.787,46.36Z" transform="translate(9.826 6.849)" fill="#e6e6e6"/>
    <path id="Trazado_889136" data-name="Trazado 889136" d="M50.962,41.827a4.283,4.283,0,0,1-4.283-4.283,1.694,1.694,0,0,0-.753-1.407l-3.4-2.274a2.586,2.586,0,0,1-2.336,1.474H35l6.63,4.42a2.6,2.6,0,0,1,1.156,2.159v1.207a2.6,2.6,0,0,0,2.6,2.6H66.146a2.6,2.6,0,0,0,2.6-2.6v-1.3Z" transform="translate(9.826 10.084)" fill="#cecece"/>
    <path id="Trazado_889137" data-name="Trazado 889137" d="M60.573,32.191H55.382V27H50.191v5.191H45v5.191h5.191v5.191h5.191V37.382h5.191Z" transform="translate(12.803 8.04)" fill="#f97878"/>
    <path id="Trazado_889138" data-name="Trazado 889138" d="M21.3,25A1.3,1.3,0,0,0,20,26.3v1.3a1.3,1.3,0,1,0,2.6,0V26.3A1.3,1.3,0,0,0,21.3,25Z" transform="translate(5.36 7.445)"/>
    <path id="Trazado_889139" data-name="Trazado 889139" d="M31.3,25A1.3,1.3,0,0,0,30,26.3v1.3a1.3,1.3,0,1,0,2.6,0V26.3A1.3,1.3,0,0,0,31.3,25Z" transform="translate(8.337 7.445)"/>
    <path id="Trazado_889140" data-name="Trazado 889140" d="M75.972,28.551H56.506v-1.3a6.462,6.462,0,0,0-2.6-5.162V20.765A20.832,20.832,0,0,0,47.263,5.538a1.3,1.3,0,1,0-1.764,1.9,18.235,18.235,0,0,1,5.815,13.324v.13a6.488,6.488,0,0,0-1.3-.13h-1.3a15.573,15.573,0,1,0-31.146,0h-1.3a6.488,6.488,0,0,0-1.3.13v-.13A18.169,18.169,0,0,1,42.215,5.018a1.3,1.3,0,1,0,1.3-2.248A20.764,20.764,0,0,0,12.382,20.765v1.326a6.462,6.462,0,0,0-2.6,5.162v2.6a6.5,6.5,0,0,0,3.932,5.959A11.7,11.7,0,0,0,20.8,45.792,15.622,15.622,0,0,0,27.955,51v1.774L24.711,57.1h-5.84A16.89,16.89,0,0,0,2,73.973v7.787a1.3,1.3,0,0,0,1.3,1.3h59.7a1.3,1.3,0,0,0,1.3-1.3V73.973A16.89,16.89,0,0,0,47.421,57.1h-5.84l-3.244-4.325V51a15.608,15.608,0,0,0,6.275-4.163l6.125,4.083A1.3,1.3,0,0,1,51.315,52v1.207A3.893,3.893,0,0,0,55.208,57.1h5.149a1.3,1.3,0,1,0,0-2.6H55.208a1.3,1.3,0,0,1-1.3-1.3V52a3.884,3.884,0,0,0-1.734-3.244L49.108,46.72h.908a3.893,3.893,0,0,0,3.893-3.893V32.445a1.3,1.3,0,0,1,1.3-1.3H75.972a1.3,1.3,0,0,1,1.3,1.3V53.209a1.3,1.3,0,0,1-1.3,1.3H65.59a1.3,1.3,0,1,0,0,2.6H75.972a3.893,3.893,0,0,0,3.893-3.893V32.445a3.893,3.893,0,0,0-3.893-3.893Zm-63.59,1.3v-2.6a3.893,3.893,0,0,1,3.893-3.893h1.3V33.742h-1.3A3.893,3.893,0,0,1,12.382,29.849Zm4,6.489h1.194a15.5,15.5,0,0,0,.6,4.24,9.021,9.021,0,0,1-1.8-4.24ZM29.253,55.372l2.24,2.985L27.47,63.182l-.741-4.447Zm3.893,5.055,1.783,2.141-1.783,1.783-1.783-1.783ZM4.6,73.973A14.292,14.292,0,0,1,18.871,59.7h5.39l1.117,6.7a1.3,1.3,0,0,0,.94,1.038,1.276,1.276,0,0,0,.34.045,1.3,1.3,0,0,0,1-.467l2.039-2.448.615.615L28.126,80.462H4.6Zm26.154,6.489,1.878-13.1a1.216,1.216,0,0,0,1.051,0l1.865,13.1Zm9.226-13.023a1.3,1.3,0,0,0,.94-1.038l1.117-6.7h5.39A14.292,14.292,0,0,1,61.7,73.973v6.489H38.166L35.983,65.184l.615-.615,2.039,2.448a1.3,1.3,0,0,0,1,.467,1.275,1.275,0,0,0,.34-.045ZM38.82,63.182,34.8,58.357l2.243-2.985,2.522,3.362ZM35.742,52.777l-2.6,3.46-2.6-3.46v-1.1a14.457,14.457,0,0,0,5.191,0Zm-2.6-3.461a12.889,12.889,0,0,1-7.753-2.6h9.051a1.3,1.3,0,1,0,0-2.6H25.36a9.036,9.036,0,0,1-2.945-.5,12.9,12.9,0,0,1-2.246-7.287V28.551H32.293a6.447,6.447,0,0,0,4.589-1.9l2.372-2.374a1.3,1.3,0,1,0-1.835-1.835l-2.372,2.374a3.871,3.871,0,0,1-2.754,1.139H20.169V20.765a12.978,12.978,0,0,1,25.955,0v5.191H44.381a3.893,3.893,0,0,1-2.574-.973,1.3,1.3,0,1,0-1.716,1.946,6.478,6.478,0,0,0,4.29,1.622h1.743v7.787A12.992,12.992,0,0,1,33.146,49.315Zm16.871-5.191H46.612a15.443,15.443,0,0,0,2.108-7.787h1.3a6.5,6.5,0,0,0,1.3-.144v6.633A1.3,1.3,0,0,1,50.017,44.124Zm1.3-11.68v1.046a3.882,3.882,0,0,1-1.3.252h-1.3V23.36h1.3a3.893,3.893,0,0,1,3.893,3.893V28.79a3.893,3.893,0,0,0-2.6,3.654Z" transform="translate(0 0)"/>
    <path id="Trazado_889141" data-name="Trazado 889141" d="M50.489,44.169H55.68a1.3,1.3,0,0,0,1.3-1.3V38.978h3.893a1.3,1.3,0,0,0,1.3-1.3V32.489a1.3,1.3,0,0,0-1.3-1.3H56.978V27.3a1.3,1.3,0,0,0-1.3-1.3H50.489a1.3,1.3,0,0,0-1.3,1.3v3.893H45.3a1.3,1.3,0,0,0-1.3,1.3V37.68a1.3,1.3,0,0,0,1.3,1.3h3.893v3.893A1.3,1.3,0,0,0,50.489,44.169ZM46.6,36.382v-2.6h3.893a1.3,1.3,0,0,0,1.3-1.3V28.6h2.6v3.893a1.3,1.3,0,0,0,1.3,1.3h3.893v2.6H55.68a1.3,1.3,0,0,0-1.3,1.3v3.893h-2.6V37.68a1.3,1.3,0,0,0-1.3-1.3Z" transform="translate(12.506 7.742)"/>
    <path id="Trazado_889142" data-name="Trazado 889142" d="M35.893,8.684a1.3,1.3,0,0,1-.9-.361,15.8,15.8,0,0,0-2.4-1.889A1.3,1.3,0,1,1,34,4.247a18.223,18.223,0,0,1,2.794,2.206,1.3,1.3,0,0,1-.9,2.231Z" transform="translate(8.933 1.204)" fill="#fff"/>
  </g>
</svg>
