<svg xmlns="http://www.w3.org/2000/svg" width="85" height="85" viewBox="0 0 85 85">
  <g id="Grupo_1116834" data-name="Grupo 1116834" transform="translate(-179.711 -2281)">
    <rect id="Rectángulo_407620" data-name="Rectángulo 407620" width="85" height="85" rx="10" transform="translate(179.711 2281)" fill="#75b8fb"/>
    <g id="Grupo_1118437" data-name="Grupo 1118437" transform="translate(161.363 2290.93)">
      <g id="Grupo_1118435" data-name="Grupo 1118435" transform="translate(33.36 0.949)">
        <path id="Trazado_889547" data-name="Trazado 889547" d="M424.941,136.5h-.009l-.378.223v6.552H430.3l.314-.267v-.839A5.685,5.685,0,0,0,424.941,136.5Z" transform="translate(-375.621 -120.084)" fill="#ffa90f"/>
        <path id="Trazado_889548" data-name="Trazado 889548" d="M159.886,8.369l-.406-.912h-27.82a2.1,2.1,0,0,0-2.1,2.1v3.628l.874.716h23.323l7.657,7.443v9.478h5.45l.606-.442V15.445l-.945-.418Z" transform="translate(-118.158 -7.457)" fill="#62ddfc"/>
        <g id="Grupo_1118434" data-name="Grupo 1118434" transform="translate(11.401 0)">
          <path id="Trazado_889549" data-name="Trazado 889549" d="M136.078,9.559a2.1,2.1,0,0,1,2.1-2.1h-6.519a2.1,2.1,0,0,0-2.1,2.1v3.628l.874.716h6.519l-.874-.716V9.559Z" transform="translate(-129.559 -7.457)" fill="#00d2fc"/>
        </g>
        <path id="Trazado_889550" data-name="Trazado 889550" d="M45.622,136.5h-.116a5.577,5.577,0,0,0-5.561,5.561v.947l.549.152H46.05v-6.3Z" transform="translate(-39.945 -120.084)" fill="#ffa90f"/>
        <path id="Trazado_889551" data-name="Trazado 889551" d="M364.741,7.457v5.886a2.1,2.1,0,0,0,2.1,2.1h5.886Z" transform="translate(-323.418 -7.457)" fill="#00d2fc"/>
        <path id="Trazado_889552" data-name="Trazado 889552" d="M114.975,53.7l-.49-1.2H86.666a2.1,2.1,0,0,0-2.1,2.1V69.693l.824.824H120.21l2.264-.824V60.486l-1.179-.55Z" transform="translate(-78.887 -46.768)" fill="#dbedff"/>
        <path id="Trazado_889553" data-name="Trazado 889553" d="M91.084,54.6a2.1,2.1,0,0,1,2.1-2.1H86.667a2.1,2.1,0,0,0-2.1,2.1V69.692l.824.824h6.519l-.824-.824Z" transform="translate(-78.888 -46.767)" fill="#b5dcff"/>
        <path id="Trazado_889554" data-name="Trazado 889554" d="M319.746,52.5v5.886a2.1,2.1,0,0,0,2.1,2.1h5.886Z" transform="translate(-284.148 -46.768)" fill="#b5dcff"/>
        <path id="Trazado_889555" data-name="Trazado 889555" d="M368.176,13.343V10.892l-3.435-3.435v5.886a2.1,2.1,0,0,0,2.1,2.1h3.435a2.1,2.1,0,0,1-2.1-2.1Z" transform="translate(-323.418 -7.457)" fill="#00c2fb"/>
        <path id="Trazado_889556" data-name="Trazado 889556" d="M323.181,58.384V55.933L319.746,52.5v5.886a2.1,2.1,0,0,0,2.1,2.1h3.435A2.1,2.1,0,0,1,323.181,58.384Z" transform="translate(-284.148 -46.768)" fill="#8bcaff"/>
        <path id="Trazado_889557" data-name="Trazado 889557" d="M94.933,187.649H39.945v38.617a1.69,1.69,0,0,0,1.69,1.69H93.243a1.69,1.69,0,0,0,1.69-1.69Z" transform="translate(-39.945 -164.724)" fill="#ffd086"/>
        <path id="Trazado_889558" data-name="Trazado 889558" d="M48.049,226.266V187.649h-8.1v38.617a1.69,1.69,0,0,0,1.69,1.69h8.1A1.69,1.69,0,0,1,48.049,226.266Z" transform="translate(-39.945 -164.724)" fill="#ffc365"/>
        <path id="Trazado_889559" data-name="Trazado 889559" d="M277.377,320H257.127a1.081,1.081,0,0,0-1.081,1.081v15.939a1.081,1.081,0,0,0,1.081,1.081h20.249a1.081,1.081,0,0,0,1.081-1.081V321.083A1.081,1.081,0,0,0,277.377,320Z" transform="translate(-228.552 -280.238)" fill="#dbedff"/>
        <path id="Trazado_889560" data-name="Trazado 889560" d="M261.128,337.023V321.083A1.081,1.081,0,0,1,262.209,320h-5.082a1.081,1.081,0,0,0-1.081,1.081v15.939a1.081,1.081,0,0,0,1.081,1.081h5.082A1.081,1.081,0,0,1,261.128,337.023Z" transform="translate(-228.552 -280.238)" fill="#b5dcff"/>
      </g>
      <g id="Grupo_1118436" data-name="Grupo 1118436" transform="translate(32.4 0)">
        <path id="Trazado_889561" data-name="Trazado 889561" d="M38.077,16.474A6.523,6.523,0,0,0,32.4,22.933V62.5a2.647,2.647,0,0,0,2.644,2.644H86.652A2.647,2.647,0,0,0,89.3,62.5V45.225a.954.954,0,0,0-1.908,0V62.5a.736.736,0,0,1-.736.736H35.044a.736.736,0,0,1-.735-.736V24.834H87.388V40.772a.954.954,0,1,0,1.908,0V23.04a6.632,6.632,0,0,0-5.677-6.554V8.942a.959.959,0,0,0-.279-.675L75.352.279A.963.963,0,0,0,74.677,0H46.857A3.06,3.06,0,0,0,43.8,3.056V5.73H41.133a3.06,3.06,0,0,0-3.056,3.056Zm0,6.452H34.308A4.614,4.614,0,0,1,38.077,18.4Zm45.543-4.5a4.722,4.722,0,0,1,3.767,4.5H83.619ZM75.631,3.258l4.73,4.73H76.779A1.149,1.149,0,0,1,75.631,6.84Zm-29.921-.2a1.149,1.149,0,0,1,1.148-1.148H73.723V6.84A3.06,3.06,0,0,0,76.779,9.9h4.932V22.925H77.895V14.673A.959.959,0,0,0,77.615,14L69.627,6.01a.966.966,0,0,0-.675-.279H45.71ZM74.637,13.718H71.054a1.149,1.149,0,0,1-1.148-1.148V8.988ZM39.985,8.786a1.149,1.149,0,0,1,1.148-1.148H68v4.932a3.06,3.06,0,0,0,3.056,3.056h4.932v7.3h-36Z" transform="translate(-32.4 0)"/>
        <path id="Trazado_889562" data-name="Trazado 889562" d="M298.021,425.126H284.535a.954.954,0,0,0,0,1.908h13.486a.954.954,0,0,0,0-1.908Z" transform="translate(-251.624 -371.039)"/>
        <path id="Trazado_889563" data-name="Trazado 889563" d="M298.021,397.5H284.535a.954.954,0,1,0,0,1.908h13.486a.954.954,0,0,0,0-1.908Z" transform="translate(-251.624 -346.926)"/>
        <path id="Trazado_889564" data-name="Trazado 889564" d="M298.021,369.873H284.535a.954.954,0,0,0,0,1.908h13.486a.954.954,0,0,0,0-1.908Z" transform="translate(-251.624 -322.815)"/>
        <path id="Trazado_889565" data-name="Trazado 889565" d="M298.021,342.246H284.535a.954.954,0,0,0,0,1.908h13.486a.954.954,0,0,0,0-1.908Z" transform="translate(-251.624 -298.703)"/>
        <path id="Trazado_889566" data-name="Trazado 889566" d="M145.794,149.617H119.544a.954.954,0,1,0,0,1.908h26.249a.954.954,0,0,0,0-1.908Z" transform="translate(-107.624 -130.582)"/>
        <path id="Trazado_889567" data-name="Trazado 889567" d="M119.543,123.9h22.093a.954.954,0,0,0,0-1.908H119.543a.954.954,0,1,0,0,1.908Z" transform="translate(-107.623 -106.47)"/>
        <path id="Trazado_889568" data-name="Trazado 889568" d="M258.434,312.545h-7.9a2.038,2.038,0,0,0-2.036,2.036V330.52a2.038,2.038,0,0,0,2.036,2.036h20.249a2.038,2.038,0,0,0,2.036-2.036V314.581a2.038,2.038,0,0,0-2.036-2.036h-7.9a.954.954,0,1,0,0,1.908h7.9a.127.127,0,0,1,.127.127V330.52a.127.127,0,0,1-.127.127H250.536a.127.127,0,0,1-.127-.127V314.581a.127.127,0,0,1,.127-.127h7.9a.954.954,0,0,0,0-1.908Z" transform="translate(-221.006 -272.781)"/>
      </g>
    </g>
  </g>
</svg>
