<svg xmlns="http://www.w3.org/2000/svg" width="110" height="110" viewBox="0 0 110 110">
  <g id="Grupo_1108259" data-name="Grupo 1108259" transform="translate(-273.746 -3741.5)">
    <rect id="Rectángulo_402033" data-name="Rectángulo 402033" width="110" height="110" rx="5" transform="translate(273.746 3741.5)" fill="#d7bcf3"/>
    <g id="Grupo_1118454" data-name="Grupo 1118454" transform="translate(278.28 3755.109)">
      <g id="Grupo_1118452" data-name="Grupo 1118452" transform="translate(11.679 1.213)">
        <g id="Grupo_1118450" data-name="Grupo 1118450">
          <path id="Trazado_889614" data-name="Trazado 889614" d="M70.719,132.3H29a11.03,11.03,0,0,1-11.03-11.03V71.546A11.03,11.03,0,0,1,29,60.516H70.719a11.03,11.03,0,0,1,11.03,11.03v49.725A11.03,11.03,0,0,1,70.719,132.3Z" transform="translate(-17.968 -51.944)" fill="#f4fbff"/>
          <path id="Trazado_889615" data-name="Trazado 889615" d="M34.244,132.305H29a11.029,11.029,0,0,1-11.031-11.031V71.55A11.029,11.029,0,0,1,29,60.521h5.244A11.029,11.029,0,0,0,23.215,71.55v49.724A11.029,11.029,0,0,0,34.244,132.305Z" transform="translate(-17.969 -51.948)" fill="#e4f6ff"/>
          <path id="Trazado_889616" data-name="Trazado 889616" d="M121.785,13.87a10.083,10.083,0,0,0-18.747,0H99.486a6.9,6.9,0,0,0,0,13.8h25.851a6.9,6.9,0,1,0,0-13.8Z" transform="translate(-80.521 -7.503)" fill="#ffe07d"/>
          <path id="Trazado_889617" data-name="Trazado 889617" d="M115.7,8.051a10.1,10.1,0,0,0-6.087,5.816h-3.552a6.9,6.9,0,0,0,0,13.8H99.486a6.9,6.9,0,1,1,0-13.8h3.55A10.086,10.086,0,0,1,115.7,8.051Z" transform="translate(-80.521 -7.5)" fill="#ffd064"/>
          <circle id="Elipse_11772" data-name="Elipse 11772" cx="4.126" cy="4.126" r="4.126" transform="translate(27.764 5.958)" fill="#365e7d"/>
        </g>
        <g id="Grupo_1118451" data-name="Grupo 1118451" transform="translate(59.808 15.341)">
          <path id="Trazado_889618" data-name="Trazado 889618" d="M449.187,184.886a3.944,3.944,0,0,0,3.944-3.944V167.317a3.944,3.944,0,1,0-7.888,0v13.625A3.944,3.944,0,0,0,449.187,184.886Z" transform="translate(-435.967 -153.512)" fill="#80b4fb"/>
          <path id="Trazado_889619" data-name="Trazado 889619" d="M409.055,401.342v2.274a4.781,4.781,0,0,1-9.561,0v-2.274l5.5-5.139Z" transform="translate(-397.615 -348.697)" fill="#ffe07d"/>
          <path id="Trazado_889620" data-name="Trazado 889620" d="M404.648,407a4.819,4.819,0,0,0,1.5,1.017,4.781,4.781,0,0,1-6.658-4.4v-2.273l5.5-5.139,1.6,2.02-3.339,3.12v2.273A4.773,4.773,0,0,0,404.648,407Z" transform="translate(-397.614 -348.701)" fill="#ffd064"/>
          <path id="Trazado_889621" data-name="Trazado 889621" d="M409.055,226.067v32.648h-9.56V226.127" transform="translate(-397.616 -206.069)" fill="#e27f83"/>
          <path id="Trazado_889622" data-name="Trazado 889622" d="M403.251,226.067v32.648h-3.756V226.127" transform="translate(-397.616 -206.069)" fill="#c8646d"/>
          <path id="Trazado_889623" data-name="Trazado 889623" d="M411.3,118.517l-1.133-13.269a3.124,3.124,0,0,0-6.225,0l-1.133,13.269" transform="translate(-400.392 -102.389)" fill="#9dc6fb"/>
          <path id="Trazado_889624" data-name="Trazado 889624" d="M407.054,102.384c-.153,0-.293.311-.4.823a11.662,11.662,0,0,0-.187,2.036l-.212,13.267h-3.448l1.132-13.267a3.123,3.123,0,0,1,3.112-2.859Z" transform="translate(-400.394 -102.384)" fill="#80b4fb"/>
          <path id="Trazado_889625" data-name="Trazado 889625" d="M398.778,202.132h-8.49a2.414,2.414,0,0,0,0,4.828h8.49a2.414,2.414,0,1,0,0-4.828Z" transform="translate(-387.874 -186.004)" fill="#9dc6fb"/>
          <path id="Trazado_889626" data-name="Trazado 889626" d="M392.8,206.249a2.406,2.406,0,0,0,1.707.706h-4.223a2.414,2.414,0,0,1,0-4.828h4.223a2.415,2.415,0,0,0-1.707,4.122Z" transform="translate(-387.874 -186)" fill="#80b4fb"/>
        </g>
      </g>
      <g id="Grupo_1118453" data-name="Grupo 1118453" transform="translate(10.466)">
        <path id="Trazado_889627" data-name="Trazado 889627" d="M187.525,47.529a5.338,5.338,0,1,0-5.339-5.339A5.345,5.345,0,0,0,187.525,47.529Zm0-8.252a2.913,2.913,0,1,1-2.913,2.913A2.917,2.917,0,0,1,187.525,39.277Z" transform="translate(-154.422 -30.894)"/>
        <path id="Trazado_889628" data-name="Trazado 889628" d="M92.391,179.411a1.213,1.213,0,0,0,1.565-.7l.457-1.2H97.6l.451,1.2a1.213,1.213,0,1,0,2.269-.856l-3-7.95-.013-.033a1.391,1.391,0,0,0-1.29-.864h0a1.391,1.391,0,0,0-1.29.867l-.011.028-3.028,7.95a1.213,1.213,0,0,0,.7,1.565Zm4.3-4.326H95.336l.679-1.783Z" transform="translate(-78.49 -141.677)"/>
        <path id="Trazado_889629" data-name="Trazado 889629" d="M271.029,179.49a1.213,1.213,0,0,0,1.213-1.213v-8.064a1.213,1.213,0,1,0-2.425,0v8.064A1.213,1.213,0,0,0,271.029,179.49Z" transform="translate(-227.883 -141.676)"/>
        <path id="Trazado_889630" data-name="Trazado 889630" d="M211.891,178.282a1.213,1.213,0,0,0,1.213,1.208h0c.069,0,1.7-.007,2.351-.018,2.538-.044,4.381-2.242,4.381-5.226,0-3.137-1.8-5.244-4.469-5.244h-2.284a1.213,1.213,0,0,0-1.213,1.215Zm3.48-6.855c1.9,0,2.044,2.158,2.044,2.819,0,1.377-.618,2.777-2,2.8-.258,0-.686.008-1.1.011,0-.937-.008-4.656-.01-5.632Z" transform="translate(-179.31 -141.676)"/>
        <path id="Trazado_889631" data-name="Trazado 889631" d="M154.094,178.874a3.916,3.916,0,0,0,2.137.616h.006a4.122,4.122,0,0,0,1.873-.434,3.624,3.624,0,0,0,2.187-3.3v-5.543a1.213,1.213,0,1,0-2.425,0v5.543c0,.348-.1.755-.853,1.133a1.7,1.7,0,0,1-.782.175h0a1.509,1.509,0,0,1-.835-.234c-.587-.375-.705-.687-.705-1.068v-5.549a1.213,1.213,0,1,0-2.425,0v5.549A3.562,3.562,0,0,0,154.094,178.874Z" transform="translate(-129.342 -141.676)"/>
        <path id="Trazado_889632" data-name="Trazado 889632" d="M297.468,171.426h1v6.851a1.213,1.213,0,1,0,2.425,0v-6.851h1.023a1.213,1.213,0,0,0,0-2.425h-4.453a1.213,1.213,0,1,0,0,2.425Z" transform="translate(-250.047 -141.676)"/>
        <path id="Trazado_889633" data-name="Trazado 889633" d="M150.23,254.678H110.306a1.213,1.213,0,1,0,0,2.425H150.23a1.213,1.213,0,0,0,0-2.425Z" transform="translate(-93.147 -213.501)"/>
        <path id="Trazado_889634" data-name="Trazado 889634" d="M108.564,290.482H60.6a1.213,1.213,0,1,0,0,2.425h47.96a1.213,1.213,0,1,0,0-2.425Z" transform="translate(-51.481 -243.516)"/>
        <path id="Trazado_889635" data-name="Trazado 889635" d="M108.564,326.287H60.6a1.213,1.213,0,1,0,0,2.425h47.96a1.213,1.213,0,1,0,0-2.425Z" transform="translate(-51.481 -273.531)"/>
        <path id="Trazado_889636" data-name="Trazado 889636" d="M108.564,362.092H60.6a1.213,1.213,0,1,0,0,2.425h47.96a1.213,1.213,0,1,0,0-2.425Z" transform="translate(-51.481 -303.547)"/>
        <path id="Trazado_889637" data-name="Trazado 889637" d="M108.564,397.9H60.6a1.213,1.213,0,0,0,0,2.425h47.96a1.213,1.213,0,0,0,0-2.425Z" transform="translate(-51.481 -333.562)"/>
        <path id="Trazado_889638" data-name="Trazado 889638" d="M94.663,433.7H60.6a1.213,1.213,0,0,0,0,2.425H94.663a1.213,1.213,0,0,0,0-2.425Z" transform="translate(-51.481 -363.578)"/>
        <path id="Trazado_889639" data-name="Trazado 889639" d="M84.707,25.2a5.159,5.159,0,0,0-1.712.29l-.528-6.183a4.348,4.348,0,0,0-6.751-3.232A12.294,12.294,0,0,0,64.43,8.573H62.051a8.053,8.053,0,0,0-5.556-2.205H53.733a11.3,11.3,0,0,0-20.329,0H30.643a8.08,8.08,0,0,0-5.551,2.205H22.709A12.256,12.256,0,0,0,10.466,20.814V70.54A12.257,12.257,0,0,0,22.709,82.782H64.43A12.193,12.193,0,0,0,75.062,76.61a5.951,5.951,0,0,0,1.871.733V78.76a1.213,1.213,0,1,0,2.425,0V77.343a6,6,0,0,0,4.781-5.87V49.109a5.256,5.256,0,0,0,.569.032,5.163,5.163,0,0,0,5.157-5.157V30.359A5.163,5.163,0,0,0,84.707,25.2ZM73.9,36.3a1.2,1.2,0,1,1,0-2.4h8.49a1.2,1.2,0,1,1,0,2.4Zm4.245-18.53a1.9,1.9,0,0,1,1.9,1.748l1.021,11.953H75.222l1.021-11.953a1.9,1.9,0,0,1,1.9-1.748ZM64.43,80.357H22.709a9.829,9.829,0,0,1-9.817-9.817V20.814A9.828,9.828,0,0,1,22.709,11h.609a8.109,8.109,0,0,0,1.59,9.22,8.157,8.157,0,0,0,2.928,1.876,1.213,1.213,0,1,0,.838-2.276A5.718,5.718,0,0,1,26.622,18.5a5.688,5.688,0,0,1,4.021-9.71H34.2a1.213,1.213,0,0,0,1.127-.765,8.871,8.871,0,0,1,16.494,0,1.213,1.213,0,0,0,1.127.765h3.552a5.688,5.688,0,0,1,0,11.376H33.069a1.213,1.213,0,0,0,0,2.425H56.495A8.121,8.121,0,0,0,63.826,11h.6a9.846,9.846,0,0,1,9.539,7.508,4.444,4.444,0,0,0-.144.8L72.772,31.65a3.625,3.625,0,0,0-.618,6.623V58.245a1.213,1.213,0,1,0,2.425,0V38.722h7.134V67.987H79.359v-21.5a1.213,1.213,0,1,0-2.425,0v21.5H74.579V63.1a1.213,1.213,0,0,0-2.425,0v8.377a5.959,5.959,0,0,0,1.077,3.421A9.78,9.78,0,0,1,64.43,80.357Zm13.716-5.316a3.572,3.572,0,0,1-3.568-3.568V70.412h7.136v1.061a3.572,3.572,0,0,1-3.568,3.568Zm9.292-31.057a2.731,2.731,0,0,1-3.3,2.672V38.273a3.625,3.625,0,0,0-.618-6.623l-.306-3.579a2.732,2.732,0,0,1,4.224,2.289V43.984Z" transform="translate(-10.466)"/>
      </g>
    </g>
  </g>
</svg>
