<svg xmlns="http://www.w3.org/2000/svg" width="110" height="110" viewBox="0 0 110 110">
  <g id="Grupo_1108260" data-name="Grupo 1108260" transform="translate(-273.332 -3741.5)">
    <rect id="Rectángulo_402033" data-name="Rectángulo 402033" width="110" height="110" rx="5" transform="translate(273.332 3741.5)" fill="#d8b3fe"/>
    <g id="Grupo_1118460" data-name="Grupo 1118460" transform="translate(287.326 3737.74)">
      <g id="Grupo_1118458" data-name="Grupo 1118458" transform="translate(1.203 22.341)">
        <g id="Grupo_1118455" data-name="Grupo 1118455">
          <path id="Trazado_889640" data-name="Trazado 889640" d="M7.509,49.835V95.026a6.449,6.449,0,0,0,6.449,6.449H64.57a6.449,6.449,0,0,0,6.449-6.449V35.087a6.449,6.449,0,0,0-6.449-6.449H28.706A8.061,8.061,0,0,0,23.006,31L9.87,44.135a8.06,8.06,0,0,0-2.361,5.7Z" transform="translate(-7.509 -28.638)" fill="#f4fbff"/>
          <path id="Trazado_889641" data-name="Trazado 889641" d="M7.508,49.838v1.376A4.717,4.717,0,0,1,12.224,46.5h6.693a6.448,6.448,0,0,0,6.448-6.448V33.357a4.717,4.717,0,0,1,4.716-4.716H28.706A8.067,8.067,0,0,0,23,31L9.869,44.138a8.066,8.066,0,0,0-2.361,5.7Z" transform="translate(-7.508 -28.641)" fill="#e4f6ff"/>
        </g>
        <g id="Grupo_1118457" data-name="Grupo 1118457" transform="translate(14.031 27.037)">
          <path id="Trazado_889642" data-name="Trazado 889642" d="M0,0H6.792V15.735H0Z" transform="translate(36.567 23.525) rotate(-90)" fill="#407093"/>
          <path id="Trazado_889643" data-name="Trazado 889643" d="M0,0H3.4V15.735H0Z" transform="translate(36.567 23.526) rotate(-90)" fill="#365e7d"/>
          <circle id="Elipse_11773" data-name="Elipse 11773" cx="20.13" cy="20.13" r="20.13" transform="translate(0 0)" fill="#ffe07d"/>
          <path id="Trazado_889644" data-name="Trazado 889644" d="M116.932,237.619q-.84.072-1.7.071a20.13,20.13,0,1,1,0-40.259q.858,0,1.7.071a20.13,20.13,0,0,0,0,40.116Z" transform="translate(-95.104 -197.431)" fill="#ffd064"/>
          <circle id="Elipse_11774" data-name="Elipse 11774" cx="14.23" cy="14.23" r="14.23" transform="translate(5.899 5.899)" fill="#d3effb"/>
          <path id="Trazado_889645" data-name="Trazado 889645" d="M149,262.434a14.23,14.23,0,1,1,0-27.9,14.233,14.233,0,0,0,0,27.9Z" transform="translate(-126.033 -228.357)" fill="#b1e4f9"/>
          <path id="Trazado_889646" data-name="Trazado 889646" d="M397.507,289.249v5.567a3.142,3.142,0,0,1-3.142,3.142H380.242a3.142,3.142,0,0,1-3.142-3.142v-5.567a3.142,3.142,0,0,1,3.142-3.142h14.123A3.142,3.142,0,0,1,397.507,289.249Z" transform="translate(-331.93 -271.903)" fill="#a77d73"/>
          <path id="Trazado_889647" data-name="Trazado 889647" d="M397.507,315.039v4.075a3.141,3.141,0,0,1-3.142,3.142H380.242a3.141,3.141,0,0,1-3.142-3.142v-4.075a3.141,3.141,0,0,0,3.142,3.142h14.123A3.141,3.141,0,0,0,397.507,315.039Z" transform="translate(-331.93 -296.201)" fill="#98695e"/>
          <g id="Grupo_1118456" data-name="Grupo 1118456" transform="translate(12.422 12.422)">
            <path id="Trazado_889648" data-name="Trazado 889648" d="M184.642,282.691l2.542-2.542a3.026,3.026,0,0,0-4.279-4.279l-2.542,2.542-2.542-2.542a3.026,3.026,0,0,0-4.279,4.279l2.542,2.542-2.542,2.542a3.026,3.026,0,0,0,4.279,4.279l2.542-2.542,2.542,2.542a3.026,3.026,0,0,0,4.279-4.279Z" transform="translate(-172.656 -274.984)" fill="#e27f83"/>
          </g>
        </g>
      </g>
      <g id="Grupo_1118459" data-name="Grupo 1118459" transform="translate(0 21.14)">
        <path id="Trazado_889649" data-name="Trazado 889649" d="M139.864,226.76A15.432,15.432,0,1,0,155.3,242.192,15.449,15.449,0,0,0,139.864,226.76Zm0,28.461a13.029,13.029,0,1,1,13.029-13.029A13.044,13.044,0,0,1,139.864,255.221Z" transform="translate(-104.5 -193.824)"/>
        <path id="Trazado_889650" data-name="Trazado 889650" d="M77.669,62.381H65.914V28.79a7.659,7.659,0,0,0-7.65-7.65H22.4a9.325,9.325,0,0,0-6.549,2.711l-.036.037-2.426,2.427a1.2,1.2,0,0,0,1.7,1.7l2.462-2.462.033-.034a6.73,6.73,0,0,1,.671-.577,5.885,5.885,0,0,0-.393,2.117V33.75A5.253,5.253,0,0,1,12.612,39H5.919a5.883,5.883,0,0,0-2.121.395,6.952,6.952,0,0,1,.614-.706l7.278-7.279a1.2,1.2,0,0,0-1.7-1.7L2.713,36.988A9.209,9.209,0,0,0,0,43.54V88.73a7.659,7.659,0,0,0,7.65,7.65H58.264a7.659,7.659,0,0,0,7.65-7.65V76.635H77.669a4.348,4.348,0,0,0,4.343-4.343V66.724a4.348,4.348,0,0,0-4.343-4.343ZM63.511,88.73a5.253,5.253,0,0,1-5.248,5.248H7.65A5.253,5.253,0,0,1,2.4,88.73V44.94c0-.008,0-.016,0-.025A3.519,3.519,0,0,1,5.919,41.4h6.693a7.658,7.658,0,0,0,7.65-7.65V27.058a3.519,3.519,0,0,1,3.515-3.515H58.264a5.254,5.254,0,0,1,5.248,5.248V62.382a4.348,4.348,0,0,0-3.91,2.528H56.194c-.042-.191-.088-.38-.135-.569H58.2a1.2,1.2,0,0,0,0-2.4H55.3a21.276,21.276,0,0,0-1.951-3.876H58.2a1.2,1.2,0,0,0,0-2.4H51.573a21.5,21.5,0,0,0-4.356-3.876H58.2a1.2,1.2,0,0,0,0-2.4H42.429a21.332,21.332,0,0,0-14.131,0H7.714a1.2,1.2,0,1,0,0,2.4H23.507a21.506,21.506,0,0,0-4.355,3.876H7.714a1.2,1.2,0,0,0,0,2.4H17.37a21.27,21.27,0,0,0-1.949,3.876H7.714a1.2,1.2,0,1,0,0,2.4h6.951a21.251,21.251,0,0,0-.594,3.876H7.714a1.2,1.2,0,1,0,0,2.4h6.346a21.244,21.244,0,0,0,.561,3.876H7.714a1.2,1.2,0,1,0,0,2.4h7.638A21.338,21.338,0,0,0,46.662,87.605a1.2,1.2,0,0,0-1.274-2.037,18.964,18.964,0,1,1,3.494-2.812A1.2,1.2,0,1,0,50.6,84.439a21.2,21.2,0,0,0,5.6-10.333h3.4a4.348,4.348,0,0,0,3.91,2.528v12.1ZM56.582,67.313H59.2V71.7H56.582a21.526,21.526,0,0,0,0-4.39ZM79.61,72.292a1.943,1.943,0,0,1-1.94,1.94H63.546a1.943,1.943,0,0,1-1.94-1.94V66.724a1.943,1.943,0,0,1,1.94-1.94H77.669a1.943,1.943,0,0,1,1.94,1.94Z" transform="translate(0 -21.14)"/>
        <path id="Trazado_889651" data-name="Trazado 889651" d="M181.747,268.722a4.227,4.227,0,0,0-5.978,0l-1.693,1.693-1.693-1.693a4.227,4.227,0,0,0-5.978,5.978l1.693,1.693-1.693,1.693a4.227,4.227,0,0,0,5.978,5.978l1.692-1.693,1.693,1.693a4.227,4.227,0,1,0,5.978-5.978l-1.693-1.693,1.693-1.693A4.232,4.232,0,0,0,181.747,268.722Zm-1.7,4.279-2.542,2.542a1.2,1.2,0,0,0,0,1.7l2.542,2.542a1.824,1.824,0,1,1-2.58,2.58l-2.542-2.542a1.2,1.2,0,0,0-1.7,0l-2.542,2.542a1.824,1.824,0,1,1-2.58-2.58l2.542-2.542a1.2,1.2,0,0,0,0-1.7L168.1,273a1.824,1.824,0,1,1,2.58-2.58l2.542,2.542a1.2,1.2,0,0,0,1.7,0l2.542-2.542a1.824,1.824,0,0,1,2.58,2.58Z" transform="translate(-138.713 -228.025)"/>
        <path id="Trazado_889652" data-name="Trazado 889652" d="M94.67,160.658H136.7a1.2,1.2,0,1,0,0-2.4H94.67a1.2,1.2,0,1,0,0,2.4Z" transform="translate(-78.497 -136.292)"/>
      </g>
    </g>
  </g>
</svg>
