<svg xmlns="http://www.w3.org/2000/svg" width="110" height="110" viewBox="0 0 110 110">
  <g id="Grupo_1108257" data-name="Grupo 1108257" transform="translate(-273.332 -3741.5)">
    <rect id="Rectángulo_402033" data-name="Rectángulo 402033" width="110" height="110" rx="5" transform="translate(273.332 3741.5)" fill="#d8b3fe"/>
    <g id="Grupo_1118442" data-name="Grupo 1118442" transform="translate(286.332 3748.059)">
      <g id="Grupo_1118440" data-name="Grupo 1118440" transform="translate(1.23 8.935)">
        <path id="Trazado_889569" data-name="Trazado 889569" d="M167.406,388.566h29.07v12.189h-29.07Z" transform="translate(-141.171 -327.311)" fill="#365e7d"/>
        <path id="Trazado_889570" data-name="Trazado 889570" d="M77.006,79.871H19.533A12.033,12.033,0,0,1,7.5,67.837v-40.6A12.033,12.033,0,0,1,19.533,15.2H77.006A12.033,12.033,0,0,1,89.039,27.238v40.6A12.033,12.033,0,0,1,77.006,79.871Z" transform="translate(-7.5 -15.205)" fill="#407093"/>
        <path id="Trazado_889571" data-name="Trazado 889571" d="M53.621,107.268a5.349,5.349,0,0,1-5.343-5.343v-40.6a5.349,5.349,0,0,1,5.343-5.343h57.473a5.349,5.349,0,0,1,5.343,5.343v40.6a5.349,5.349,0,0,1-5.343,5.343Z" transform="translate(-41.588 -49.293)" fill="#f4fbff"/>
        <path id="Trazado_889572" data-name="Trazado 889572" d="M69.873,107.269H53.62a5.349,5.349,0,0,1-5.344-5.344v-40.6a5.349,5.349,0,0,1,5.344-5.344H69.873A13.27,13.27,0,0,0,56.6,69.254V94A13.271,13.271,0,0,0,69.873,107.269Z" transform="translate(-41.586 -49.293)" fill="#e4f6ff"/>
        <path id="Trazado_889573" data-name="Trazado 889573" d="M23.47,79.873H19.534A12.034,12.034,0,0,1,7.5,67.84V27.24A12.033,12.033,0,0,1,19.534,15.206H23.47A12.033,12.033,0,0,0,11.437,27.24v40.6A12.034,12.034,0,0,0,23.47,79.873Z" transform="translate(-7.5 -15.206)" fill="#365e7d"/>
        <path id="Trazado_889574" data-name="Trazado 889574" d="M156.4,447.632H119.757a4.825,4.825,0,1,1,0-9.649H156.4a4.825,4.825,0,1,1,0,9.649Z" transform="translate(-97.306 -368.62)" fill="#407093"/>
        <path id="Trazado_889575" data-name="Trazado 889575" d="M131.646,447.628H119.756a4.826,4.826,0,0,1,0-9.651h11.891a4.826,4.826,0,1,0,0,9.651Z" transform="translate(-97.306 -368.616)" fill="#365e7d"/>
        <g id="Grupo_1118438" data-name="Grupo 1118438" transform="translate(54.555 13.258)">
          <path id="Trazado_889576" data-name="Trazado 889576" d="M353.187,109.175a3.262,3.262,0,0,1-4.612,0L346.4,107l-.348.348a2.392,2.392,0,0,1-4-1.073l-1.943-7.248a2.393,2.393,0,0,1,2.928-2.93l7.25,1.942a2.391,2.391,0,0,1,1.071,4l-.348.348,2.175,2.174A3.262,3.262,0,0,1,353.187,109.175Z" transform="translate(-340.026 -96.014)" fill="#407093"/>
          <path id="Trazado_889577" data-name="Trazado 889577" d="M353.187,112.762a3.262,3.262,0,0,1-4.612,0l-2.174-2.174-.348.348a2.392,2.392,0,0,1-4-1.073l-1.943-7.248a2.371,2.371,0,0,1,.62-2.31Z" transform="translate(-340.026 -99.601)" fill="#365e7d"/>
        </g>
        <g id="Grupo_1118439" data-name="Grupo 1118439" transform="translate(12.873 24.922)">
          <path id="Trazado_889578" data-name="Trazado 889578" d="M92.285,269.083H88.626a2.661,2.661,0,0,0-2.661,2.661v13.663h8.981V271.744A2.662,2.662,0,0,0,92.285,269.083Z" transform="translate(-85.965 -252.353)" fill="#9dc6fb"/>
          <path id="Trazado_889579" data-name="Trazado 889579" d="M187.394,237.717h-3.659a2.661,2.661,0,0,0-2.661,2.661v18.809h8.981V240.378A2.661,2.661,0,0,0,187.394,237.717Z" transform="translate(-165.47 -226.133)" fill="#b3e59f"/>
          <path id="Trazado_889580" data-name="Trazado 889580" d="M282.5,167.108h-3.659a2.661,2.661,0,0,0-2.661,2.661v30.393h8.981V169.769A2.661,2.661,0,0,0,282.5,167.108Z" transform="translate(-244.975 -167.108)" fill="#e27f83"/>
          <path id="Trazado_889581" data-name="Trazado 889581" d="M377.612,267.384h-3.659a2.661,2.661,0,0,0-2.661,2.661v13.942h8.981V270.045a2.661,2.661,0,0,0-2.661-2.661Z" transform="translate(-324.481 -250.932)" fill="#ffe07d"/>
        </g>
      </g>
      <g id="Grupo_1118441" data-name="Grupo 1118441" transform="translate(0 7.705)">
        <path id="Trazado_889582" data-name="Trazado 889582" d="M40.78,55.059v40.6a6.581,6.581,0,0,0,6.574,6.574h57.471a6.581,6.581,0,0,0,6.574-6.574v-40.6a6.581,6.581,0,0,0-6.574-6.574H47.354A6.581,6.581,0,0,0,40.78,55.059Zm8.644,44.712V87.338a1.433,1.433,0,0,1,1.431-1.431h3.659a1.433,1.433,0,0,1,1.431,1.431V99.771Zm15.6,0V82.192a1.433,1.433,0,0,1,1.431-1.431h3.659a1.433,1.433,0,0,1,1.431,1.431V99.771Zm31.208,0V87.059a1.432,1.432,0,0,1,1.431-1.431h3.659a1.433,1.433,0,0,1,1.431,1.431V99.771Zm12.7-44.712v40.6a4.118,4.118,0,0,1-3.722,4.094V87.06a3.9,3.9,0,0,0-3.892-3.892H97.666a3.9,3.9,0,0,0-3.892,3.892V99.771H89.613V96.647a1.23,1.23,0,1,0-2.461,0v3.124H80.631V70.607a1.432,1.432,0,0,1,1.431-1.431H85.72a1.433,1.433,0,0,1,1.432,1.431V91.742a1.23,1.23,0,1,0,2.461,0V70.607a3.9,3.9,0,0,0-3.893-3.892H82.061a3.9,3.9,0,0,0-3.892,3.892V99.771H74.009V82.192A3.9,3.9,0,0,0,70.117,78.3H66.458a3.9,3.9,0,0,0-3.892,3.892V99.771H58.4V87.338a3.9,3.9,0,0,0-3.892-3.892H50.854a3.9,3.9,0,0,0-3.892,3.892V99.752a4.118,4.118,0,0,1-3.722-4.094v-40.6a4.118,4.118,0,0,1,4.113-4.113h57.471a4.118,4.118,0,0,1,4.113,4.113Z" transform="translate(-34.09 -41.795)"/>
        <path id="Trazado_889583" data-name="Trazado 889583" d="M70.736,7.7H19.661a1.23,1.23,0,0,0,0,2.461H70.736a10.816,10.816,0,0,1,10.8,10.8v40.6a10.815,10.815,0,0,1-10.8,10.8H13.264a10.815,10.815,0,0,1-10.8-10.8v-40.6a10.816,10.816,0,0,1,10.8-10.8h1.475a1.23,1.23,0,1,0,0-2.461H13.264A13.279,13.279,0,0,0,0,20.969v40.6A13.279,13.279,0,0,0,13.264,74.831h12.97v2.236H23.681a6.055,6.055,0,1,0,0,12.109H60.319a6.055,6.055,0,1,0,0-12.109H57.765V74.831h12.97A13.279,13.279,0,0,0,84,61.568v-40.6A13.279,13.279,0,0,0,70.736,7.705ZM63.914,83.123a3.592,3.592,0,0,1-3.594,3.593H23.681a3.594,3.594,0,1,1,0-7.187H60.319A3.6,3.6,0,0,1,63.914,83.123ZM55.3,74.832v2.235H28.7V74.832Z" transform="translate(0 -7.705)"/>
        <path id="Trazado_889584" data-name="Trazado 889584" d="M334.59,100.325a3.625,3.625,0,0,0,5.485,2.094l1.356,1.356a4.491,4.491,0,0,0,6.351-6.352l-1.356-1.356a3.625,3.625,0,0,0-2.094-5.485l-7.25-1.942a3.622,3.622,0,0,0-4.436,4.436Zm.735-9.008a1.14,1.14,0,0,1,1.121-.3l7.25,1.942a1.161,1.161,0,0,1,.52,1.942l-.348.348a1.23,1.23,0,0,0,0,1.74l2.174,2.174a2.03,2.03,0,0,1-2.871,2.871L341,99.861a1.23,1.23,0,0,0-1.74,0l-.348.348a1.161,1.161,0,0,1-1.942-.52l-1.943-7.25a1.14,1.14,0,0,1,.3-1.121Z" transform="translate(-277.966 -75.256)"/>
        <path id="Trazado_889585" data-name="Trazado 889585" d="M104.783,83.507h20.728a1.23,1.23,0,1,0,0-2.461H104.783a1.23,1.23,0,1,0,0,2.461Z" transform="translate(-86.564 -69.013)"/>
        <path id="Trazado_889586" data-name="Trazado 889586" d="M78.122,118.081a1.23,1.23,0,0,0,1.23,1.23h24.9a1.23,1.23,0,1,0,0-2.461h-24.9A1.23,1.23,0,0,0,78.122,118.081Z" transform="translate(-65.305 -98.944)"/>
        <path id="Trazado_889587" data-name="Trazado 889587" d="M79.352,155.116H93.123a1.23,1.23,0,1,0,0-2.461H79.352a1.23,1.23,0,1,0,0,2.461Z" transform="translate(-65.305 -128.874)"/>
        <path id="Trazado_889588" data-name="Trazado 889588" d="M104.253,188.46h-24.9a1.23,1.23,0,0,0,0,2.461h24.9a1.23,1.23,0,0,0,0-2.461Z" transform="translate(-65.305 -158.805)"/>
        <path id="Trazado_889589" data-name="Trazado 889589" d="M88.1,224.265H79.352a1.23,1.23,0,0,0,0,2.461H88.1a1.23,1.23,0,0,0,0-2.461Z" transform="translate(-65.305 -188.736)"/>
      </g>
    </g>
  </g>
</svg>
