<svg xmlns="http://www.w3.org/2000/svg" width="72.571" height="73.947" viewBox="0 0 72.571 73.947">
  <g id="Grupo_1118478" data-name="Grupo 1118478" transform="translate(-4.762)">
    <g id="Grupo_1118476" data-name="Grupo 1118476" transform="translate(5.845 1.083)">
      <g id="Grupo_1118472" data-name="Grupo 1118472" transform="translate(0)">
        <path id="Trazado_889721" data-name="Trazado 889721" d="M59.381,124.636H22.113a9.853,9.853,0,0,1-9.853-9.853V70.366a9.853,9.853,0,0,1,9.853-9.853H59.381a9.853,9.853,0,0,1,9.853,9.853v44.418A9.853,9.853,0,0,1,59.381,124.636Z" transform="translate(-12.26 -52.856)" fill="#f4fbff"/>
        <path id="Trazado_889722" data-name="Trazado 889722" d="M26.8,124.641H22.115a9.852,9.852,0,0,1-9.854-9.854V70.37a9.852,9.852,0,0,1,9.854-9.852H26.8a9.852,9.852,0,0,0-9.852,9.852v44.417a9.852,9.852,0,0,0,9.852,9.854Z" transform="translate(-12.261 -52.86)" fill="#e4f6ff"/>
        <path id="Trazado_889723" data-name="Trazado 889723" d="M112.962,13.187a9.007,9.007,0,0,0-16.746,0H93.043a6.164,6.164,0,0,0,0,12.328h23.092a6.164,6.164,0,0,0,0-12.328Z" transform="translate(-76.102 -7.5)" fill="#ffe07d"/>
        <path id="Trazado_889724" data-name="Trazado 889724" d="M107.524,7.989a9.025,9.025,0,0,0-5.438,5.2H98.913a6.164,6.164,0,0,0,0,12.329H93.041a6.164,6.164,0,1,1,0-12.329h3.171a9.009,9.009,0,0,1,11.311-5.2Z" transform="translate(-76.1 -7.497)" fill="#ffd064"/>
        <circle id="Elipse_11775" data-name="Elipse 11775" cx="3.686" cy="3.686" r="3.686" transform="translate(24.801 5.322)" fill="#365e7d"/>
      </g>
      <g id="Grupo_1118473" data-name="Grupo 1118473" transform="translate(8.186 24.497)">
        <path id="Trazado_889725" data-name="Trazado 889725" d="M78.921,190.753H72.6a3.663,3.663,0,0,1-3.663-3.663v-6.32a3.663,3.663,0,0,1,3.663-3.663h6.32a3.663,3.663,0,0,1,3.663,3.663v6.32A3.663,3.663,0,0,1,78.921,190.753Z" transform="translate(-68.938 -177.108)" fill="#b3e59f"/>
      </g>
      <g id="Grupo_1118474" data-name="Grupo 1118474" transform="translate(8.186 45.122)">
        <path id="Trazado_889726" data-name="Trazado 889726" d="M78.921,333.559H72.6a3.663,3.663,0,0,1-3.663-3.663v-6.32a3.663,3.663,0,0,1,3.663-3.663h6.32a3.663,3.663,0,0,1,3.663,3.663v6.32A3.663,3.663,0,0,1,78.921,333.559Z" transform="translate(-68.938 -319.914)" fill="#b3e59f"/>
      </g>
      <g id="Grupo_1118475" data-name="Grupo 1118475" transform="translate(34.777 7.486)">
        <path id="Trazado_889727" data-name="Trazado 889727" d="M396.451,147.145a3.523,3.523,0,0,0,4.946-.6l7.513-9.575a3.523,3.523,0,1,0-5.543-4.349l-7.513,9.575A3.523,3.523,0,0,0,396.451,147.145Z" transform="translate(-374.586 -120.884)" fill="#80b4fb"/>
        <path id="Trazado_889728" data-name="Trazado 889728" d="M261.942,303.2l-1.254,1.6a4.27,4.27,0,0,1-6.719-5.272l1.254-1.6,6.7-.581Z" transform="translate(-253.057 -262.971)" fill="#ffe07d"/>
        <path id="Trazado_889729" data-name="Trazado 889729" d="M255.723,304.746a4.3,4.3,0,0,0,.495,1.543,4.271,4.271,0,0,1-2.253-6.763l1.253-1.6,6.7-.581.009,2.3-4.067.351-1.253,1.6A4.264,4.264,0,0,0,255.723,304.746Z" transform="translate(-253.053 -262.971)" fill="#ffd064"/>
        <path id="Trazado_889730" data-name="Trazado 889730" d="M292.766,148.026l-18,22.944-6.719-5.271,17.969-22.9" transform="translate(-265.881 -130.742)" fill="#e27f83"/>
        <path id="Trazado_889731" data-name="Trazado 889731" d="M288.688,144.826l-18,22.944-2.64-2.071,17.969-22.9" transform="translate(-265.881 -130.742)" fill="#c8646d"/>
        <path id="Trazado_889732" data-name="Trazado 889732" d="M416.032,73.6l6.52-9.95a2.79,2.79,0,0,0-4.375-3.432l-8.112,8.7" transform="translate(-387.388 -59.332)" fill="#9dc6fb"/>
        <path id="Trazado_889733" data-name="Trazado 889733" d="M421.948,59.924c-.107-.084-.377.057-.733.359a10.418,10.418,0,0,0-1.254,1.328L412.5,70.819l-2.424-1.9,8.111-8.7a2.79,2.79,0,0,1,3.764-.293Z" transform="translate(-387.395 -59.329)" fill="#80b4fb"/>
        <path id="Trazado_889734" data-name="Trazado 889734" d="M395.372,127.676l-5.967-4.681a2.156,2.156,0,0,0-2.662,3.393l5.967,4.681a2.156,2.156,0,0,0,2.662-3.393Z" transform="translate(-366.728 -113.406)" fill="#9dc6fb"/>
        <path id="Trazado_889735" data-name="Trazado 889735" d="M388.9,127.273a2.15,2.15,0,0,0,.81,1.438l-2.968-2.328a2.157,2.157,0,0,1,2.662-3.393l2.968,2.328a2.158,2.158,0,0,0-3.473,1.956Z" transform="translate(-366.723 -113.401)" fill="#80b4fb"/>
      </g>
    </g>
    <g id="Grupo_1118477" data-name="Grupo 1118477" transform="translate(4.762)">
      <path id="Trazado_889736" data-name="Trazado 889736" d="M181.248,36.848a4.769,4.769,0,1,0,4.769,4.769A4.774,4.774,0,0,0,181.248,36.848Zm0,7.371a2.6,2.6,0,1,1,2.6-2.6A2.605,2.605,0,0,1,181.248,44.219Z" transform="translate(-151.678 -31.526)"/>
      <path id="Trazado_889737" data-name="Trazado 889737" d="M66.184,185.42H72.5a4.751,4.751,0,0,0,4.746-4.746v-6.32a4.751,4.751,0,0,0-4.746-4.746h-6.32a4.751,4.751,0,0,0-4.746,4.746v6.32A4.751,4.751,0,0,0,66.184,185.42ZM63.6,174.354a2.582,2.582,0,0,1,2.579-2.579H72.5a2.582,2.582,0,0,1,2.579,2.579v6.32a2.582,2.582,0,0,1-2.579,2.579h-6.32a2.582,2.582,0,0,1-2.579-2.579Z" transform="translate(-53.252 -145.112)"/>
      <path id="Trazado_889738" data-name="Trazado 889738" d="M89.041,205.208a1.083,1.083,0,0,0,.836.394l.069,0a1.083,1.083,0,0,0,.848-.5l3.777-6.008a1.083,1.083,0,0,0-1.834-1.153l-2.979,4.737-1.57-1.906a1.083,1.083,0,0,0-1.672,1.378Z" transform="translate(-74.497 -168.914)"/>
      <path id="Trazado_889739" data-name="Trazado 889739" d="M190.5,200.051h16.874a1.083,1.083,0,0,0,0-2.166H190.5a1.083,1.083,0,1,0,0,2.166Z" transform="translate(-162.744 -169.305)"/>
      <path id="Trazado_889740" data-name="Trazado 889740" d="M190.5,237.975h8.437a1.083,1.083,0,1,0,0-2.166H190.5a1.083,1.083,0,1,0,0,2.166Z" transform="translate(-162.744 -201.751)"/>
      <path id="Trazado_889741" data-name="Trazado 889741" d="M61.438,323.48a4.751,4.751,0,0,0,4.746,4.746H72.5a4.751,4.751,0,0,0,4.746-4.746v-6.32a4.751,4.751,0,0,0-4.746-4.746h-6.32a4.751,4.751,0,0,0-4.746,4.746Zm2.166-6.32a2.582,2.582,0,0,1,2.579-2.579H72.5a2.582,2.582,0,0,1,2.579,2.579v6.32a2.582,2.582,0,0,1-2.579,2.579h-6.32A2.582,2.582,0,0,1,63.6,323.48Z" transform="translate(-53.252 -267.292)"/>
      <path id="Trazado_889742" data-name="Trazado 889742" d="M89.041,348.014a1.083,1.083,0,0,0,.836.394l.069,0a1.083,1.083,0,0,0,.848-.5l3.777-6.008a1.083,1.083,0,0,0-1.834-1.153l-2.979,4.737-1.57-1.906a1.083,1.083,0,1,0-1.672,1.378Z" transform="translate(-74.497 -291.095)"/>
      <path id="Trazado_889743" data-name="Trazado 889743" d="M198.933,380.781a1.083,1.083,0,1,0,0-2.166H190.5a1.083,1.083,0,1,0,0,2.166Z" transform="translate(-162.744 -323.932)"/>
      <path id="Trazado_889744" data-name="Trazado 889744" d="M75.018,18.859a4.607,4.607,0,0,0-1.363-.74l3.038-4.636a3.852,3.852,0,0,0-.848-5.17,3.871,3.871,0,0,0-5.225.4L69.453,9.968a1.083,1.083,0,0,0,1.584,1.478L72.2,10.2a1.707,1.707,0,0,1,2.677,2.1l-5.873,8.963L64.9,18.033l3.189-3.419A1.083,1.083,0,0,0,66.5,13.136l-2.863,3.07A10.983,10.983,0,0,0,52.966,7.657H50.837a7.219,7.219,0,0,0-4.959-1.97H43.411a10.091,10.091,0,0,0-18.159,0H22.786a7.219,7.219,0,0,0-4.959,1.97H15.7A10.948,10.948,0,0,0,4.762,18.592V63.011A10.949,10.949,0,0,0,15.7,73.947h2.519a1.083,1.083,0,0,0,0-2.166H15.7a8.78,8.78,0,0,1-8.77-8.77V18.592A8.779,8.779,0,0,1,15.7,9.824h.543a7.245,7.245,0,0,0,6.544,10.358H45.878A7.245,7.245,0,0,0,52.422,9.824h.544a8.806,8.806,0,0,1,8.55,6.826,3.235,3.235,0,0,0-2.529,4.473L40.682,44.455a5.319,5.319,0,0,0-1.1,3.946,5.434,5.434,0,0,0,.16.8H32.514a1.083,1.083,0,1,0,0,2.166h8.168l-.659.84a1.083,1.083,0,1,0,1.7,1.337l.781-1a5.3,5.3,0,0,0,2.374.56,5.422,5.422,0,0,0,.652-.039,5.319,5.319,0,0,0,3.57-2.01L61.436,35.347c.095.093.195.181.3.266v27.4a8.779,8.779,0,0,1-8.768,8.77H22.55a1.083,1.083,0,1,0,0,2.166H52.967A10.948,10.948,0,0,0,63.9,63.011V36.6a4.617,4.617,0,0,0,4.384-1.7L75.8,25.327a4.607,4.607,0,0,0-.781-6.468Zm-29.14-.844H22.786a5.081,5.081,0,1,1,0-10.161h3.173a1.083,1.083,0,0,0,1.007-.684,7.924,7.924,0,0,1,14.732,0,1.083,1.083,0,0,0,1.007.684h3.173a5.081,5.081,0,1,1,0,10.161Zm15.246,1.176a1.073,1.073,0,0,1,1.507-.182L68.6,23.691h0a1.073,1.073,0,1,1-1.325,1.689L61.306,20.7a1.073,1.073,0,0,1-.182-1.507Zm-11.8,28.085-1.655-1.3L59.52,30.872a1.083,1.083,0,0,0-1.7-1.337L45.963,44.641l-1.655-1.3L60.445,22.776l5.014,3.934Zm-4.047,3.648a3.187,3.187,0,0,1-2.889-5.132l.585-.746,5.015,3.935-.585.746A3.166,3.166,0,0,1,45.275,50.924ZM74.094,23.99l-7.513,9.575a2.432,2.432,0,0,1-3.791.057l4.621-5.89a3.238,3.238,0,0,0,3.218-4.994l1.759-2.685a2.441,2.441,0,0,1,1.706,3.938Z" transform="translate(-4.762)"/>
    </g>
  </g>
</svg>
