<svg xmlns="http://www.w3.org/2000/svg" width="110" height="110" viewBox="0 0 110 110">
  <g id="Grupo_1108258" data-name="Grupo 1108258" transform="translate(-273.332 -3741.5)">
    <rect id="Rectángulo_402033" data-name="Rectángulo 402033" width="110" height="110" rx="5" transform="translate(273.332 3741.5)" fill="#d8b3fe"/>
    <g id="Grupo_1118449" data-name="Grupo 1118449" transform="translate(281.483 3753.405)">
      <g id="Grupo_1118447" data-name="Grupo 1118447" transform="translate(6.024 1.262)">
        <g id="Grupo_1118443" data-name="Grupo 1118443">
          <path id="Trazado_889590" data-name="Trazado 889590" d="M67.182,135.253H23.744A11.484,11.484,0,0,1,12.26,123.769V72A11.484,11.484,0,0,1,23.744,60.513H67.182A11.484,11.484,0,0,1,78.666,72v51.772a11.484,11.484,0,0,1-11.484,11.484Z" transform="translate(-12.26 -51.588)" fill="#f4fbff"/>
          <path id="Trazado_889591" data-name="Trazado 889591" d="M29.207,135.258h-5.46a11.484,11.484,0,0,1-11.485-11.485V72A11.483,11.483,0,0,1,23.746,60.518h5.46A11.483,11.483,0,0,0,17.724,72v51.771A11.483,11.483,0,0,0,29.207,135.258Z" transform="translate(-12.261 -51.592)" fill="#e4f6ff"/>
          <path id="Trazado_889592" data-name="Trazado 889592" d="M117.28,14.129a10.5,10.5,0,0,0-19.518,0h-3.7a7.184,7.184,0,0,0,0,14.369h26.915a7.184,7.184,0,1,0,0-14.369Z" transform="translate(-74.318 -7.499)" fill="#ffe07d"/>
          <path id="Trazado_889593" data-name="Trazado 889593" d="M110.942,8.07a10.52,10.52,0,0,0-6.338,6.056h-3.7a7.185,7.185,0,0,0,0,14.37H94.062a7.185,7.185,0,1,1,0-14.37h3.7A10.5,10.5,0,0,1,110.942,8.07Z" transform="translate(-74.316 -7.497)" fill="#ffd064"/>
          <circle id="Elipse_11771" data-name="Elipse 11771" cx="4.296" cy="4.296" r="4.296" transform="translate(28.907 6.204)" fill="#365e7d"/>
        </g>
        <g id="Grupo_1118444" data-name="Grupo 1118444" transform="translate(9.541 28.553)">
          <path id="Trazado_889594" data-name="Trazado 889594" d="M80.574,193.013H73.207a4.269,4.269,0,0,1-4.269-4.269v-7.366a4.269,4.269,0,0,1,4.269-4.269h7.366a4.269,4.269,0,0,1,4.269,4.269v7.366A4.269,4.269,0,0,1,80.574,193.013Z" transform="translate(-68.938 -177.108)" fill="#b3e59f"/>
        </g>
        <g id="Grupo_1118445" data-name="Grupo 1118445" transform="translate(9.541 52.593)">
          <path id="Trazado_889595" data-name="Trazado 889595" d="M80.574,335.819H73.207a4.269,4.269,0,0,1-4.269-4.269v-7.366a4.269,4.269,0,0,1,4.269-4.269h7.366a4.269,4.269,0,0,1,4.269,4.269v7.366A4.269,4.269,0,0,1,80.574,335.819Z" transform="translate(-68.938 -319.914)" fill="#b3e59f"/>
        </g>
        <g id="Grupo_1118446" data-name="Grupo 1118446" transform="translate(40.535 8.726)">
          <path id="Trazado_889596" data-name="Trazado 889596" d="M396.674,149.773a4.106,4.106,0,0,0,5.765-.7l8.756-11.161a4.106,4.106,0,1,0-6.461-5.069l-8.756,11.161A4.106,4.106,0,0,0,396.674,149.773Z" transform="translate(-371.19 -119.164)" fill="#80b4fb"/>
          <path id="Trazado_889597" data-name="Trazado 889597" d="M263.412,304.17l-1.461,1.863a4.977,4.977,0,0,1-7.832-6.145l1.461-1.863,7.806-.677Z" transform="translate(-253.057 -257.28)" fill="#ffe07d"/>
          <path id="Trazado_889598" data-name="Trazado 889598" d="M256.165,305.971a5.015,5.015,0,0,0,.577,1.8,4.978,4.978,0,0,1-2.626-7.882l1.461-1.862,7.806-.677.01,2.681-4.74.41-1.461,1.862A4.97,4.97,0,0,0,256.165,305.971Z" transform="translate(-253.053 -257.28)" fill="#ffd064"/>
          <path id="Trazado_889599" data-name="Trazado 889599" d="M296.859,148.892l-20.982,26.743-7.831-6.144L288.99,142.8" transform="translate(-265.522 -128.746)" fill="#e27f83"/>
          <path id="Trazado_889600" data-name="Trazado 889600" d="M292.105,145.162l-20.982,26.743-3.077-2.414L288.99,142.8" transform="translate(-265.522 -128.746)" fill="#c8646d"/>
          <path id="Trazado_889601" data-name="Trazado 889601" d="M417.02,75.965l7.6-11.6a3.252,3.252,0,0,0-5.1-4l-9.456,10.141" transform="translate(-383.633 -59.332)" fill="#9dc6fb"/>
          <path id="Trazado_889602" data-name="Trazado 889602" d="M423.914,60.023c-.125-.1-.44.066-.854.419A12.137,12.137,0,0,0,421.6,61.99l-8.7,10.731L410.073,70.5l9.454-10.14a3.252,3.252,0,0,1,4.387-.342Z" transform="translate(-383.64 -59.329)" fill="#80b4fb"/>
          <path id="Trazado_889603" data-name="Trazado 889603" d="M396.937,128.527l-6.955-5.456a2.513,2.513,0,0,0-3.1,3.955l6.955,5.456a2.513,2.513,0,0,0,3.1-3.955Z" transform="translate(-363.551 -111.894)" fill="#9dc6fb"/>
          <path id="Trazado_889604" data-name="Trazado 889604" d="M389.389,128.058a2.506,2.506,0,0,0,.945,1.676l-3.459-2.714a2.514,2.514,0,0,1,3.1-3.955l3.459,2.714a2.515,2.515,0,0,0-4.048,2.28Z" transform="translate(-363.546 -111.89)" fill="#80b4fb"/>
        </g>
      </g>
      <g id="Grupo_1118448" data-name="Grupo 1118448" transform="translate(4.762)">
        <path id="Trazado_889605" data-name="Trazado 889605" d="M182.037,36.848a5.558,5.558,0,1,0,5.558,5.558A5.565,5.565,0,0,0,182.037,36.848Zm0,8.592a3.033,3.033,0,1,1,3.033-3.033A3.037,3.037,0,0,1,182.037,45.44Z" transform="translate(-147.572 -30.645)"/>
        <path id="Trazado_889606" data-name="Trazado 889606" d="M66.97,188.038h7.366a5.538,5.538,0,0,0,5.532-5.532V175.14a5.538,5.538,0,0,0-5.532-5.532H66.97a5.538,5.538,0,0,0-5.532,5.532v7.366A5.538,5.538,0,0,0,66.97,188.038Zm-3.007-12.9a3.01,3.01,0,0,1,3.007-3.007h7.366a3.01,3.01,0,0,1,3.007,3.007v7.366a3.01,3.01,0,0,1-3.007,3.007H66.97a3.01,3.01,0,0,1-3.007-3.007Z" transform="translate(-51.897 -141.056)"/>
        <path id="Trazado_889607" data-name="Trazado 889607" d="M89.5,206.5a1.263,1.263,0,0,0,.974.46l.081,0a1.262,1.262,0,0,0,.988-.588l4.4-7a1.263,1.263,0,0,0-2.138-1.344l-3.472,5.522-1.83-2.221a1.263,1.263,0,1,0-1.949,1.606Z" transform="translate(-72.548 -164.193)"/>
        <path id="Trazado_889608" data-name="Trazado 889608" d="M190.676,200.41h19.668a1.263,1.263,0,0,0,0-2.525H190.676a1.263,1.263,0,1,0,0,2.525Z" transform="translate(-158.329 -164.573)"/>
        <path id="Trazado_889609" data-name="Trazado 889609" d="M190.676,238.334h9.834a1.263,1.263,0,1,0,0-2.525h-9.834a1.263,1.263,0,1,0,0,2.525Z" transform="translate(-158.329 -196.113)"/>
        <path id="Trazado_889610" data-name="Trazado 889610" d="M61.438,325.312a5.538,5.538,0,0,0,5.532,5.532h7.366a5.538,5.538,0,0,0,5.532-5.532v-7.366a5.538,5.538,0,0,0-5.532-5.532H66.97a5.538,5.538,0,0,0-5.532,5.532Zm2.525-7.366a3.01,3.01,0,0,1,3.007-3.007h7.366a3.01,3.01,0,0,1,3.007,3.007v7.366a3.01,3.01,0,0,1-3.007,3.007H66.97a3.01,3.01,0,0,1-3.007-3.007Z" transform="translate(-51.897 -259.822)"/>
        <path id="Trazado_889611" data-name="Trazado 889611" d="M89.5,349.3a1.263,1.263,0,0,0,.974.46l.081,0a1.262,1.262,0,0,0,.988-.588l4.4-7a1.263,1.263,0,0,0-2.138-1.344l-3.472,5.522-1.83-2.221a1.263,1.263,0,1,0-1.949,1.606Z" transform="translate(-72.548 -282.959)"/>
        <path id="Trazado_889612" data-name="Trazado 889612" d="M200.51,381.14a1.263,1.263,0,1,0,0-2.525h-9.834a1.263,1.263,0,1,0,0,2.525Z" transform="translate(-158.329 -314.879)"/>
        <path id="Trazado_889613" data-name="Trazado 889613" d="M86.65,21.981a5.37,5.37,0,0,0-1.588-.862l3.541-5.4a4.489,4.489,0,0,0-.989-6.026,4.512,4.512,0,0,0-6.09.472l-1.36,1.458a1.263,1.263,0,0,0,1.846,1.723l1.36-1.457a1.99,1.99,0,0,1,3.12,2.448L79.644,24.779l-4.792-3.76,3.717-3.986a1.263,1.263,0,0,0-1.847-1.722l-3.337,3.578A12.8,12.8,0,0,0,60.947,8.925H58.465a8.414,8.414,0,0,0-5.78-2.3H49.81a11.762,11.762,0,0,0-21.165,0H25.77a8.414,8.414,0,0,0-5.78,2.3H17.509A12.76,12.76,0,0,0,4.762,21.67V73.443A12.761,12.761,0,0,0,17.509,86.19h2.936a1.263,1.263,0,0,0,0-2.525H17.509A10.233,10.233,0,0,1,7.287,73.443V21.67A10.232,10.232,0,0,1,17.509,11.45h.633A8.444,8.444,0,0,0,25.77,23.523H52.685A8.444,8.444,0,0,0,60.313,11.45h.635a10.264,10.264,0,0,1,9.966,7.956,3.77,3.77,0,0,0-2.947,5.214l-21.337,27.2a6.2,6.2,0,0,0-1.286,4.6,6.334,6.334,0,0,0,.186.938H37.108a1.263,1.263,0,1,0,0,2.525h9.521l-.768.979a1.263,1.263,0,1,0,1.987,1.559l.91-1.16a6.172,6.172,0,0,0,2.767.653,6.32,6.32,0,0,0,.76-.046,6.2,6.2,0,0,0,4.161-2.343L70.819,41.2c.111.108.227.211.348.311V73.443a10.232,10.232,0,0,1-10.22,10.222H25.5a1.263,1.263,0,1,0,0,2.525H60.948A12.76,12.76,0,0,0,73.693,73.443V42.661a5.381,5.381,0,0,0,5.11-1.98L87.56,29.52a5.37,5.37,0,0,0-.91-7.539ZM52.685,21H25.77a5.922,5.922,0,1,1,0-11.844h3.7a1.263,1.263,0,0,0,1.174-.8,9.236,9.236,0,0,1,17.172,0,1.262,1.262,0,0,0,1.174.8h3.7a5.922,5.922,0,1,1,0,11.844Zm17.771,1.371a1.25,1.25,0,0,1,1.756-.212l6.955,5.457h0a1.251,1.251,0,1,1-1.544,1.968l-6.955-5.457a1.251,1.251,0,0,1-.212-1.756ZM56.7,55.1l-1.929-1.513L68.587,35.983A1.263,1.263,0,1,0,66.6,34.424L52.785,52.032l-1.929-1.513L69.664,26.547l5.844,4.585Zm-4.717,4.251a3.715,3.715,0,0,1-3.368-5.981l.682-.869,5.845,4.586-.682.869A3.69,3.69,0,0,1,51.983,59.356Zm33.59-31.394L76.816,39.122a2.834,2.834,0,0,1-4.419.066l5.386-6.865a3.774,3.774,0,0,0,3.75-5.821l2.051-3.13a2.845,2.845,0,0,1,1.988,4.589Z" transform="translate(-4.762)"/>
      </g>
    </g>
  </g>
</svg>
