<svg xmlns="http://www.w3.org/2000/svg" width="100" height="100" viewBox="0 0 100 100">
  <g id="Grupo_1100965" data-name="Grupo 1100965" transform="translate(0.242)">
    <g id="Grupo_1098742" data-name="Grupo 1098742" transform="translate(0)">
      <rect id="Rectángulo_400898" data-name="Rectángulo 400898" width="100" height="100" rx="50" transform="translate(-0.242)" fill="#fff" opacity="0.859"/>
      <g id="Rectángulo_400907" data-name="Rectángulo 400907" transform="translate(-0.242)" fill="none" stroke="#3acc97" stroke-linecap="round" stroke-width="2" stroke-dasharray="7">
        <rect width="100" height="100" rx="50" stroke="none"/>
        <rect x="1" y="1" width="98" height="98" rx="49" fill="none"/>
      </g>
    </g>
    <g id="Grupo_1107006" data-name="Grupo 1107006" transform="translate(8.156 8.156)">
      <rect id="Rectángulo_400898-2" data-name="Rectángulo 400898" width="84" height="84" rx="42" transform="translate(-0.399 -0.157)" fill="#d7f5ea" opacity="0.859"/>
      <rect id="Rectángulo_400907-2" data-name="Rectángulo 400907" width="84" height="84" rx="42" transform="translate(-0.398 -0.157)" fill="none"/>
    </g>
    <g id="Grupo_1117560" data-name="Grupo 1117560" transform="translate(17.758 18.029)">
      <g id="Grupo_1117558" data-name="Grupo 1117558">
        <path id="Trazado_888221" data-name="Trazado 888221" d="M53,37v3H35a2.006,2.006,0,0,1-2-2,1.955,1.955,0,0,1,.59-1.41,1.8,1.8,0,0,1,.47-.35A1.878,1.878,0,0,1,35,36H52A1,1,0,0,1,53,37Z" fill="#ffeaa7"/>
        <path id="Trazado_888222" data-name="Trazado 888222" d="M35,50H51V44H33V38a2.006,2.006,0,0,0,2,2H54a1,1,0,0,1,1,1V61a1,1,0,0,1-1,1H35a2.006,2.006,0,0,1-2-2V50Z" fill="#e6e9ed"/>
        <path id="Trazado_888223" data-name="Trazado 888223" d="M41,47a3,3,0,0,0-3-3H51v6H38A3,3,0,0,0,41,47Z" fill="#fcd770"/>
        <path id="Trazado_888224" data-name="Trazado 888224" d="M35,44v6H28a5,5,0,0,1-5-5V37.39c0-.14,0-.27.01-.41a8.407,8.407,0,0,1,.61-2.72A8.286,8.286,0,0,1,25.4,31.6a8.166,8.166,0,0,1,3.8-2.15l2.98-.74L34,36l.06.24a1.8,1.8,0,0,0-.47.35A1.955,1.955,0,0,0,33,38v6Z" fill="#b4dd7f"/>
        <path id="Trazado_888225" data-name="Trazado 888225" d="M34,36l5-4,5,4H35a1.878,1.878,0,0,0-.94.24Z" fill="#b4dd7f"/>
        <path id="Trazado_888226" data-name="Trazado 888226" d="M62,14V24.89a11.148,11.148,0,0,1-3.88,8.44l-.08.07A10.82,10.82,0,0,1,51,36H44l2-8h4.76a5.3,5.3,0,0,0,2.35-.55A5.245,5.245,0,0,0,56,22.76V14Z" fill="#b4dd7f"/>
        <path id="Trazado_888227" data-name="Trazado 888227" d="M39,32l-5,4-1.82-7.29L35,28Z" fill="#a0d468"/>
        <path id="Trazado_888228" data-name="Trazado 888228" d="M46,28l-2,8-5-4,4-4Z" fill="#a0d468"/>
        <path id="Trazado_888229" data-name="Trazado 888229" d="M23,37.39V38H17v2.76a1.236,1.236,0,0,1-2.34.56L13,38H8a1,1,0,0,1-1-1V31a1,1,0,0,1,1-1H22a1,1,0,0,1,1,1v5.98h.01C23,37.12,23,37.25,23,37.39Z" fill="#e6e9ed"/>
        <path id="Trazado_888230" data-name="Trazado 888230" d="M22,7V21a1,1,0,0,1-1,1H18v2.76a1.236,1.236,0,0,1-2.34.56L14,22H3a1,1,0,0,1-1-1V7A1,1,0,0,1,3,6H21A1,1,0,0,1,22,7Z" fill="#f0d0b4"/>
        <path id="Trazado_888231" data-name="Trazado 888231" d="M51,9l-2.61,4.34A2.947,2.947,0,0,0,47,13H45.97a3.4,3.4,0,0,0-3.38-3H35.41a3.4,3.4,0,0,0-3.38,3H31a2.975,2.975,0,0,0-2.05.81l-.46-1.87A15.87,15.87,0,0,1,28,8a5.992,5.992,0,0,1,1.2-3.6,6.138,6.138,0,0,1,4.92-2.46h.09c3.84.06,9.9.06,9.9.06a6.832,6.832,0,0,1,4.64,1.83L50,5,48,7Z" fill="#656d78"/>
        <g id="Grupo_1117557" data-name="Grupo 1117557">
          <path id="Trazado_888232" data-name="Trazado 888232" d="M42.07,24.29,43,28l-4,4-4-4,.93-3.71a6.992,6.992,0,0,0,6.14,0Z" fill="#f0d0b4"/>
          <path id="Trazado_888233" data-name="Trazado 888233" d="M48.39,13.34A3,3,0,0,1,47,19H45.92A5.546,5.546,0,0,0,46,18V13.41a2.828,2.828,0,0,0-.03-.41H47a2.947,2.947,0,0,1,1.39.34Z" fill="#f0d0b4"/>
          <path id="Trazado_888234" data-name="Trazado 888234" d="M32,18a5.546,5.546,0,0,0,.08,1H31a3,3,0,0,1,0-6h1.03a2.828,2.828,0,0,0-.03.41Z" fill="#f0d0b4"/>
          <path id="Trazado_888235" data-name="Trazado 888235" d="M46,13.41V18a5.546,5.546,0,0,1-.08,1,6.991,6.991,0,0,1-13.84,0A5.546,5.546,0,0,1,32,18V13.41a2.828,2.828,0,0,1,.03-.41,3.4,3.4,0,0,1,3.38-3h7.18a3.4,3.4,0,0,1,3.38,3A2.828,2.828,0,0,1,46,13.41Z" fill="#f0d0b4"/>
          <path id="Trazado_888236" data-name="Trazado 888236" d="M62,11v3H56V11a3,3,0,0,1,6,0Z" fill="#f0d0b4"/>
          <path id="Trazado_888237" data-name="Trazado 888237" d="M40.12,44.88A3,3,0,0,1,38,50H35V44h3A2.993,2.993,0,0,1,40.12,44.88Z" fill="#f0d0b4"/>
        </g>
      </g>
      <g id="Grupo_1117559" data-name="Grupo 1117559">
        <path id="Trazado_888238" data-name="Trazado 888238" d="M59,7a4,4,0,0,0-4,4V22.764A4.236,4.236,0,0,1,50.764,27H43.782l-.555-2.22A8.018,8.018,0,0,0,46.738,20H47a3.988,3.988,0,0,0,2.717-6.918L52.347,8.7,49.569,6.844l1.87-1.87L49.43,3.1A7.8,7.8,0,0,0,44.111,1c-.061,0-6.1,0-9.887-.059A7.288,7.288,0,0,0,28.4,3.8,7.037,7.037,0,0,0,27,8a17.271,17.271,0,0,0,.516,4.185l.343,1.37A3.956,3.956,0,0,0,27,16a4,4,0,0,0,4,4h.263a8.015,8.015,0,0,0,3.511,4.78l-.6,2.4-5.219,1.3A9.175,9.175,0,0,0,24.689,30.9a9.043,9.043,0,0,0-.69.779V31a2,2,0,0,0-2-2H8a2,2,0,0,0-2,2v6a2,2,0,0,0,2,2h4.382l1.383,2.765a2.236,2.236,0,0,0,4.235-1V39h4v6a6.006,6.006,0,0,0,6,6h4v9a3,3,0,0,0,3,3H54a2,2,0,0,0,2-2V41a2,2,0,0,0-2-2V37a2.014,2.014,0,0,0-.039-.383,11.826,11.826,0,0,0,4.727-2.461l.082-.07A12.1,12.1,0,0,0,63,24.891V11a4,4,0,0,0-4-4Zm0,2a2,2,0,0,1,2,2v2H57V11A2,2,0,0,1,59,9ZM44.72,29l-1.311,5.246-2.915-2.331L43.414,29ZM40,47a2,2,0,0,1-2,2H36V45h2A2,2,0,0,1,40,47Zm1.444-2H50v4H41.444a3.875,3.875,0,0,0,0-4ZM39.005,33.278,41.153,35h-4.3ZM47,18V14a2,2,0,0,1,0,4ZM29,16a2,2,0,0,1,2-2v4A2,2,0,0,1,29,16Zm2.25-4H31a3.968,3.968,0,0,0-1.4.267l-.142-.568A15.282,15.282,0,0,1,29,8a5.027,5.027,0,0,1,1-3,5.165,5.165,0,0,1,4.119-2.06h.075C37.973,3,43.98,3,44.107,3h0a5.8,5.8,0,0,1,3.957,1.564l.494.461-2.13,2.13L49.652,9.3l-1.695,2.826A3.979,3.979,0,0,0,47,12h-.25a4.358,4.358,0,0,0-4.164-3H35.414a4.358,4.358,0,0,0-4.164,3ZM33,18V13.414A2.414,2.414,0,0,1,35.414,11h7.172A2.414,2.414,0,0,1,45,13.414V18a6,6,0,0,1-12,0Zm6,8a8,8,0,0,0,2.379-.361l.513,2.055L39,30.586l-2.893-2.893.513-2.054A8,8,0,0,0,39,26Zm-4.307,3.107,2.81,2.81-2.911,2.329-1.2-4.813ZM16,37v3.764a.245.245,0,0,1-.447.1L13.618,37H8V31H22l0,6Zm8,8V37.39a7.185,7.185,0,0,1,5.441-6.97l2.008-.5,1.48,5.921A2.985,2.985,0,0,0,32,38v5H30V37H28v6a2,2,0,0,0,2,2h4v4H28a4,4,0,0,1-4-4ZM54,61H35a1,1,0,0,1-1-1V51H52V43H34V40.816A2.966,2.966,0,0,0,35,41H54ZM52,37v2H35a1,1,0,0,1,0-2Zm5.469-4.434-.082.07A9.818,9.818,0,0,1,51,35H45.28l1.5-6h3.983a6.276,6.276,0,0,0,2.789-.658A6.2,6.2,0,0,0,57,22.764V15h4v9.891a10.09,10.09,0,0,1-3.53,7.675Z"/>
        <path id="Trazado_888239" data-name="Trazado 888239" d="M36,57H52v2H36Z"/>
        <path id="Trazado_888240" data-name="Trazado 888240" d="M36,53h4v2H36Z"/>
        <path id="Trazado_888241" data-name="Trazado 888241" d="M42,53H52v2H42Z"/>
        <path id="Trazado_888242" data-name="Trazado 888242" d="M5,9H9v2H5Z"/>
        <path id="Trazado_888243" data-name="Trazado 888243" d="M11,9h8v2H11Z"/>
        <path id="Trazado_888244" data-name="Trazado 888244" d="M5,13H19v2H5Z"/>
        <path id="Trazado_888245" data-name="Trazado 888245" d="M5,17h6v2H5Z"/>
        <path id="Trazado_888246" data-name="Trazado 888246" d="M17,17h2v2H17Z"/>
        <path id="Trazado_888247" data-name="Trazado 888247" d="M13,17h2v2H13Z"/>
        <path id="Trazado_888248" data-name="Trazado 888248" d="M14.765,25.765a2.236,2.236,0,0,0,4.235-1V23h2a2,2,0,0,0,2-2V7a2,2,0,0,0-2-2H3A2,2,0,0,0,1,7V21a2,2,0,0,0,2,2H13.382ZM3,7H21l0,14H17v3.764a.244.244,0,0,1-.447.1L14.618,21H3Z"/>
        <path id="Trazado_888249" data-name="Trazado 888249" d="M10,33h2v2H10Z"/>
        <path id="Trazado_888250" data-name="Trazado 888250" d="M14,33h2v2H14Z"/>
        <path id="Trazado_888251" data-name="Trazado 888251" d="M18,33h2v2H18Z"/>
      </g>
    </g>
  </g>
</svg>
