<svg xmlns="http://www.w3.org/2000/svg" width="100" height="100" viewBox="0 0 100 100">
  <g id="Grupo_1100965" data-name="Grupo 1100965" transform="translate(0.242)">
    <g id="Grupo_1098742" data-name="Grupo 1098742" transform="translate(0)">
      <rect id="Rectángulo_400898" data-name="Rectángulo 400898" width="100" height="100" rx="50" transform="translate(-0.242)" fill="#fff" opacity="0.859"/>
      <g id="Rectángulo_400907" data-name="Rectángulo 400907" transform="translate(-0.242)" fill="none" stroke="#3acc97" stroke-linecap="round" stroke-width="2" stroke-dasharray="7">
        <rect width="100" height="100" rx="50" stroke="none"/>
        <rect x="1" y="1" width="98" height="98" rx="49" fill="none"/>
      </g>
    </g>
    <g id="Grupo_1107006" data-name="Grupo 1107006" transform="translate(8.156 8.156)">
      <rect id="Rectángulo_400898-2" data-name="Rectángulo 400898" width="84" height="84" rx="42" transform="translate(-0.399 -0.157)" fill="#d7f5ea" opacity="0.859"/>
      <rect id="Rectángulo_400907-2" data-name="Rectángulo 400907" width="84" height="84" rx="42" transform="translate(-0.398 -0.157)" fill="none"/>
    </g>
    <g id="Grupo_1117550" data-name="Grupo 1117550" transform="translate(-5.98 -1.15)">
      <path id="Trazado_888191" data-name="Trazado 888191" d="M270.657,31.579l-20.986,6.258V25.321Z" transform="translate(-193.979 -6.028)" fill="#88c8fe" fill-rule="evenodd"/>
      <path id="Trazado_888192" data-name="Trazado 888192" d="M61.782,210.076a31.1,31.1,0,0,1,31.1,31.1h-62.2a31.1,31.1,0,0,1,31.1-31.1Z" transform="translate(-6.041 -164.587)" fill="#fa6e85" fill-rule="evenodd"/>
      <path id="Trazado_888193" data-name="Trazado 888193" d="M111.621,301.225H64.146C71.72,273.343,110.082,272.632,111.621,301.225Z" transform="translate(-34.76 -224.636)" fill="#19cfba" fill-rule="evenodd"/>
      <path id="Trazado_888194" data-name="Trazado 888194" d="M214.806,324.519l-.96,1.747a1.194,1.194,0,0,0-.012,1.173,6.936,6.936,0,1,1-4.421-3.5,1.192,1.192,0,0,0,1.138-.28l1.5-1.349,7.543-7.076.959-.29L220.5,316Z" transform="translate(-151.995 -254.583)" fill="#ffe177" fill-rule="evenodd"/>
      <path id="Trazado_888195" data-name="Trazado 888195" d="M233.17,406.084A2.793,2.793,0,1,1,230,408.439,2.793,2.793,0,0,1,233.17,406.084Z" transform="translate(-177.07 -332.777)" fill="#fa6e85" fill-rule="evenodd"/>
      <path id="Trazado_888196" data-name="Trazado 888196" d="M57.468,76.333A1.8,1.8,0,1,1,57.132,75a1.783,1.783,0,0,1,.336,1.334Zm-1.225-4.01a3.789,3.789,0,1,0,2.487,1.489A3.8,3.8,0,0,0,56.243,72.322Zm21.543,3.27c-.542-6.467-3.022-11.957-7.331-15.787l4.859-6.067A30.057,30.057,0,0,1,85.827,75.593Zm-15.85-6.136c.013-.025.028-.049.044-.073l3.773-5.643-5.02,4.708-1.513,1.363a2.17,2.17,0,0,1-2.051.5,5.941,5.941,0,1,0,3.785,3,2.174,2.174,0,0,1,.022-2.114Zm-33.747-5,4.631,2.224a31.527,31.527,0,0,0-4.188,8.908H25.651A29.882,29.882,0,0,1,28.188,64.461ZM43.823,48.946a30.294,30.294,0,0,0-14.77,13.721l4.969,2.385a28.271,28.271,0,0,1,12.536-9.046ZM56.684,20.628,73.191,25.55,56.684,30.472Zm1.532,33.924A21.952,21.952,0,0,1,68.9,58.557l4.857-6.064a30.043,30.043,0,0,0-28.087-4.278L48.456,55.4A26.008,26.008,0,0,1,58.216,54.552ZM47.774,75.593c.013-.225.036-.452.069-.68a7.937,7.937,0,0,1,9-6.687,8.068,8.068,0,0,1,.815.163.2.2,0,0,0,.224-.054l1.492-1.344,7.536-7.068a.969.969,0,0,1,.216-.153,20.431,20.431,0,0,0-9.124-3.236C47.62,55.43,35.117,61.64,30.715,75.593Zm14.944-3.2a7.839,7.839,0,0,1,.889,3.2H75.788c-.561-6.362-3.01-10.911-6.312-13.975a.994.994,0,0,1-.146.354l-5.67,8.482-.94,1.71a.206.206,0,0,0,0,.232Zm15.715-18.5a31.861,31.861,0,0,0-21.748-9.386V32.55l20.274-6.045a1,1,0,0,0,0-1.909L55.973,18.339a1,1,0,0,0-1.279.955V44.512A32.077,32.077,0,0,0,23.643,76.589a1,1,0,0,0,1,1H47.906a7.93,7.93,0,0,0,15.569,0H86.838a.994.994,0,0,0,1-1,31.882,31.882,0,0,0-9.4-22.694Z" fill-rule="evenodd"/>
    </g>
  </g>
</svg>
