<svg xmlns="http://www.w3.org/2000/svg" width="100" height="100" viewBox="0 0 100 100">
  <g id="Grupo_1100965" data-name="Grupo 1100965" transform="translate(0.242)">
    <g id="Grupo_1098742" data-name="Grupo 1098742" transform="translate(0)">
      <rect id="Rectángulo_400898" data-name="Rectángulo 400898" width="100" height="100" rx="50" transform="translate(-0.242)" fill="#fff" opacity="0.859"/>
      <g id="Rectángulo_400907" data-name="Rectángulo 400907" transform="translate(-0.242)" fill="none" stroke="#3acc97" stroke-linecap="round" stroke-width="2" stroke-dasharray="7">
        <rect width="100" height="100" rx="50" stroke="none"/>
        <rect x="1" y="1" width="98" height="98" rx="49" fill="none"/>
      </g>
    </g>
    <g id="Grupo_1107006" data-name="Grupo 1107006" transform="translate(8.156 8.156)">
      <rect id="Rectángulo_400898-2" data-name="Rectángulo 400898" width="84" height="84" rx="42" transform="translate(-0.399 -0.157)" fill="#d7f5ea" opacity="0.859"/>
      <rect id="Rectángulo_400907-2" data-name="Rectángulo 400907" width="84" height="84" rx="42" transform="translate(-0.398 -0.157)" fill="none"/>
    </g>
    <g id="Grupo_1117563" data-name="Grupo 1117563" transform="translate(21.43 21.194)">
      <g id="Grupo_1117561" data-name="Grupo 1117561" transform="translate(0.964 1.367)">
        <path id="Trazado_888252" data-name="Trazado 888252" d="M63.571,35.467H21.493l-2.234-1.722-1.04,1.722H8.71a27.43,27.43,0,0,1,54.861,0Z" transform="translate(-8.71 -8.037)" fill="#8ce0ff"/>
        <path id="Trazado_888253" data-name="Trazado 888253" d="M247.567,8.037c-.371,0-.74.01-1.107.024a27.43,27.43,0,0,1,26.323,27.406H275a27.43,27.43,0,0,0-27.43-27.43Z" transform="translate(-220.137 -8.037)" fill="#00acf0"/>
        <path id="Trazado_888254" data-name="Trazado 888254" d="M198.739,61.3a3.322,3.322,0,0,1,3.461.782l-5.136-14.47a12.731,12.731,0,0,0-4.045-5.683l-1.762-1.41-.432,2.315a12.732,12.732,0,0,0,.517,6.594l5.2,14.66A3.322,3.322,0,0,1,198.739,61.3Z" transform="translate(-170.47 -36.926)" fill="#f96491"/>
        <path id="Trazado_888255" data-name="Trazado 888255" d="M193.143,42.708a12.73,12.73,0,0,1,4.045,5.683l4.519,12.733a3.328,3.328,0,0,1,2.609.962l-5.135-14.47a12.731,12.731,0,0,0-4.045-5.683l-1.762-1.41-.385,2.062Z" transform="translate(-172.586 -36.926)" fill="#f93a79"/>
        <circle id="Elipse_11746" data-name="Elipse 11746" cx="3.322" cy="3.322" r="3.322" transform="translate(26.059 24.186)" fill="#fff08a"/>
        <path id="Trazado_888256" data-name="Trazado 888256" d="M268.3,228.689a3.321,3.321,0,0,0-4.238-2.02,3.321,3.321,0,0,1,0,6.262h0a3.321,3.321,0,0,0,4.237-4.242Z" transform="translate(-235.793 -202.292)" fill="#ffc472"/>
        <circle id="Elipse_11747" data-name="Elipse 11747" cx="3.168" cy="3.168" r="3.168" transform="translate(4.866 1.364)" fill="#ffcec4"/>
        <path id="Trazado_888257" data-name="Trazado 888257" d="M72.377,20.359a3.16,3.16,0,0,0-1.107.2,3.168,3.168,0,0,1,0,5.937,3.168,3.168,0,1,0,1.107-6.136Z" transform="translate(-64.343 -18.995)" fill="#ff9d86"/>
        <path id="Trazado_888258" data-name="Trazado 888258" d="M31.782,77.579h-11.4a3.168,3.168,0,0,0-2.719,1.542l-3.32,5.7,8.135,2.263,2.442-5.273h6.86a2.115,2.115,0,1,0,0-4.23Z" transform="translate(-13.721 -69.879)" fill="#fff08a"/>
        <path id="Trazado_888259" data-name="Trazado 888259" d="M70.107,120.512l1.962.546,2.442-5.273H72.3Z" transform="translate(-63.309 -103.855)" fill="#ffc472"/>
        <path id="Trazado_888260" data-name="Trazado 888260" d="M154.052,77.579h-2.214a2.115,2.115,0,0,1,0,4.23h2.214a2.115,2.115,0,0,0,0-4.23Z" transform="translate(-135.991 -69.879)" fill="#ffc472"/>
        <path id="Trazado_888261" data-name="Trazado 888261" d="M11.541,146.95l4.681,4.077L13.355,157.9h4.939l3.581-5.929a3.168,3.168,0,0,0-.284-3.672l-2.572-3.069-8.135-2.263a3.168,3.168,0,0,0,.656,3.984Z" transform="translate(-10.26 -128.027)" fill="#fff"/>
        <path id="Trazado_888262" data-name="Trazado 888262" d="M64.7,159.33l-2.572-3.069-3.2-.89,3.556,3.959A3.168,3.168,0,0,1,62.773,163l-3.146,5.929h1.779L64.987,163A3.168,3.168,0,0,0,64.7,159.33Z" transform="translate(-53.372 -139.059)" fill="#a9baca"/>
        <path id="Trazado_888263" data-name="Trazado 888263" d="M104.77,191.129a3.167,3.167,0,0,1,.284,3.672l-1.066,1.765,5.4,4.165h4.751Z" transform="translate(-93.439 -170.857)" fill="#6987a0"/>
      </g>
      <g id="Grupo_1117562" data-name="Grupo 1117562" transform="translate(0 0.537)">
        <path id="Trazado_888264" data-name="Trazado 888264" d="M195.466,307.323l5.3,8.436h1.726V304.287h-1.661v8.455l-5.3-8.436H193.8v11.607h1.661Z" transform="translate(-172.347 -270.656)"/>
        <path id="Trazado_888265" data-name="Trazado 888265" d="M404.447,304.287v11.625h1.661v-5.153h5.235v5.153H413V304.287h-1.661V309.1h-5.235v-4.811Z" transform="translate(-359.668 -270.656)"/>
        <path id="Trazado_888266" data-name="Trazado 888266" d="M118.847,316.232h5.821v-1.661h-4.16V311.3h3.854v-1.661h-3.854v-3.276h4.16V304.7h-5.821Z" transform="translate(-105.689 -271.022)"/>
        <path id="Trazado_888267" data-name="Trazado 888267" d="M35.8,309.423a3.121,3.121,0,0,0-2.385-5.136H29.691v11.629s3.506-.016,4.23-.016a3.511,3.511,0,0,0,1.88-6.477Zm-4.45-3.475h2.064a1.463,1.463,0,0,1,0,2.925l-2.064,0Zm2.57,8.292c-.466,0-1.721,0-2.57.008V310.54l2.57,0a1.852,1.852,0,1,1,0,3.7Z" transform="translate(-26.404 -270.656)"/>
        <path id="Trazado_888268" data-name="Trazado 888268" d="M301.3,313.571,300.03,312.5s-.741.866-.854.967a3.174,3.174,0,0,1-2.182.779,4.152,4.152,0,1,1,2.321-7.6l.688.465.93-1.376-.688-.465a5.813,5.813,0,1,0-3.25,10.632,4.851,4.851,0,0,0,3.287-1.2C300.453,314.557,301.3,313.571,301.3,313.571Z" transform="translate(-258.942 -270.655)"/>
        <path id="Trazado_888269" data-name="Trazado 888269" d="M102.466,432.024l-3.051,8.01,1.552.591.727-1.91h2.954l.72,1.908,1.554-.586-3.025-8.015Zm-.139,5.031.851-2.235.843,2.235Z" transform="translate(-88.408 -384.249)"/>
        <path id="Trazado_888270" data-name="Trazado 888270" d="M366.343,436.711l-3.205-5.1H361.55v8.444h1.661v-5.206l3.205,5.1H368V431.6h-1.661Z" transform="translate(-321.52 -383.871)"/>
        <path id="Trazado_888271" data-name="Trazado 888271" d="M5.9,432.295l-1.375,4.914-1.451-4.917H1.465L0,440.43l1.635.294.832-4.627,1.31,4.441H5.32l1.244-4.448.908,4.644,1.63-.319-1.589-8.126Z" transform="translate(0 -384.486)"/>
        <path id="Trazado_888272" data-name="Trazado 888272" d="M260.456,430.5l-1.124-1.223-2.875,2.642v-2.385H254.8v8.457h1.661v-2.635l3.088,2.979,1.153-1.2-3.643-3.514Z" transform="translate(-226.586 -381.805)"/>
        <path id="Trazado_888273" data-name="Trazado 888273" d="M325.853,431.6h1.661v8.457h-1.661Z" transform="translate(-289.775 -383.871)"/>
        <path id="Trazado_888274" data-name="Trazado 888274" d="M442.328,436.657h1.94a2.009,2.009,0,0,1-2.01,1.737,2.567,2.567,0,1,1,1.435-4.7l.688.465.93-1.376-.688-.465a4.228,4.228,0,1,0-2.365,7.734c2.216,0,3.764-1.739,3.764-4.228V435h-3.694v1.661Z" transform="translate(-389.532 -383.872)"/>
        <path id="Trazado_888275" data-name="Trazado 888275" d="M192.071,434.194a2.651,2.651,0,0,0-2.7-2.6h-2.639v8.457H188.4v-2.8l2.78,3.159,1.247-1.1-2.307-2.621A2.617,2.617,0,0,0,192.071,434.194Zm-2.7-.936a.941.941,0,1,1,0,1.871l-.968,0c0-.348,0-1.51-.005-1.875h.973Z" transform="translate(-166.061 -383.871)"/>
        <path id="Trazado_888276" data-name="Trazado 888276" d="M51.929,11.64,50.61,12.649a26.33,26.33,0,0,1,5.448,15.318H35.471a4.228,4.228,0,0,0-.138-.481,4.146,4.146,0,0,0-.84-1.407l-5.075-14.3a13.552,13.552,0,0,0-4.308-6.054L22.266,3.451,21.58,7.127a13.507,13.507,0,0,0-.186,1.409,2.927,2.927,0,0,0-1.292-.3H13.315a4,4,0,0,0,.509-.951A26.6,26.6,0,0,1,49.57,11.373l1.254-1.088A28.27,28.27,0,0,0,14,5.144,4,4,0,1,0,7.106,8.575a4.024,4.024,0,0,0-1.839,1.616l-3.32,5.7a4,4,0,0,0,.479,4.683A28.263,28.263,0,0,0,1.21,28.8v.83h3.7L3.889,32.071h6.654L12.819,28.3l4.891,3.769h7.005l-2.385-2.443h5.006a4.153,4.153,0,0,0,.17.635h0a4.152,4.152,0,0,0,7.662.4,4.174,4.174,0,0,0,.335-1.032H57.731V28.8a28,28,0,0,0-5.8-17.158ZM10.074,3.562A2.337,2.337,0,1,1,7.737,5.9a2.34,2.34,0,0,1,2.337-2.337ZM6.7,11.035A2.348,2.348,0,0,1,8.7,9.9H20.1a1.285,1.285,0,0,1,0,2.57H12.711l-2.368,5.114L3.924,15.8ZM2.883,27.967A26.578,26.578,0,0,1,3.8,21.808L7.005,24.6,5.6,27.967ZM9.605,30.41H6.381L9,24.134l-5.133-4.47A2.34,2.34,0,0,1,3.143,17.3l7.186,2,2.406,2.872a2.337,2.337,0,0,1,.209,2.71Zm8.671,0-4.593-3.539.683-1.13a3.988,3.988,0,0,0,.512-1.37l5.9,6.039h-2.5Zm-6.5-11.969,2-4.313H20.1a2.93,2.93,0,0,0,1.817-.63c.066.219.135.438.212.654l1.038,2.924,1.565-.556L23.7,13.6a11.914,11.914,0,0,1-.483-6.164l.178-.954.681.545a11.891,11.891,0,0,1,3.781,5.312l4.428,12.478a4.15,4.15,0,0,0-4.088,1.454l-2.9-8.182-1.565.556,3.31,9.328H20.71ZM33.67,29.946a2.491,2.491,0,0,1-4.6-.238h0a2.491,2.491,0,1,1,4.6.238Z" transform="translate(-1.076 -0.537)"/>
        <path id="Trazado_888277" data-name="Trazado 888277" d="M248.272,30.849h1.661v3.322h-1.661Z" transform="translate(-220.784 -27.493)"/>
        <path id="Trazado_888278" data-name="Trazado 888278" d="M0,0H3.322V1.661H0Z" transform="translate(48.578 20.752) rotate(-18)"/>
        <path id="Trazado_888279" data-name="Trazado 888279" d="M0,0H3.322V1.661H0Z" transform="translate(40.329 10.291) rotate(-53.989)"/>
        <path id="Trazado_888280" data-name="Trazado 888280" d="M225.825,138.514l-.555-1.565,1.565-.556.555,1.565Zm-1.111-3.13-.555-1.565,1.565-.556.555,1.565Zm-1.111-3.13-.555-1.565,1.565-.556.555,1.565Z" transform="translate(-198.353 -115.784)" fill="#fff"/>
      </g>
    </g>
  </g>
</svg>
