<svg xmlns="http://www.w3.org/2000/svg" width="100" height="100" viewBox="0 0 100 100">
  <g id="Grupo_1100965" data-name="Grupo 1100965" transform="translate(0.242)">
    <g id="Grupo_1098742" data-name="Grupo 1098742" transform="translate(0)">
      <rect id="Rectángulo_400898" data-name="Rectángulo 400898" width="100" height="100" rx="50" transform="translate(-0.242)" fill="#fff" opacity="0.859"/>
      <g id="Rectángulo_400907" data-name="Rectángulo 400907" transform="translate(-0.242)" fill="none" stroke="#3acc97" stroke-linecap="round" stroke-width="2" stroke-dasharray="7">
        <rect width="100" height="100" rx="50" stroke="none"/>
        <rect x="1" y="1" width="98" height="98" rx="49" fill="none"/>
      </g>
    </g>
    <g id="Grupo_1107006" data-name="Grupo 1107006" transform="translate(8.156 8.156)">
      <rect id="Rectángulo_400898-2" data-name="Rectángulo 400898" width="84" height="84" rx="42" transform="translate(-0.399 -0.157)" fill="#d7f5ea" opacity="0.859"/>
      <rect id="Rectángulo_400907-2" data-name="Rectángulo 400907" width="84" height="84" rx="42" transform="translate(-0.398 -0.157)" fill="none"/>
    </g>
    <g id="Grupo_1117556" data-name="Grupo 1117556" transform="translate(11.429 17.952)">
      <g id="Grupo_1117555" data-name="Grupo 1117555" transform="translate(8.191 1.011)">
        <g id="Grupo_1117551" data-name="Grupo 1117551" transform="translate(0)">
          <path id="Trazado_888197" data-name="Trazado 888197" d="M17.807,8.01h55.03a2.63,2.63,0,0,1,2.622,2.622V53.381A2.63,2.63,0,0,1,72.837,56H17.807a2.63,2.63,0,0,1-2.622-2.622V10.632A2.63,2.63,0,0,1,17.807,8.01Z" transform="translate(-15.185 -8.01)" fill="#eceff1" fill-rule="evenodd"/>
          <path id="Trazado_888198" data-name="Trazado 888198" d="M455.861,8.01h2.5a2.63,2.63,0,0,1,2.622,2.622V53.381A2.63,2.63,0,0,1,458.364,56h-2.5a2.63,2.63,0,0,0,2.622-2.622V10.632a2.63,2.63,0,0,0-2.622-2.622Z" transform="translate(-400.712 -8.01)" fill="#d1d1d6" fill-rule="evenodd"/>
          <path id="Trazado_888199" data-name="Trazado 888199" d="M17.807,8.01h55.03a2.63,2.63,0,0,1,2.622,2.622v6.742H15.185V10.632A2.63,2.63,0,0,1,17.807,8.01Z" transform="translate(-15.185 -8.01)" fill="#a79ba7" fill-rule="evenodd"/>
          <path id="Trazado_888200" data-name="Trazado 888200" d="M455.861,8.01h2.5a2.63,2.63,0,0,1,2.622,2.622v6.742h-2.5V10.632A2.63,2.63,0,0,0,455.861,8.01Z" transform="translate(-400.712 -8.01)" fill="#837683" fill-rule="evenodd"/>
          <path id="Trazado_888201" data-name="Trazado 888201" d="M61.465,36.243a1.532,1.532,0,1,0-1.532-1.532A1.535,1.535,0,0,0,61.465,36.243Z" transform="translate(-54.333 -30.028)" fill="#fe646f" fill-rule="evenodd"/>
          <path id="Trazado_888202" data-name="Trazado 888202" d="M108.469,36.243a1.532,1.532,0,1,0-1.532-1.532A1.535,1.535,0,0,0,108.469,36.243Z" transform="translate(-95.455 -30.028)" fill="#ffe177" fill-rule="evenodd"/>
          <path id="Trazado_888203" data-name="Trazado 888203" d="M155.472,36.243a1.532,1.532,0,1,0-1.532-1.532A1.535,1.535,0,0,0,155.472,36.243Z" transform="translate(-136.575 -30.028)" fill="#6cf5c2" fill-rule="evenodd"/>
        </g>
        <g id="Grupo_1117552" data-name="Grupo 1117552" transform="translate(4.939 11.8)">
          <circle id="Elipse_11742" data-name="Elipse 11742" cx="8.516" cy="8.516" r="8.516" transform="matrix(0.94, -0.34, 0.34, 0.94, 0, 5.791)" fill="#60b7ff"/>
          <circle id="Elipse_11743" data-name="Elipse 11743" cx="7.458" cy="7.458" r="7.458" transform="matrix(0.94, -0.34, 0.34, 0.94, 1.354, 6.426)" fill="#8ac9fe"/>
          <path id="Trazado_888204" data-name="Trazado 888204" d="M141.877,189.393h8.516a8.513,8.513,0,0,1-4.257,7.376Z" transform="translate(-130.961 -178.493)" fill="#fd4755" fill-rule="evenodd"/>
          <path id="Trazado_888205" data-name="Trazado 888205" d="M141.877,189.393h7.458a7.455,7.455,0,0,1-3.728,6.46Z" transform="translate(-130.961 -178.493)" fill="#fe646f" fill-rule="evenodd"/>
          <path id="Trazado_888206" data-name="Trazado 888206" d="M150.392,129.859h-8.516v-8.516A8.516,8.516,0,0,1,150.392,129.859Z" transform="translate(-130.96 -118.96)" fill="#ffd064" fill-rule="evenodd"/>
          <path id="Trazado_888207" data-name="Trazado 888207" d="M149.334,137.256h-7.458V129.8A7.458,7.458,0,0,1,149.334,137.256Z" transform="translate(-130.96 -126.356)" fill="#ffe177" fill-rule="evenodd"/>
        </g>
        <g id="Grupo_1117553" data-name="Grupo 1117553" transform="translate(38.139 23.619)">
          <path id="Trazado_888208" data-name="Trazado 888208" d="M320.567,246.969h1.677a.627.627,0,0,1,.626.626v9.91a.627.627,0,0,1-.626.626h-1.677a.627.627,0,0,1-.626-.626v-9.91A.627.627,0,0,1,320.567,246.969Z" transform="translate(-319.941 -240.683)" fill="#ffe177" fill-rule="evenodd"/>
          <path id="Trazado_888209" data-name="Trazado 888209" d="M328.341,246.969h1.251a.627.627,0,0,1,.626.626v9.91a.627.627,0,0,1-.626.626h-1.251a.627.627,0,0,0,.626-.626v-9.91A.627.627,0,0,0,328.341,246.969Z" transform="translate(-327.29 -240.683)" fill="#ffd064" fill-rule="evenodd"/>
          <path id="Trazado_888210" data-name="Trazado 888210" d="M370.906,221.854h1.677a.627.627,0,0,1,.626.626v13.053a.627.627,0,0,1-.626.626h-1.677a.627.627,0,0,1-.626-.626V222.48A.627.627,0,0,1,370.906,221.854Z" transform="translate(-363.98 -218.711)" fill="#6cf5c2" fill-rule="evenodd"/>
          <path id="Trazado_888211" data-name="Trazado 888211" d="M378.68,221.854h1.251a.627.627,0,0,1,.626.626v13.053a.627.627,0,0,1-.626.626H378.68a.627.627,0,0,0,.626-.626V222.48A.627.627,0,0,0,378.68,221.854Z" transform="translate(-371.329 -218.711)" fill="#00e499" fill-rule="evenodd"/>
          <path id="Trazado_888212" data-name="Trazado 888212" d="M421.245,196.74h1.677a.627.627,0,0,1,.626.626v16.2a.627.627,0,0,1-.626.626h-1.677a.627.627,0,0,1-.626-.626v-16.2A.627.627,0,0,1,421.245,196.74Z" transform="translate(-408.019 -196.74)" fill="#8ac9fe" fill-rule="evenodd"/>
          <path id="Trazado_888213" data-name="Trazado 888213" d="M429.019,196.74h1.252a.627.627,0,0,1,.626.626v16.2a.627.627,0,0,1-.626.626h-1.252a.627.627,0,0,0,.626-.626v-16.2A.627.627,0,0,0,429.019,196.74Z" transform="translate(-415.368 -196.74)" fill="#60b7ff" fill-rule="evenodd"/>
        </g>
        <g id="Grupo_1117554" data-name="Grupo 1117554" transform="translate(12.516 26.883)">
          <path id="Trazado_888214" data-name="Trazado 888214" d="M293.907,392.841a11.162,11.162,0,0,1-1.883,2.073l5.12,5.019,1.949-2.009Z" transform="translate(-269.895 -371.564)" fill="#a79ba7" fill-rule="evenodd"/>
          <path id="Trazado_888215" data-name="Trazado 888215" d="M303.451,392.565a1.286,1.286,0,0,1-.557.747l5.086,5.053.623-.683Z" transform="translate(-279.404 -371.323)" fill="#837683" fill-rule="evenodd"/>
          <path id="Trazado_888216" data-name="Trazado 888216" d="M330.049,432.435l2.2-2.267a1.012,1.012,0,0,0-.022-1.426l-6.093-5.913a1.012,1.012,0,0,0-1.426.021l-2.2,2.267a1.012,1.012,0,0,0,.022,1.426l6.093,5.913A1.012,1.012,0,0,0,330.049,432.435Z" transform="translate(-296.315 -397.55)" fill="#f1ba84" fill-rule="evenodd"/>
          <path id="Trazado_888217" data-name="Trazado 888217" d="M344.506,422.83l6.093,5.913a1.012,1.012,0,0,1,.022,1.426l-2.2,2.267a1,1,0,0,1-.273.2,1.013,1.013,0,0,0,1.175-.2l2.2-2.267a1.012,1.012,0,0,0-.021-1.426l-6.093-5.913a1.012,1.012,0,0,0-1.153-.178A1,1,0,0,1,344.506,422.83Z" transform="translate(-315.588 -397.552)" fill="#e3a76f" fill-rule="evenodd"/>
          <ellipse id="Elipse_11744" data-name="Elipse 11744" cx="11.096" cy="11.096" rx="11.096" ry="11.096" transform="translate(0 15.69) rotate(-45)" fill="#8ac9fe"/>
          <path id="Trazado_888218" data-name="Trazado 888218" d="M236.864,259.543a11.1,11.1,0,0,1,0,22.192q-.271,0-.539-.013a11.1,11.1,0,0,0,0-22.165Q236.593,259.543,236.864,259.543Z" transform="translate(-221.166 -254.948)" fill="#60b7ff" fill-rule="evenodd"/>
          <circle id="Elipse_11745" data-name="Elipse 11745" cx="7.968" cy="7.968" r="7.968" transform="translate(5.301 11.376) rotate(-22.514)" fill="#eceff1"/>
          <path id="Trazado_888219" data-name="Trazado 888219" d="M184.931,284.541c.181,0,.361.007.539.018a7.967,7.967,0,0,0,0,15.9c-.178.012-.358.018-.539.018a7.968,7.968,0,1,1,0-15.935Z" transform="translate(-169.233 -276.818)" fill="#d1d1d6" fill-rule="evenodd"/>
        </g>
      </g>
      <path id="Trazado_888220" data-name="Trazado 888220" d="M36.405,50.552a6.966,6.966,0,1,1,6.966-6.965A6.975,6.975,0,0,1,36.405,50.552Zm0-15.935a8.969,8.969,0,1,0,8.968,8.97A8.979,8.979,0,0,0,36.405,34.617ZM51.106,20.7a1,1,0,0,1-1,1H40.329a1,1,0,1,1,0-2h9.776A1,1,0,0,1,51.106,20.7ZM39.327,16.472a1,1,0,0,1,1-1H59.882a1,1,0,1,1,0,2H40.329A1,1,0,0,1,39.327,16.472Zm21.53,24.6h-.926V25.631h.926Zm1-17.447H58.931a1,1,0,0,0-1,1V42.077a1,1,0,0,0,1,1h2.928a1,1,0,0,0,1-1V24.63A1,1,0,0,0,61.859,23.629Zm-7.3,17.447h-.926v-12.3h.926Zm1-14.3H52.63a1,1,0,0,0-1,1v14.3a1,1,0,0,0,1,1h2.929a1,1,0,0,0,1-1v-14.3A1,1,0,0,0,55.559,26.771ZM19.788,41.992a1,1,0,0,1-1,1H15.531a1,1,0,1,1,0-2h3.257A1,1,0,0,1,19.788,41.992Zm0-4.374a1,1,0,0,1-1,1H15.531a1,1,0,1,1,0-2h3.257A1,1,0,0,1,19.788,37.617Zm8.893-8L25.8,24.712l5.7,0a7.514,7.514,0,0,1-2.812,4.9Zm-12.15-5.91a7.514,7.514,0,0,0,10.426,6.928l-3.775-6.42a1,1,0,0,1-.138-.508V16.264a7.526,7.526,0,0,0-6.514,7.446Zm14.961-1-6.445,0V16.264A7.528,7.528,0,0,1,31.493,22.713Zm-7.446-8.52a9.517,9.517,0,1,0,9.518,9.517,9.528,9.528,0,0,0-9.518-9.517Zm1.51-8.5a1.532,1.532,0,1,1,1.533,1.533A1.535,1.535,0,0,1,25.556,5.693Zm-5.882,0a1.533,1.533,0,1,1,1.532,1.533A1.535,1.535,0,0,1,19.674,5.693Zm-5.883,0a1.532,1.532,0,1,1,1.533,1.533A1.535,1.535,0,0,1,13.791,5.693ZM65.843,48a1.623,1.623,0,0,0,1.621-1.621v-35H9.193v35A1.623,1.623,0,0,0,10.814,48H25.143a12.027,12.027,0,0,1-.834-4.416q0-.3.014-.594h-1.7a1,1,0,1,1,0-2h1.971a12.1,12.1,0,0,1,.786-2.372H22.618a1,1,0,1,1,0-2h3.9a12.082,12.082,0,0,1,18.807-1.189V30.916a1,1,0,0,1,1-1h2.929a1,1,0,0,1,1,1V42.077a1,1,0,0,1-1,1h-.769c.008.169.011.338.011.508A12.017,12.017,0,0,1,47.667,48ZM49.829,53.891l6.094,5.925-2.2,2.266h-.012l-6.093-5.923ZM47,53.916l-1.945-1.887c.185-.191.365-.385.538-.589l1.962,1.9Zm1.254-12.84H48.24a11.983,11.983,0,0,0-.908-2.677V31.917h.926v9.158ZM26.311,43.586a10.094,10.094,0,1,0,10.095-10.1,10.105,10.105,0,0,0-10.095,10.1ZM10.814,2.012a1.623,1.623,0,0,0-1.621,1.62V9.374H67.464V3.633a1.623,1.623,0,0,0-1.621-1.62H10.814Zm55.029-2H10.814A3.627,3.627,0,0,0,7.191,3.633V46.382a3.626,3.626,0,0,0,3.623,3.623H26.156a12.081,12.081,0,0,0,17.386,3.341l2.195,2.13a2.013,2.013,0,0,0,.487,2.13l6.093,5.913a2.013,2.013,0,0,0,2.842-.044l2.2-2.266a2.013,2.013,0,0,0-.043-2.842l-6.093-5.913a2.009,2.009,0,0,0-2.142-.423l-2.087-2.026H65.843a3.626,3.626,0,0,0,3.623-3.624V3.633A3.627,3.627,0,0,0,65.843.01Z" fill-rule="evenodd"/>
    </g>
  </g>
</svg>
