<svg xmlns="http://www.w3.org/2000/svg" width="77.012" height="77.079" viewBox="0 0 77.012 77.079">
  <g id="Grupo_1118498" data-name="Grupo 1118498" transform="translate(-0.221)">
    <g id="Grupo_1118480" data-name="Grupo 1118480" transform="translate(1.351 32.86)">
      <path id="Trazado_889745" data-name="Trazado 889745" d="M9.23,255.695a1.507,1.507,0,0,1-1.505-1.569,37.408,37.408,0,0,1,74.751,0,1.507,1.507,0,0,1-1.505,1.569Z" transform="translate(-7.723 -218.287)" fill="#d9ecfd"/>
      <path id="Trazado_889746" data-name="Trazado 889746" d="M279.786,254.13a1.509,1.509,0,0,1-1.505,1.57h-4.826a1.507,1.507,0,0,0,1.505-1.57A37.409,37.409,0,0,0,240,218.369q1.2-.077,2.412-.077A37.409,37.409,0,0,1,279.786,254.13Z" transform="translate(-205.033 -218.291)" fill="#c4e1ff"/>
    </g>
    <g id="Grupo_1118481" data-name="Grupo 1118481" transform="translate(5.909 37.449)">
      <path id="Trazado_889747" data-name="Trazado 889747" d="M38.006,281.593a32.818,32.818,0,0,1,65.637,0Z" transform="translate(-38.006 -248.775)" fill="#31a7fb"/>
      <path id="Trazado_889748" data-name="Trazado 889748" d="M272.832,281.592H267.16a32.824,32.824,0,0,0-29.982-32.7q1.4-.12,2.836-.12A32.819,32.819,0,0,1,272.832,281.592Z" transform="translate(-207.196 -248.772)" fill="#1c96f9"/>
      <path id="Trazado_889749" data-name="Trazado 889749" d="M60.3,315.349h-22.3a32.781,32.781,0,0,1,13.923-26.837Z" transform="translate(-38.008 -282.53)" fill="#fb4a59"/>
      <path id="Trazado_889750" data-name="Trazado 889750" d="M168.288,254.754l-8.373,26.837H138.871L130.5,254.754a32.832,32.832,0,0,1,37.79,0Z" transform="translate(-116.575 -248.772)" fill="#83d167"/>
      <path id="Trazado_889751" data-name="Trazado 889751" d="M258.935,254.754l-1.188,3.806a32.723,32.723,0,0,0-20.539-9.667q1.4-.12,2.832-.12A32.662,32.662,0,0,1,258.935,254.754Z" transform="translate(-207.221 -248.772)" fill="#54c032"/>
      <path id="Trazado_889752" data-name="Trazado 889752" d="M222.874,347.625a5.847,5.847,0,1,1-4.831-10.649c2.054-.932,19.256-5.6,29.445-8.336a1.292,1.292,0,0,1,1.053,2.321C239.774,336.826,224.928,346.693,222.874,347.625Z" transform="translate(-188.025 -316.574)" fill="#fb4a59"/>
    </g>
    <g id="Grupo_1118493" data-name="Grupo 1118493" transform="translate(10.707 1.134)">
      <g id="Grupo_1118483" data-name="Grupo 1118483" transform="translate(0 48.915)">
        <path id="Trazado_889753" data-name="Trazado 889753" d="M109.642,332.47l1.275.2a13.886,13.886,0,0,1,11.4,10.52l3.6,15.185H69.88l3.6-15.185a13.886,13.886,0,0,1,11.4-10.52l1.275-.2Z" transform="translate(-69.88 -332.47)" fill="#fcb44d"/>
        <g id="Grupo_1118482" data-name="Grupo 1118482" transform="translate(15.449)">
          <path id="Trazado_889754" data-name="Trazado 889754" d="M180.74,332.47v7.768c-2.129-1.249-5.382.046-7.156.944a.743.743,0,0,1-1.067-.789,14.666,14.666,0,0,1,3.679-7.923Z" transform="translate(-172.506 -332.47)" fill="#fb9927"/>
          <path id="Trazado_889755" data-name="Trazado 889755" d="M291.98,341.182c-1.773-.9-5.027-2.193-7.156-.944V332.47h4.546a14.686,14.686,0,0,1,3.679,7.923A.744.744,0,0,1,291.98,341.182Z" transform="translate(-267.916 -332.47)" fill="#fb9927"/>
        </g>
        <path id="Trazado_889756" data-name="Trazado 889756" d="M227.209,332.485h8.674v25.9h-8.674Z" transform="translate(-203.526 -332.483)" fill="#ffd496"/>
        <path id="Trazado_889757" data-name="Trazado 889757" d="M322.9,358.375h-4.856l-3.6-15.185a13.89,13.89,0,0,0-11.4-10.52l-1.274-.2h4.856l1.274.2a13.89,13.89,0,0,1,11.4,10.52Z" transform="translate(-266.861 -332.473)" fill="#fb9927"/>
      </g>
      <g id="Grupo_1118486" data-name="Grupo 1118486" transform="translate(21.633 39.234)">
        <g id="Grupo_1118485" data-name="Grupo 1118485">
          <path id="Trazado_889758" data-name="Trazado 889758" d="M226.362,275.894a5.134,5.134,0,0,1-2.632-4.5v-3.232h-7.445v3.231a5.172,5.172,0,0,1-2.7,4.536v.308a6.387,6.387,0,0,0,12.775,0v-.344Z" transform="translate(-213.587 -268.163)" fill="#fda79b"/>
          <g id="Grupo_1118484" data-name="Grupo 1118484" transform="translate(1.633 0.001)">
            <path id="Trazado_889759" data-name="Trazado 889759" d="M234,274.538a17.735,17.735,0,0,1-9.565,0A5.157,5.157,0,0,0,225.5,271.4v-3.23h7.444V271.4A5.181,5.181,0,0,0,234,274.538Z" transform="translate(-224.437 -268.169)" fill="#fc9085"/>
          </g>
        </g>
      </g>
      <g id="Grupo_1118487" data-name="Grupo 1118487" transform="translate(15.449 44.736)">
        <path id="Trazado_889760" data-name="Trazado 889760" d="M180.74,313.549v-7.941a.743.743,0,0,0-.666-.739l-1.326-.139a2.873,2.873,0,0,0-2.3.8,14.448,14.448,0,0,0-3.929,8.176.743.743,0,0,0,1.067.789C175.357,313.6,178.611,312.3,180.74,313.549Z" transform="translate(-172.505 -304.715)" fill="#fee7c9"/>
        <path id="Trazado_889761" data-name="Trazado 889761" d="M284.828,313.549v-7.941a.743.743,0,0,1,.666-.739l1.326-.139a2.873,2.873,0,0,1,2.3.8,14.448,14.448,0,0,1,3.929,8.176.743.743,0,0,1-1.067.789C290.211,313.6,286.957,312.3,284.828,313.549Z" transform="translate(-267.92 -304.715)" fill="#fee7c9"/>
      </g>
      <g id="Grupo_1118492" data-name="Grupo 1118492" transform="translate(8.022)">
        <path id="Trazado_889762" data-name="Trazado 889762" d="M139.092,33.174c5.933-6.906,16.957-2.593,18.438-2v13.6l-18.436,3.6S134.288,38.766,139.092,33.174Z" transform="translate(-134.882 -26.024)" fill="#6c3328"/>
        <g id="Grupo_1118488" data-name="Grupo 1118488" transform="translate(1.42 26.429)">
          <path id="Trazado_889763" data-name="Trazado 889763" d="M158.165,183.1h.018C158.2,183.2,158.194,183.206,158.165,183.1Z" transform="translate(-154.317 -183.101)" fill="#873f30"/>
          <path id="Trazado_889764" data-name="Trazado 889764" d="M353.766,183.1c-.02.078-.023.075-.013,0Z" transform="translate(-320.457 -183.101)" fill="#873f30"/>
          <path id="Trazado_889765" data-name="Trazado 889765" d="M132.606,183.1h.017C132.64,183.2,132.635,183.206,132.606,183.1Z" transform="translate(-132.606 -183.101)" fill="#873f30"/>
          <path id="Trazado_889766" data-name="Trazado 889766" d="M328.194,183.1h.013C328.186,183.179,328.183,183.176,328.194,183.1Z" transform="translate(-298.746 -183.101)" fill="#873f30"/>
        </g>
        <g id="Grupo_1118491" data-name="Grupo 1118491" transform="translate(0 13.474)">
          <g id="Grupo_1118489" data-name="Grupo 1118489" transform="translate(0 5.078)">
            <ellipse id="Elipse_11776" data-name="Elipse 11776" cx="4.801" cy="4.092" rx="4.801" ry="4.092" transform="matrix(0.338, -0.941, 0.941, 0.338, 29.075, 9.088)" fill="#fda79b"/>
            <ellipse id="Elipse_11777" data-name="Elipse 11777" cx="4.092" cy="4.801" rx="4.092" ry="4.801" transform="matrix(0.941, -0.338, 0.338, 0.941, 0, 2.766)" fill="#fda79b"/>
          </g>
          <path id="Trazado_889767" data-name="Trazado 889767" d="M196.515,102.317V110.8s0,15.31-12.815,15.31-12.816-15.31-12.816-15.31v-8.484a5.275,5.275,0,0,1,5.275-5.275H191.24A5.275,5.275,0,0,1,196.515,102.317Z" transform="translate(-163.702 -97.042)" fill="#fcb3a9"/>
          <g id="Grupo_1118490" data-name="Grupo 1118490" transform="translate(19.168 0)">
            <path id="Trazado_889768" data-name="Trazado 889768" d="M264.148,102.317v4.675H252.71a1.521,1.521,0,0,1-1.469-1.9,12.128,12.128,0,0,0-.739-8.045h8.371A5.275,5.275,0,0,1,264.148,102.317Z" transform="translate(-250.502 -97.042)" fill="#fda79b"/>
          </g>
        </g>
        <path id="Trazado_889769" data-name="Trazado 889769" d="M235.5,221.6a3.636,3.636,0,0,1-3.636-3.636v-1.18h7.272v1.18A3.636,3.636,0,0,1,235.5,221.6Z" transform="translate(-215.503 -185.281)" fill="#f8f3f1"/>
        <path id="Trazado_889770" data-name="Trazado 889770" d="M210.815,27.431h11.817A3.036,3.036,0,0,0,225.5,25.4a16.422,16.422,0,0,0,.416-8.007C224.44,7.916,211.782,5.176,204.839,9.58c-2.767,1.756-3.625,4.761-3.655,7.745h7.35a12.133,12.133,0,0,1,.813,8.2A1.521,1.521,0,0,0,210.815,27.431Z" transform="translate(-189.441 -7.532)" fill="#6c3328"/>
        <path id="Trazado_889771" data-name="Trazado 889771" d="M277.2,25.408a3.035,3.035,0,0,1-2.865,2.028h-4.252a3.035,3.035,0,0,0,2.865-2.028,16.43,16.43,0,0,0,.416-8.006c-.9-5.772-5.94-9.047-11.315-9.729,6.678-.871,14.434,2.434,15.567,9.729A16.428,16.428,0,0,1,277.2,25.408Z" transform="translate(-241.142 -7.536)" fill="#54231d"/>
      </g>
    </g>
    <g id="Grupo_1118496" data-name="Grupo 1118496" transform="translate(2.789 24.382)">
      <g id="Grupo_1118494" data-name="Grupo 1118494" transform="translate(59.537)">
        <circle id="Elipse_11778" data-name="Elipse 11778" cx="6.17" cy="6.17" r="6.17" transform="translate(0 0.001)" fill="#31a7fb"/>
        <path id="Trazado_889772" data-name="Trazado 889772" d="M441.723,168.137a6.169,6.169,0,0,1-9.4,5.258,5.259,5.259,0,0,0,0-10.516,6.169,6.169,0,0,1,9.4,5.258Z" transform="translate(-429.383 -161.967)" fill="#1c96f9"/>
      </g>
      <g id="Grupo_1118495" data-name="Grupo 1118495">
        <circle id="Elipse_11779" data-name="Elipse 11779" cx="6.17" cy="6.17" r="6.17" transform="translate(0 0.001)" fill="#fb4a59"/>
        <path id="Trazado_889773" data-name="Trazado 889773" d="M46.223,168.137a6.169,6.169,0,0,1-9.4,5.258,5.259,5.259,0,0,0,0-10.516,6.169,6.169,0,0,1,9.4,5.258Z" transform="translate(-33.883 -161.967)" fill="#f82f40"/>
      </g>
    </g>
    <g id="Grupo_1118497" data-name="Grupo 1118497" transform="translate(0.221 0)">
      <path id="Trazado_889774" data-name="Trazado 889774" d="M32.168,3.284c-4.286.029-7.678,1.464-10.085,4.266-3.524,4.1-2.411,10.022-1.364,13.338a5.148,5.148,0,0,0-1.448,2.1,6.345,6.345,0,0,0,.011,4.38,5.906,5.906,0,0,0,5.343,4.093c.148,0,.3-.01.445-.024a23.914,23.914,0,0,0,.56,2.575A38.561,38.561,0,0,0,.224,68.653,2.637,2.637,0,0,0,2.857,71.4h7.77L9.609,75.689a1.129,1.129,0,1,0,2.2.521l3.6-15.185a12.74,12.74,0,0,1,1.339-3.388,1.129,1.129,0,1,0-1.96-1.121A15.006,15.006,0,0,0,13.211,60.5l-2.048,8.635h-4.1A31.6,31.6,0,0,1,19.221,45.263l1.68,5.385a14.986,14.986,0,0,0-2.231,1.418,1.129,1.129,0,1,0,1.376,1.79,12.8,12.8,0,0,1,5.836-2.5l.019,0a19.271,19.271,0,0,0-.848,3.318,1.87,1.87,0,0,0,2.691,1.981c2.279-1.154,4.239-1.576,5.518-1.21v20.5a1.129,1.129,0,1,0,2.258,0V55.243a7.543,7.543,0,0,0,6.416,0V75.95a1.129,1.129,0,1,0,2.258,0v-20.5c1.278-.366,3.238.056,5.518,1.211A1.872,1.872,0,0,0,52.4,54.676a19.26,19.26,0,0,0-.849-3.318l.019,0a12.708,12.708,0,0,1,10.475,9.666l3.6,15.184a1.129,1.129,0,1,0,2.2-.521L66.829,71.4H74.6a2.636,2.636,0,0,0,2.633-2.745,38.5,38.5,0,0,0-5.649-18.534A1.129,1.129,0,0,0,69.658,51.3a36.242,36.242,0,0,1,5.317,17.444.378.378,0,0,1-.377.394H72.656a33.8,33.8,0,0,0-5.1-16.807,2.424,2.424,0,0,0-2.476-3.908l-.3.08A33.91,33.91,0,0,0,50.1,38.274,23.276,23.276,0,0,0,51.1,36.158,36.317,36.317,0,0,1,66.577,47.022a1.129,1.129,0,0,0,1.733-1.448A38.575,38.575,0,0,0,51.822,34.016a23.944,23.944,0,0,0,.561-2.576c.149.014.3.024.445.024a5.91,5.91,0,0,0,5.344-4.093c1.069-2.984-.127-6.172-2.67-7.249a4.122,4.122,0,0,0,.349-.74,17.7,17.7,0,0,0,.467-8.555,12.176,12.176,0,0,0-7.407-9.313C43.937-.741,37.753-.454,33.523,2.229a8.684,8.684,0,0,0-1.355,1.055ZM56.047,26.609a3.582,3.582,0,0,1-3.408,2.59c.031-.488.033-.788.033-.831V22.209a2.562,2.562,0,0,1,1.826-.057C56.035,22.7,56.73,24.7,56.047,26.609Zm-34.638,0a4.087,4.087,0,0,1-.025-2.819,2.679,2.679,0,0,1,1.574-1.637,2.561,2.561,0,0,1,1.824.057v6.158c0,.043,0,.343.033.831a3.58,3.58,0,0,1-3.407-2.59Zm4.94,9.548a23.338,23.338,0,0,0,1.008,2.116A33.957,33.957,0,0,0,4.8,69.14H2.857a.374.374,0,0,1-.272-.116.379.379,0,0,1-.106-.279,36.513,36.513,0,0,1,23.87-32.589Zm5.932,10.853.981.1v6.02a10.683,10.683,0,0,0-5.843,1.175,13.078,13.078,0,0,1,3.464-6.812A2.194,2.194,0,0,1,32.281,47.009Zm1.414-2.123-1.179-.123a3.989,3.989,0,0,0-3.207,1.113A13.266,13.266,0,0,0,27,48.92h-.015a1.124,1.124,0,0,0-.171.013l-1.276.2a15,15,0,0,0-2.551.628l-1.835-5.883a31.8,31.8,0,0,1,7.509-3.663A11.8,11.8,0,0,0,33.886,44a4.034,4.034,0,0,1-.192.887Zm8.241,1.877v5.847a5.277,5.277,0,0,1-6.416.007V46.764a8.588,8.588,0,0,0,.566-2.179,15.739,15.739,0,0,0,5.346-.011,9.288,9.288,0,0,0,.5,2.191Zm-3.208-4.215c-4.8,0-8.211-2.324-10.149-6.906a21.275,21.275,0,0,1-1.538-7.276V19.883a4.155,4.155,0,0,1,3.849-4.133A1.129,1.129,0,1,0,30.73,13.5a6.421,6.421,0,0,0-5.947,6.363,4.784,4.784,0,0,0-2.016,0C21.9,16.959,21.09,12.17,23.8,9.021a10.028,10.028,0,0,1,6.66-3.369,12.146,12.146,0,0,0-1.112,5.264,1.129,1.129,0,0,0,1.118,1.14h.012A1.129,1.129,0,0,0,31.6,10.939c.033-3.216,1.086-5.505,3.131-6.8,3.557-2.256,9-2.489,13.246-.565a9.986,9.986,0,0,1,6.108,7.6,15.517,15.517,0,0,1-.365,7.459,1.909,1.909,0,0,1-1.8,1.272H50.673c2.817-7.016-1.729-12.958-1.934-13.221a1.129,1.129,0,0,0-1.781,1.389c.178.23,4.305,5.681,1.241,11.832H40.1a.379.379,0,0,1-.3-.149.4.4,0,0,1-.071-.347,13.237,13.237,0,0,0-.889-8.971,1.129,1.129,0,0,0-2.036.977,11.031,11.031,0,0,1,.743,2.064H36.272a1.129,1.129,0,1,0,0,2.258h1.6a10.818,10.818,0,0,1-.332,3.113A2.65,2.65,0,0,0,40.1,22.163h10.31v6.2A21.141,21.141,0,0,1,48.9,35.587C46.966,40.207,43.544,42.549,38.728,42.549Zm6.463,10.5a6.241,6.241,0,0,0-1,.077v-6.02l.981-.1a1.739,1.739,0,0,1,1.4.485,13.08,13.08,0,0,1,3.464,6.812,12.1,12.1,0,0,0-4.846-1.252Zm9.277-3.3a15.187,15.187,0,0,0-2.552-.624l-1.275-.2a1.124,1.124,0,0,0-.171-.013h-.016a13.269,13.269,0,0,0-2.307-3.044,3.991,3.991,0,0,0-3.207-1.113l-1.12.117a4.09,4.09,0,0,1-.19-.9,11.8,11.8,0,0,0,5.162-3.765,31.553,31.553,0,0,1,7.5,3.677Zm2.368.9a1.128,1.128,0,0,0-.152.054l-.127-.064,1.67-5.354a31.863,31.863,0,0,1,4.131,3.87C60.516,49.651,58.645,50.157,56.836,50.648Zm4.142,3.466a14.911,14.911,0,0,0-1.811-1.759c2.17-.588,4.385-1.185,6.5-1.751a.163.163,0,0,1,.133.292c-1.466.98-3.1,2.073-4.82,3.218ZM66.293,69.14,64.245,60.5a15.09,15.09,0,0,0-1.92-4.574c1.182-.788,2.324-1.55,3.4-2.267A31.549,31.549,0,0,1,70.4,69.14Z" transform="translate(-0.221 0)"/>
      <path id="Trazado_889775" data-name="Trazado 889775" d="M224.365,210.409v1.18a4.765,4.765,0,1,0,9.53,0v-1.18a1.129,1.129,0,0,0-1.129-1.129h-7.272A1.129,1.129,0,0,0,224.365,210.409Zm2.258,1.129h5.014v.051a2.507,2.507,0,1,1-5.014,0v-.051Z" transform="translate(-190.624 -177.776)"/>
      <path id="Trazado_889776" data-name="Trazado 889776" d="M279.384,158.757a1.124,1.124,0,0,0,.663-.216,2.152,2.152,0,0,1,2.362,0,1.129,1.129,0,0,0,1.328-1.827,4.4,4.4,0,0,0-5.016,0,1.129,1.129,0,0,0,.664,2.043Z" transform="translate(-236.4 -132.457)"/>
      <path id="Trazado_889777" data-name="Trazado 889777" d="M194.487,158.292a1.129,1.129,0,0,0,1.577.25,2.152,2.152,0,0,1,2.362,0,1.129,1.129,0,0,0,1.327-1.827,4.4,4.4,0,0,0-5.016,0A1.129,1.129,0,0,0,194.487,158.292Z" transform="translate(-165.06 -132.458)"/>
      <path id="Trazado_889778" data-name="Trazado 889778" d="M246.755,186.875h.87a1.129,1.129,0,0,0,0-2.258h-.87a1.129,1.129,0,0,0,0,2.258Z" transform="translate(-208.684 -156.826)"/>
      <path id="Trazado_889779" data-name="Trazado 889779" d="M291.269,82.175a1.127,1.127,0,0,0,1.384-.8,13.584,13.584,0,0,0,.028-4.6,1.129,1.129,0,0,0-2.231.347,11.528,11.528,0,0,1,.023,3.663A1.129,1.129,0,0,0,291.269,82.175Z" transform="translate(-246.747 -64.412)"/>
      <path id="Trazado_889780" data-name="Trazado 889780" d="M412.58,169.069a7.3,7.3,0,1,0-7.3-7.3A7.307,7.307,0,0,0,412.58,169.069Zm0-12.34a5.041,5.041,0,1,1-5.041,5.041A5.046,5.046,0,0,1,412.58,156.729Z" transform="translate(-344.305 -131.218)"/>
      <path id="Trazado_889781" data-name="Trazado 889781" d="M433.988,186.325h.889v.89a1.129,1.129,0,0,0,2.258,0v-.89h.889a1.129,1.129,0,0,0,0-2.258h-.889v-.89a1.129,1.129,0,0,0-2.258,0v.89h-.889a1.129,1.129,0,0,0,0,2.258Z" transform="translate(-367.732 -154.644)"/>
      <path id="Trazado_889782" data-name="Trazado 889782" d="M17.08,169.069a7.3,7.3,0,1,0-7.3-7.3A7.307,7.307,0,0,0,17.08,169.069Zm0-12.34a5.041,5.041,0,1,1-5.041,5.041A5.046,5.046,0,0,1,17.08,156.729Z" transform="translate(-8.342 -131.218)"/>
      <path id="Trazado_889783" data-name="Trazado 889783" d="M38.487,197.715h4.037a1.129,1.129,0,1,0,0-2.258H38.487a1.129,1.129,0,1,0,0,2.258Z" transform="translate(-31.768 -166.034)"/>
      <path id="Trazado_889784" data-name="Trazado 889784" d="M364.174,416.087a1.129,1.129,0,0,0-1.129,1.129v11.815a1.129,1.129,0,0,0,2.258,0V417.216A1.129,1.129,0,0,0,364.174,416.087Z" transform="translate(-308.427 -353.452)"/>
      <path id="Trazado_889785" data-name="Trazado 889785" d="M135.12,416.087a1.129,1.129,0,0,0-1.129,1.129v11.815a1.129,1.129,0,0,0,2.258,0V417.216A1.129,1.129,0,0,0,135.12,416.087Z" transform="translate(-113.854 -353.452)"/>
    </g>
  </g>
</svg>
