<svg xmlns="http://www.w3.org/2000/svg" width="80" height="80" viewBox="0 0 80 80">
  <g id="Grupo_1115467" data-name="Grupo 1115467" transform="translate(-208.14 -8646)">
    <rect id="Rectángulo_409529" data-name="Rectángulo 409529" width="80" height="80" transform="translate(208.14 8646)" fill="none"/>
    <g id="Grupo_1117565" data-name="Grupo 1117565" transform="translate(168.202 8652.029)">
      <g id="Grupo_1117564" data-name="Grupo 1117564" transform="translate(53)">
        <path id="Trazado_888281" data-name="Trazado 888281" d="M206.346,34.628a1.8,1.8,0,0,0,1.793-1.793V30.45a1.8,1.8,0,0,0-1.793-1.793H203.96a1.8,1.8,0,0,0-1.793,1.793v2.386a1.8,1.8,0,0,0,1.793,1.793Zm-2.188-3.981h1.99v1.99h-1.99Z" transform="translate(-182.373 -24.854)" fill="#fff"/>
        <path id="Trazado_888282" data-name="Trazado 888282" d="M266.346,34.628a1.8,1.8,0,0,0,1.793-1.793V30.45a1.8,1.8,0,0,0-1.793-1.793H263.96a1.8,1.8,0,0,0-1.793,1.793v2.386a1.8,1.8,0,0,0,1.793,1.793Zm-2.188-3.981h1.99v1.99h-1.99Z" transform="translate(-234.411 -24.854)" fill="#fff"/>
        <path id="Trazado_888283" data-name="Trazado 888283" d="M326.346,34.628a1.8,1.8,0,0,0,1.793-1.793V30.45a1.8,1.8,0,0,0-1.793-1.793H323.96a1.8,1.8,0,0,0-1.793,1.793v2.386a1.8,1.8,0,0,0,1.793,1.793Zm-2.188-3.981h1.99v1.99h-1.99Z" transform="translate(-286.449 -24.854)" fill="#fff"/>
        <path id="Trazado_888284" data-name="Trazado 888284" d="M115.276,139.305H136.11a1,1,0,1,0,0-1.99H115.276a1,1,0,0,0,0,1.99Z" transform="translate(-106.149 -119.094)" fill="#fff"/>
        <path id="Trazado_888285" data-name="Trazado 888285" d="M115.276,171.305h29.659a1,1,0,0,0,0-1.99H115.276a1,1,0,0,0,0,1.99Z" transform="translate(-106.149 -146.847)" fill="#fff"/>
        <path id="Trazado_888286" data-name="Trazado 888286" d="M115.276,203.305h6.942a1,1,0,1,0,0-1.99h-6.942a1,1,0,0,0,0,1.99Z" transform="translate(-106.149 -174.601)" fill="#fff"/>
        <path id="Trazado_888287" data-name="Trazado 888287" d="M114.281,253.268a1.96,1.96,0,0,0,1.958,1.958h5.017a1.96,1.96,0,0,0,1.958-1.958v-9.154a1.96,1.96,0,0,0-1.958-1.958h-5.017a1.96,1.96,0,0,0-1.958,1.958Zm1.99-9.122h4.951v9.089h-4.951Z" transform="translate(-106.149 -210.022)" fill="#fff"/>
        <path id="Trazado_888288" data-name="Trazado 888288" d="M115.676,386.2h5.888a1,1,0,0,0,0-1.99h-5.888a1,1,0,1,0,0,1.99Z" transform="translate(-106.496 -333.227)" fill="#fff"/>
        <path id="Trazado_888289" data-name="Trazado 888289" d="M115.676,418.2h13.976a1,1,0,1,0,0-1.99H115.676a1,1,0,0,0,0,1.99Z" transform="translate(-106.496 -360.981)" fill="#fff"/>
        <path id="Trazado_888290" data-name="Trazado 888290" d="M272.083,416.211H261.719a1,1,0,0,0,0,1.99h10.364a1,1,0,0,0,0-1.99Z" transform="translate(-233.159 -360.981)" fill="#fff"/>
        <path id="Trazado_888291" data-name="Trazado 888291" d="M115.676,450.2h29.659a1,1,0,0,0,0-1.99H115.676a1,1,0,0,0,0,1.99Z" transform="translate(-106.496 -388.734)" fill="#fff"/>
        <path id="Trazado_888292" data-name="Trazado 888292" d="M103.5,28.2h-2.061V2.588A2.591,2.591,0,0,0,98.847,0H64.808a1,1,0,0,0,0,1.99H98.847a.6.6,0,0,1,.6.6v9H54.99v-9a.6.6,0,0,1,.6-.6h4.678a1,1,0,1,0,0-1.99H55.588A2.591,2.591,0,0,0,53,2.588V65.354a2.591,2.591,0,0,0,2.588,2.588h43.26a2.591,2.591,0,0,0,2.588-2.588V61.532a1,1,0,0,0-1.99,0v3.821a.6.6,0,0,1-.6.6H55.588a.6.6,0,0,1-.6-.6V13.577H99.444V28.2H78.54a3.382,3.382,0,0,0-3.38,3.377V45.952a3.382,3.382,0,0,0,3.38,3.377h8.328a.557.557,0,0,1,.451.231L89.513,52.6a1.856,1.856,0,0,0,3.01,0l2.193-3.042a.557.557,0,0,1,.451-.23h4.277v7.414a1,1,0,0,0,1.99,0V49.329H103.5a3.382,3.382,0,0,0,3.38-3.377V31.576A3.382,3.382,0,0,0,103.5,28.2Zm1.389,17.754a1.39,1.39,0,0,1-1.389,1.387H95.168A2.552,2.552,0,0,0,93.1,48.4l-2.084,2.89L88.934,48.4a2.553,2.553,0,0,0-2.066-1.057H78.54a1.39,1.39,0,0,1-1.389-1.387V31.576a1.39,1.39,0,0,1,1.389-1.387H103.5a1.39,1.39,0,0,1,1.389,1.387Z" transform="translate(-53)" fill="#fff"/>
        <path id="Trazado_888293" data-name="Trazado 888293" d="M309.987,263.371l-5.6,5.688-2.9-2.986a1,1,0,0,0-1.427,1.387l3.611,3.716a1,1,0,0,0,.711.3h0a1,1,0,0,0,.709-.3l6.312-6.414a1,1,0,0,0-1.419-1.4Z" transform="translate(-267.031 -228.164)" fill="#fff"/>
      </g>
    </g>
  </g>
</svg>
