<svg xmlns="http://www.w3.org/2000/svg" width="80" height="80" viewBox="0 0 80 80">
  <g id="Grupo_1115466" data-name="Grupo 1115466" transform="translate(-628.14 -8646)">
    <rect id="Rectángulo_409530" data-name="Rectángulo 409530" width="80" height="80" transform="translate(628.14 8646)" fill="none"/>
    <path id="Trazado_888294" data-name="Trazado 888294" d="M38.7,49.969a.273.273,0,1,0-.272.277.279.279,0,0,0,.272-.277Zm2.383,0a2.657,2.657,0,1,1-2.656-2.66A2.657,2.657,0,0,1,41.085,49.969Zm-1.93-17.2a.812.812,0,0,0-.655-.287h-.145a.873.873,0,0,0-.874.968l.947,8.822.946-8.822a.824.824,0,0,0-.22-.681Zm1.772-1.586a3.161,3.161,0,0,1,.818,2.522L40.509,45.233a2.091,2.091,0,0,1-4.16,0L35.113,33.708A3.267,3.267,0,0,1,38.356,30.1H38.5a3.164,3.164,0,0,1,2.426,1.085ZM21.729,53.7a.851.851,0,0,1-.738-1.277L37.689,23.5a.855.855,0,0,1,1.479,0l16.7,28.924a.851.851,0,0,1-.738,1.277Zm33.4,2.383h-33.4a3.235,3.235,0,0,1-2.8-4.853l16.7-28.923a3.239,3.239,0,0,1,5.608,0l16.7,28.924a3.235,3.235,0,0,1-2.8,4.852ZM52.1,24.727a1.187,1.187,0,0,0,1.686,0l9.577-9.578v4.459a1.192,1.192,0,0,0,2.383,0V12.265a1.2,1.2,0,0,0-1.192-1.192H57.218a1.192,1.192,0,1,0,0,2.383h4.456L52.1,23.035a1.2,1.2,0,0,0,0,1.692ZM38.43,19.065a1.192,1.192,0,0,0,1.192-1.192V4.327l3.151,3.15A1.19,1.19,0,0,0,44.458,5.8L39.271.6a1.2,1.2,0,0,0-1.684,0L32.4,5.8a1.19,1.19,0,1,0,1.685,1.681l3.152-3.15V17.873a1.191,1.191,0,0,0,1.192,1.192Zm-17.6-6.8a1.2,1.2,0,0,0-1.192-1.192H12.306a1.2,1.2,0,0,0-1.192,1.192v7.343a1.192,1.192,0,1,0,2.383,0V15.149l9.577,9.578a1.187,1.187,0,0,0,1.686,0,1.2,1.2,0,0,0,0-1.692l-9.577-9.578H19.64a1.192,1.192,0,0,0,1.192-1.192Zm-15,32.159a1.215,1.215,0,0,0,1.687,0,1.2,1.2,0,0,0,0-1.692l-3.152-3.15H17.908a1.192,1.192,0,1,0,0-2.383H4.363l3.152-3.15a1.191,1.191,0,1,0-1.687-1.681L.643,37.55a1.189,1.189,0,0,0,0,1.681l5.186,5.193Zm6.478,11.568a1.192,1.192,0,0,0-1.192,1.192v7.332a1.192,1.192,0,0,0,1.192,1.192H19.64a1.192,1.192,0,1,0,0-2.383H15.184l4.469-4.469a1.191,1.191,0,1,0-1.687-1.681L13.5,61.643V57.184a1.192,1.192,0,0,0-1.192-1.192ZM38.43,57.726a1.191,1.191,0,0,0-1.192,1.192V72.454L34.087,69.3A1.19,1.19,0,1,0,32.4,70.986l5.186,5.193a1.185,1.185,0,0,0,1.684,0l5.187-5.193A1.19,1.19,0,1,0,42.773,69.3l-3.151,3.15V58.918a1.192,1.192,0,0,0-1.192-1.192Zm18.789,7.981h7.333a1.191,1.191,0,0,0,1.192-1.192V57.184a1.192,1.192,0,0,0-2.383,0v4.459l-4.469-4.469A1.191,1.191,0,1,0,57.2,58.855l4.471,4.469H57.218a1.192,1.192,0,1,0,0,2.383Zm13.81-33.34a1.19,1.19,0,1,0-1.685,1.681L72.5,37.2H58.951a1.192,1.192,0,1,0,0,2.383H72.5l-3.151,3.15a1.2,1.2,0,0,0,0,1.692,1.212,1.212,0,0,0,1.685,0l5.186-5.193a1.184,1.184,0,0,0,0-1.681Z" transform="translate(628.575 8647.605)" fill="#fff" fill-rule="evenodd"/>
  </g>
</svg>
