<svg xmlns="http://www.w3.org/2000/svg" width="85" height="85" viewBox="0 0 85 85">
  <g id="Grupo_1115767" data-name="Grupo 1115767" transform="translate(-179.625 -2281)">
    <rect id="Rectángulo_407620" data-name="Rectángulo 407620" width="85" height="85" rx="10" transform="translate(179.625 2281)" fill="#75b8fb"/>
    <g id="Grupo_1118471" data-name="Grupo 1118471" transform="translate(190.625 2291.976)">
      <path id="Trazado_889704" data-name="Trazado 889704" d="M20,33l4,4,4-4,12.986,2.164A6,6,0,0,1,46,41.083V62H2V41.083a6,6,0,0,1,5.014-5.918Z" fill="#e39854"/>
      <path id="Trazado_889705" data-name="Trazado 889705" d="M61,62H33a1,1,0,0,1-1-1V41a1,1,0,0,1,1-1H61a1,1,0,0,1,1,1V61A1,1,0,0,1,61,62Z" fill="#606060"/>
      <path id="Trazado_889706" data-name="Trazado 889706" d="M32,57.625c.066,0,.13.01.2.01A19.463,19.463,0,0,0,51.57,40H33a1,1,0,0,0-1,1Z" fill="#8c8787"/>
      <path id="Trazado_889707" data-name="Trazado 889707" d="M62,44a6,6,0,0,1-6,6H38a6,6,0,0,1-6-6V41a1,1,0,0,1,1-1H61a1,1,0,0,1,1,1Z" fill="#d5cec2"/>
      <path id="Trazado_889708" data-name="Trazado 889708" d="M51.57,40H33a1,1,0,0,0-1,1v3a6,6,0,0,0,6,6h9.629A19.34,19.34,0,0,0,51.57,40Z" fill="#e7e4dd"/>
      <path id="Trazado_889709" data-name="Trazado 889709" d="M62,58v3a1,1,0,0,1-1,1H33a1,1,0,0,1-1-1V58Z" fill="#d5cec2"/>
      <path id="Trazado_889710" data-name="Trazado 889710" d="M22,35l-1,3,2,3h2l2-3-1-3" fill="#d5cec2"/>
      <path id="Trazado_889711" data-name="Trazado 889711" d="M31,11l-1.6,1.2a9,9,0,0,1-10.8,0L17,11l-2,4v6a8.989,8.989,0,0,0,5,8.053V33l4,4,4-4V29.053A8.992,8.992,0,0,0,33,21V15Z" fill="#fadfb2"/>
      <path id="Trazado_889712" data-name="Trazado 889712" d="M33,16l1.151-2.667a7.078,7.078,0,0,0-3.566-9.245L27.8,2.817a9.088,9.088,0,0,0-9.218,1l-1.723,1.3a5.229,5.229,0,0,0-3.57,7.449L15,16V15l2-4,1.6,1.2a9,9,0,0,0,10.8,0L31,11l2,4Z" fill="#c18e59"/>
      <path id="Trazado_889713" data-name="Trazado 889713" d="M15,16H13a2,2,0,0,0,0,4h2" fill="#efbe9a"/>
      <path id="Trazado_889714" data-name="Trazado 889714" d="M33,16h2a2,2,0,0,1,0,4H33" fill="#efbe9a"/>
      <g id="Grupo_1118469" data-name="Grupo 1118469">
        <path id="Trazado_889715" data-name="Trazado 889715" d="M11,44h2V62H11Z" fill="#c16b3f"/>
      </g>
      <path id="Trazado_889716" data-name="Trazado 889716" d="M25,41l2,5L24,59,21,46l2-5" fill="#e7e4dd"/>
      <path id="Trazado_889717" data-name="Trazado 889717" d="M47,54a2,2,0,0,1-2-2V46h4v6A2,2,0,0,1,47,54Z" fill="#f2c351"/>
      <g id="Grupo_1118470" data-name="Grupo 1118470">
        <path id="Trazado_889718" data-name="Trazado 889718" d="M53,40V36a1,1,0,0,0-1-1H42a1,1,0,0,0-1,1v4H39V36a3,3,0,0,1,3-3H52a3,3,0,0,1,3,3v4Z" fill="#8c8787"/>
      </g>
      <path id="Trazado_889719" data-name="Trazado 889719" d="M49,47.962V46H45v6a2,2,0,0,0,.129.689A19.524,19.524,0,0,0,49,47.962Z" fill="#f7d881"/>
      <path id="Trazado_889720" data-name="Trazado 889720" d="M61,39H55V36a3,3,0,0,0-3-3H42a2.983,2.983,0,0,0-2.182.955L29,32.152V29.646A10,10,0,0,0,34,21h1a3,3,0,0,0,0-6h-.48l.548-1.271A8.078,8.078,0,0,0,31,3.178L28.207,1.907a10.251,10.251,0,0,0-10.231,1.11L16.4,4.2l0,0a6.221,6.221,0,0,0-4.013,8.811L13.382,15H13a3,3,0,0,0,0,6h1a10,10,0,0,0,5,8.647v2.506L6.849,34.177A6.978,6.978,0,0,0,1,41.082V62a1,1,0,0,0,1,1H61a2,2,0,0,0,2-2V41A2,2,0,0,0,61,39Zm0,5a5.006,5.006,0,0,1-5,5H50V46a1,1,0,0,0-1-1H45a1,1,0,0,0-1,1v3H38A5.005,5.005,0,0,1,33,44V41H61ZM33,48.888A6.977,6.977,0,0,0,38,51h6v1a3,3,0,0,0,6,0V51h6a6.978,6.978,0,0,0,5-2.111V57H33ZM46,52V47h2v5a1,1,0,0,1-1,1h0A1,1,0,0,1,46,52ZM41,36.195A5,5,0,0,1,44.53,39H41ZM53,36v3H46.669a7,7,0,0,0-3.238-4H52A1,1,0,0,1,53,36ZM36,18a1,1,0,0,1-1,1H34V17h1A1,1,0,0,1,36,18ZM14.334,8.053A4.248,4.248,0,0,1,17.96,6a4.671,4.671,0,0,1,3.893,2.083l.314.471,1.665-1.109-.314-.471a6.662,6.662,0,0,0-3.772-2.725,8.227,8.227,0,0,1,7.634-.523L30.171,5a6.08,6.08,0,0,1,3.062,7.939l-.068.158-1.27-2.541a1,1,0,0,0-.665-.526,1.013,1.013,0,0,0-.83.173l-1.6,1.2a8,8,0,0,1-9.6,0l-1.6-1.2a1.012,1.012,0,0,0-.83-.173,1,1,0,0,0-.665.526l-1.356,2.711-.572-1.144a4.207,4.207,0,0,1,.157-4.066ZM13,19a1,1,0,0,1,0-2h1v2Zm3,2V15.236l1.358-2.717L18,13a10,10,0,0,0,12,0l.641-.481L32,15.236V21a8,8,0,0,1-16,0Zm8,10a9.986,9.986,0,0,0,3-.461v2.047l-3,3-3-3V30.539A9.986,9.986,0,0,0,24,31Zm-.323,11h.646l1.633,4.08L24,54.552l-1.956-8.473ZM25.9,37.852,24.464,40h-.929L22.1,37.852l.333-1,.856.856a1,1,0,0,0,1.415,0l.856-.856ZM13,61V44H11V61H3V41.082A4.985,4.985,0,0,1,7.177,36.15l12.479-2.079,1.2,1.2-.8,2.413a1,1,0,0,0,.116.871l1.708,2.562-1.8,4.51a1,1,0,0,0-.046.6l3,13a1,1,0,0,0,1.949,0l3-13a1,1,0,0,0-.046-.6l-1.8-4.51,1.708-2.562a1,1,0,0,0,.116-.871l-.8-2.413,1.2-1.2,10.672,1.778c0,.051-.015.1-.015.151v3H33a2,2,0,0,0-2,2V61Zm21,0H33V59H61v2Z"/>
    </g>
  </g>
</svg>
